%TF.GenerationSoftware,KiCad,Pcbnew,8.0.8*%
%TF.CreationDate,2025-03-26T10:56:16-07:00*%
%TF.ProjectId,led_mapper_850,6c65645f-6d61-4707-9065-725f3835302e,rev?*%
%TF.SameCoordinates,Original*%
%TF.FileFunction,Copper,L4,Bot*%
%TF.FilePolarity,Positive*%
%FSLAX46Y46*%
G04 Gerber Fmt 4.6, Leading zero omitted, Abs format (unit mm)*
G04 Created by KiCad (PCBNEW 8.0.8) date 2025-03-26 10:56:16*
%MOMM*%
%LPD*%
G01*
G04 APERTURE LIST*
G04 Aperture macros list*
%AMRotRect*
0 Rectangle, with rotation*
0 The origin of the aperture is its center*
0 $1 length*
0 $2 width*
0 $3 Rotation angle, in degrees counterclockwise*
0 Add horizontal line*
21,1,$1,$2,0,0,$3*%
G04 Aperture macros list end*
%TA.AperFunction,SMDPad,CuDef*%
%ADD10RotRect,5.000000X1.270000X330.000000*%
%TD*%
%TA.AperFunction,ViaPad*%
%ADD11C,0.600000*%
%TD*%
%TA.AperFunction,Conductor*%
%ADD12C,0.200000*%
%TD*%
G04 APERTURE END LIST*
D10*
%TO.P,J1,1,Pin_1*%
%TO.N,/P1*%
X37250000Y-57198523D03*
%TO.P,J1,2,Pin_2*%
%TO.N,/P2*%
X38520000Y-54998817D03*
%TO.P,J1,3,Pin_3*%
%TO.N,/P3*%
X39790000Y-52799114D03*
%TO.P,J1,4,Pin_4*%
%TO.N,/P4*%
X41060000Y-50599410D03*
%TO.P,J1,5,Pin_5*%
%TO.N,/P5*%
X42330000Y-48399705D03*
%TO.P,J1,6,Pin_6*%
%TO.N,/P6*%
X43600000Y-46200000D03*
%TO.P,J1,7,Pin_7*%
%TO.N,/P7*%
X44870000Y-44000296D03*
%TO.P,J1,8,Pin_8*%
%TO.N,/P8*%
X46140000Y-41800591D03*
%TO.P,J1,9,Pin_9*%
%TO.N,/P9*%
X47410000Y-39600887D03*
%TO.P,J1,10,Pin_10*%
%TO.N,/P10*%
X48680000Y-37401182D03*
%TO.P,J1,11,Pin_11*%
%TO.N,/P11*%
X49950000Y-35201478D03*
%TO.P,J1,12,Pin_12*%
%TO.N,/P12*%
X51220000Y-33001773D03*
%TO.P,J1,13,Pin_13*%
%TO.N,/P13*%
X43346818Y-60718523D03*
%TO.P,J1,14,Pin_14*%
%TO.N,/P14*%
X44616818Y-58518818D03*
%TO.P,J1,15,Pin_15*%
%TO.N,/P15*%
X45886818Y-56319114D03*
%TO.P,J1,16,Pin_16*%
%TO.N,/P16*%
X47156818Y-54119409D03*
%TO.P,J1,17,Pin_17*%
%TO.N,/P17*%
X48426818Y-51919705D03*
%TO.P,J1,18,Pin_18*%
%TO.N,/P18*%
X49696818Y-49720000D03*
%TO.P,J1,19,Pin_19*%
%TO.N,/P19*%
X50966818Y-47520296D03*
%TO.P,J1,20,Pin_20*%
%TO.N,/P20*%
X52236818Y-45320591D03*
%TO.P,J1,21,Pin_21*%
%TO.N,/P21*%
X53506818Y-43120886D03*
%TO.P,J1,22,Pin_22*%
%TO.N,/P22*%
X54776818Y-40921182D03*
%TO.P,J1,23,Pin_23*%
%TO.N,/P23*%
X56046818Y-38721479D03*
%TO.P,J1,24,Pin_24*%
%TO.N,/P24*%
X57316818Y-36521773D03*
%TD*%
D11*
%TO.N,/P24*%
X19062000Y-21518014D03*
X26062000Y-9393658D03*
X62462000Y-2119045D03*
X47762000Y-27580192D03*
X54762000Y-15455836D03*
X2262000Y-50616467D03*
X51962000Y-20305578D03*
X29562000Y-3331480D03*
X43562000Y-34854805D03*
X37262000Y-45766725D03*
X39362000Y-42129418D03*
X49862000Y-23942885D03*
X30962000Y-906609D03*
X5062000Y-45766725D03*
X35162000Y-49404032D03*
X42862000Y-36067240D03*
X21862000Y-16668271D03*
X44262000Y-33642369D03*
X40762000Y-39704547D03*
X9262000Y-38492112D03*
X36562000Y-46979161D03*
X25362000Y-10606094D03*
X17662000Y-23942885D03*
X33762000Y-51828903D03*
X162000Y-54253774D03*
X16262000Y-26367756D03*
X24662000Y-11818529D03*
X20462000Y-19093143D03*
X33062000Y-53041338D03*
X42162000Y-37279676D03*
X14162000Y-30005063D03*
X10662000Y-36067240D03*
X30262000Y-2119045D03*
X41462000Y-38492112D03*
X55462000Y-14243400D03*
X862000Y-53041338D03*
X4362000Y-46979161D03*
X61062000Y-4543916D03*
X40062000Y-40916983D03*
X58262000Y-9393658D03*
X38662000Y-43341854D03*
X49162000Y-25155320D03*
X18362000Y-22730449D03*
X23262000Y-14243400D03*
X58962000Y-8181222D03*
X48462000Y-26367756D03*
X6462000Y-43341854D03*
X57562000Y-10606094D03*
X28862000Y-4543916D03*
X9962000Y-37279676D03*
X7862000Y-40916983D03*
X32362000Y-54253774D03*
X2962000Y-49404032D03*
X27462000Y-6968787D03*
X46362000Y-30005063D03*
X19762000Y-20305578D03*
X35862000Y-48191596D03*
X23962000Y-13030965D03*
X45662000Y-31217498D03*
X14862000Y-28792627D03*
X8562000Y-39704547D03*
X22562000Y-15455836D03*
X56862000Y-11818529D03*
X12062000Y-33642369D03*
X63162000Y-906609D03*
X59662000Y-6968787D03*
X7162000Y-42129418D03*
X61762000Y-3331480D03*
X16962000Y-25155320D03*
X3662000Y-48191596D03*
X60362000Y-5756351D03*
X13462000Y-31217498D03*
X11362000Y-34854805D03*
X63862000Y305826D03*
X28162000Y-5756351D03*
X5762000Y-44554289D03*
X56162000Y-13030965D03*
X47062000Y-28792627D03*
X12762000Y-32429934D03*
X26762000Y-8181222D03*
X44962000Y-32429934D03*
X37962000Y-44554289D03*
X54062000Y-16668271D03*
X51262000Y-21518014D03*
X34462000Y-50616467D03*
X21162000Y-17880707D03*
X59914894Y-38021772D03*
X52662000Y-19093143D03*
X50562000Y-22730449D03*
X1562000Y-51828903D03*
X53362000Y-17880707D03*
%TO.N,/P1*%
X30962000Y-3331480D03*
X14862000Y-31217498D03*
X-20838000Y-37279676D03*
X4362000Y-49404032D03*
X-13838000Y-25155320D03*
X-1938000Y-4543916D03*
X22562000Y-17880707D03*
X31662000Y-2119045D03*
X-4738000Y-9393658D03*
X-14538000Y-26367756D03*
X-18038000Y-32429934D03*
X26062000Y-11818529D03*
X-13138000Y-23942885D03*
X7862000Y-43341854D03*
X5762000Y-46979161D03*
X-7538000Y-14243400D03*
X-10338000Y-19093143D03*
X8562000Y-42129418D03*
X3662000Y-50616467D03*
X-2638000Y-5756351D03*
X25362000Y-13030965D03*
X23262000Y-16668271D03*
X9262000Y-40916983D03*
X-27838000Y-49404032D03*
X-6838000Y-13030965D03*
X20462000Y-21518014D03*
X-9638000Y-17880707D03*
X34651924Y-55698524D03*
X12762000Y-34854805D03*
X-22938000Y-40916983D03*
X-11038000Y-20305578D03*
X2962000Y-51828903D03*
X-15938000Y-28792627D03*
X-16638000Y-30005063D03*
X162000Y-906609D03*
X21162000Y-20305578D03*
X19062000Y-23942885D03*
X19762000Y-22730449D03*
X29562000Y-5756351D03*
X28162000Y-8181222D03*
X28862000Y-6968787D03*
X-22238000Y-39704547D03*
X6462000Y-45766725D03*
X13462000Y-33642369D03*
X11362000Y-37279676D03*
X27462000Y-9393658D03*
X2262000Y-53041338D03*
X-12438000Y-22730449D03*
X-25038000Y-44554289D03*
X-29938000Y-53041338D03*
X-8938000Y-16668271D03*
X10662000Y-38492112D03*
X-20138000Y-36067240D03*
X-28538000Y-50616467D03*
X18362000Y-25155320D03*
X-15238000Y-27580192D03*
X32362000Y-906609D03*
X24662000Y-14243400D03*
X-6138000Y-11818529D03*
X16262000Y-28792627D03*
X-538000Y-2119045D03*
X-11738000Y-21518014D03*
X-21538000Y-38492112D03*
X12062000Y-36067240D03*
X-27138000Y-48191596D03*
X-29238000Y-51828903D03*
X-17338000Y-31217498D03*
X-18738000Y-33642369D03*
X7162000Y-44554289D03*
X26762000Y-10606094D03*
X-3338000Y-6968787D03*
X-23638000Y-42129418D03*
X-25738000Y-45766725D03*
X-26438000Y-46979161D03*
X-8238000Y-15455836D03*
X21862000Y-19093143D03*
X16962000Y-27580192D03*
X9962000Y-39704547D03*
X14162000Y-32429934D03*
X862000Y305826D03*
X30262000Y-4543916D03*
X23962000Y-15455836D03*
X-19438000Y-34854805D03*
X-24338000Y-43341854D03*
X5062000Y-48191596D03*
X-5438000Y-10606094D03*
X33062000Y305826D03*
X-1238000Y-3331480D03*
X-4038000Y-8181222D03*
X-30638000Y-54253774D03*
X15562000Y-30005063D03*
%TO.N,/P2*%
X162000Y-3331480D03*
X-20138000Y-38492112D03*
X-16638000Y-32429934D03*
X9962000Y-42129418D03*
X-25038000Y-46979161D03*
X-10338000Y-21518014D03*
X-20838000Y-39704547D03*
X5762000Y-49404032D03*
X-24338000Y-45766725D03*
X862000Y-2119045D03*
X-21538000Y-40916983D03*
X20462000Y-23942885D03*
X-13838000Y-27580192D03*
X-11738000Y-23942885D03*
X-26438000Y-49404032D03*
X14162000Y-34854805D03*
X16262000Y-31217498D03*
X31662000Y-4543916D03*
X-8238000Y-17880707D03*
X22562000Y-20305578D03*
X-1238000Y-5756351D03*
X17662000Y-28792627D03*
X9262000Y-43341854D03*
X25362000Y-15455836D03*
X-22938000Y-43341854D03*
X-22238000Y-42129418D03*
X-27838000Y-51828903D03*
X-2638000Y-8181222D03*
X30962000Y-5756351D03*
X23962000Y-17880707D03*
X7162000Y-46979161D03*
X16962000Y-30005063D03*
X29562000Y-8181222D03*
X-13138000Y-26367756D03*
X-9638000Y-20305578D03*
X24662000Y-16668271D03*
X33762000Y-906609D03*
X2262000Y305826D03*
X18362000Y-27580192D03*
X-4738000Y-11818529D03*
X14862000Y-33642369D03*
X-18738000Y-36067240D03*
X-4038000Y-10606094D03*
X17662000Y-26367756D03*
X10662000Y-40916983D03*
X21862000Y-21518014D03*
X-15238000Y-30005063D03*
X-27138000Y-50616467D03*
X33062000Y-2119045D03*
X-8938000Y-19093143D03*
X-23638000Y-44554289D03*
X-28538000Y-53041338D03*
X-3338000Y-9393658D03*
X28862000Y-9393658D03*
X-25738000Y-48191596D03*
X-7538000Y-16668271D03*
X-15938000Y-31217498D03*
X8562000Y-44554289D03*
X-1938000Y-6968787D03*
X21162000Y-22730449D03*
X-5438000Y-13030965D03*
X7862000Y-45766725D03*
X-19438000Y-37279676D03*
X5062000Y-50616467D03*
X23262000Y-19093143D03*
X-6838000Y-15455836D03*
X-18038000Y-34854805D03*
X30262000Y-6968787D03*
X28162000Y-10606094D03*
X34462000Y305826D03*
X26762000Y-13030965D03*
X1562000Y-54253774D03*
X12762000Y-37279676D03*
X4362000Y-51828903D03*
X-12438000Y-25155320D03*
X-538000Y-4543916D03*
X-17338000Y-33642369D03*
X-29238000Y-54253774D03*
X-6138000Y-14243400D03*
X1562000Y-906609D03*
X32362000Y-3331480D03*
X-11038000Y-22730449D03*
X-14538000Y-28792627D03*
X26062000Y-14243400D03*
X12062000Y-38492112D03*
X13462000Y-36067240D03*
X15562000Y-32429934D03*
X6462000Y-48191596D03*
X35921924Y-53498818D03*
%TO.N,/P3*%
X-7538000Y-19093143D03*
X34462000Y-2119045D03*
X-20138000Y-40916983D03*
X-24338000Y-48191596D03*
X2962000Y-906609D03*
X31662000Y-6968787D03*
X30962000Y-8181222D03*
X162000Y-5756351D03*
X-25738000Y-50616467D03*
X-13138000Y-28792627D03*
X1562000Y-3331480D03*
X-21538000Y-43341854D03*
X15562000Y-34854805D03*
X30262000Y-9393658D03*
X27462000Y-14243400D03*
X32362000Y-5756351D03*
X-25038000Y-49404032D03*
X-2638000Y-10606094D03*
X11362000Y-42129418D03*
X3662000Y-53041338D03*
X7862000Y-48191596D03*
X-27138000Y-53041338D03*
X-15238000Y-32429934D03*
X14862000Y-36067240D03*
X-1938000Y-9393658D03*
X26762000Y-15455836D03*
X-15938000Y-33642369D03*
X-22238000Y-44554289D03*
X-19438000Y-39704547D03*
X33062000Y-4543916D03*
X-8238000Y-20305578D03*
X-3338000Y-11818529D03*
X-5438000Y-15455836D03*
X28162000Y-13030965D03*
X-16638000Y-34854805D03*
X18362000Y-30005063D03*
X11362000Y-39704547D03*
X-22938000Y-45766725D03*
X19062000Y-26367756D03*
X-12438000Y-27580192D03*
X-11738000Y-26367756D03*
X2962000Y-54253774D03*
X-14538000Y-31217498D03*
X33762000Y-3331480D03*
X-6138000Y-16668271D03*
X35862000Y305826D03*
X-23638000Y-46979161D03*
X16262000Y-33642369D03*
X-6838000Y-17880707D03*
X6462000Y-50616467D03*
X-1238000Y-8181222D03*
X12062000Y-40916983D03*
X19762000Y-25155320D03*
X9962000Y-44554289D03*
X-10338000Y-23942885D03*
X24662000Y-19093143D03*
X862000Y-4543916D03*
X9262000Y-45766725D03*
X16962000Y-32429934D03*
X19062000Y-28792627D03*
X-8938000Y-21518014D03*
X-18038000Y-37279676D03*
X2262000Y-2119045D03*
X27462000Y-11818529D03*
X8562000Y-46979161D03*
X37191924Y-51299115D03*
X14162000Y-37279676D03*
X-26438000Y-51828903D03*
X26062000Y-16668271D03*
X23262000Y-21518014D03*
X-4738000Y-14243400D03*
X17662000Y-31217498D03*
X3662000Y305826D03*
X-11038000Y-25155320D03*
X-4038000Y-13030965D03*
X23962000Y-20305578D03*
X-9638000Y-22730449D03*
X22562000Y-22730449D03*
X19762000Y-27580192D03*
X-13838000Y-30005063D03*
X-18738000Y-38492112D03*
X-538000Y-6968787D03*
X-20838000Y-42129418D03*
X-27838000Y-54253774D03*
X10662000Y-43341854D03*
X7162000Y-49404032D03*
X-17338000Y-36067240D03*
X25362000Y-17880707D03*
X35162000Y-906609D03*
%TO.N,/P4*%
X9962000Y-46979161D03*
X28862000Y-11818529D03*
X21162000Y-27580192D03*
X29562000Y-13030965D03*
X-2638000Y-13030965D03*
X33762000Y-5756351D03*
X20462000Y-26367756D03*
X-10338000Y-26367756D03*
X-5438000Y-17880707D03*
X8562000Y-49404032D03*
X5762000Y-51828903D03*
X3662000Y-2119045D03*
X-22238000Y-46979161D03*
X-8938000Y-23942885D03*
X25362000Y-20305578D03*
X-11038000Y-27580192D03*
X27462000Y-16668271D03*
X19762000Y-30005063D03*
X38461924Y-49099411D03*
X29562000Y-10606094D03*
X-23638000Y-49404032D03*
X26762000Y-17880707D03*
X16962000Y-34854805D03*
X34462000Y-4543916D03*
X-16638000Y-37279676D03*
X-24338000Y-50616467D03*
X-20138000Y-43341854D03*
X17662000Y-33642369D03*
X-21538000Y-45766725D03*
X162000Y-8181222D03*
X21162000Y-25155320D03*
X24662000Y-21518014D03*
X9262000Y-48191596D03*
X13462000Y-40916983D03*
X-4038000Y-15455836D03*
X-13838000Y-32429934D03*
X19062000Y-31217498D03*
X5062000Y305826D03*
X-1938000Y-11818529D03*
X-15938000Y-36067240D03*
X-22938000Y-48191596D03*
X-7538000Y-21518014D03*
X11362000Y-44554289D03*
X26062000Y-19093143D03*
X-13138000Y-31217498D03*
X33062000Y-6968787D03*
X12762000Y-39704547D03*
X32362000Y-8181222D03*
X-11738000Y-28792627D03*
X-17338000Y-38492112D03*
X-8238000Y-22730449D03*
X-9638000Y-25155320D03*
X-3338000Y-14243400D03*
X35162000Y-3331480D03*
X-12438000Y-30005063D03*
X12062000Y-43341854D03*
X-6138000Y-19093143D03*
X18362000Y-32429934D03*
X28862000Y-14243400D03*
X-25738000Y-53041338D03*
X-18738000Y-40916983D03*
X-25038000Y-51828903D03*
X-538000Y-9393658D03*
X-4738000Y-16668271D03*
X-1238000Y-10606094D03*
X20462000Y-28792627D03*
X10662000Y-45766725D03*
X-26438000Y-54253774D03*
X36562000Y-906609D03*
X28162000Y-15455836D03*
X-19438000Y-42129418D03*
X-15238000Y-34854805D03*
X2962000Y-3331480D03*
X-18038000Y-39704547D03*
X4362000Y-54253774D03*
X-20838000Y-44554289D03*
X12762000Y-42129418D03*
X-14538000Y-33642369D03*
X2262000Y-4543916D03*
X5062000Y-53041338D03*
X37262000Y305826D03*
X1562000Y-5756351D03*
X35862000Y-2119045D03*
X13462000Y-38492112D03*
X16262000Y-36067240D03*
X21862000Y-23942885D03*
X4362000Y-906609D03*
X862000Y-6968787D03*
X-6838000Y-20305578D03*
%TO.N,/P5*%
X-5438000Y-20305578D03*
X37262000Y-2119045D03*
X-8938000Y-26367756D03*
X39731924Y-46899706D03*
X11362000Y-46979161D03*
X21862000Y-28792627D03*
X-9638000Y-27580192D03*
X-22938000Y-50616467D03*
X-4038000Y-17880707D03*
X-3338000Y-16668271D03*
X-7538000Y-23942885D03*
X19062000Y-33642369D03*
X21162000Y-30005063D03*
X-24338000Y-53041338D03*
X28862000Y-16668271D03*
X-25038000Y-54253774D03*
X-16638000Y-39704547D03*
X-6138000Y-21518014D03*
X862000Y-9393658D03*
X2262000Y-6968787D03*
X10662000Y-48191596D03*
X-1938000Y-14243400D03*
X1562000Y-8181222D03*
X-8238000Y-25155320D03*
X6462000Y-53041338D03*
X3662000Y-4543916D03*
X-4738000Y-19093143D03*
X34462000Y-6968787D03*
X-18038000Y-42129418D03*
X27462000Y-19093143D03*
X162000Y-10606094D03*
X-22238000Y-49404032D03*
X28162000Y-17880707D03*
X26762000Y-20305578D03*
X14162000Y-39704547D03*
X37962000Y-906609D03*
X38662000Y305826D03*
X-14538000Y-36067240D03*
X-19438000Y-44554289D03*
X30962000Y-10606094D03*
X35862000Y-4543916D03*
X-12438000Y-32429934D03*
X18362000Y-34854805D03*
X5762000Y-906609D03*
X6462000Y305826D03*
X5062000Y-2119045D03*
X5762000Y-54253774D03*
X2962000Y-5756351D03*
X-20138000Y-45766725D03*
X14862000Y-38492112D03*
X30262000Y-14243400D03*
X-1238000Y-13030965D03*
X31662000Y-9393658D03*
X12762000Y-44554289D03*
X30262000Y-11818529D03*
X-15938000Y-38492112D03*
X-6838000Y-22730449D03*
X-21538000Y-48191596D03*
X-2638000Y-15455836D03*
X14862000Y-40916983D03*
X15562000Y-37279676D03*
X21862000Y-26367756D03*
X-13138000Y-33642369D03*
X7862000Y-50616467D03*
X30962000Y-13030965D03*
X-538000Y-11818529D03*
X-13838000Y-34854805D03*
X29562000Y-15455836D03*
X19762000Y-32429934D03*
X20462000Y-31217498D03*
X-15238000Y-37279676D03*
X14162000Y-42129418D03*
X-23638000Y-51828903D03*
X35162000Y-5756351D03*
X23262000Y-23942885D03*
X-18738000Y-43341854D03*
X-20838000Y-46979161D03*
X22562000Y-25155320D03*
X12062000Y-45766725D03*
X-17338000Y-40916983D03*
X22562000Y-27580192D03*
X13462000Y-43341854D03*
X36562000Y-3331480D03*
X7162000Y-51828903D03*
X23962000Y-22730449D03*
X4362000Y-3331480D03*
X-11038000Y-30005063D03*
X-11738000Y-31217498D03*
X-10338000Y-28792627D03*
%TO.N,/P6*%
X-20838000Y-49404032D03*
X20462000Y-33642369D03*
X2262000Y-9393658D03*
X-5438000Y-22730449D03*
X7162000Y-906609D03*
X14862000Y-43341854D03*
X14162000Y-44554289D03*
X29562000Y-17880707D03*
X-22238000Y-51828903D03*
X2962000Y-8181222D03*
X33762000Y-8181222D03*
X16262000Y-40916983D03*
X31662000Y-11818529D03*
X-7538000Y-26367756D03*
X23262000Y-28792627D03*
X6462000Y-2119045D03*
X-19438000Y-46979161D03*
X36562000Y-5756351D03*
X4362000Y-5756351D03*
X-12438000Y-34854805D03*
X-16638000Y-42129418D03*
X38662000Y-2119045D03*
X-23638000Y-54253774D03*
X9962000Y-49404032D03*
X40062000Y305826D03*
X23962000Y-25155320D03*
X1562000Y-10606094D03*
X-1238000Y-15455836D03*
X5062000Y-4543916D03*
X28862000Y-19093143D03*
X8562000Y-51828903D03*
X-8238000Y-27580192D03*
X-11038000Y-32429934D03*
X-13838000Y-37279676D03*
X-18738000Y-45766725D03*
X-538000Y-14243400D03*
X-21538000Y-50616467D03*
X32362000Y-10606094D03*
X13462000Y-45766725D03*
X-9638000Y-30005063D03*
X-6838000Y-25155320D03*
X17662000Y-36067240D03*
X-4038000Y-20305578D03*
X-13138000Y-36067240D03*
X21162000Y-32429934D03*
X41001924Y-44700001D03*
X-15238000Y-39704547D03*
X31662000Y-14243400D03*
X-6138000Y-23942885D03*
X26062000Y-21518014D03*
X5762000Y-3331480D03*
X21862000Y-31217498D03*
X-2638000Y-17880707D03*
X16962000Y-37279676D03*
X-20138000Y-48191596D03*
X-15938000Y-40916983D03*
X15562000Y-39704547D03*
X-4738000Y-21518014D03*
X39362000Y-906609D03*
X-17338000Y-43341854D03*
X7162000Y-54253774D03*
X12762000Y-46979161D03*
X23262000Y-26367756D03*
X33062000Y-9393658D03*
X37262000Y-4543916D03*
X24662000Y-23942885D03*
X7862000Y-53041338D03*
X9262000Y-50616467D03*
X-11738000Y-33642369D03*
X30962000Y-15455836D03*
X-1938000Y-16668271D03*
X22562000Y-30005063D03*
X30262000Y-16668271D03*
X-18038000Y-44554289D03*
X-22938000Y-53041338D03*
X3662000Y-6968787D03*
X25362000Y-22730449D03*
X-14538000Y-38492112D03*
X-8938000Y-28792627D03*
X37962000Y-3331480D03*
X23962000Y-27580192D03*
X7862000Y305826D03*
X862000Y-11818529D03*
X-10338000Y-31217498D03*
X-3338000Y-19093143D03*
X16262000Y-38492112D03*
X162000Y-13030965D03*
X32362000Y-13030965D03*
X15562000Y-42129418D03*
%TO.N,/P7*%
X-6838000Y-27580192D03*
X-1938000Y-19093143D03*
X7162000Y-3331480D03*
X8562000Y-54253774D03*
X31662000Y-16668271D03*
X40062000Y-2119045D03*
X-3338000Y-21518014D03*
X22562000Y-32429934D03*
X-4038000Y-22730449D03*
X38662000Y-4543916D03*
X-20138000Y-50616467D03*
X9262000Y305826D03*
X17662000Y-38492112D03*
X-15938000Y-43341854D03*
X33762000Y-10606094D03*
X32362000Y-15455836D03*
X35162000Y-8181222D03*
X16962000Y-42129418D03*
X33762000Y-13030965D03*
X-10338000Y-33642369D03*
X-5438000Y-25155320D03*
X34462000Y-9393658D03*
X-22238000Y-54253774D03*
X9962000Y-51828903D03*
X26762000Y-22730449D03*
X-14538000Y-40916983D03*
X-538000Y-16668271D03*
X33062000Y-14243400D03*
X862000Y-14243400D03*
X4362000Y-8181222D03*
X-17338000Y-45766725D03*
X10662000Y-50616467D03*
X-20838000Y-51828903D03*
X-8938000Y-31217498D03*
X-6138000Y-26367756D03*
X15562000Y-44554289D03*
X3662000Y-9393658D03*
X-12438000Y-37279676D03*
X-2638000Y-20305578D03*
X5762000Y-5756351D03*
X1562000Y-13030965D03*
X17662000Y-40916983D03*
X2962000Y-10606094D03*
X-8238000Y-30005063D03*
X23962000Y-30005063D03*
X42271924Y-42500297D03*
X8562000Y-906609D03*
X12062000Y-48191596D03*
X-13838000Y-39704547D03*
X-1238000Y-17880707D03*
X40762000Y-906609D03*
X6462000Y-4543916D03*
X7862000Y-2119045D03*
X28162000Y-20305578D03*
X162000Y-15455836D03*
X24662000Y-28792627D03*
X9262000Y-53041338D03*
X-18038000Y-46979161D03*
X-7538000Y-28792627D03*
X-9638000Y-32429934D03*
X-11738000Y-36067240D03*
X30962000Y-17880707D03*
X-15238000Y-42129418D03*
X-16638000Y-44554289D03*
X33062000Y-11818529D03*
X41462000Y305826D03*
X23262000Y-31217498D03*
X-21538000Y-53041338D03*
X-4738000Y-23942885D03*
X25362000Y-27580192D03*
X-11038000Y-34854805D03*
X-19438000Y-49404032D03*
X14862000Y-45766725D03*
X19062000Y-36067240D03*
X11362000Y-49404032D03*
X26062000Y-23942885D03*
X-13138000Y-38492112D03*
X-18738000Y-48191596D03*
X35862000Y-6968787D03*
X25362000Y-25155320D03*
X39362000Y-3331480D03*
X27462000Y-21518014D03*
X16262000Y-43341854D03*
X19762000Y-34854805D03*
X18362000Y-37279676D03*
X24662000Y-26367756D03*
X2262000Y-11818529D03*
X5062000Y-6968787D03*
X16962000Y-39704547D03*
%TO.N,/P8*%
X-7538000Y-31217498D03*
X-2638000Y-22730449D03*
X2962000Y-13030965D03*
X-15238000Y-44554289D03*
X-18038000Y-49404032D03*
X-4738000Y-26367756D03*
X-15938000Y-45766725D03*
X12062000Y-50616467D03*
X40762000Y-3331480D03*
X-12438000Y-39704547D03*
X12762000Y-49404032D03*
X28162000Y-22730449D03*
X-6138000Y-28792627D03*
X-13138000Y-40916983D03*
X20462000Y-36067240D03*
X26062000Y-28792627D03*
X42162000Y-906609D03*
X-6838000Y-30005063D03*
X11362000Y-51828903D03*
X162000Y-17880707D03*
X30262000Y-19093143D03*
X33762000Y-15455836D03*
X-20838000Y-54253774D03*
X36562000Y-8181222D03*
X5062000Y-9393658D03*
X29562000Y-20305578D03*
X-5438000Y-27580192D03*
X-19438000Y-51828903D03*
X-13838000Y-42129418D03*
X1562000Y-15455836D03*
X37962000Y-5756351D03*
X41462000Y-2119045D03*
X14162000Y-46979161D03*
X17662000Y-43341854D03*
X19062000Y-38492112D03*
X13462000Y-48191596D03*
X9962000Y-54253774D03*
X-16638000Y-46979161D03*
X37262000Y-6968787D03*
X-4038000Y-25155320D03*
X19062000Y-40916983D03*
X862000Y-16668271D03*
X-11038000Y-37279676D03*
X-14538000Y-43341854D03*
X3662000Y-11818529D03*
X9262000Y-2119045D03*
X25362000Y-30005063D03*
X34462000Y-11818529D03*
X10662000Y305826D03*
X-1238000Y-20305578D03*
X28862000Y-21518014D03*
X7162000Y-5756351D03*
X-1938000Y-21518014D03*
X21162000Y-34854805D03*
X18362000Y-42129418D03*
X-3338000Y-23942885D03*
X26762000Y-27580192D03*
X-18738000Y-50616467D03*
X9962000Y-906609D03*
X33062000Y-16668271D03*
X6462000Y-6968787D03*
X5762000Y-8181222D03*
X4362000Y-10606094D03*
X-538000Y-19093143D03*
X35862000Y-9393658D03*
X43541924Y-40300592D03*
X26062000Y-26367756D03*
X21862000Y-33642369D03*
X10662000Y-53041338D03*
X-10338000Y-36067240D03*
X18362000Y-39704547D03*
X-9638000Y-34854805D03*
X19762000Y-37279676D03*
X16962000Y-44554289D03*
X7862000Y-4543916D03*
X8562000Y-3331480D03*
X-20138000Y-53041338D03*
X-8238000Y-32429934D03*
X42862000Y305826D03*
X2262000Y-14243400D03*
X35162000Y-10606094D03*
X34462000Y-14243400D03*
X-17338000Y-48191596D03*
X27462000Y-23942885D03*
X-8938000Y-33642369D03*
X24662000Y-31217498D03*
X26762000Y-25155320D03*
X-11738000Y-38492112D03*
X35162000Y-13030965D03*
%TO.N,/P9*%
X21862000Y-36067240D03*
X28862000Y-23942885D03*
X38662000Y-6968787D03*
X19762000Y-39704547D03*
X30962000Y-20305578D03*
X-17338000Y-50616467D03*
X37962000Y-8181222D03*
X-18038000Y-51828903D03*
X7862000Y-6968787D03*
X-1238000Y-22730449D03*
X32362000Y-17880707D03*
X27462000Y-28792627D03*
X20462000Y-38492112D03*
X31662000Y-19093143D03*
X36562000Y-13030965D03*
X4362000Y-13030965D03*
X-11038000Y-39704547D03*
X-1938000Y-23942885D03*
X-10338000Y-38492112D03*
X-6138000Y-31217498D03*
X11362000Y-54253774D03*
X9962000Y-3331480D03*
X36562000Y-10606094D03*
X22562000Y-34854805D03*
X15562000Y-46979161D03*
X-4038000Y-27580192D03*
X19062000Y-43341854D03*
X13462000Y-50616467D03*
X6462000Y-9393658D03*
X8562000Y-5756351D03*
X-16638000Y-49404032D03*
X-4738000Y-28792627D03*
X-538000Y-21518014D03*
X-12438000Y-42129418D03*
X37262000Y-9393658D03*
X28162000Y-25155320D03*
X44811924Y-38100888D03*
X40062000Y-4543916D03*
X39362000Y-5756351D03*
X-2638000Y-25155320D03*
X28162000Y-27580192D03*
X35862000Y-14243400D03*
X20462000Y-40916983D03*
X12062000Y305826D03*
X-11738000Y-40916983D03*
X5062000Y-11818529D03*
X11362000Y-906609D03*
X-8238000Y-34854805D03*
X14862000Y-48191596D03*
X23262000Y-33642369D03*
X19762000Y-42129418D03*
X10662000Y-2119045D03*
X-15938000Y-48191596D03*
X2962000Y-15455836D03*
X23962000Y-32429934D03*
X-15238000Y-46979161D03*
X-5438000Y-30005063D03*
X12762000Y-51828903D03*
X26762000Y-30005063D03*
X2262000Y-16668271D03*
X-19438000Y-54253774D03*
X43562000Y-906609D03*
X162000Y-20305578D03*
X29562000Y-22730449D03*
X5762000Y-10606094D03*
X7162000Y-8181222D03*
X-6838000Y-32429934D03*
X16262000Y-45766725D03*
X862000Y-19093143D03*
X44262000Y305826D03*
X30262000Y-21518014D03*
X21162000Y-37279676D03*
X-14538000Y-45766725D03*
X-13838000Y-44554289D03*
X-13138000Y-43341854D03*
X42862000Y-2119045D03*
X-7538000Y-33642369D03*
X-3338000Y-26367756D03*
X-8938000Y-36067240D03*
X3662000Y-14243400D03*
X27462000Y-26367756D03*
X-18738000Y-53041338D03*
X35862000Y-11818529D03*
X9262000Y-4543916D03*
X35162000Y-15455836D03*
X14162000Y-49404032D03*
X-9638000Y-37279676D03*
X1562000Y-17880707D03*
X12062000Y-53041338D03*
%TO.N,/P10*%
X13462000Y305826D03*
X-8938000Y-38492112D03*
X14162000Y-51828903D03*
X21862000Y-38492112D03*
X162000Y-22730449D03*
X30262000Y-23942885D03*
X12762000Y-54253774D03*
X28862000Y-26367756D03*
X30962000Y-22730449D03*
X21162000Y-39704547D03*
X21862000Y-40916983D03*
X12062000Y-2119045D03*
X32362000Y-20305578D03*
X23262000Y-36067240D03*
X37962000Y-10606094D03*
X-15238000Y-49404032D03*
X-538000Y-23942885D03*
X33062000Y-19093143D03*
X31662000Y-21518014D03*
X23962000Y-34854805D03*
X38662000Y-9393658D03*
X45662000Y305826D03*
X862000Y-21518014D03*
X-1938000Y-26367756D03*
X25362000Y-32429934D03*
X-11038000Y-42129418D03*
X33762000Y-17880707D03*
X-4038000Y-30005063D03*
X9962000Y-5756351D03*
X-18038000Y-54253774D03*
X46081924Y-35901183D03*
X40062000Y-6968787D03*
X-11738000Y-43341854D03*
X10662000Y-4543916D03*
X5062000Y-14243400D03*
X6462000Y-11818529D03*
X3662000Y-16668271D03*
X41462000Y-4543916D03*
X42162000Y-3331480D03*
X44962000Y-906609D03*
X-12438000Y-44554289D03*
X-13838000Y-46979161D03*
X7162000Y-10606094D03*
X18362000Y-44554289D03*
X2262000Y-19093143D03*
X16962000Y-46979161D03*
X22562000Y-37279676D03*
X2962000Y-17880707D03*
X15562000Y-49404032D03*
X39362000Y-8181222D03*
X-8238000Y-37279676D03*
X5762000Y-13030965D03*
X29562000Y-25155320D03*
X26062000Y-31217498D03*
X37962000Y-13030965D03*
X7862000Y-9393658D03*
X4362000Y-15455836D03*
X16262000Y-48191596D03*
X-9638000Y-39704547D03*
X40762000Y-5756351D03*
X11362000Y-3331480D03*
X14862000Y-50616467D03*
X-6138000Y-33642369D03*
X-10338000Y-40916983D03*
X-4738000Y-31217498D03*
X8562000Y-8181222D03*
X1562000Y-20305578D03*
X24662000Y-33642369D03*
X13462000Y-53041338D03*
X-2638000Y-27580192D03*
X28862000Y-28792627D03*
X21162000Y-42129418D03*
X-16638000Y-51828903D03*
X-6838000Y-34854805D03*
X-3338000Y-28792627D03*
X-5438000Y-32429934D03*
X-13138000Y-45766725D03*
X37262000Y-14243400D03*
X37262000Y-11818529D03*
X34462000Y-16668271D03*
X9262000Y-6968787D03*
X-15938000Y-50616467D03*
X-17338000Y-53041338D03*
X12762000Y-906609D03*
X-1238000Y-25155320D03*
X-14538000Y-48191596D03*
X29562000Y-27580192D03*
X-7538000Y-36067240D03*
X17662000Y-45766725D03*
%TO.N,/P11*%
X35862000Y-16668271D03*
X2262000Y-21518014D03*
X-9638000Y-42129418D03*
X14862000Y-53041338D03*
X-7538000Y-38492112D03*
X24662000Y-36067240D03*
X12762000Y-3331480D03*
X47062000Y305826D03*
X14162000Y-906609D03*
X26062000Y-33642369D03*
X16262000Y-50616467D03*
X34462000Y-19093143D03*
X-14538000Y-50616467D03*
X10662000Y-6968787D03*
X8562000Y-10606094D03*
X-5438000Y-34854805D03*
X5762000Y-15455836D03*
X19762000Y-44554289D03*
X23962000Y-37279676D03*
X25362000Y-34854805D03*
X13462000Y-2119045D03*
X36562000Y-15455836D03*
X30962000Y-25155320D03*
X30962000Y-27580192D03*
X-15238000Y-51828903D03*
X12062000Y-4543916D03*
X39362000Y-13030965D03*
X-8238000Y-39704547D03*
X1562000Y-22730449D03*
X9962000Y-8181222D03*
X39362000Y-10606094D03*
X-12438000Y-46979161D03*
X-6138000Y-36067240D03*
X19062000Y-45766725D03*
X31662000Y-23942885D03*
X-1238000Y-27580192D03*
X14162000Y-54253774D03*
X162000Y-25155320D03*
X11362000Y-5756351D03*
X-16638000Y-54253774D03*
X26762000Y-32429934D03*
X7862000Y-11818529D03*
X47351924Y-33701479D03*
X44262000Y-2119045D03*
X-8938000Y-40916983D03*
X17662000Y-48191596D03*
X42162000Y-5756351D03*
X35162000Y-17880707D03*
X43562000Y-3331480D03*
X-11738000Y-45766725D03*
X6462000Y-14243400D03*
X30262000Y-26367756D03*
X41462000Y-6968787D03*
X22562000Y-39704547D03*
X-4738000Y-33642369D03*
X20462000Y-43341854D03*
X-13838000Y-49404032D03*
X7162000Y-13030965D03*
X-13138000Y-48191596D03*
X33062000Y-21518014D03*
X38662000Y-11818529D03*
X18362000Y-46979161D03*
X-6838000Y-37279676D03*
X32362000Y-22730449D03*
X-3338000Y-31217498D03*
X40062000Y-9393658D03*
X-2638000Y-30005063D03*
X-15938000Y-53041338D03*
X40762000Y-8181222D03*
X16962000Y-49404032D03*
X-538000Y-26367756D03*
X-11038000Y-44554289D03*
X-1938000Y-28792627D03*
X862000Y-23942885D03*
X5062000Y-16668271D03*
X4362000Y-17880707D03*
X23262000Y-40916983D03*
X33762000Y-20305578D03*
X3662000Y-19093143D03*
X-4038000Y-32429934D03*
X-10338000Y-43341854D03*
X27462000Y-31217498D03*
X2962000Y-20305578D03*
X42862000Y-4543916D03*
X15562000Y-51828903D03*
X9262000Y-9393658D03*
X23262000Y-38492112D03*
X14862000Y305826D03*
X28162000Y-30005063D03*
%TO.N,/P12*%
X5762000Y-17880707D03*
X24662000Y-38492112D03*
X27462000Y-33642369D03*
X43562000Y-5756351D03*
X-13838000Y-51828903D03*
X12762000Y-5756351D03*
X44262000Y-4543916D03*
X48621924Y-31501774D03*
X40762000Y-10606094D03*
X-8238000Y-42129418D03*
X31662000Y-26367756D03*
X-10338000Y-45766725D03*
X14862000Y-2119045D03*
X20462000Y-45766725D03*
X28862000Y-31217498D03*
X-8938000Y-43341854D03*
X162000Y-27580192D03*
X15562000Y-54253774D03*
X-6138000Y-38492112D03*
X-11738000Y-48191596D03*
X-14538000Y-53041338D03*
X46362000Y-906609D03*
X35162000Y-20305578D03*
X33762000Y-22730449D03*
X30262000Y-28792627D03*
X-12438000Y-49404032D03*
X862000Y-26367756D03*
X3662000Y-21518014D03*
X9262000Y-11818529D03*
X17662000Y-50616467D03*
X34462000Y-21518014D03*
X-11038000Y-46979161D03*
X-4738000Y-36067240D03*
X37962000Y-15455836D03*
X26062000Y-36067240D03*
X44962000Y-3331480D03*
X6462000Y-16668271D03*
X-3338000Y-33642369D03*
X-2638000Y-32429934D03*
X-1938000Y-31217498D03*
X32362000Y-25155320D03*
X45662000Y-2119045D03*
X9962000Y-10606094D03*
X1562000Y-25155320D03*
X16262000Y305826D03*
X-15238000Y-54253774D03*
X-1238000Y-30005063D03*
X-7538000Y-40916983D03*
X13462000Y-4543916D03*
X2262000Y-23942885D03*
X41462000Y-9393658D03*
X15562000Y-906609D03*
X7162000Y-15455836D03*
X8562000Y-13030965D03*
X25362000Y-37279676D03*
X19062000Y-48191596D03*
X12062000Y-6968787D03*
X28162000Y-32429934D03*
X26762000Y-34854805D03*
X-4038000Y-34854805D03*
X21162000Y-44554289D03*
X4362000Y-20305578D03*
X-538000Y-28792627D03*
X18362000Y-49404032D03*
X7862000Y-14243400D03*
X-5438000Y-37279676D03*
X16262000Y-53041338D03*
X42862000Y-6968787D03*
X35862000Y-19093143D03*
X14162000Y-3331480D03*
X33062000Y-23942885D03*
X11362000Y-8181222D03*
X-6838000Y-39704547D03*
X16962000Y-51828903D03*
X22562000Y-42129418D03*
X37262000Y-16668271D03*
X21862000Y-43341854D03*
X19762000Y-46979161D03*
X2962000Y-22730449D03*
X29562000Y-30005063D03*
X38662000Y-14243400D03*
X42162000Y-8181222D03*
X5062000Y-19093143D03*
X23962000Y-39704547D03*
X40062000Y-11818529D03*
X36562000Y-17880707D03*
X-9638000Y-44554289D03*
X-13138000Y-50616467D03*
X10662000Y-9393658D03*
%TO.N,/P13*%
X17662000Y305826D03*
X30262000Y-31217498D03*
X-4038000Y-37279676D03*
X28862000Y-33642369D03*
X5062000Y-21518014D03*
X-11738000Y-50616467D03*
X4362000Y-22730449D03*
X44262000Y-6968787D03*
X16262000Y-2119045D03*
X35162000Y-22730449D03*
X862000Y-28792627D03*
X20462000Y-48191596D03*
X-2638000Y-34854805D03*
X23262000Y-43341854D03*
X8562000Y-15455836D03*
X39362000Y-15455836D03*
X-9638000Y-46979161D03*
X162000Y-30005063D03*
X2962000Y-25155320D03*
X21862000Y-45766725D03*
X9262000Y-14243400D03*
X45944894Y-62218522D03*
X33762000Y-25155320D03*
X37262000Y-19093143D03*
X-6838000Y-42129418D03*
X16962000Y-54253774D03*
X26762000Y-37279676D03*
X11362000Y-10606094D03*
X14862000Y-4543916D03*
X43562000Y-8181222D03*
X-8238000Y-44554289D03*
X-538000Y-31217498D03*
X-3338000Y-36067240D03*
X19062000Y-50616467D03*
X32362000Y-27580192D03*
X13462000Y-6968787D03*
X6462000Y-19093143D03*
X40062000Y-14243400D03*
X-12438000Y-51828903D03*
X36562000Y-20305578D03*
X-1238000Y-32429934D03*
X-11038000Y-49404032D03*
X40762000Y-13030965D03*
X18362000Y-51828903D03*
X21162000Y-46979161D03*
X25362000Y-39704547D03*
X33062000Y-26367756D03*
X22562000Y-44554289D03*
X37962000Y-17880707D03*
X27462000Y-36067240D03*
X15562000Y-3331480D03*
X35862000Y-21518014D03*
X7162000Y-17880707D03*
X-10338000Y-48191596D03*
X-1938000Y-33642369D03*
X-5438000Y-39704547D03*
X-8938000Y-45766725D03*
X3662000Y-23942885D03*
X31662000Y-28792627D03*
X41462000Y-11818529D03*
X-7538000Y-43341854D03*
X30962000Y-30005063D03*
X48462000Y305826D03*
X17662000Y-53041338D03*
X19762000Y-49404032D03*
X44962000Y-5756351D03*
X38662000Y-16668271D03*
X34462000Y-23942885D03*
X26062000Y-38492112D03*
X12062000Y-9393658D03*
X24662000Y-40916983D03*
X42862000Y-9393658D03*
X28162000Y-34854805D03*
X47062000Y-2119045D03*
X23962000Y-42129418D03*
X42162000Y-10606094D03*
X10662000Y-11818529D03*
X-4738000Y-38492112D03*
X12762000Y-8181222D03*
X29562000Y-32429934D03*
X14162000Y-5756351D03*
X46362000Y-3331480D03*
X1562000Y-27580192D03*
X45662000Y-4543916D03*
X5762000Y-20305578D03*
X16962000Y-906609D03*
X-13138000Y-53041338D03*
X47762000Y-906609D03*
X7862000Y-16668271D03*
%TO.N,/P14*%
X9262000Y-16668271D03*
X10662000Y-14243400D03*
X13462000Y-9393658D03*
X5062000Y-23942885D03*
X42162000Y-13030965D03*
X40062000Y-16668271D03*
X39362000Y-17880707D03*
X-11038000Y-51828903D03*
X35162000Y-25155320D03*
X5762000Y-22730449D03*
X30962000Y-32429934D03*
X37962000Y-20305578D03*
X25362000Y-42129418D03*
X23962000Y-44554289D03*
X31662000Y-31217498D03*
X-6138000Y-40916983D03*
X9962000Y-13030965D03*
X33062000Y-28792627D03*
X-2638000Y-37279676D03*
X19762000Y-51828903D03*
X28162000Y-37279676D03*
X46362000Y-5756351D03*
X6462000Y-21518014D03*
X7862000Y-19093143D03*
X14162000Y-8181222D03*
X47214894Y-60018817D03*
X42862000Y-11818529D03*
X-10338000Y-50616467D03*
X18362000Y-906609D03*
X-1238000Y-34854805D03*
X7162000Y-20305578D03*
X-3338000Y-38492112D03*
X2962000Y-27580192D03*
X37262000Y-21518014D03*
X162000Y-32429934D03*
X48462000Y-2119045D03*
X862000Y-31217498D03*
X44962000Y-8181222D03*
X24662000Y-43341854D03*
X-1938000Y-36067240D03*
X-6838000Y-44554289D03*
X2262000Y-28792627D03*
X1562000Y-30005063D03*
X26762000Y-39704547D03*
X9962000Y-15455836D03*
X-5438000Y-42129418D03*
X44262000Y-9393658D03*
X19062000Y305826D03*
X41462000Y-14243400D03*
X33762000Y-27580192D03*
X35862000Y-23942885D03*
X26062000Y-40916983D03*
X17662000Y-2119045D03*
X16962000Y-3331480D03*
X40762000Y-15455836D03*
X15562000Y-5756351D03*
X-6138000Y-43341854D03*
X32362000Y-30005063D03*
X20462000Y-50616467D03*
X43562000Y-10606094D03*
X49862000Y305826D03*
X18362000Y-54253774D03*
X2262000Y-26367756D03*
X14862000Y-6968787D03*
X23262000Y-45766725D03*
X38662000Y-19093143D03*
X34462000Y-26367756D03*
X47062000Y-4543916D03*
X-8938000Y-48191596D03*
X-7538000Y-45766725D03*
X12762000Y-10606094D03*
X-8238000Y-46979161D03*
X28862000Y-36067240D03*
X8562000Y-17880707D03*
X29562000Y-34854805D03*
X21862000Y-48191596D03*
X27462000Y-38492112D03*
X36562000Y-22730449D03*
X-538000Y-33642369D03*
X16262000Y-4543916D03*
X45662000Y-6968787D03*
X-13838000Y-54253774D03*
X47762000Y-3331480D03*
X-9638000Y-49404032D03*
X19062000Y-53041338D03*
X22562000Y-46979161D03*
X30262000Y-33642369D03*
X21162000Y-49404032D03*
X49162000Y-906609D03*
%TO.N,/P15*%
X1562000Y-32429934D03*
X41462000Y-16668271D03*
X16962000Y-5756351D03*
X43562000Y-13030965D03*
X48462000Y-4543916D03*
X37962000Y-22730449D03*
X49162000Y-3331480D03*
X48484894Y-57819113D03*
X9962000Y-17880707D03*
X-5438000Y-44554289D03*
X12062000Y-14243400D03*
X29562000Y-37279676D03*
X47762000Y-5756351D03*
X23962000Y-46979161D03*
X3662000Y-26367756D03*
X47062000Y-6968787D03*
X19762000Y-906609D03*
X50562000Y-906609D03*
X2962000Y-30005063D03*
X51262000Y305826D03*
X39362000Y-20305578D03*
X-6838000Y-46979161D03*
X32362000Y-32429934D03*
X-4738000Y-43341854D03*
X-7538000Y-48191596D03*
X40762000Y-17880707D03*
X-8938000Y-50616467D03*
X19762000Y-54253774D03*
X17662000Y-4543916D03*
X40062000Y-19093143D03*
X38662000Y-21518014D03*
X30262000Y-36067240D03*
X26762000Y-42129418D03*
X12062000Y-11818529D03*
X46362000Y-8181222D03*
X21162000Y-51828903D03*
X36562000Y-25155320D03*
X18362000Y-3331480D03*
X4362000Y-25155320D03*
X10662000Y-16668271D03*
X44262000Y-11818529D03*
X16262000Y-6968787D03*
X45662000Y-9393658D03*
X31662000Y-33642369D03*
X28162000Y-39704547D03*
X-4038000Y-39704547D03*
X11362000Y-13030965D03*
X7862000Y-21518014D03*
X20462000Y305826D03*
X9262000Y-19093143D03*
X11362000Y-15455836D03*
X49862000Y-2119045D03*
X15562000Y-8181222D03*
X35862000Y-26367756D03*
X37262000Y-23942885D03*
X862000Y-33642369D03*
X44962000Y-10606094D03*
X3662000Y-28792627D03*
X22562000Y-49404032D03*
X2262000Y-31217498D03*
X33762000Y-30005063D03*
X-8238000Y-49404032D03*
X23262000Y-48191596D03*
X30962000Y-34854805D03*
X28862000Y-38492112D03*
X-11738000Y-53041338D03*
X-4738000Y-40916983D03*
X162000Y-34854805D03*
X19062000Y-2119045D03*
X25362000Y-44554289D03*
X-1238000Y-37279676D03*
X35162000Y-27580192D03*
X20462000Y-53041338D03*
X24662000Y-45766725D03*
X27462000Y-40916983D03*
X33062000Y-31217498D03*
X34462000Y-28792627D03*
X26062000Y-43341854D03*
X-6138000Y-45766725D03*
X42162000Y-15455836D03*
X-4038000Y-42129418D03*
X8562000Y-20305578D03*
X21862000Y-50616467D03*
X-12438000Y-54253774D03*
X14862000Y-9393658D03*
X4362000Y-27580192D03*
X-538000Y-36067240D03*
X42862000Y-14243400D03*
X7162000Y-22730449D03*
%TO.N,/P16*%
X-6838000Y-49404032D03*
X3662000Y-31217498D03*
X21162000Y-906609D03*
X32362000Y-34854805D03*
X-10338000Y-53041338D03*
X-3338000Y-40916983D03*
X34462000Y-31217498D03*
X-6138000Y-48191596D03*
X14162000Y-10606094D03*
X10662000Y-19093143D03*
X-1938000Y-38492112D03*
X-5438000Y-46979161D03*
X13462000Y-14243400D03*
X49162000Y-5756351D03*
X13462000Y-11818529D03*
X46362000Y-10606094D03*
X48462000Y-6968787D03*
X47062000Y-9393658D03*
X50562000Y-3331480D03*
X-9638000Y-51828903D03*
X42162000Y-17880707D03*
X-4738000Y-45766725D03*
X31662000Y-36067240D03*
X38662000Y-23942885D03*
X40762000Y-20305578D03*
X19062000Y-4543916D03*
X9962000Y-20305578D03*
X33762000Y-32429934D03*
X28162000Y-42129418D03*
X41462000Y-19093143D03*
X30262000Y-38492112D03*
X2262000Y-33642369D03*
X-3338000Y-43341854D03*
X42862000Y-16668271D03*
X37262000Y-26367756D03*
X44262000Y-14243400D03*
X51262000Y-2119045D03*
X25362000Y-46979161D03*
X26062000Y-45766725D03*
X30962000Y-37279676D03*
X20462000Y-2119045D03*
X12762000Y-13030965D03*
X16962000Y-8181222D03*
X1562000Y-34854805D03*
X12062000Y-16668271D03*
X21862000Y-53041338D03*
X27462000Y-43341854D03*
X-2638000Y-42129418D03*
X39362000Y-22730449D03*
X35162000Y-30005063D03*
X23262000Y-50616467D03*
X-2638000Y-39704547D03*
X-4038000Y-44554289D03*
X5062000Y-28792627D03*
X5062000Y-26367756D03*
X28862000Y-40916983D03*
X36562000Y-27580192D03*
X33062000Y-33642369D03*
X21162000Y-54253774D03*
X11362000Y-17880707D03*
X9262000Y-21518014D03*
X19762000Y-3331480D03*
X49862000Y-4543916D03*
X23962000Y-49404032D03*
X43562000Y-15455836D03*
X49754894Y-55619408D03*
X47762000Y-8181222D03*
X44962000Y-13030965D03*
X18362000Y-5756351D03*
X4362000Y-30005063D03*
X52662000Y305826D03*
X2962000Y-32429934D03*
X29562000Y-39704547D03*
X12762000Y-15455836D03*
X51962000Y-906609D03*
X40062000Y-21518014D03*
X-11038000Y-54253774D03*
X5762000Y-27580192D03*
X35862000Y-28792627D03*
X37962000Y-25155320D03*
X5762000Y-25155320D03*
X45662000Y-11818529D03*
X24662000Y-48191596D03*
X6462000Y-23942885D03*
X21862000Y305826D03*
X22562000Y-51828903D03*
X17662000Y-6968787D03*
X862000Y-36067240D03*
X26762000Y-44554289D03*
%TO.N,/P17*%
X5762000Y-30005063D03*
X41462000Y-21518014D03*
X-4738000Y-48191596D03*
X3662000Y-33642369D03*
X-1238000Y-39704547D03*
X53362000Y-906609D03*
X4362000Y-32429934D03*
X28162000Y-44554289D03*
X30262000Y-40916983D03*
X14862000Y-11818529D03*
X37262000Y-28792627D03*
X42162000Y-20305578D03*
X162000Y-37279676D03*
X-538000Y-38492112D03*
X32362000Y-37279676D03*
X-9638000Y-54253774D03*
X44262000Y-16668271D03*
X34462000Y-33642369D03*
X21162000Y-3331480D03*
X28862000Y-43341854D03*
X33762000Y-34854805D03*
X35162000Y-32429934D03*
X-3338000Y-45766725D03*
X7162000Y-27580192D03*
X25362000Y-49404032D03*
X38662000Y-26367756D03*
X39362000Y-25155320D03*
X14862000Y-14243400D03*
X21862000Y-2119045D03*
X7162000Y-25155320D03*
X43562000Y-17880707D03*
X50562000Y-5756351D03*
X40062000Y-23942885D03*
X26062000Y-48191596D03*
X29562000Y-42129418D03*
X5062000Y-31217498D03*
X45662000Y-14243400D03*
X19762000Y-5756351D03*
X24662000Y-50616467D03*
X35862000Y-31217498D03*
X22562000Y-906609D03*
X-1238000Y-42129418D03*
X15562000Y-10606094D03*
X48462000Y-9393658D03*
X51024894Y-53419704D03*
X51962000Y-3331480D03*
X6462000Y-28792627D03*
X-7538000Y-50616467D03*
X-1938000Y-43341854D03*
X54062000Y305826D03*
X40762000Y-22730449D03*
X-8938000Y-53041338D03*
X47762000Y-10606094D03*
X11362000Y-20305578D03*
X8562000Y-22730449D03*
X14162000Y-13030965D03*
X49162000Y-8181222D03*
X47062000Y-11818529D03*
X20462000Y-4543916D03*
X2962000Y-34854805D03*
X31662000Y-38492112D03*
X7862000Y-23942885D03*
X44962000Y-15455836D03*
X-8238000Y-51828903D03*
X16262000Y-9393658D03*
X46362000Y-13030965D03*
X51262000Y-4543916D03*
X13462000Y-16668271D03*
X27462000Y-45766725D03*
X19062000Y-6968787D03*
X6462000Y-26367756D03*
X49862000Y-6968787D03*
X23262000Y305826D03*
X52662000Y-2119045D03*
X14162000Y-15455836D03*
X-1938000Y-40916983D03*
X26762000Y-46979161D03*
X23262000Y-53041338D03*
X-2638000Y-44554289D03*
X30962000Y-39704547D03*
X23962000Y-51828903D03*
X42862000Y-19093143D03*
X22562000Y-54253774D03*
X36562000Y-30005063D03*
X12062000Y-19093143D03*
X37962000Y-27580192D03*
X-4038000Y-46979161D03*
X33062000Y-36067240D03*
X12762000Y-17880707D03*
%TO.N,/P18*%
X21862000Y-4543916D03*
X47062000Y-14243400D03*
X35862000Y-33642369D03*
X2262000Y-36067240D03*
X39362000Y-27580192D03*
X28862000Y-45766725D03*
X162000Y-39704547D03*
X23962000Y-906609D03*
X29562000Y-44554289D03*
X42862000Y-21518014D03*
X30962000Y-42129418D03*
X862000Y-38492112D03*
X1562000Y-37279676D03*
X8562000Y-25155320D03*
X43562000Y-20305578D03*
X-7538000Y-53041338D03*
X32362000Y-39704547D03*
X52662000Y-4543916D03*
X8562000Y-27580192D03*
X7162000Y-30005063D03*
X16262000Y-11818529D03*
X49162000Y-10606094D03*
X25362000Y-51828903D03*
X28162000Y-46979161D03*
X162000Y-42129418D03*
X7862000Y-26367756D03*
X-1938000Y-45766725D03*
X9962000Y-22730449D03*
X36562000Y-32429934D03*
X5762000Y-32429934D03*
X44262000Y-19093143D03*
X10662000Y-21518014D03*
X33062000Y-38492112D03*
X40062000Y-26367756D03*
X54762000Y-906609D03*
X-538000Y-43341854D03*
X31662000Y-40916983D03*
X-8238000Y-54253774D03*
X52294894Y-51219999D03*
X38662000Y-28792627D03*
X26062000Y-50616467D03*
X23262000Y-2119045D03*
X24662000Y305826D03*
X9262000Y-23942885D03*
X55462000Y305826D03*
X21162000Y-5756351D03*
X51262000Y-6968787D03*
X47762000Y-13030965D03*
X46362000Y-15455836D03*
X6462000Y-31217498D03*
X40762000Y-25155320D03*
X15562000Y-15455836D03*
X53362000Y-3331480D03*
X15562000Y-13030965D03*
X49862000Y-9393658D03*
X14162000Y-17880707D03*
X26762000Y-49404032D03*
X22562000Y-3331480D03*
X34462000Y-36067240D03*
X30262000Y-43341854D03*
X-1238000Y-44554289D03*
X45662000Y-16668271D03*
X33762000Y-37279676D03*
X18362000Y-8181222D03*
X24662000Y-53041338D03*
X44962000Y-17880707D03*
X54062000Y-2119045D03*
X35162000Y-34854805D03*
X23962000Y-54253774D03*
X17662000Y-9393658D03*
X48462000Y-11818529D03*
X41462000Y-23942885D03*
X16262000Y-14243400D03*
X7862000Y-28792627D03*
X13462000Y-19093143D03*
X5062000Y-33642369D03*
X-6138000Y-50616467D03*
X16962000Y-10606094D03*
X-2638000Y-46979161D03*
X-6838000Y-51828903D03*
X37962000Y-30005063D03*
X-538000Y-40916983D03*
X37262000Y-31217498D03*
X27462000Y-48191596D03*
X-5438000Y-49404032D03*
X42162000Y-22730449D03*
X51962000Y-5756351D03*
X14862000Y-16668271D03*
X50562000Y-8181222D03*
%TO.N,/P19*%
X-6838000Y-54253774D03*
X53564894Y-49020295D03*
X16962000Y-13030965D03*
X30262000Y-45766725D03*
X30962000Y-44554289D03*
X47062000Y-16668271D03*
X-3338000Y-48191596D03*
X29562000Y-46979161D03*
X19762000Y-8181222D03*
X45662000Y-19093143D03*
X42862000Y-23942885D03*
X9962000Y-27580192D03*
X25362000Y-54253774D03*
X49862000Y-11818529D03*
X25362000Y-906609D03*
X42162000Y-25155320D03*
X-4738000Y-50616467D03*
X37262000Y-33642369D03*
X23262000Y-4543916D03*
X34462000Y-38492112D03*
X47762000Y-15455836D03*
X-5438000Y-51828903D03*
X50562000Y-10606094D03*
X49162000Y-13030965D03*
X862000Y-40916983D03*
X27462000Y-50616467D03*
X28162000Y-49404032D03*
X37962000Y-32429934D03*
X26762000Y-51828903D03*
X39362000Y-30005063D03*
X1562000Y-39704547D03*
X52662000Y-6968787D03*
X162000Y-44554289D03*
X1562000Y-42129418D03*
X3662000Y-36067240D03*
X43562000Y-22730449D03*
X33762000Y-39704547D03*
X24662000Y-2119045D03*
X26062000Y-53041338D03*
X48462000Y-14243400D03*
X7162000Y-32429934D03*
X15562000Y-17880707D03*
X10662000Y-23942885D03*
X17662000Y-14243400D03*
X31662000Y-43341854D03*
X28862000Y-48191596D03*
X2262000Y-38492112D03*
X32362000Y-42129418D03*
X40062000Y-28792627D03*
X12762000Y-20305578D03*
X26062000Y305826D03*
X9262000Y-28792627D03*
X35162000Y-37279676D03*
X-6138000Y-53041338D03*
X40762000Y-27580192D03*
X51962000Y-8181222D03*
X17662000Y-11818529D03*
X4362000Y-34854805D03*
X55462000Y-2119045D03*
X41462000Y-26367756D03*
X-4038000Y-49404032D03*
X7862000Y-31217498D03*
X-538000Y-45766725D03*
X18362000Y-10606094D03*
X33062000Y-40916983D03*
X56862000Y305826D03*
X9962000Y-25155320D03*
X19062000Y-9393658D03*
X36562000Y-34854805D03*
X12062000Y-21518014D03*
X8562000Y-30005063D03*
X16962000Y-15455836D03*
X44962000Y-20305578D03*
X54062000Y-4543916D03*
X38662000Y-31217498D03*
X11362000Y-22730449D03*
X23962000Y-3331480D03*
X20462000Y-6968787D03*
X51262000Y-9393658D03*
X862000Y-43341854D03*
X35862000Y-36067240D03*
X9262000Y-26367756D03*
X56162000Y-906609D03*
X16262000Y-16668271D03*
X46362000Y-17880707D03*
X44262000Y-21518014D03*
X2962000Y-37279676D03*
X53362000Y-5756351D03*
X54762000Y-3331480D03*
%TO.N,/P20*%
X31662000Y-45766725D03*
X30262000Y-48191596D03*
X-1938000Y-48191596D03*
X26762000Y-54253774D03*
X34462000Y-40916983D03*
X10662000Y-28792627D03*
X-5438000Y-54253774D03*
X43562000Y-25155320D03*
X27462000Y305826D03*
X21862000Y-6968787D03*
X51262000Y-11818529D03*
X51962000Y-10606094D03*
X-2638000Y-49404032D03*
X1562000Y-44554289D03*
X19062000Y-11818529D03*
X21162000Y-8181222D03*
X44262000Y-23942885D03*
X37962000Y-34854805D03*
X32362000Y-44554289D03*
X18362000Y-13030965D03*
X5062000Y-36067240D03*
X56862000Y-2119045D03*
X10662000Y-26367756D03*
X47762000Y-17880707D03*
X47062000Y-19093143D03*
X49162000Y-15455836D03*
X-1238000Y-46979161D03*
X11362000Y-27580192D03*
X-4038000Y-51828903D03*
X28162000Y-51828903D03*
X28862000Y-50616467D03*
X25362000Y-3331480D03*
X40762000Y-30005063D03*
X9962000Y-30005063D03*
X2262000Y-40916983D03*
X45662000Y-21518014D03*
X30962000Y-46979161D03*
X14862000Y-19093143D03*
X46362000Y-20305578D03*
X35162000Y-39704547D03*
X29562000Y-49404032D03*
X42862000Y-26367756D03*
X11362000Y-25155320D03*
X41462000Y-28792627D03*
X53362000Y-8181222D03*
X54062000Y-6968787D03*
X18362000Y-15455836D03*
X36562000Y-37279676D03*
X2962000Y-39704547D03*
X57562000Y-906609D03*
X27462000Y-53041338D03*
X4362000Y-37279676D03*
X48462000Y-16668271D03*
X52662000Y-9393658D03*
X3662000Y-38492112D03*
X2962000Y-42129418D03*
X14162000Y-20305578D03*
X33062000Y-43341854D03*
X-4738000Y-53041338D03*
X55462000Y-4543916D03*
X19762000Y-10606094D03*
X12062000Y-23942885D03*
X56162000Y-3331480D03*
X38662000Y-33642369D03*
X13462000Y-21518014D03*
X22562000Y-5756351D03*
X6462000Y-33642369D03*
X-3338000Y-50616467D03*
X40062000Y-31217498D03*
X42162000Y-27580192D03*
X37262000Y-36067240D03*
X9262000Y-31217498D03*
X35862000Y-38492112D03*
X12762000Y-22730449D03*
X44962000Y-22730449D03*
X5762000Y-34854805D03*
X26762000Y-906609D03*
X33762000Y-42129418D03*
X49862000Y-14243400D03*
X54834894Y-46820590D03*
X2262000Y-43341854D03*
X58262000Y305826D03*
X50562000Y-13030965D03*
X20462000Y-9393658D03*
X26062000Y-2119045D03*
X19062000Y-14243400D03*
X17662000Y-16668271D03*
X39362000Y-32429934D03*
X54762000Y-5756351D03*
%TO.N,/P21*%
X32362000Y-46979161D03*
X42862000Y-28792627D03*
X42162000Y-30005063D03*
X-538000Y-48191596D03*
X11362000Y-30005063D03*
X47762000Y-20305578D03*
X23962000Y-5756351D03*
X-1938000Y-50616467D03*
X49162000Y-17880707D03*
X24662000Y-4543916D03*
X57562000Y-3331480D03*
X27462000Y-2119045D03*
X22562000Y-8181222D03*
X56162000Y-5756351D03*
X37262000Y-38492112D03*
X56104894Y-44620885D03*
X58962000Y-906609D03*
X162000Y-46979161D03*
X21862000Y-9393658D03*
X54062000Y-9393658D03*
X39362000Y-34854805D03*
X12762000Y-27580192D03*
X29562000Y-51828903D03*
X862000Y-45766725D03*
X28862000Y-53041338D03*
X30262000Y-50616467D03*
X56862000Y-4543916D03*
X8562000Y-32429934D03*
X52662000Y-11818529D03*
X50562000Y-15455836D03*
X54762000Y-8181222D03*
X20462000Y-11818529D03*
X4362000Y-39704547D03*
X20462000Y-14243400D03*
X-3338000Y-53041338D03*
X12762000Y-25155320D03*
X34462000Y-43341854D03*
X51962000Y-13030965D03*
X12062000Y-26367756D03*
X14162000Y-22730449D03*
X14862000Y-21518014D03*
X47062000Y-21518014D03*
X23262000Y-6968787D03*
X49862000Y-16668271D03*
X59662000Y305826D03*
X53362000Y-10606094D03*
X33062000Y-45766725D03*
X36562000Y-39704547D03*
X44962000Y-25155320D03*
X5062000Y-38492112D03*
X37962000Y-37279676D03*
X43562000Y-27580192D03*
X48462000Y-19093143D03*
X19762000Y-15455836D03*
X33762000Y-44554289D03*
X-1238000Y-49404032D03*
X13462000Y-23942885D03*
X4362000Y-42129418D03*
X5762000Y-37279676D03*
X15562000Y-20305578D03*
X44262000Y-26367756D03*
X38662000Y-36067240D03*
X12062000Y-28792627D03*
X-2638000Y-51828903D03*
X16962000Y-17880707D03*
X35862000Y-40916983D03*
X40762000Y-32429934D03*
X45662000Y-23942885D03*
X55462000Y-6968787D03*
X16262000Y-19093143D03*
X19762000Y-13030965D03*
X40062000Y-33642369D03*
X51262000Y-14243400D03*
X46362000Y-22730449D03*
X6462000Y-36067240D03*
X7862000Y-33642369D03*
X58262000Y-2119045D03*
X28162000Y-906609D03*
X28162000Y-54253774D03*
X41462000Y-31217498D03*
X-4038000Y-54253774D03*
X35162000Y-42129418D03*
X3662000Y-43341854D03*
X28862000Y305826D03*
X7162000Y-34854805D03*
X30962000Y-49404032D03*
X21162000Y-10606094D03*
X3662000Y-40916983D03*
X31662000Y-48191596D03*
%TO.N,/P22*%
X54062000Y-11818529D03*
X9262000Y-33642369D03*
X862000Y-48191596D03*
X5762000Y-39704547D03*
X26062000Y-4543916D03*
X53362000Y-13030965D03*
X40762000Y-34854805D03*
X6462000Y-38492112D03*
X50562000Y-17880707D03*
X30262000Y-53041338D03*
X57562000Y-5756351D03*
X-2638000Y-54253774D03*
X26762000Y-3331480D03*
X16262000Y-21518014D03*
X7862000Y-36067240D03*
X42162000Y-32429934D03*
X29562000Y-54253774D03*
X39362000Y-37279676D03*
X45662000Y-26367756D03*
X5062000Y-40916983D03*
X13462000Y-26367756D03*
X19062000Y-16668271D03*
X36562000Y-42129418D03*
X47062000Y-23942885D03*
X21862000Y-14243400D03*
X57374894Y-42421181D03*
X9962000Y-32429934D03*
X13462000Y-28792627D03*
X16962000Y-20305578D03*
X37262000Y-40916983D03*
X47762000Y-22730449D03*
X43562000Y-30005063D03*
X29562000Y-906609D03*
X51962000Y-15455836D03*
X2262000Y-45766725D03*
X23262000Y-9393658D03*
X14162000Y-25155320D03*
X7162000Y-37279676D03*
X49862000Y-19093143D03*
X37962000Y-39704547D03*
X30262000Y305826D03*
X33762000Y-46979161D03*
X44262000Y-28792627D03*
X-538000Y-50616467D03*
X56162000Y-8181222D03*
X48462000Y-21518014D03*
X35162000Y-44554289D03*
X35862000Y-43341854D03*
X54762000Y-10606094D03*
X-1238000Y-51828903D03*
X38662000Y-38492112D03*
X23962000Y-8181222D03*
X42862000Y-31217498D03*
X32362000Y-49404032D03*
X31662000Y-50616467D03*
X21862000Y-11818529D03*
X46362000Y-25155320D03*
X1562000Y-46979161D03*
X30962000Y-51828903D03*
X59662000Y-2119045D03*
X60362000Y-906609D03*
X2962000Y-44554289D03*
X40062000Y-36067240D03*
X5762000Y-42129418D03*
X51262000Y-16668271D03*
X14162000Y-27580192D03*
X33062000Y-48191596D03*
X34462000Y-45766725D03*
X162000Y-49404032D03*
X22562000Y-10606094D03*
X-1938000Y-53041338D03*
X61062000Y305826D03*
X17662000Y-19093143D03*
X55462000Y-9393658D03*
X14862000Y-23942885D03*
X10662000Y-31217498D03*
X44962000Y-27580192D03*
X8562000Y-34854805D03*
X18362000Y-17880707D03*
X52662000Y-14243400D03*
X58962000Y-3331480D03*
X25362000Y-5756351D03*
X15562000Y-22730449D03*
X56862000Y-6968787D03*
X58262000Y-4543916D03*
X21162000Y-13030965D03*
X49162000Y-20305578D03*
X41462000Y-33642369D03*
X24662000Y-6968787D03*
%TO.N,/P23*%
X47762000Y-25155320D03*
X42862000Y-33642369D03*
X14862000Y-26367756D03*
X18362000Y-20305578D03*
X12062000Y-31217498D03*
X34462000Y-48191596D03*
X56162000Y-10606094D03*
X10662000Y-33642369D03*
X30962000Y-54253774D03*
X-1238000Y-54253774D03*
X16962000Y-22730449D03*
X38662000Y-40916983D03*
X43562000Y-32429934D03*
X11362000Y-32429934D03*
X36562000Y-44554289D03*
X58262000Y-6968787D03*
X15562000Y-25155320D03*
X4362000Y-44554289D03*
X25362000Y-8181222D03*
X49862000Y-21518014D03*
X33762000Y-49404032D03*
X42162000Y-34854805D03*
X2262000Y-48191596D03*
X48462000Y-23942885D03*
X35162000Y-46979161D03*
X40062000Y-38492112D03*
X57562000Y-8181222D03*
X31662000Y305826D03*
X61062000Y-2119045D03*
X3662000Y-45766725D03*
X862000Y-50616467D03*
X56862000Y-9393658D03*
X24662000Y-9393658D03*
X50562000Y-20305578D03*
X40762000Y-37279676D03*
X23262000Y-11818529D03*
X45662000Y-28792627D03*
X9962000Y-34854805D03*
X7862000Y-38492112D03*
X31662000Y-53041338D03*
X44962000Y-30005063D03*
X61762000Y-906609D03*
X8562000Y-37279676D03*
X32362000Y-51828903D03*
X-538000Y-53041338D03*
X23962000Y-10606094D03*
X12762000Y-30005063D03*
X37962000Y-42129418D03*
X5062000Y-43341854D03*
X9262000Y-36067240D03*
X62462000Y305826D03*
X58644894Y-40221478D03*
X46362000Y-27580192D03*
X35862000Y-45766725D03*
X47062000Y-26367756D03*
X55462000Y-11818529D03*
X39362000Y-39704547D03*
X2962000Y-46979161D03*
X17662000Y-21518014D03*
X6462000Y-40916983D03*
X1562000Y-49404032D03*
X162000Y-51828903D03*
X49162000Y-22730449D03*
X7162000Y-39704547D03*
X51262000Y-19093143D03*
X21162000Y-15455836D03*
X16262000Y-23942885D03*
X26062000Y-6968787D03*
X59662000Y-4543916D03*
X41462000Y-36067240D03*
X26762000Y-5756351D03*
X19762000Y-17880707D03*
X37262000Y-43341854D03*
X33062000Y-50616467D03*
X28862000Y-2119045D03*
X44262000Y-31217498D03*
X15562000Y-27580192D03*
X20462000Y-16668271D03*
X53362000Y-15455836D03*
X54062000Y-14243400D03*
X52662000Y-16668271D03*
X22562000Y-13030965D03*
X28162000Y-3331480D03*
X27462000Y-4543916D03*
X51962000Y-17880707D03*
X58962000Y-5756351D03*
X54762000Y-13030965D03*
X19062000Y-19093143D03*
X60362000Y-3331480D03*
%TD*%
D12*
%TO.N,/P24*%
X57316818Y-36521773D02*
X59914894Y-38021772D01*
X14862000Y-28792627D02*
X7862000Y-40916983D01*
X16262000Y-26367756D02*
X23262000Y-14243400D01*
X30962000Y-906609D02*
X23962000Y-13030965D01*
X63862000Y305826D02*
X32362000Y-54253774D01*
X15562000Y-28792626D02*
X14862000Y-28792626D01*
X7862000Y-40916983D02*
X7162000Y-42129418D01*
X23962000Y-13030965D02*
X23262000Y-14243400D01*
X16262000Y-26367756D02*
X16612000Y-26973973D01*
X162000Y-54253774D02*
X7162000Y-42129418D01*
X16612000Y-26973973D02*
X15562000Y-28792626D01*
%TO.N,/P1*%
X26062000Y-11818529D02*
X25362000Y-13030964D01*
X16962000Y-26367755D02*
X17312000Y-26973972D01*
X17312000Y-26973972D02*
X16962000Y-27580189D01*
X33062000Y305826D02*
X26062000Y-11818529D01*
X862000Y305826D02*
X-30638000Y-54253774D01*
X18362000Y-25155320D02*
X25362000Y-13030965D01*
X17662000Y-25155320D02*
X16962000Y-26367755D01*
X18362000Y-25155320D02*
X17662000Y-25155320D01*
X2262000Y-53041338D02*
X9262000Y-40916983D01*
X9962000Y-39704547D02*
X9262000Y-40916982D01*
X37250000Y-57198523D02*
X34651924Y-55698524D01*
X16962000Y-27580192D02*
X9962000Y-39704547D01*
%TO.N,/P2*%
X20462000Y-23942885D02*
X19762000Y-23942885D01*
X12062000Y-38492112D02*
X11362000Y-38492112D01*
X34462000Y305826D02*
X28162000Y-10606094D01*
X17662000Y-26367756D02*
X18362000Y-27580191D01*
X19762000Y-23942885D02*
X18362000Y-26367756D01*
X2262000Y-54253774D02*
X1562000Y-54253774D01*
X27462000Y-10606094D02*
X26412000Y-12424747D01*
X38520000Y-54998817D02*
X35921924Y-53498818D01*
X11362000Y-38492112D02*
X10312000Y-40310765D01*
X10312000Y-40310765D02*
X10662000Y-40916982D01*
X18362000Y-26367756D02*
X17662000Y-26367756D01*
X4362000Y-51828903D02*
X3662000Y-51828903D01*
X20462000Y-23942885D02*
X26762000Y-13030965D01*
X4362000Y-51828903D02*
X10662000Y-40916983D01*
X28162000Y-10606094D02*
X27462000Y-10606094D01*
X3662000Y-51828903D02*
X2262000Y-54253774D01*
X18362000Y-27580192D02*
X12062000Y-38492112D01*
X2262000Y305826D02*
X-29238000Y-54253774D01*
X26412000Y-12424747D02*
X26762000Y-13030964D01*
%TO.N,/P3*%
X21862000Y-22730449D02*
X20462000Y-25155320D01*
X20462000Y-25155320D02*
X19762000Y-25155320D01*
X11362000Y-39704547D02*
X12062000Y-40916982D01*
X19062000Y-26367756D02*
X19762000Y-25155320D01*
X39790000Y-52799114D02*
X37191924Y-51299115D01*
X6462000Y-50616467D02*
X12062000Y-40916983D01*
X12062000Y-39704547D02*
X13462000Y-37279676D01*
X13462000Y-37279676D02*
X14162000Y-37279676D01*
X27462000Y-11818529D02*
X28162000Y-13030964D01*
X28162000Y-11818529D02*
X29562000Y-9393658D01*
X19062000Y-26367756D02*
X19762000Y-27580191D01*
X3662000Y305826D02*
X-27838000Y-54253774D01*
X22562000Y-22730449D02*
X28162000Y-13030965D01*
X29562000Y-9393658D02*
X30262000Y-9393658D01*
X11362000Y-39704547D02*
X12062000Y-39704547D01*
X35862000Y305826D02*
X30262000Y-9393658D01*
X6462000Y-50616467D02*
X5762000Y-50616467D01*
X5762000Y-50616467D02*
X4362000Y-53041338D01*
X27462000Y-11818529D02*
X28162000Y-11818529D01*
X19762000Y-27580192D02*
X14162000Y-37279676D01*
X4362000Y-53041338D02*
X3662000Y-53041338D01*
X2962000Y-54253774D02*
X3662000Y-53041338D01*
X22562000Y-22730449D02*
X21862000Y-22730449D01*
%TO.N,/P4*%
X5062000Y305826D02*
X-26438000Y-54253774D01*
X37262000Y305826D02*
X32362000Y-8181222D01*
X6462000Y-51828903D02*
X5762000Y-51828903D01*
X24662000Y-21518014D02*
X29562000Y-13030965D01*
X13462000Y-38492112D02*
X14162000Y-38492112D01*
X29562000Y-10606094D02*
X30262000Y-10606094D01*
X20462000Y-26367756D02*
X21162000Y-27580191D01*
X24662000Y-21518014D02*
X23962000Y-21518014D01*
X41060000Y-50599410D02*
X38461924Y-49099411D01*
X29562000Y-10606094D02*
X28862000Y-11818529D01*
X8562000Y-49404032D02*
X7862000Y-49404032D01*
X21162000Y-27580192D02*
X16262000Y-36067240D01*
X15562000Y-36067241D02*
X16262000Y-36067241D01*
X22562000Y-23942885D02*
X21862000Y-23942885D01*
X31662000Y-8181223D02*
X32362000Y-8181223D01*
X7862000Y-49404032D02*
X6462000Y-51828903D01*
X20462000Y-26367756D02*
X21862000Y-23942885D01*
X4362000Y-54253774D02*
X5762000Y-51828903D01*
X8562000Y-49404032D02*
X13462000Y-40916983D01*
X14162000Y-38492112D02*
X15562000Y-36067241D01*
X12762000Y-39704547D02*
X13462000Y-40916982D01*
X23962000Y-21518014D02*
X22562000Y-23942885D01*
X30262000Y-10606094D02*
X31662000Y-8181223D01*
X13462000Y-38492112D02*
X12762000Y-39704547D01*
X28862000Y-11818529D02*
X29562000Y-13030964D01*
%TO.N,/P5*%
X31662000Y-9393658D02*
X30262000Y-11818529D01*
X32362000Y-9393658D02*
X33762000Y-6968787D01*
X21862000Y-26367756D02*
X23962000Y-22730449D01*
X21862000Y-26367756D02*
X22562000Y-27580191D01*
X26062000Y-20305578D02*
X24662000Y-22730449D01*
X14162000Y-39704547D02*
X14862000Y-40916982D01*
X24662000Y-22730449D02*
X23962000Y-22730449D01*
X9962000Y-48191596D02*
X8562000Y-50616467D01*
X22562000Y-27580192D02*
X18362000Y-34854805D01*
X16262000Y-37279676D02*
X17662000Y-34854805D01*
X30262000Y-11818529D02*
X30962000Y-13030964D01*
X15562000Y-37279676D02*
X14162000Y-39704547D01*
X6462000Y305826D02*
X-25038000Y-54253774D01*
X26762000Y-20305578D02*
X30962000Y-13030965D01*
X33762000Y-6968787D02*
X34462000Y-6968787D01*
X15562000Y-37279676D02*
X16262000Y-37279676D01*
X8562000Y-50616467D02*
X7862000Y-50616467D01*
X38662000Y305826D02*
X34462000Y-6968787D01*
X42330000Y-48399705D02*
X39731924Y-46899706D01*
X10662000Y-48191596D02*
X9962000Y-48191596D01*
X31662000Y-9393658D02*
X32362000Y-9393658D01*
X26762000Y-20305578D02*
X26062000Y-20305578D01*
X17662000Y-34854805D02*
X18362000Y-34854805D01*
X5762000Y-54253774D02*
X7862000Y-50616467D01*
X10662000Y-48191596D02*
X14862000Y-40916983D01*
%TO.N,/P6*%
X23262000Y-26367756D02*
X26062000Y-21518014D01*
X31662000Y-11818529D02*
X32362000Y-13030964D01*
X28862000Y-19093143D02*
X32362000Y-13030965D01*
X17662000Y-36067240D02*
X18362000Y-36067240D01*
X34462000Y-8181222D02*
X35862000Y-5756351D01*
X35862000Y-5756351D02*
X36562000Y-5756351D01*
X15562000Y-39704547D02*
X16262000Y-40916982D01*
X43600000Y-46200000D02*
X41001924Y-44700001D01*
X28162000Y-19093143D02*
X26762000Y-21518014D01*
X7862000Y305826D02*
X-23638000Y-54253774D01*
X40062000Y305826D02*
X36562000Y-5756351D01*
X18362000Y-36067240D02*
X19762000Y-33642369D01*
X19762000Y-33642369D02*
X20462000Y-33642369D01*
X10662000Y-49404032D02*
X9962000Y-49404032D01*
X23962000Y-27580192D02*
X20462000Y-33642369D01*
X23262000Y-26367756D02*
X23962000Y-27580191D01*
X12762000Y-46979161D02*
X12062000Y-46979161D01*
X7162000Y-54253774D02*
X9962000Y-49404032D01*
X12062000Y-46979161D02*
X10662000Y-49404032D01*
X26762000Y-21518014D02*
X26062000Y-21518014D01*
X33762000Y-8181222D02*
X34462000Y-8181222D01*
X33762000Y-8181222D02*
X31662000Y-11818529D01*
X28862000Y-19093143D02*
X28162000Y-19093143D01*
X12762000Y-46979161D02*
X16262000Y-40916983D01*
X17662000Y-36067240D02*
X15562000Y-39704547D01*
%TO.N,/P7*%
X9262000Y305826D02*
X-22238000Y-54253774D01*
X19762000Y-34854805D02*
X20462000Y-34854805D01*
X30962000Y-17880707D02*
X30262000Y-17880707D01*
X24662000Y-26367756D02*
X25362000Y-27580191D01*
X16962000Y-39704547D02*
X17662000Y-40916982D01*
X14862000Y-45766725D02*
X17662000Y-40916983D01*
X25362000Y-27580192D02*
X22562000Y-32429934D01*
X33062000Y-11818529D02*
X33762000Y-13030964D01*
X35862000Y-6968787D02*
X33062000Y-11818529D01*
X35862000Y-6968787D02*
X36562000Y-6968787D01*
X14862000Y-45766725D02*
X14162000Y-45766725D01*
X12762000Y-48191596D02*
X12062000Y-48191596D01*
X37962000Y-4543916D02*
X38662000Y-4543916D01*
X21862000Y-32429934D02*
X22562000Y-32429934D01*
X36562000Y-6968787D02*
X37962000Y-4543916D01*
X8562000Y-54253774D02*
X12062000Y-48191596D01*
X14162000Y-45766725D02*
X12762000Y-48191596D01*
X41462000Y305826D02*
X38662000Y-4543916D01*
X30962000Y-17880707D02*
X33762000Y-13030965D01*
X44870000Y-44000296D02*
X42271924Y-42500297D01*
X24662000Y-26367756D02*
X28162000Y-20305578D01*
X19762000Y-34854805D02*
X16962000Y-39704547D01*
X28862000Y-20305578D02*
X28162000Y-20305578D01*
X20462000Y-34854805D02*
X21862000Y-32429934D01*
X30262000Y-17880707D02*
X28862000Y-20305578D01*
%TO.N,/P8*%
X33062000Y-16668271D02*
X32362000Y-16668271D01*
X18362000Y-39704547D02*
X19062000Y-40916982D01*
X10662000Y305826D02*
X-20838000Y-54253774D01*
X16962000Y-44554289D02*
X19062000Y-40916983D01*
X40062000Y-3331480D02*
X40762000Y-3331480D01*
X32362000Y-16668271D02*
X30962000Y-19093142D01*
X14862000Y-46979160D02*
X14162000Y-46979160D01*
X9962000Y-54253774D02*
X14162000Y-46979161D01*
X37962000Y-5756351D02*
X34462000Y-11818529D01*
X26062000Y-26367756D02*
X30262000Y-19093143D01*
X21862000Y-33642369D02*
X22562000Y-33642369D01*
X16262000Y-44554289D02*
X14862000Y-46979160D01*
X46140000Y-41800591D02*
X43541924Y-40300592D01*
X16962000Y-44554289D02*
X16262000Y-44554289D01*
X33062000Y-16668271D02*
X35162000Y-13030965D01*
X22562000Y-33642369D02*
X23962000Y-31217498D01*
X23962000Y-31217498D02*
X24662000Y-31217498D01*
X42862000Y305826D02*
X40762000Y-3331480D01*
X30962000Y-19093142D02*
X30262000Y-19093142D01*
X26762000Y-27580192D02*
X24662000Y-31217498D01*
X34462000Y-11818529D02*
X35162000Y-13030964D01*
X21862000Y-33642369D02*
X18362000Y-39704547D01*
X26062000Y-26367756D02*
X26762000Y-27580191D01*
X37962000Y-5756351D02*
X38662000Y-5756351D01*
X38662000Y-5756351D02*
X40062000Y-3331480D01*
%TO.N,/P9*%
X23962000Y-32429934D02*
X19762000Y-39704547D01*
X35162000Y-15455836D02*
X34462000Y-15455836D01*
X24662000Y-32429934D02*
X26062000Y-30005063D01*
X44262000Y305826D02*
X42862000Y-2119045D01*
X26062000Y-30005063D02*
X26762000Y-30005063D01*
X47410000Y-39600887D02*
X44811924Y-38100888D01*
X11362000Y-54253774D02*
X16262000Y-45766725D01*
X28162000Y-27580192D02*
X26762000Y-30005063D01*
X27462000Y-26367756D02*
X28162000Y-27580191D01*
X27462000Y-26367756D02*
X32362000Y-17880707D01*
X35162000Y-15455836D02*
X36562000Y-13030965D01*
X35862000Y-11818529D02*
X36562000Y-13030964D01*
X40062000Y-4543916D02*
X35862000Y-11818529D01*
X42162000Y-2119045D02*
X42862000Y-2119045D01*
X16962000Y-45766725D02*
X16262000Y-45766725D01*
X19762000Y-39704547D02*
X20462000Y-40916982D01*
X19062000Y-43341854D02*
X20462000Y-40916983D01*
X12062000Y305826D02*
X-19438000Y-54253774D01*
X34462000Y-15455836D02*
X33062000Y-17880707D01*
X23962000Y-32429934D02*
X24662000Y-32429934D01*
X18362000Y-43341854D02*
X16962000Y-45766725D01*
X40062000Y-4543916D02*
X40762000Y-4543916D01*
X19062000Y-43341854D02*
X18362000Y-43341854D01*
X40762000Y-4543916D02*
X42162000Y-2119045D01*
X33062000Y-17880707D02*
X32362000Y-17880707D01*
%TO.N,/P10*%
X28162000Y-28792627D02*
X28862000Y-28792627D01*
X29562000Y-27580192D02*
X28862000Y-28792627D01*
X37262000Y-14243400D02*
X37962000Y-13030965D01*
X35162000Y-16668271D02*
X34462000Y-16668271D01*
X37262000Y-11818529D02*
X37962000Y-13030964D01*
X20462000Y-42129418D02*
X19062000Y-44554289D01*
X21162000Y-42129418D02*
X21862000Y-40916983D01*
X21162000Y-42129418D02*
X20462000Y-42129418D01*
X26062000Y-31217498D02*
X26762000Y-31217498D01*
X28862000Y-26367756D02*
X34462000Y-16668271D01*
X45662000Y305826D02*
X44962000Y-906609D01*
X48680000Y-37401182D02*
X46081924Y-35901183D01*
X44262000Y-906609D02*
X44962000Y-906609D01*
X28862000Y-26367756D02*
X29562000Y-27580191D01*
X42162000Y-3331480D02*
X37262000Y-11818529D01*
X12762000Y-54253774D02*
X18362000Y-44554289D01*
X42162000Y-3331480D02*
X42862000Y-3331480D01*
X37262000Y-14243400D02*
X36562000Y-14243400D01*
X26062000Y-31217498D02*
X21162000Y-39704547D01*
X19062000Y-44554289D02*
X18362000Y-44554289D01*
X36562000Y-14243400D02*
X35162000Y-16668271D01*
X21162000Y-39704547D02*
X21862000Y-40916982D01*
X26762000Y-31217498D02*
X28162000Y-28792627D01*
X42862000Y-3331480D02*
X44262000Y-906609D01*
X13462000Y305826D02*
X-18038000Y-54253774D01*
%TO.N,/P11*%
X28162000Y-30005063D02*
X22562000Y-39704547D01*
X38662000Y-13030965D02*
X37262000Y-15455836D01*
X30262000Y-26367756D02*
X30962000Y-27580191D01*
X21162000Y-43341854D02*
X20462000Y-43341854D01*
X23262000Y-40916983D02*
X22562000Y-40916983D01*
X14162000Y-54253774D02*
X20462000Y-43341854D01*
X49950000Y-35201478D02*
X47351924Y-33701479D01*
X28862000Y-30005063D02*
X30262000Y-27580192D01*
X46362000Y305826D02*
X47062000Y305826D01*
X38662000Y-11818529D02*
X39362000Y-13030964D01*
X39362000Y-13030965D02*
X38662000Y-13030965D01*
X28162000Y-30005063D02*
X28862000Y-30005063D01*
X44262000Y-2119045D02*
X44962000Y-2119045D01*
X22562000Y-39704547D02*
X23262000Y-40916982D01*
X14862000Y305826D02*
X-16638000Y-54253774D01*
X44262000Y-2119045D02*
X38662000Y-11818529D01*
X37262000Y-15455836D02*
X36562000Y-15455836D01*
X30262000Y-26367756D02*
X36562000Y-15455836D01*
X30262000Y-27580192D02*
X30962000Y-27580192D01*
X44962000Y-2119045D02*
X46362000Y305826D01*
X22562000Y-40916983D02*
X21162000Y-43341854D01*
%TO.N,/P12*%
X31662000Y-26367756D02*
X32012000Y-26973973D01*
X51220000Y-33001773D02*
X48621924Y-31501774D01*
X23262000Y-42129417D02*
X22562000Y-42129417D01*
X40062000Y-11818529D02*
X40412000Y-12424746D01*
X24312000Y-40310764D02*
X23262000Y-42129417D01*
X30962000Y-28792626D02*
X30262000Y-28792626D01*
X15562000Y-54253774D02*
X22562000Y-42129418D01*
X39362000Y-14243399D02*
X38662000Y-14243399D01*
X16262000Y305826D02*
X-15238000Y-54253774D01*
X31662000Y-26367756D02*
X38662000Y-14243400D01*
X40412000Y-12424746D02*
X39362000Y-14243399D01*
X46362000Y-906609D02*
X40062000Y-11818529D01*
X32012000Y-26973973D02*
X30962000Y-28792626D01*
X23962000Y-39704547D02*
X24312000Y-40310764D01*
X30262000Y-28792627D02*
X23962000Y-39704547D01*
%TO.N,/P13*%
X9962000Y-11818529D02*
X8912000Y-13637182D01*
X48462000Y305826D02*
X16962000Y-54253774D01*
X-13138000Y-53041338D02*
X-6838000Y-42129418D01*
X2262000Y-25155320D02*
X1212000Y-26973973D01*
X-7188000Y-41523200D02*
X-6838000Y-42129417D01*
X43346818Y-60718523D02*
X45944894Y-62218522D01*
X17662000Y305826D02*
X10662000Y-11818529D01*
X-5438000Y-39704547D02*
X-6138000Y-39704547D01*
X1562000Y-27580192D02*
X-5438000Y-39704547D01*
X8912000Y-13637182D02*
X9262000Y-14243399D01*
X2962000Y-25155320D02*
X9262000Y-14243400D01*
X-6138000Y-39704547D02*
X-7188000Y-41523200D01*
X2962000Y-25155320D02*
X2262000Y-25155320D01*
X10662000Y-11818529D02*
X9962000Y-11818529D01*
X1212000Y-26973973D02*
X1562000Y-27580190D01*
%TO.N,/P14*%
X2962000Y-26367756D02*
X2262000Y-26367756D01*
X19062000Y305826D02*
X12762000Y-10606094D01*
X49862000Y305826D02*
X18362000Y-54253774D01*
X2262000Y-26367756D02*
X2962000Y-27580191D01*
X4362000Y-23942885D02*
X2962000Y-26367756D01*
X2962000Y-27580192D02*
X-3338000Y-38492112D01*
X-11038000Y-51828903D02*
X-11738000Y-51828903D01*
X12062000Y-10606094D02*
X12762000Y-10606094D01*
X9962000Y-13030965D02*
X10662000Y-14243400D01*
X-6138000Y-40916983D02*
X-5438000Y-40916983D01*
X-11038000Y-51828903D02*
X-5438000Y-42129418D01*
X44616818Y-58518818D02*
X47214894Y-60018817D01*
X-5438000Y-40916983D02*
X-4038000Y-38492112D01*
X-13138000Y-54253774D02*
X-13838000Y-54253774D01*
X9962000Y-13030965D02*
X10662000Y-13030965D01*
X5062000Y-23942885D02*
X10662000Y-14243400D01*
X-11738000Y-51828903D02*
X-13138000Y-54253774D01*
X-4038000Y-38492112D02*
X-3338000Y-38492112D01*
X-6138000Y-40916983D02*
X-5438000Y-42129418D01*
X10662000Y-13030965D02*
X12062000Y-10606094D01*
X5062000Y-23942885D02*
X4362000Y-23942885D01*
%TO.N,/P15*%
X5062000Y-25155320D02*
X4362000Y-25155320D01*
X51262000Y305826D02*
X19762000Y-54253774D01*
X14162000Y-9393658D02*
X14862000Y-9393658D01*
X45886818Y-56319114D02*
X48484894Y-57819113D01*
X4362000Y-27580192D02*
X-1238000Y-37279676D01*
X-3338000Y-39704547D02*
X-1938000Y-37279676D01*
X-8938000Y-50616467D02*
X-9638000Y-50616467D01*
X7162000Y-22730449D02*
X6462000Y-22730449D01*
X6462000Y-22730449D02*
X5062000Y-25155320D01*
X3662000Y-26367756D02*
X4362000Y-27580191D01*
X-11038000Y-53041338D02*
X-11738000Y-53041338D01*
X-8938000Y-50616467D02*
X-4038000Y-42129418D01*
X11362000Y-13030965D02*
X12062000Y-14243400D01*
X-12438000Y-54253774D02*
X-11738000Y-53041338D01*
X3662000Y-26367756D02*
X4362000Y-25155320D01*
X-1938000Y-37279676D02*
X-1238000Y-37279676D01*
X-4038000Y-39704547D02*
X-4738000Y-40916983D01*
X12062000Y-11818529D02*
X11362000Y-13030965D01*
X12062000Y-11818529D02*
X12762000Y-11818529D01*
X7162000Y-22730449D02*
X12062000Y-14243400D01*
X-9638000Y-50616467D02*
X-11038000Y-53041338D01*
X12762000Y-11818529D02*
X14162000Y-9393658D01*
X-4738000Y-40916983D02*
X-4038000Y-42129418D01*
X-4038000Y-39704547D02*
X-3338000Y-39704547D01*
X20462000Y305826D02*
X14862000Y-9393658D01*
%TO.N,/P16*%
X9262000Y-21518014D02*
X13462000Y-14243400D01*
X12762000Y-13030965D02*
X13462000Y-14243400D01*
X7162000Y-23942885D02*
X6462000Y-23942885D01*
X52662000Y305826D02*
X21162000Y-54253774D01*
X-11038000Y-54253774D02*
X-9638000Y-51828903D01*
X14862000Y-10606094D02*
X16262000Y-8181223D01*
X-1938000Y-38492112D02*
X-3338000Y-40916983D01*
X-8938000Y-51828903D02*
X-9638000Y-51828903D01*
X-3338000Y-40916983D02*
X-2638000Y-42129418D01*
X5062000Y-26367756D02*
X6462000Y-23942885D01*
X9262000Y-21518014D02*
X8562000Y-21518014D01*
X-6838000Y-49404032D02*
X-2638000Y-42129418D01*
X5062000Y-26367756D02*
X5762000Y-27580191D01*
X-1938000Y-38492112D02*
X-1238000Y-38492112D01*
X14162000Y-10606094D02*
X14862000Y-10606094D01*
X-6838000Y-49404032D02*
X-7538000Y-49404032D01*
X-1238000Y-38492112D02*
X162000Y-36067241D01*
X-7538000Y-49404032D02*
X-8938000Y-51828903D01*
X5762000Y-27580192D02*
X862000Y-36067240D01*
X14162000Y-10606094D02*
X12762000Y-13030965D01*
X8562000Y-21518014D02*
X7162000Y-23942885D01*
X162000Y-36067241D02*
X862000Y-36067241D01*
X21862000Y305826D02*
X16962000Y-8181222D01*
X16262000Y-8181223D02*
X16962000Y-8181223D01*
X47156818Y-54119409D02*
X49754894Y-55619408D01*
%TO.N,/P17*%
X9262000Y-22730449D02*
X8562000Y-22730449D01*
X6462000Y-26367756D02*
X7162000Y-27580191D01*
X18362000Y-6968787D02*
X19062000Y-6968787D01*
X862000Y-37279676D02*
X2262000Y-34854805D01*
X162000Y-37279676D02*
X862000Y-37279676D01*
X16962000Y-9393658D02*
X18362000Y-6968787D01*
X2262000Y-34854805D02*
X2962000Y-34854805D01*
X16262000Y-9393658D02*
X16962000Y-9393658D01*
X23262000Y305826D02*
X19062000Y-6968787D01*
X11362000Y-20305578D02*
X10662000Y-20305578D01*
X-5438000Y-48191596D02*
X-6838000Y-50616467D01*
X-6838000Y-50616467D02*
X-7538000Y-50616467D01*
X16262000Y-9393658D02*
X14162000Y-13030965D01*
X162000Y-37279676D02*
X-1938000Y-40916983D01*
X-4738000Y-48191596D02*
X-1238000Y-42129418D01*
X7162000Y-27580192D02*
X2962000Y-34854805D01*
X-1938000Y-40916983D02*
X-1238000Y-42129418D01*
X-9638000Y-54253774D02*
X-7538000Y-50616467D01*
X6462000Y-26367756D02*
X8562000Y-22730449D01*
X14162000Y-13030965D02*
X14862000Y-14243400D01*
X48426818Y-51919705D02*
X51024894Y-53419704D01*
X10662000Y-20305578D02*
X9262000Y-22730449D01*
X11362000Y-20305578D02*
X14862000Y-14243400D01*
X-4738000Y-48191596D02*
X-5438000Y-48191596D01*
X54062000Y305826D02*
X22562000Y-54253774D01*
%TO.N,/P18*%
X11362000Y-21518014D02*
X10662000Y-21518014D01*
X7862000Y-26367756D02*
X8562000Y-27580191D01*
X49696818Y-49720000D02*
X52294894Y-51219999D01*
X-8238000Y-54253774D02*
X-5438000Y-49404032D01*
X2262000Y-36067240D02*
X2962000Y-36067240D01*
X-538000Y-40916983D02*
X162000Y-42129418D01*
X24662000Y305826D02*
X21162000Y-5756351D01*
X13462000Y-19093143D02*
X12762000Y-19093143D01*
X-4738000Y-49404032D02*
X-5438000Y-49404032D01*
X-2638000Y-46979161D02*
X162000Y-42129418D01*
X2262000Y-36067240D02*
X-538000Y-40916983D01*
X-3338000Y-46979161D02*
X-4738000Y-49404032D01*
X8562000Y-27580192D02*
X5062000Y-33642369D01*
X18362000Y-8181222D02*
X15562000Y-13030965D01*
X13462000Y-19093143D02*
X16262000Y-14243400D01*
X7862000Y-26367756D02*
X10662000Y-21518014D01*
X18362000Y-8181222D02*
X19062000Y-8181222D01*
X55462000Y305826D02*
X23962000Y-54253774D01*
X12762000Y-19093143D02*
X11362000Y-21518014D01*
X15562000Y-13030965D02*
X16262000Y-14243400D01*
X4362000Y-33642369D02*
X5062000Y-33642369D01*
X20462000Y-5756351D02*
X21162000Y-5756351D01*
X2962000Y-36067240D02*
X4362000Y-33642369D01*
X19062000Y-8181222D02*
X20462000Y-5756351D01*
X-2638000Y-46979161D02*
X-3338000Y-46979161D01*
%TO.N,/P19*%
X862000Y-40916983D02*
X1562000Y-42129418D01*
X56862000Y305826D02*
X25362000Y-54253774D01*
X5062000Y-34854805D02*
X6462000Y-32429934D01*
X22562000Y-4543916D02*
X23262000Y-4543916D01*
X15562000Y-17880707D02*
X14862000Y-17880707D01*
X-6838000Y-54253774D02*
X-3338000Y-48191596D01*
X6462000Y-32429934D02*
X7162000Y-32429934D01*
X-2638000Y-48191596D02*
X-3338000Y-48191596D01*
X-1238000Y-45766725D02*
X-2638000Y-48191596D01*
X14862000Y-17880707D02*
X13462000Y-20305578D01*
X20462000Y-6968787D02*
X16962000Y-13030965D01*
X20462000Y-6968787D02*
X21162000Y-6968787D01*
X21162000Y-6968787D02*
X22562000Y-4543916D01*
X9962000Y-27580192D02*
X7162000Y-32429934D01*
X16962000Y-13030965D02*
X17662000Y-14243400D01*
X4362000Y-34854805D02*
X5062000Y-34854805D01*
X50966818Y-47520296D02*
X53564894Y-49020295D01*
X-538000Y-45766725D02*
X-1238000Y-45766725D01*
X15562000Y-17880707D02*
X17662000Y-14243400D01*
X4362000Y-34854805D02*
X862000Y-40916983D01*
X13462000Y-20305578D02*
X12762000Y-20305578D01*
X26062000Y305826D02*
X23262000Y-4543916D01*
X9262000Y-26367756D02*
X9962000Y-27580191D01*
X-538000Y-45766725D02*
X1562000Y-42129418D01*
X9262000Y-26367756D02*
X12762000Y-20305578D01*
%TO.N,/P20*%
X24662000Y-3331480D02*
X25362000Y-3331480D01*
X52236818Y-45320591D02*
X54834894Y-46820590D01*
X-5438000Y-54253774D02*
X-1238000Y-46979161D01*
X2262000Y-40916983D02*
X2962000Y-42129418D01*
X23262000Y-5756351D02*
X24662000Y-3331480D01*
X16962000Y-16668271D02*
X15562000Y-19093142D01*
X58262000Y305826D02*
X26762000Y-54253774D01*
X-538000Y-46979160D02*
X-1238000Y-46979160D01*
X7162000Y-33642369D02*
X8562000Y-31217498D01*
X1562000Y-44554289D02*
X2962000Y-42129418D01*
X8562000Y-31217498D02*
X9262000Y-31217498D01*
X17662000Y-16668271D02*
X19062000Y-14243400D01*
X27462000Y305826D02*
X25362000Y-3331480D01*
X10662000Y-26367756D02*
X11362000Y-27580191D01*
X15562000Y-19093142D02*
X14862000Y-19093142D01*
X6462000Y-33642369D02*
X7162000Y-33642369D01*
X22562000Y-5756351D02*
X18362000Y-13030965D01*
X18362000Y-13030965D02*
X19062000Y-14243400D01*
X1562000Y-44554289D02*
X862000Y-44554289D01*
X6462000Y-33642369D02*
X2262000Y-40916983D01*
X10662000Y-26367756D02*
X14862000Y-19093143D01*
X11362000Y-27580192D02*
X9262000Y-31217498D01*
X17662000Y-16668271D02*
X16962000Y-16668271D01*
X22562000Y-5756351D02*
X23262000Y-5756351D01*
X862000Y-44554289D02*
X-538000Y-46979160D01*
%TO.N,/P21*%
X3662000Y-40916983D02*
X4362000Y-42129418D01*
X17662000Y-17880707D02*
X16962000Y-17880707D01*
X25362000Y-4543916D02*
X26762000Y-2119045D01*
X19762000Y-13030965D02*
X20462000Y-14243400D01*
X1562000Y-45766725D02*
X862000Y-45766725D01*
X53506818Y-43120886D02*
X56104894Y-44620885D01*
X-4038000Y-54253774D02*
X862000Y-45766725D01*
X2962000Y-43341854D02*
X1562000Y-45766725D01*
X24662000Y-4543916D02*
X25362000Y-4543916D01*
X24662000Y-4543916D02*
X19762000Y-13030965D01*
X12762000Y-27580192D02*
X11362000Y-30005063D01*
X8562000Y-32429934D02*
X3662000Y-40916983D01*
X26762000Y-2119045D02*
X27462000Y-2119045D01*
X19762000Y-15455836D02*
X20462000Y-14243400D01*
X19762000Y-15455836D02*
X19062000Y-15455836D01*
X9262000Y-32429934D02*
X10662000Y-30005063D01*
X10662000Y-30005063D02*
X11362000Y-30005063D01*
X3662000Y-43341854D02*
X2962000Y-43341854D01*
X3662000Y-43341854D02*
X4362000Y-42129418D01*
X28862000Y305826D02*
X27462000Y-2119045D01*
X8562000Y-32429934D02*
X9262000Y-32429934D01*
X12062000Y-26367756D02*
X16962000Y-17880707D01*
X59662000Y305826D02*
X28162000Y-54253774D01*
X12062000Y-26367756D02*
X12762000Y-27580191D01*
X19062000Y-15455836D02*
X17662000Y-17880707D01*
%TO.N,/P22*%
X13462000Y-26367756D02*
X14162000Y-27580191D01*
X11362000Y-31217498D02*
X12762000Y-28792627D01*
X26762000Y-3331480D02*
X27462000Y-3331480D01*
X30262000Y305826D02*
X29562000Y-906609D01*
X54776818Y-40921182D02*
X57374894Y-42421181D01*
X5062000Y-40916983D02*
X5762000Y-42129418D01*
X13462000Y-26367756D02*
X19062000Y-16668271D01*
X5062000Y-42129418D02*
X3662000Y-44554289D01*
X61062000Y305826D02*
X29562000Y-54253774D01*
X10662000Y-31217498D02*
X11362000Y-31217498D01*
X21862000Y-14243400D02*
X21162000Y-14243400D01*
X3662000Y-44554289D02*
X2962000Y-44554289D01*
X5762000Y-42129418D02*
X5062000Y-42129418D01*
X26762000Y-3331480D02*
X21162000Y-13030965D01*
X12762000Y-28792627D02*
X13462000Y-28792627D01*
X28862000Y-906609D02*
X29562000Y-906609D01*
X27462000Y-3331480D02*
X28862000Y-906609D01*
X10662000Y-31217498D02*
X5062000Y-40916983D01*
X21162000Y-14243400D02*
X19762000Y-16668271D01*
X19762000Y-16668271D02*
X19062000Y-16668271D01*
X-2638000Y-54253774D02*
X2962000Y-44554289D01*
X21162000Y-13030965D02*
X21862000Y-14243400D01*
X14162000Y-27580192D02*
X13462000Y-28792627D01*
%TO.N,/P23*%
X14862000Y-26367756D02*
X15562000Y-27580191D01*
X56046818Y-38721479D02*
X58644894Y-40221478D01*
X12762000Y-30005063D02*
X6462000Y-40916983D01*
X14862000Y-27580192D02*
X15562000Y-27580192D01*
X5762000Y-43341853D02*
X5062000Y-43341853D01*
X22562000Y-13030965D02*
X22912000Y-13637182D01*
X21862000Y-15455835D02*
X21162000Y-15455835D01*
X30962000Y305826D02*
X31662000Y305826D01*
X29562000Y-2119045D02*
X30962000Y305826D01*
X62462000Y305826D02*
X30962000Y-54253774D01*
X22912000Y-13637182D02*
X21862000Y-15455835D01*
X13462000Y-30005063D02*
X14862000Y-27580192D01*
X-1238000Y-54253774D02*
X5062000Y-43341854D01*
X28862000Y-2119045D02*
X29562000Y-2119045D01*
X14862000Y-26367756D02*
X21162000Y-15455836D01*
X12762000Y-30005063D02*
X13462000Y-30005063D01*
X28862000Y-2119045D02*
X22562000Y-13030965D01*
X6462000Y-40916983D02*
X6812000Y-41523200D01*
X6812000Y-41523200D02*
X5762000Y-43341853D01*
%TD*%
M02*
