M48
; DRILL file {KiCad 8.0.8} date 2025-03-26T10:58:49-0700
; FORMAT={-:-/ absolute / metric / decimal}
; #@! TF.CreationDate,2025-03-26T10:58:49-07:00
; #@! TF.GenerationSoftware,Kicad,Pcbnew,8.0.8
; #@! TF.FileFunction,Plated,1,4,PTH
FMAT,2
METRIC
; #@! TA.AperFunction,Plated,PTH,ViaDrill
T1C0.300
%
G90
G05
T1
X-30.638Y-54.254
X-29.938Y-53.041
X-29.238Y-51.829
X-29.238Y-54.254
X-28.538Y-50.616
X-28.538Y-53.041
X-27.838Y-49.404
X-27.838Y-51.829
X-27.838Y-54.254
X-27.138Y-48.192
X-27.138Y-50.616
X-27.138Y-53.041
X-26.438Y-46.979
X-26.438Y-49.404
X-26.438Y-51.829
X-26.438Y-54.254
X-25.738Y-45.767
X-25.738Y-48.192
X-25.738Y-50.616
X-25.738Y-53.041
X-25.038Y-44.554
X-25.038Y-46.979
X-25.038Y-49.404
X-25.038Y-51.829
X-25.038Y-54.254
X-24.338Y-43.342
X-24.338Y-45.767
X-24.338Y-48.192
X-24.338Y-50.616
X-24.338Y-53.041
X-23.638Y-42.129
X-23.638Y-44.554
X-23.638Y-46.979
X-23.638Y-49.404
X-23.638Y-51.829
X-23.638Y-54.254
X-22.938Y-40.917
X-22.938Y-43.342
X-22.938Y-45.767
X-22.938Y-48.192
X-22.938Y-50.616
X-22.938Y-53.041
X-22.238Y-39.705
X-22.238Y-42.129
X-22.238Y-44.554
X-22.238Y-46.979
X-22.238Y-49.404
X-22.238Y-51.829
X-22.238Y-54.254
X-21.538Y-38.492
X-21.538Y-40.917
X-21.538Y-43.342
X-21.538Y-45.767
X-21.538Y-48.192
X-21.538Y-50.616
X-21.538Y-53.041
X-20.838Y-37.28
X-20.838Y-39.705
X-20.838Y-42.129
X-20.838Y-44.554
X-20.838Y-46.979
X-20.838Y-49.404
X-20.838Y-51.829
X-20.838Y-54.254
X-20.138Y-36.067
X-20.138Y-38.492
X-20.138Y-40.917
X-20.138Y-43.342
X-20.138Y-45.767
X-20.138Y-48.192
X-20.138Y-50.616
X-20.138Y-53.041
X-19.438Y-34.855
X-19.438Y-37.28
X-19.438Y-39.705
X-19.438Y-42.129
X-19.438Y-44.554
X-19.438Y-46.979
X-19.438Y-49.404
X-19.438Y-51.829
X-19.438Y-54.254
X-18.738Y-33.642
X-18.738Y-36.067
X-18.738Y-38.492
X-18.738Y-40.917
X-18.738Y-43.342
X-18.738Y-45.767
X-18.738Y-48.192
X-18.738Y-50.616
X-18.738Y-53.041
X-18.038Y-32.43
X-18.038Y-34.855
X-18.038Y-37.28
X-18.038Y-39.705
X-18.038Y-42.129
X-18.038Y-44.554
X-18.038Y-46.979
X-18.038Y-49.404
X-18.038Y-51.829
X-18.038Y-54.254
X-17.338Y-31.217
X-17.338Y-33.642
X-17.338Y-36.067
X-17.338Y-38.492
X-17.338Y-40.917
X-17.338Y-43.342
X-17.338Y-45.767
X-17.338Y-48.192
X-17.338Y-50.616
X-17.338Y-53.041
X-16.638Y-30.005
X-16.638Y-32.43
X-16.638Y-34.855
X-16.638Y-37.28
X-16.638Y-39.705
X-16.638Y-42.129
X-16.638Y-44.554
X-16.638Y-46.979
X-16.638Y-49.404
X-16.638Y-51.829
X-16.638Y-54.254
X-15.938Y-28.793
X-15.938Y-31.217
X-15.938Y-33.642
X-15.938Y-36.067
X-15.938Y-38.492
X-15.938Y-40.917
X-15.938Y-43.342
X-15.938Y-45.767
X-15.938Y-48.192
X-15.938Y-50.616
X-15.938Y-53.041
X-15.238Y-27.58
X-15.238Y-30.005
X-15.238Y-32.43
X-15.238Y-34.855
X-15.238Y-37.28
X-15.238Y-39.705
X-15.238Y-42.129
X-15.238Y-44.554
X-15.238Y-46.979
X-15.238Y-49.404
X-15.238Y-51.829
X-15.238Y-54.254
X-14.538Y-26.368
X-14.538Y-28.793
X-14.538Y-31.217
X-14.538Y-33.642
X-14.538Y-36.067
X-14.538Y-38.492
X-14.538Y-40.917
X-14.538Y-43.342
X-14.538Y-45.767
X-14.538Y-48.192
X-14.538Y-50.616
X-14.538Y-53.041
X-13.838Y-25.155
X-13.838Y-27.58
X-13.838Y-30.005
X-13.838Y-32.43
X-13.838Y-34.855
X-13.838Y-37.28
X-13.838Y-39.705
X-13.838Y-42.129
X-13.838Y-44.554
X-13.838Y-46.979
X-13.838Y-49.404
X-13.838Y-51.829
X-13.838Y-54.254
X-13.138Y-23.943
X-13.138Y-26.368
X-13.138Y-28.793
X-13.138Y-31.217
X-13.138Y-33.642
X-13.138Y-36.067
X-13.138Y-38.492
X-13.138Y-40.917
X-13.138Y-43.342
X-13.138Y-45.767
X-13.138Y-48.192
X-13.138Y-50.616
X-13.138Y-53.041
X-12.438Y-22.73
X-12.438Y-25.155
X-12.438Y-27.58
X-12.438Y-30.005
X-12.438Y-32.43
X-12.438Y-34.855
X-12.438Y-37.28
X-12.438Y-39.705
X-12.438Y-42.129
X-12.438Y-44.554
X-12.438Y-46.979
X-12.438Y-49.404
X-12.438Y-51.829
X-12.438Y-54.254
X-11.738Y-21.518
X-11.738Y-23.943
X-11.738Y-26.368
X-11.738Y-28.793
X-11.738Y-31.217
X-11.738Y-33.642
X-11.738Y-36.067
X-11.738Y-38.492
X-11.738Y-40.917
X-11.738Y-43.342
X-11.738Y-45.767
X-11.738Y-48.192
X-11.738Y-50.616
X-11.738Y-53.041
X-11.038Y-20.306
X-11.038Y-22.73
X-11.038Y-25.155
X-11.038Y-27.58
X-11.038Y-30.005
X-11.038Y-32.43
X-11.038Y-34.855
X-11.038Y-37.28
X-11.038Y-39.705
X-11.038Y-42.129
X-11.038Y-44.554
X-11.038Y-46.979
X-11.038Y-49.404
X-11.038Y-51.829
X-11.038Y-54.254
X-10.338Y-19.093
X-10.338Y-21.518
X-10.338Y-23.943
X-10.338Y-26.368
X-10.338Y-28.793
X-10.338Y-31.217
X-10.338Y-33.642
X-10.338Y-36.067
X-10.338Y-38.492
X-10.338Y-40.917
X-10.338Y-43.342
X-10.338Y-45.767
X-10.338Y-48.192
X-10.338Y-50.616
X-10.338Y-53.041
X-9.638Y-17.881
X-9.638Y-20.306
X-9.638Y-22.73
X-9.638Y-25.155
X-9.638Y-27.58
X-9.638Y-30.005
X-9.638Y-32.43
X-9.638Y-34.855
X-9.638Y-37.28
X-9.638Y-39.705
X-9.638Y-42.129
X-9.638Y-44.554
X-9.638Y-46.979
X-9.638Y-49.404
X-9.638Y-51.829
X-9.638Y-54.254
X-8.938Y-16.668
X-8.938Y-19.093
X-8.938Y-21.518
X-8.938Y-23.943
X-8.938Y-26.368
X-8.938Y-28.793
X-8.938Y-31.217
X-8.938Y-33.642
X-8.938Y-36.067
X-8.938Y-38.492
X-8.938Y-40.917
X-8.938Y-43.342
X-8.938Y-45.767
X-8.938Y-48.192
X-8.938Y-50.616
X-8.938Y-53.041
X-8.238Y-15.456
X-8.238Y-17.881
X-8.238Y-20.306
X-8.238Y-22.73
X-8.238Y-25.155
X-8.238Y-27.58
X-8.238Y-30.005
X-8.238Y-32.43
X-8.238Y-34.855
X-8.238Y-37.28
X-8.238Y-39.705
X-8.238Y-42.129
X-8.238Y-44.554
X-8.238Y-46.979
X-8.238Y-49.404
X-8.238Y-51.829
X-8.238Y-54.254
X-7.538Y-14.243
X-7.538Y-16.668
X-7.538Y-19.093
X-7.538Y-21.518
X-7.538Y-23.943
X-7.538Y-26.368
X-7.538Y-28.793
X-7.538Y-31.217
X-7.538Y-33.642
X-7.538Y-36.067
X-7.538Y-38.492
X-7.538Y-40.917
X-7.538Y-43.342
X-7.538Y-45.767
X-7.538Y-48.192
X-7.538Y-50.616
X-7.538Y-53.041
X-6.838Y-13.031
X-6.838Y-15.456
X-6.838Y-17.881
X-6.838Y-20.306
X-6.838Y-22.73
X-6.838Y-25.155
X-6.838Y-27.58
X-6.838Y-30.005
X-6.838Y-32.43
X-6.838Y-34.855
X-6.838Y-37.28
X-6.838Y-39.705
X-6.838Y-42.129
X-6.838Y-44.554
X-6.838Y-46.979
X-6.838Y-49.404
X-6.838Y-51.829
X-6.838Y-54.254
X-6.138Y-11.819
X-6.138Y-14.243
X-6.138Y-16.668
X-6.138Y-19.093
X-6.138Y-21.518
X-6.138Y-23.943
X-6.138Y-26.368
X-6.138Y-28.793
X-6.138Y-31.217
X-6.138Y-33.642
X-6.138Y-36.067
X-6.138Y-38.492
X-6.138Y-40.917
X-6.138Y-43.342
X-6.138Y-45.767
X-6.138Y-48.192
X-6.138Y-50.616
X-6.138Y-53.041
X-5.438Y-10.606
X-5.438Y-13.031
X-5.438Y-15.456
X-5.438Y-17.881
X-5.438Y-20.306
X-5.438Y-22.73
X-5.438Y-25.155
X-5.438Y-27.58
X-5.438Y-30.005
X-5.438Y-32.43
X-5.438Y-34.855
X-5.438Y-37.28
X-5.438Y-39.705
X-5.438Y-42.129
X-5.438Y-44.554
X-5.438Y-46.979
X-5.438Y-49.404
X-5.438Y-51.829
X-5.438Y-54.254
X-4.738Y-9.394
X-4.738Y-11.819
X-4.738Y-14.243
X-4.738Y-16.668
X-4.738Y-19.093
X-4.738Y-21.518
X-4.738Y-23.943
X-4.738Y-26.368
X-4.738Y-28.793
X-4.738Y-31.217
X-4.738Y-33.642
X-4.738Y-36.067
X-4.738Y-38.492
X-4.738Y-40.917
X-4.738Y-43.342
X-4.738Y-45.767
X-4.738Y-48.192
X-4.738Y-50.616
X-4.738Y-53.041
X-4.038Y-8.181
X-4.038Y-10.606
X-4.038Y-13.031
X-4.038Y-15.456
X-4.038Y-17.881
X-4.038Y-20.306
X-4.038Y-22.73
X-4.038Y-25.155
X-4.038Y-27.58
X-4.038Y-30.005
X-4.038Y-32.43
X-4.038Y-34.855
X-4.038Y-37.28
X-4.038Y-39.705
X-4.038Y-42.129
X-4.038Y-44.554
X-4.038Y-46.979
X-4.038Y-49.404
X-4.038Y-51.829
X-4.038Y-54.254
X-3.338Y-6.969
X-3.338Y-9.394
X-3.338Y-11.819
X-3.338Y-14.243
X-3.338Y-16.668
X-3.338Y-19.093
X-3.338Y-21.518
X-3.338Y-23.943
X-3.338Y-26.368
X-3.338Y-28.793
X-3.338Y-31.217
X-3.338Y-33.642
X-3.338Y-36.067
X-3.338Y-38.492
X-3.338Y-40.917
X-3.338Y-43.342
X-3.338Y-45.767
X-3.338Y-48.192
X-3.338Y-50.616
X-3.338Y-53.041
X-2.638Y-5.756
X-2.638Y-8.181
X-2.638Y-10.606
X-2.638Y-13.031
X-2.638Y-15.456
X-2.638Y-17.881
X-2.638Y-20.306
X-2.638Y-22.73
X-2.638Y-25.155
X-2.638Y-27.58
X-2.638Y-30.005
X-2.638Y-32.43
X-2.638Y-34.855
X-2.638Y-37.28
X-2.638Y-39.705
X-2.638Y-42.129
X-2.638Y-44.554
X-2.638Y-46.979
X-2.638Y-49.404
X-2.638Y-51.829
X-2.638Y-54.254
X-1.938Y-4.544
X-1.938Y-6.969
X-1.938Y-9.394
X-1.938Y-11.819
X-1.938Y-14.243
X-1.938Y-16.668
X-1.938Y-19.093
X-1.938Y-21.518
X-1.938Y-23.943
X-1.938Y-26.368
X-1.938Y-28.793
X-1.938Y-31.217
X-1.938Y-33.642
X-1.938Y-36.067
X-1.938Y-38.492
X-1.938Y-40.917
X-1.938Y-43.342
X-1.938Y-45.767
X-1.938Y-48.192
X-1.938Y-50.616
X-1.938Y-53.041
X-1.238Y-3.331
X-1.238Y-5.756
X-1.238Y-8.181
X-1.238Y-10.606
X-1.238Y-13.031
X-1.238Y-15.456
X-1.238Y-17.881
X-1.238Y-20.306
X-1.238Y-22.73
X-1.238Y-25.155
X-1.238Y-27.58
X-1.238Y-30.005
X-1.238Y-32.43
X-1.238Y-34.855
X-1.238Y-37.28
X-1.238Y-39.705
X-1.238Y-42.129
X-1.238Y-44.554
X-1.238Y-46.979
X-1.238Y-49.404
X-1.238Y-51.829
X-1.238Y-54.254
X-0.538Y-2.119
X-0.538Y-4.544
X-0.538Y-6.969
X-0.538Y-9.394
X-0.538Y-11.819
X-0.538Y-14.243
X-0.538Y-16.668
X-0.538Y-19.093
X-0.538Y-21.518
X-0.538Y-23.943
X-0.538Y-26.368
X-0.538Y-28.793
X-0.538Y-31.217
X-0.538Y-33.642
X-0.538Y-36.067
X-0.538Y-38.492
X-0.538Y-40.917
X-0.538Y-43.342
X-0.538Y-45.767
X-0.538Y-48.192
X-0.538Y-50.616
X-0.538Y-53.041
X0.162Y-0.907
X0.162Y-3.331
X0.162Y-5.756
X0.162Y-8.181
X0.162Y-10.606
X0.162Y-13.031
X0.162Y-15.456
X0.162Y-17.881
X0.162Y-20.306
X0.162Y-22.73
X0.162Y-25.155
X0.162Y-27.58
X0.162Y-30.005
X0.162Y-32.43
X0.162Y-34.855
X0.162Y-37.28
X0.162Y-39.705
X0.162Y-42.129
X0.162Y-44.554
X0.162Y-46.979
X0.162Y-49.404
X0.162Y-51.829
X0.162Y-54.254
X0.862Y0.306
X0.862Y-2.119
X0.862Y-4.544
X0.862Y-6.969
X0.862Y-9.394
X0.862Y-11.819
X0.862Y-14.243
X0.862Y-16.668
X0.862Y-19.093
X0.862Y-21.518
X0.862Y-23.943
X0.862Y-26.368
X0.862Y-28.793
X0.862Y-31.217
X0.862Y-33.642
X0.862Y-36.067
X0.862Y-38.492
X0.862Y-40.917
X0.862Y-43.342
X0.862Y-45.767
X0.862Y-48.192
X0.862Y-50.616
X0.862Y-53.041
X1.562Y-0.907
X1.562Y-3.331
X1.562Y-5.756
X1.562Y-8.181
X1.562Y-10.606
X1.562Y-13.031
X1.562Y-15.456
X1.562Y-17.881
X1.562Y-20.306
X1.562Y-22.73
X1.562Y-25.155
X1.562Y-27.58
X1.562Y-30.005
X1.562Y-32.43
X1.562Y-34.855
X1.562Y-37.28
X1.562Y-39.705
X1.562Y-42.129
X1.562Y-44.554
X1.562Y-46.979
X1.562Y-49.404
X1.562Y-51.829
X1.562Y-54.254
X2.262Y0.306
X2.262Y-2.119
X2.262Y-4.544
X2.262Y-6.969
X2.262Y-9.394
X2.262Y-11.819
X2.262Y-14.243
X2.262Y-16.668
X2.262Y-19.093
X2.262Y-21.518
X2.262Y-23.943
X2.262Y-26.368
X2.262Y-28.793
X2.262Y-31.217
X2.262Y-33.642
X2.262Y-36.067
X2.262Y-38.492
X2.262Y-40.917
X2.262Y-43.342
X2.262Y-45.767
X2.262Y-48.192
X2.262Y-50.616
X2.262Y-53.041
X2.962Y-0.907
X2.962Y-3.331
X2.962Y-5.756
X2.962Y-8.181
X2.962Y-10.606
X2.962Y-13.031
X2.962Y-15.456
X2.962Y-17.881
X2.962Y-20.306
X2.962Y-22.73
X2.962Y-25.155
X2.962Y-27.58
X2.962Y-30.005
X2.962Y-32.43
X2.962Y-34.855
X2.962Y-37.28
X2.962Y-39.705
X2.962Y-42.129
X2.962Y-44.554
X2.962Y-46.979
X2.962Y-49.404
X2.962Y-51.829
X2.962Y-54.254
X3.662Y0.306
X3.662Y-2.119
X3.662Y-4.544
X3.662Y-6.969
X3.662Y-9.394
X3.662Y-11.819
X3.662Y-14.243
X3.662Y-16.668
X3.662Y-19.093
X3.662Y-21.518
X3.662Y-23.943
X3.662Y-26.368
X3.662Y-28.793
X3.662Y-31.217
X3.662Y-33.642
X3.662Y-36.067
X3.662Y-38.492
X3.662Y-40.917
X3.662Y-43.342
X3.662Y-45.767
X3.662Y-48.192
X3.662Y-50.616
X3.662Y-53.041
X4.362Y-0.907
X4.362Y-3.331
X4.362Y-5.756
X4.362Y-8.181
X4.362Y-10.606
X4.362Y-13.031
X4.362Y-15.456
X4.362Y-17.881
X4.362Y-20.306
X4.362Y-22.73
X4.362Y-25.155
X4.362Y-27.58
X4.362Y-30.005
X4.362Y-32.43
X4.362Y-34.855
X4.362Y-37.28
X4.362Y-39.705
X4.362Y-42.129
X4.362Y-44.554
X4.362Y-46.979
X4.362Y-49.404
X4.362Y-51.829
X4.362Y-54.254
X5.062Y0.306
X5.062Y-2.119
X5.062Y-4.544
X5.062Y-6.969
X5.062Y-9.394
X5.062Y-11.819
X5.062Y-14.243
X5.062Y-16.668
X5.062Y-19.093
X5.062Y-21.518
X5.062Y-23.943
X5.062Y-26.368
X5.062Y-28.793
X5.062Y-31.217
X5.062Y-33.642
X5.062Y-36.067
X5.062Y-38.492
X5.062Y-40.917
X5.062Y-43.342
X5.062Y-45.767
X5.062Y-48.192
X5.062Y-50.616
X5.062Y-53.041
X5.762Y-0.907
X5.762Y-3.331
X5.762Y-5.756
X5.762Y-8.181
X5.762Y-10.606
X5.762Y-13.031
X5.762Y-15.456
X5.762Y-17.881
X5.762Y-20.306
X5.762Y-22.73
X5.762Y-25.155
X5.762Y-27.58
X5.762Y-30.005
X5.762Y-32.43
X5.762Y-34.855
X5.762Y-37.28
X5.762Y-39.705
X5.762Y-42.129
X5.762Y-44.554
X5.762Y-46.979
X5.762Y-49.404
X5.762Y-51.829
X5.762Y-54.254
X6.462Y0.306
X6.462Y-2.119
X6.462Y-4.544
X6.462Y-6.969
X6.462Y-9.394
X6.462Y-11.819
X6.462Y-14.243
X6.462Y-16.668
X6.462Y-19.093
X6.462Y-21.518
X6.462Y-23.943
X6.462Y-26.368
X6.462Y-28.793
X6.462Y-31.217
X6.462Y-33.642
X6.462Y-36.067
X6.462Y-38.492
X6.462Y-40.917
X6.462Y-43.342
X6.462Y-45.767
X6.462Y-48.192
X6.462Y-50.616
X6.462Y-53.041
X7.162Y-0.907
X7.162Y-3.331
X7.162Y-5.756
X7.162Y-8.181
X7.162Y-10.606
X7.162Y-13.031
X7.162Y-15.456
X7.162Y-17.881
X7.162Y-20.306
X7.162Y-22.73
X7.162Y-25.155
X7.162Y-27.58
X7.162Y-30.005
X7.162Y-32.43
X7.162Y-34.855
X7.162Y-37.28
X7.162Y-39.705
X7.162Y-42.129
X7.162Y-44.554
X7.162Y-46.979
X7.162Y-49.404
X7.162Y-51.829
X7.162Y-54.254
X7.862Y0.306
X7.862Y-2.119
X7.862Y-4.544
X7.862Y-6.969
X7.862Y-9.394
X7.862Y-11.819
X7.862Y-14.243
X7.862Y-16.668
X7.862Y-19.093
X7.862Y-21.518
X7.862Y-23.943
X7.862Y-26.368
X7.862Y-28.793
X7.862Y-31.217
X7.862Y-33.642
X7.862Y-36.067
X7.862Y-38.492
X7.862Y-40.917
X7.862Y-43.342
X7.862Y-45.767
X7.862Y-48.192
X7.862Y-50.616
X7.862Y-53.041
X8.562Y-0.907
X8.562Y-3.331
X8.562Y-5.756
X8.562Y-8.181
X8.562Y-10.606
X8.562Y-13.031
X8.562Y-15.456
X8.562Y-17.881
X8.562Y-20.306
X8.562Y-22.73
X8.562Y-25.155
X8.562Y-27.58
X8.562Y-30.005
X8.562Y-32.43
X8.562Y-34.855
X8.562Y-37.28
X8.562Y-39.705
X8.562Y-42.129
X8.562Y-44.554
X8.562Y-46.979
X8.562Y-49.404
X8.562Y-51.829
X8.562Y-54.254
X9.262Y0.306
X9.262Y-2.119
X9.262Y-4.544
X9.262Y-6.969
X9.262Y-9.394
X9.262Y-11.819
X9.262Y-14.243
X9.262Y-16.668
X9.262Y-19.093
X9.262Y-21.518
X9.262Y-23.943
X9.262Y-26.368
X9.262Y-28.793
X9.262Y-31.217
X9.262Y-33.642
X9.262Y-36.067
X9.262Y-38.492
X9.262Y-40.917
X9.262Y-43.342
X9.262Y-45.767
X9.262Y-48.192
X9.262Y-50.616
X9.262Y-53.041
X9.962Y-0.907
X9.962Y-3.331
X9.962Y-5.756
X9.962Y-8.181
X9.962Y-10.606
X9.962Y-13.031
X9.962Y-15.456
X9.962Y-17.881
X9.962Y-20.306
X9.962Y-22.73
X9.962Y-25.155
X9.962Y-27.58
X9.962Y-30.005
X9.962Y-32.43
X9.962Y-34.855
X9.962Y-37.28
X9.962Y-39.705
X9.962Y-42.129
X9.962Y-44.554
X9.962Y-46.979
X9.962Y-49.404
X9.962Y-51.829
X9.962Y-54.254
X10.662Y0.306
X10.662Y-2.119
X10.662Y-4.544
X10.662Y-6.969
X10.662Y-9.394
X10.662Y-11.819
X10.662Y-14.243
X10.662Y-16.668
X10.662Y-19.093
X10.662Y-21.518
X10.662Y-23.943
X10.662Y-26.368
X10.662Y-28.793
X10.662Y-31.217
X10.662Y-33.642
X10.662Y-36.067
X10.662Y-38.492
X10.662Y-40.917
X10.662Y-43.342
X10.662Y-45.767
X10.662Y-48.192
X10.662Y-50.616
X10.662Y-53.041
X11.362Y-0.907
X11.362Y-3.331
X11.362Y-5.756
X11.362Y-8.181
X11.362Y-10.606
X11.362Y-13.031
X11.362Y-15.456
X11.362Y-17.881
X11.362Y-20.306
X11.362Y-22.73
X11.362Y-25.155
X11.362Y-27.58
X11.362Y-30.005
X11.362Y-32.43
X11.362Y-34.855
X11.362Y-37.28
X11.362Y-39.705
X11.362Y-42.129
X11.362Y-44.554
X11.362Y-46.979
X11.362Y-49.404
X11.362Y-51.829
X11.362Y-54.254
X12.062Y0.306
X12.062Y-2.119
X12.062Y-4.544
X12.062Y-6.969
X12.062Y-9.394
X12.062Y-11.819
X12.062Y-14.243
X12.062Y-16.668
X12.062Y-19.093
X12.062Y-21.518
X12.062Y-23.943
X12.062Y-26.368
X12.062Y-28.793
X12.062Y-31.217
X12.062Y-33.642
X12.062Y-36.067
X12.062Y-38.492
X12.062Y-40.917
X12.062Y-43.342
X12.062Y-45.767
X12.062Y-48.192
X12.062Y-50.616
X12.062Y-53.041
X12.762Y-0.907
X12.762Y-3.331
X12.762Y-5.756
X12.762Y-8.181
X12.762Y-10.606
X12.762Y-13.031
X12.762Y-15.456
X12.762Y-17.881
X12.762Y-20.306
X12.762Y-22.73
X12.762Y-25.155
X12.762Y-27.58
X12.762Y-30.005
X12.762Y-32.43
X12.762Y-34.855
X12.762Y-37.28
X12.762Y-39.705
X12.762Y-42.129
X12.762Y-44.554
X12.762Y-46.979
X12.762Y-49.404
X12.762Y-51.829
X12.762Y-54.254
X13.462Y0.306
X13.462Y-2.119
X13.462Y-4.544
X13.462Y-6.969
X13.462Y-9.394
X13.462Y-11.819
X13.462Y-14.243
X13.462Y-16.668
X13.462Y-19.093
X13.462Y-21.518
X13.462Y-23.943
X13.462Y-26.368
X13.462Y-28.793
X13.462Y-31.217
X13.462Y-33.642
X13.462Y-36.067
X13.462Y-38.492
X13.462Y-40.917
X13.462Y-43.342
X13.462Y-45.767
X13.462Y-48.192
X13.462Y-50.616
X13.462Y-53.041
X14.162Y-0.907
X14.162Y-3.331
X14.162Y-5.756
X14.162Y-8.181
X14.162Y-10.606
X14.162Y-13.031
X14.162Y-15.456
X14.162Y-17.881
X14.162Y-20.306
X14.162Y-22.73
X14.162Y-25.155
X14.162Y-27.58
X14.162Y-30.005
X14.162Y-32.43
X14.162Y-34.855
X14.162Y-37.28
X14.162Y-39.705
X14.162Y-42.129
X14.162Y-44.554
X14.162Y-46.979
X14.162Y-49.404
X14.162Y-51.829
X14.162Y-54.254
X14.862Y0.306
X14.862Y-2.119
X14.862Y-4.544
X14.862Y-6.969
X14.862Y-9.394
X14.862Y-11.819
X14.862Y-14.243
X14.862Y-16.668
X14.862Y-19.093
X14.862Y-21.518
X14.862Y-23.943
X14.862Y-26.368
X14.862Y-28.793
X14.862Y-31.217
X14.862Y-33.642
X14.862Y-36.067
X14.862Y-38.492
X14.862Y-40.917
X14.862Y-43.342
X14.862Y-45.767
X14.862Y-48.192
X14.862Y-50.616
X14.862Y-53.041
X15.562Y-0.907
X15.562Y-3.331
X15.562Y-5.756
X15.562Y-8.181
X15.562Y-10.606
X15.562Y-13.031
X15.562Y-15.456
X15.562Y-17.881
X15.562Y-20.306
X15.562Y-22.73
X15.562Y-25.155
X15.562Y-27.58
X15.562Y-30.005
X15.562Y-32.43
X15.562Y-34.855
X15.562Y-37.28
X15.562Y-39.705
X15.562Y-42.129
X15.562Y-44.554
X15.562Y-46.979
X15.562Y-49.404
X15.562Y-51.829
X15.562Y-54.254
X16.262Y0.306
X16.262Y-2.119
X16.262Y-4.544
X16.262Y-6.969
X16.262Y-9.394
X16.262Y-11.819
X16.262Y-14.243
X16.262Y-16.668
X16.262Y-19.093
X16.262Y-21.518
X16.262Y-23.943
X16.262Y-26.368
X16.262Y-28.793
X16.262Y-31.217
X16.262Y-33.642
X16.262Y-36.067
X16.262Y-38.492
X16.262Y-40.917
X16.262Y-43.342
X16.262Y-45.767
X16.262Y-48.192
X16.262Y-50.616
X16.262Y-53.041
X16.962Y-0.907
X16.962Y-3.331
X16.962Y-5.756
X16.962Y-8.181
X16.962Y-10.606
X16.962Y-13.031
X16.962Y-15.456
X16.962Y-17.881
X16.962Y-20.306
X16.962Y-22.73
X16.962Y-25.155
X16.962Y-27.58
X16.962Y-30.005
X16.962Y-32.43
X16.962Y-34.855
X16.962Y-37.28
X16.962Y-39.705
X16.962Y-42.129
X16.962Y-44.554
X16.962Y-46.979
X16.962Y-49.404
X16.962Y-51.829
X16.962Y-54.254
X17.662Y0.306
X17.662Y-2.119
X17.662Y-4.544
X17.662Y-6.969
X17.662Y-9.394
X17.662Y-11.819
X17.662Y-14.243
X17.662Y-16.668
X17.662Y-19.093
X17.662Y-21.518
X17.662Y-23.943
X17.662Y-26.368
X17.662Y-28.793
X17.662Y-31.217
X17.662Y-33.642
X17.662Y-36.067
X17.662Y-38.492
X17.662Y-40.917
X17.662Y-43.342
X17.662Y-45.767
X17.662Y-48.192
X17.662Y-50.616
X17.662Y-53.041
X18.362Y-0.907
X18.362Y-3.331
X18.362Y-5.756
X18.362Y-8.181
X18.362Y-10.606
X18.362Y-13.031
X18.362Y-15.456
X18.362Y-17.881
X18.362Y-20.306
X18.362Y-22.73
X18.362Y-25.155
X18.362Y-27.58
X18.362Y-30.005
X18.362Y-32.43
X18.362Y-34.855
X18.362Y-37.28
X18.362Y-39.705
X18.362Y-42.129
X18.362Y-44.554
X18.362Y-46.979
X18.362Y-49.404
X18.362Y-51.829
X18.362Y-54.254
X19.062Y0.306
X19.062Y-2.119
X19.062Y-4.544
X19.062Y-6.969
X19.062Y-9.394
X19.062Y-11.819
X19.062Y-14.243
X19.062Y-16.668
X19.062Y-19.093
X19.062Y-21.518
X19.062Y-23.943
X19.062Y-26.368
X19.062Y-28.793
X19.062Y-31.217
X19.062Y-33.642
X19.062Y-36.067
X19.062Y-38.492
X19.062Y-40.917
X19.062Y-43.342
X19.062Y-45.767
X19.062Y-48.192
X19.062Y-50.616
X19.062Y-53.041
X19.762Y-0.907
X19.762Y-3.331
X19.762Y-5.756
X19.762Y-8.181
X19.762Y-10.606
X19.762Y-13.031
X19.762Y-15.456
X19.762Y-17.881
X19.762Y-20.306
X19.762Y-22.73
X19.762Y-25.155
X19.762Y-27.58
X19.762Y-30.005
X19.762Y-32.43
X19.762Y-34.855
X19.762Y-37.28
X19.762Y-39.705
X19.762Y-42.129
X19.762Y-44.554
X19.762Y-46.979
X19.762Y-49.404
X19.762Y-51.829
X19.762Y-54.254
X20.462Y0.306
X20.462Y-2.119
X20.462Y-4.544
X20.462Y-6.969
X20.462Y-9.394
X20.462Y-11.819
X20.462Y-14.243
X20.462Y-16.668
X20.462Y-19.093
X20.462Y-21.518
X20.462Y-23.943
X20.462Y-26.368
X20.462Y-28.793
X20.462Y-31.217
X20.462Y-33.642
X20.462Y-36.067
X20.462Y-38.492
X20.462Y-40.917
X20.462Y-43.342
X20.462Y-45.767
X20.462Y-48.192
X20.462Y-50.616
X20.462Y-53.041
X21.162Y-0.907
X21.162Y-3.331
X21.162Y-5.756
X21.162Y-8.181
X21.162Y-10.606
X21.162Y-13.031
X21.162Y-15.456
X21.162Y-17.881
X21.162Y-20.306
X21.162Y-22.73
X21.162Y-25.155
X21.162Y-27.58
X21.162Y-30.005
X21.162Y-32.43
X21.162Y-34.855
X21.162Y-37.28
X21.162Y-39.705
X21.162Y-42.129
X21.162Y-44.554
X21.162Y-46.979
X21.162Y-49.404
X21.162Y-51.829
X21.162Y-54.254
X21.862Y0.306
X21.862Y-2.119
X21.862Y-4.544
X21.862Y-6.969
X21.862Y-9.394
X21.862Y-11.819
X21.862Y-14.243
X21.862Y-16.668
X21.862Y-19.093
X21.862Y-21.518
X21.862Y-23.943
X21.862Y-26.368
X21.862Y-28.793
X21.862Y-31.217
X21.862Y-33.642
X21.862Y-36.067
X21.862Y-38.492
X21.862Y-40.917
X21.862Y-43.342
X21.862Y-45.767
X21.862Y-48.192
X21.862Y-50.616
X21.862Y-53.041
X22.562Y-0.907
X22.562Y-3.331
X22.562Y-5.756
X22.562Y-8.181
X22.562Y-10.606
X22.562Y-13.031
X22.562Y-15.456
X22.562Y-17.881
X22.562Y-20.306
X22.562Y-22.73
X22.562Y-25.155
X22.562Y-27.58
X22.562Y-30.005
X22.562Y-32.43
X22.562Y-34.855
X22.562Y-37.28
X22.562Y-39.705
X22.562Y-42.129
X22.562Y-44.554
X22.562Y-46.979
X22.562Y-49.404
X22.562Y-51.829
X22.562Y-54.254
X23.262Y0.306
X23.262Y-2.119
X23.262Y-4.544
X23.262Y-6.969
X23.262Y-9.394
X23.262Y-11.819
X23.262Y-14.243
X23.262Y-16.668
X23.262Y-19.093
X23.262Y-21.518
X23.262Y-23.943
X23.262Y-26.368
X23.262Y-28.793
X23.262Y-31.217
X23.262Y-33.642
X23.262Y-36.067
X23.262Y-38.492
X23.262Y-40.917
X23.262Y-43.342
X23.262Y-45.767
X23.262Y-48.192
X23.262Y-50.616
X23.262Y-53.041
X23.962Y-0.907
X23.962Y-3.331
X23.962Y-5.756
X23.962Y-8.181
X23.962Y-10.606
X23.962Y-13.031
X23.962Y-15.456
X23.962Y-17.881
X23.962Y-20.306
X23.962Y-22.73
X23.962Y-25.155
X23.962Y-27.58
X23.962Y-30.005
X23.962Y-32.43
X23.962Y-34.855
X23.962Y-37.28
X23.962Y-39.705
X23.962Y-42.129
X23.962Y-44.554
X23.962Y-46.979
X23.962Y-49.404
X23.962Y-51.829
X23.962Y-54.254
X24.662Y0.306
X24.662Y-2.119
X24.662Y-4.544
X24.662Y-6.969
X24.662Y-9.394
X24.662Y-11.819
X24.662Y-14.243
X24.662Y-16.668
X24.662Y-19.093
X24.662Y-21.518
X24.662Y-23.943
X24.662Y-26.368
X24.662Y-28.793
X24.662Y-31.217
X24.662Y-33.642
X24.662Y-36.067
X24.662Y-38.492
X24.662Y-40.917
X24.662Y-43.342
X24.662Y-45.767
X24.662Y-48.192
X24.662Y-50.616
X24.662Y-53.041
X25.362Y-0.907
X25.362Y-3.331
X25.362Y-5.756
X25.362Y-8.181
X25.362Y-10.606
X25.362Y-13.031
X25.362Y-15.456
X25.362Y-17.881
X25.362Y-20.306
X25.362Y-22.73
X25.362Y-25.155
X25.362Y-27.58
X25.362Y-30.005
X25.362Y-32.43
X25.362Y-34.855
X25.362Y-37.28
X25.362Y-39.705
X25.362Y-42.129
X25.362Y-44.554
X25.362Y-46.979
X25.362Y-49.404
X25.362Y-51.829
X25.362Y-54.254
X26.062Y0.306
X26.062Y-2.119
X26.062Y-4.544
X26.062Y-6.969
X26.062Y-9.394
X26.062Y-11.819
X26.062Y-14.243
X26.062Y-16.668
X26.062Y-19.093
X26.062Y-21.518
X26.062Y-23.943
X26.062Y-26.368
X26.062Y-28.793
X26.062Y-31.217
X26.062Y-33.642
X26.062Y-36.067
X26.062Y-38.492
X26.062Y-40.917
X26.062Y-43.342
X26.062Y-45.767
X26.062Y-48.192
X26.062Y-50.616
X26.062Y-53.041
X26.762Y-0.907
X26.762Y-3.331
X26.762Y-5.756
X26.762Y-8.181
X26.762Y-10.606
X26.762Y-13.031
X26.762Y-15.456
X26.762Y-17.881
X26.762Y-20.306
X26.762Y-22.73
X26.762Y-25.155
X26.762Y-27.58
X26.762Y-30.005
X26.762Y-32.43
X26.762Y-34.855
X26.762Y-37.28
X26.762Y-39.705
X26.762Y-42.129
X26.762Y-44.554
X26.762Y-46.979
X26.762Y-49.404
X26.762Y-51.829
X26.762Y-54.254
X27.462Y0.306
X27.462Y-2.119
X27.462Y-4.544
X27.462Y-6.969
X27.462Y-9.394
X27.462Y-11.819
X27.462Y-14.243
X27.462Y-16.668
X27.462Y-19.093
X27.462Y-21.518
X27.462Y-23.943
X27.462Y-26.368
X27.462Y-28.793
X27.462Y-31.217
X27.462Y-33.642
X27.462Y-36.067
X27.462Y-38.492
X27.462Y-40.917
X27.462Y-43.342
X27.462Y-45.767
X27.462Y-48.192
X27.462Y-50.616
X27.462Y-53.041
X28.162Y-0.907
X28.162Y-3.331
X28.162Y-5.756
X28.162Y-8.181
X28.162Y-10.606
X28.162Y-13.031
X28.162Y-15.456
X28.162Y-17.881
X28.162Y-20.306
X28.162Y-22.73
X28.162Y-25.155
X28.162Y-27.58
X28.162Y-30.005
X28.162Y-32.43
X28.162Y-34.855
X28.162Y-37.28
X28.162Y-39.705
X28.162Y-42.129
X28.162Y-44.554
X28.162Y-46.979
X28.162Y-49.404
X28.162Y-51.829
X28.162Y-54.254
X28.862Y0.306
X28.862Y-2.119
X28.862Y-4.544
X28.862Y-6.969
X28.862Y-9.394
X28.862Y-11.819
X28.862Y-14.243
X28.862Y-16.668
X28.862Y-19.093
X28.862Y-21.518
X28.862Y-23.943
X28.862Y-26.368
X28.862Y-28.793
X28.862Y-31.217
X28.862Y-33.642
X28.862Y-36.067
X28.862Y-38.492
X28.862Y-40.917
X28.862Y-43.342
X28.862Y-45.767
X28.862Y-48.192
X28.862Y-50.616
X28.862Y-53.041
X29.562Y-0.907
X29.562Y-3.331
X29.562Y-5.756
X29.562Y-8.181
X29.562Y-10.606
X29.562Y-13.031
X29.562Y-15.456
X29.562Y-17.881
X29.562Y-20.306
X29.562Y-22.73
X29.562Y-25.155
X29.562Y-27.58
X29.562Y-30.005
X29.562Y-32.43
X29.562Y-34.855
X29.562Y-37.28
X29.562Y-39.705
X29.562Y-42.129
X29.562Y-44.554
X29.562Y-46.979
X29.562Y-49.404
X29.562Y-51.829
X29.562Y-54.254
X30.262Y0.306
X30.262Y-2.119
X30.262Y-4.544
X30.262Y-6.969
X30.262Y-9.394
X30.262Y-11.819
X30.262Y-14.243
X30.262Y-16.668
X30.262Y-19.093
X30.262Y-21.518
X30.262Y-23.943
X30.262Y-26.368
X30.262Y-28.793
X30.262Y-31.217
X30.262Y-33.642
X30.262Y-36.067
X30.262Y-38.492
X30.262Y-40.917
X30.262Y-43.342
X30.262Y-45.767
X30.262Y-48.192
X30.262Y-50.616
X30.262Y-53.041
X30.962Y-0.907
X30.962Y-3.331
X30.962Y-5.756
X30.962Y-8.181
X30.962Y-10.606
X30.962Y-13.031
X30.962Y-15.456
X30.962Y-17.881
X30.962Y-20.306
X30.962Y-22.73
X30.962Y-25.155
X30.962Y-27.58
X30.962Y-30.005
X30.962Y-32.43
X30.962Y-34.855
X30.962Y-37.28
X30.962Y-39.705
X30.962Y-42.129
X30.962Y-44.554
X30.962Y-46.979
X30.962Y-49.404
X30.962Y-51.829
X30.962Y-54.254
X31.662Y0.306
X31.662Y-2.119
X31.662Y-4.544
X31.662Y-6.969
X31.662Y-9.394
X31.662Y-11.819
X31.662Y-14.243
X31.662Y-16.668
X31.662Y-19.093
X31.662Y-21.518
X31.662Y-23.943
X31.662Y-26.368
X31.662Y-28.793
X31.662Y-31.217
X31.662Y-33.642
X31.662Y-36.067
X31.662Y-38.492
X31.662Y-40.917
X31.662Y-43.342
X31.662Y-45.767
X31.662Y-48.192
X31.662Y-50.616
X31.662Y-53.041
X32.362Y-0.907
X32.362Y-3.331
X32.362Y-5.756
X32.362Y-8.181
X32.362Y-10.606
X32.362Y-13.031
X32.362Y-15.456
X32.362Y-17.881
X32.362Y-20.306
X32.362Y-22.73
X32.362Y-25.155
X32.362Y-27.58
X32.362Y-30.005
X32.362Y-32.43
X32.362Y-34.855
X32.362Y-37.28
X32.362Y-39.705
X32.362Y-42.129
X32.362Y-44.554
X32.362Y-46.979
X32.362Y-49.404
X32.362Y-51.829
X32.362Y-54.254
X33.062Y0.306
X33.062Y-2.119
X33.062Y-4.544
X33.062Y-6.969
X33.062Y-9.394
X33.062Y-11.819
X33.062Y-14.243
X33.062Y-16.668
X33.062Y-19.093
X33.062Y-21.518
X33.062Y-23.943
X33.062Y-26.368
X33.062Y-28.793
X33.062Y-31.217
X33.062Y-33.642
X33.062Y-36.067
X33.062Y-38.492
X33.062Y-40.917
X33.062Y-43.342
X33.062Y-45.767
X33.062Y-48.192
X33.062Y-50.616
X33.062Y-53.041
X33.762Y-0.907
X33.762Y-3.331
X33.762Y-5.756
X33.762Y-8.181
X33.762Y-10.606
X33.762Y-13.031
X33.762Y-15.456
X33.762Y-17.881
X33.762Y-20.306
X33.762Y-22.73
X33.762Y-25.155
X33.762Y-27.58
X33.762Y-30.005
X33.762Y-32.43
X33.762Y-34.855
X33.762Y-37.28
X33.762Y-39.705
X33.762Y-42.129
X33.762Y-44.554
X33.762Y-46.979
X33.762Y-49.404
X33.762Y-51.829
X34.462Y0.306
X34.462Y-2.119
X34.462Y-4.544
X34.462Y-6.969
X34.462Y-9.394
X34.462Y-11.819
X34.462Y-14.243
X34.462Y-16.668
X34.462Y-19.093
X34.462Y-21.518
X34.462Y-23.943
X34.462Y-26.368
X34.462Y-28.793
X34.462Y-31.217
X34.462Y-33.642
X34.462Y-36.067
X34.462Y-38.492
X34.462Y-40.917
X34.462Y-43.342
X34.462Y-45.767
X34.462Y-48.192
X34.462Y-50.616
X34.652Y-55.699
X35.162Y-0.907
X35.162Y-3.331
X35.162Y-5.756
X35.162Y-8.181
X35.162Y-10.606
X35.162Y-13.031
X35.162Y-15.456
X35.162Y-17.881
X35.162Y-20.306
X35.162Y-22.73
X35.162Y-25.155
X35.162Y-27.58
X35.162Y-30.005
X35.162Y-32.43
X35.162Y-34.855
X35.162Y-37.28
X35.162Y-39.705
X35.162Y-42.129
X35.162Y-44.554
X35.162Y-46.979
X35.162Y-49.404
X35.862Y0.306
X35.862Y-2.119
X35.862Y-4.544
X35.862Y-6.969
X35.862Y-9.394
X35.862Y-11.819
X35.862Y-14.243
X35.862Y-16.668
X35.862Y-19.093
X35.862Y-21.518
X35.862Y-23.943
X35.862Y-26.368
X35.862Y-28.793
X35.862Y-31.217
X35.862Y-33.642
X35.862Y-36.067
X35.862Y-38.492
X35.862Y-40.917
X35.862Y-43.342
X35.862Y-45.767
X35.862Y-48.192
X35.922Y-53.499
X36.562Y-0.907
X36.562Y-3.331
X36.562Y-5.756
X36.562Y-8.181
X36.562Y-10.606
X36.562Y-13.031
X36.562Y-15.456
X36.562Y-17.881
X36.562Y-20.306
X36.562Y-22.73
X36.562Y-25.155
X36.562Y-27.58
X36.562Y-30.005
X36.562Y-32.43
X36.562Y-34.855
X36.562Y-37.28
X36.562Y-39.705
X36.562Y-42.129
X36.562Y-44.554
X36.562Y-46.979
X37.192Y-51.299
X37.262Y0.306
X37.262Y-2.119
X37.262Y-4.544
X37.262Y-6.969
X37.262Y-9.394
X37.262Y-11.819
X37.262Y-14.243
X37.262Y-16.668
X37.262Y-19.093
X37.262Y-21.518
X37.262Y-23.943
X37.262Y-26.368
X37.262Y-28.793
X37.262Y-31.217
X37.262Y-33.642
X37.262Y-36.067
X37.262Y-38.492
X37.262Y-40.917
X37.262Y-43.342
X37.262Y-45.767
X37.962Y-0.907
X37.962Y-3.331
X37.962Y-5.756
X37.962Y-8.181
X37.962Y-10.606
X37.962Y-13.031
X37.962Y-15.456
X37.962Y-17.881
X37.962Y-20.306
X37.962Y-22.73
X37.962Y-25.155
X37.962Y-27.58
X37.962Y-30.005
X37.962Y-32.43
X37.962Y-34.855
X37.962Y-37.28
X37.962Y-39.705
X37.962Y-42.129
X37.962Y-44.554
X38.462Y-49.099
X38.662Y0.306
X38.662Y-2.119
X38.662Y-4.544
X38.662Y-6.969
X38.662Y-9.394
X38.662Y-11.819
X38.662Y-14.243
X38.662Y-16.668
X38.662Y-19.093
X38.662Y-21.518
X38.662Y-23.943
X38.662Y-26.368
X38.662Y-28.793
X38.662Y-31.217
X38.662Y-33.642
X38.662Y-36.067
X38.662Y-38.492
X38.662Y-40.917
X38.662Y-43.342
X39.362Y-0.907
X39.362Y-3.331
X39.362Y-5.756
X39.362Y-8.181
X39.362Y-10.606
X39.362Y-13.031
X39.362Y-15.456
X39.362Y-17.881
X39.362Y-20.306
X39.362Y-22.73
X39.362Y-25.155
X39.362Y-27.58
X39.362Y-30.005
X39.362Y-32.43
X39.362Y-34.855
X39.362Y-37.28
X39.362Y-39.705
X39.362Y-42.129
X39.732Y-46.9
X40.062Y0.306
X40.062Y-2.119
X40.062Y-4.544
X40.062Y-6.969
X40.062Y-9.394
X40.062Y-11.819
X40.062Y-14.243
X40.062Y-16.668
X40.062Y-19.093
X40.062Y-21.518
X40.062Y-23.943
X40.062Y-26.368
X40.062Y-28.793
X40.062Y-31.217
X40.062Y-33.642
X40.062Y-36.067
X40.062Y-38.492
X40.062Y-40.917
X40.762Y-0.907
X40.762Y-3.331
X40.762Y-5.756
X40.762Y-8.181
X40.762Y-10.606
X40.762Y-13.031
X40.762Y-15.456
X40.762Y-17.881
X40.762Y-20.306
X40.762Y-22.73
X40.762Y-25.155
X40.762Y-27.58
X40.762Y-30.005
X40.762Y-32.43
X40.762Y-34.855
X40.762Y-37.28
X40.762Y-39.705
X41.002Y-44.7
X41.462Y0.306
X41.462Y-2.119
X41.462Y-4.544
X41.462Y-6.969
X41.462Y-9.394
X41.462Y-11.819
X41.462Y-14.243
X41.462Y-16.668
X41.462Y-19.093
X41.462Y-21.518
X41.462Y-23.943
X41.462Y-26.368
X41.462Y-28.793
X41.462Y-31.217
X41.462Y-33.642
X41.462Y-36.067
X41.462Y-38.492
X42.162Y-0.907
X42.162Y-3.331
X42.162Y-5.756
X42.162Y-8.181
X42.162Y-10.606
X42.162Y-13.031
X42.162Y-15.456
X42.162Y-17.881
X42.162Y-20.306
X42.162Y-22.73
X42.162Y-25.155
X42.162Y-27.58
X42.162Y-30.005
X42.162Y-32.43
X42.162Y-34.855
X42.162Y-37.28
X42.272Y-42.5
X42.862Y0.306
X42.862Y-2.119
X42.862Y-4.544
X42.862Y-6.969
X42.862Y-9.394
X42.862Y-11.819
X42.862Y-14.243
X42.862Y-16.668
X42.862Y-19.093
X42.862Y-21.518
X42.862Y-23.943
X42.862Y-26.368
X42.862Y-28.793
X42.862Y-31.217
X42.862Y-33.642
X42.862Y-36.067
X43.542Y-40.301
X43.562Y-0.907
X43.562Y-3.331
X43.562Y-5.756
X43.562Y-8.181
X43.562Y-10.606
X43.562Y-13.031
X43.562Y-15.456
X43.562Y-17.881
X43.562Y-20.306
X43.562Y-22.73
X43.562Y-25.155
X43.562Y-27.58
X43.562Y-30.005
X43.562Y-32.43
X43.562Y-34.855
X44.262Y0.306
X44.262Y-2.119
X44.262Y-4.544
X44.262Y-6.969
X44.262Y-9.394
X44.262Y-11.819
X44.262Y-14.243
X44.262Y-16.668
X44.262Y-19.093
X44.262Y-21.518
X44.262Y-23.943
X44.262Y-26.368
X44.262Y-28.793
X44.262Y-31.217
X44.262Y-33.642
X44.812Y-38.101
X44.962Y-0.907
X44.962Y-3.331
X44.962Y-5.756
X44.962Y-8.181
X44.962Y-10.606
X44.962Y-13.031
X44.962Y-15.456
X44.962Y-17.881
X44.962Y-20.306
X44.962Y-22.73
X44.962Y-25.155
X44.962Y-27.58
X44.962Y-30.005
X44.962Y-32.43
X45.662Y0.306
X45.662Y-2.119
X45.662Y-4.544
X45.662Y-6.969
X45.662Y-9.394
X45.662Y-11.819
X45.662Y-14.243
X45.662Y-16.668
X45.662Y-19.093
X45.662Y-21.518
X45.662Y-23.943
X45.662Y-26.368
X45.662Y-28.793
X45.662Y-31.217
X45.945Y-62.219
X46.082Y-35.901
X46.362Y-0.907
X46.362Y-3.331
X46.362Y-5.756
X46.362Y-8.181
X46.362Y-10.606
X46.362Y-13.031
X46.362Y-15.456
X46.362Y-17.881
X46.362Y-20.306
X46.362Y-22.73
X46.362Y-25.155
X46.362Y-27.58
X46.362Y-30.005
X47.062Y0.306
X47.062Y-2.119
X47.062Y-4.544
X47.062Y-6.969
X47.062Y-9.394
X47.062Y-11.819
X47.062Y-14.243
X47.062Y-16.668
X47.062Y-19.093
X47.062Y-21.518
X47.062Y-23.943
X47.062Y-26.368
X47.062Y-28.793
X47.215Y-60.019
X47.352Y-33.701
X47.762Y-0.907
X47.762Y-3.331
X47.762Y-5.756
X47.762Y-8.181
X47.762Y-10.606
X47.762Y-13.031
X47.762Y-15.456
X47.762Y-17.881
X47.762Y-20.306
X47.762Y-22.73
X47.762Y-25.155
X47.762Y-27.58
X48.462Y0.306
X48.462Y-2.119
X48.462Y-4.544
X48.462Y-6.969
X48.462Y-9.394
X48.462Y-11.819
X48.462Y-14.243
X48.462Y-16.668
X48.462Y-19.093
X48.462Y-21.518
X48.462Y-23.943
X48.462Y-26.368
X48.485Y-57.819
X48.622Y-31.502
X49.162Y-0.907
X49.162Y-3.331
X49.162Y-5.756
X49.162Y-8.181
X49.162Y-10.606
X49.162Y-13.031
X49.162Y-15.456
X49.162Y-17.881
X49.162Y-20.306
X49.162Y-22.73
X49.162Y-25.155
X49.755Y-55.619
X49.862Y0.306
X49.862Y-2.119
X49.862Y-4.544
X49.862Y-6.969
X49.862Y-9.394
X49.862Y-11.819
X49.862Y-14.243
X49.862Y-16.668
X49.862Y-19.093
X49.862Y-21.518
X49.862Y-23.943
X50.562Y-0.907
X50.562Y-3.331
X50.562Y-5.756
X50.562Y-8.181
X50.562Y-10.606
X50.562Y-13.031
X50.562Y-15.456
X50.562Y-17.881
X50.562Y-20.306
X50.562Y-22.73
X51.025Y-53.42
X51.262Y0.306
X51.262Y-2.119
X51.262Y-4.544
X51.262Y-6.969
X51.262Y-9.394
X51.262Y-11.819
X51.262Y-14.243
X51.262Y-16.668
X51.262Y-19.093
X51.262Y-21.518
X51.962Y-0.907
X51.962Y-3.331
X51.962Y-5.756
X51.962Y-8.181
X51.962Y-10.606
X51.962Y-13.031
X51.962Y-15.456
X51.962Y-17.881
X51.962Y-20.306
X52.295Y-51.22
X52.662Y0.306
X52.662Y-2.119
X52.662Y-4.544
X52.662Y-6.969
X52.662Y-9.394
X52.662Y-11.819
X52.662Y-14.243
X52.662Y-16.668
X52.662Y-19.093
X53.362Y-0.907
X53.362Y-3.331
X53.362Y-5.756
X53.362Y-8.181
X53.362Y-10.606
X53.362Y-13.031
X53.362Y-15.456
X53.362Y-17.881
X53.565Y-49.02
X54.062Y0.306
X54.062Y-2.119
X54.062Y-4.544
X54.062Y-6.969
X54.062Y-9.394
X54.062Y-11.819
X54.062Y-14.243
X54.062Y-16.668
X54.762Y-0.907
X54.762Y-3.331
X54.762Y-5.756
X54.762Y-8.181
X54.762Y-10.606
X54.762Y-13.031
X54.762Y-15.456
X54.835Y-46.821
X55.462Y0.306
X55.462Y-2.119
X55.462Y-4.544
X55.462Y-6.969
X55.462Y-9.394
X55.462Y-11.819
X55.462Y-14.243
X56.105Y-44.621
X56.162Y-0.907
X56.162Y-3.331
X56.162Y-5.756
X56.162Y-8.181
X56.162Y-10.606
X56.162Y-13.031
X56.862Y0.306
X56.862Y-2.119
X56.862Y-4.544
X56.862Y-6.969
X56.862Y-9.394
X56.862Y-11.819
X57.375Y-42.421
X57.562Y-0.907
X57.562Y-3.331
X57.562Y-5.756
X57.562Y-8.181
X57.562Y-10.606
X58.262Y0.306
X58.262Y-2.119
X58.262Y-4.544
X58.262Y-6.969
X58.262Y-9.394
X58.645Y-40.221
X58.962Y-0.907
X58.962Y-3.331
X58.962Y-5.756
X58.962Y-8.181
X59.662Y0.306
X59.662Y-2.119
X59.662Y-4.544
X59.662Y-6.969
X59.915Y-38.022
X60.362Y-0.907
X60.362Y-3.331
X60.362Y-5.756
X61.062Y0.306
X61.062Y-2.119
X61.062Y-4.544
X61.762Y-0.907
X61.762Y-3.331
X62.462Y0.306
X62.462Y-2.119
X63.162Y-0.907
X63.862Y0.306
M30
