%TF.GenerationSoftware,KiCad,Pcbnew,8.0.8*%
%TF.CreationDate,2025-03-26T10:56:16-07:00*%
%TF.ProjectId,led_mapper_850,6c65645f-6d61-4707-9065-725f3835302e,rev?*%
%TF.SameCoordinates,Original*%
%TF.FileFunction,Soldermask,Top*%
%TF.FilePolarity,Negative*%
%FSLAX46Y46*%
G04 Gerber Fmt 4.6, Leading zero omitted, Abs format (unit mm)*
G04 Created by KiCad (PCBNEW 8.0.8) date 2025-03-26 10:56:16*
%MOMM*%
%LPD*%
G01*
G04 APERTURE LIST*
G04 Aperture macros list*
%AMRoundRect*
0 Rectangle with rounded corners*
0 $1 Rounding radius*
0 $2 $3 $4 $5 $6 $7 $8 $9 X,Y pos of 4 corners*
0 Add a 4 corners polygon primitive as box body*
4,1,4,$2,$3,$4,$5,$6,$7,$8,$9,$2,$3,0*
0 Add four circle primitives for the rounded corners*
1,1,$1+$1,$2,$3*
1,1,$1+$1,$4,$5*
1,1,$1+$1,$6,$7*
1,1,$1+$1,$8,$9*
0 Add four rect primitives between the rounded corners*
20,1,$1+$1,$2,$3,$4,$5,0*
20,1,$1+$1,$4,$5,$6,$7,0*
20,1,$1+$1,$6,$7,$8,$9,0*
20,1,$1+$1,$8,$9,$2,$3,0*%
G04 Aperture macros list end*
%ADD10RoundRect,0.100000X0.021603X-0.162583X0.151603X0.062583X-0.021603X0.162583X-0.151603X-0.062583X0*%
G04 APERTURE END LIST*
D10*
%TO.C,D1197*%
X-18360000Y-31800452D03*
X-18040000Y-31246196D03*
%TD*%
%TO.C,D1404*%
X11040000Y-36650194D03*
X11360000Y-36095938D03*
%TD*%
%TO.C,D104*%
X13840000Y-2701999D03*
X14160000Y-2147743D03*
%TD*%
%TO.C,D1631*%
X-28860000Y-54836728D03*
X-28540000Y-54282472D03*
%TD*%
%TO.C,D1789*%
X10340000Y-49986986D03*
X10660000Y-49432730D03*
%TD*%
%TO.C,D339*%
X17340000Y-8764176D03*
X17660000Y-8209920D03*
%TD*%
%TO.C,D1783*%
X18740000Y-49986986D03*
X19060000Y-49432730D03*
%TD*%
%TO.C,D827*%
X22240000Y-19676097D03*
X22560000Y-19121841D03*
%TD*%
%TO.C,D2007*%
X30640000Y-43924808D03*
X30960000Y-43370552D03*
%TD*%
%TO.C,D1951*%
X-21160000Y-46349679D03*
X-20840000Y-45795423D03*
%TD*%
%TO.C,D1747*%
X4040000Y-51199421D03*
X4360000Y-50645165D03*
%TD*%
%TO.C,D361*%
X48140000Y-8764176D03*
X48460000Y-8209920D03*
%TD*%
%TO.C,D132*%
X53040000Y-2701999D03*
X53360000Y-2147743D03*
%TD*%
%TO.C,D1683*%
X28540000Y-52411857D03*
X28860000Y-51857601D03*
%TD*%
%TO.C,D1757*%
X-9960000Y-51199421D03*
X-9640000Y-50645165D03*
%TD*%
%TO.C,D2017*%
X16640000Y-43924808D03*
X16960000Y-43370552D03*
%TD*%
%TO.C,D1595*%
X21540000Y-54836728D03*
X21860000Y-54282472D03*
%TD*%
%TO.C,D1805*%
X-12060000Y-49986986D03*
X-11740000Y-49432730D03*
%TD*%
%TO.C,D345*%
X25740000Y-8764176D03*
X26060000Y-8209920D03*
%TD*%
%TO.C,D123*%
X40440000Y-2701999D03*
X40760000Y-2147743D03*
%TD*%
%TO.C,D1441*%
X-2260000Y-37862630D03*
X-1940000Y-37308374D03*
%TD*%
%TO.C,D207*%
X27840000Y-5126870D03*
X28160000Y-4572614D03*
%TD*%
%TO.C,D1846*%
X-4360000Y-48774550D03*
X-4040000Y-48220294D03*
%TD*%
%TO.C,D1159*%
X-6460000Y-30588017D03*
X-6140000Y-30033761D03*
%TD*%
%TO.C,D146*%
X7540000Y-3914434D03*
X7860000Y-3360178D03*
%TD*%
%TO.C,D217*%
X41840000Y-5126870D03*
X42160000Y-4572614D03*
%TD*%
%TO.C,D444*%
X34140000Y-11189048D03*
X34460000Y-10634792D03*
%TD*%
%TO.C,D1015*%
X19440000Y-14826354D03*
X19760000Y-14272098D03*
%TD*%
%TO.C,D329*%
X3340000Y-8764176D03*
X3660000Y-8209920D03*
%TD*%
%TO.C,D268*%
X48140000Y-6339305D03*
X48460000Y-5785049D03*
%TD*%
%TO.C,D1109*%
X-11360000Y-29375581D03*
X-11040000Y-28821325D03*
%TD*%
%TO.C,D1274*%
X24340000Y-33012888D03*
X24660000Y-32458632D03*
%TD*%
%TO.C,D185*%
X-2960000Y-5126870D03*
X-2640000Y-4572614D03*
%TD*%
%TO.C,D111*%
X23640000Y-2701999D03*
X23960000Y-2147743D03*
%TD*%
%TO.C,D238*%
X6140000Y-6339305D03*
X6460000Y-5785049D03*
%TD*%
%TO.C,D426*%
X8940000Y-11189048D03*
X9260000Y-10634792D03*
%TD*%
%TO.C,D1153*%
X-14860000Y-30588017D03*
X-14540000Y-30033761D03*
%TD*%
%TO.C,D1144*%
X37640000Y-29375581D03*
X37960000Y-28821325D03*
%TD*%
%TO.C,D1970*%
X17340000Y-45137243D03*
X17660000Y-44582987D03*
%TD*%
%TO.C,D981*%
X1940000Y-16038790D03*
X2260000Y-15484534D03*
%TD*%
%TO.C,D681*%
X31340000Y-23313403D03*
X31660000Y-22759147D03*
%TD*%
%TO.C,D386*%
X18040000Y-9976612D03*
X18360000Y-9422356D03*
%TD*%
%TO.C,D808*%
X48840000Y-19676097D03*
X49160000Y-19121841D03*
%TD*%
%TO.C,D1963*%
X27140000Y-45137243D03*
X27460000Y-44582987D03*
%TD*%
%TO.C,D33*%
X44640000Y-277128D03*
X44960000Y277128D03*
%TD*%
%TO.C,D1088*%
X24340000Y-28163146D03*
X24660000Y-27608890D03*
%TD*%
%TO.C,D1992*%
X-13460000Y-45137243D03*
X-13140000Y-44582987D03*
%TD*%
%TO.C,D1651*%
X8240000Y-53624292D03*
X8560000Y-53070036D03*
%TD*%
%TO.C,D82*%
X48140000Y-1489563D03*
X48460000Y-935307D03*
%TD*%
%TO.C,D1108*%
X-12760000Y-29375581D03*
X-12440000Y-28821325D03*
%TD*%
%TO.C,D912*%
X33440000Y-17251225D03*
X33760000Y-16696969D03*
%TD*%
%TO.C,D1480*%
X-12760000Y-39075066D03*
X-12440000Y-38520810D03*
%TD*%
%TO.C,D1559*%
X32740000Y-40287501D03*
X33060000Y-39733245D03*
%TD*%
%TO.C,D181*%
X56540000Y-3914434D03*
X56860000Y-3360178D03*
%TD*%
%TO.C,D736*%
X19440000Y-22100968D03*
X19760000Y-21546712D03*
%TD*%
%TO.C,D1865*%
X34140000Y-47562115D03*
X34460000Y-47007859D03*
%TD*%
%TO.C,D957*%
X35540000Y-16038790D03*
X35860000Y-15484534D03*
%TD*%
%TO.C,D1777*%
X27140000Y-49986986D03*
X27460000Y-49432730D03*
%TD*%
%TO.C,D1977*%
X7540000Y-45137243D03*
X7860000Y-44582987D03*
%TD*%
%TO.C,D940*%
X-5760000Y-17251225D03*
X-5440000Y-16696969D03*
%TD*%
%TO.C,D234*%
X540000Y-6339305D03*
X860000Y-5785049D03*
%TD*%
%TO.C,D1277*%
X28540000Y-33012888D03*
X28860000Y-32458632D03*
%TD*%
%TO.C,D430*%
X14540000Y-11189048D03*
X14860000Y-10634792D03*
%TD*%
%TO.C,D2001*%
X-26060000Y-45137243D03*
X-25740000Y-44582987D03*
%TD*%
%TO.C,D1475*%
X-19760000Y-39075066D03*
X-19440000Y-38520810D03*
%TD*%
%TO.C,D1338*%
X-16260000Y-35437759D03*
X-15940000Y-34883503D03*
%TD*%
%TO.C,D1395*%
X-1560000Y-36650194D03*
X-1240000Y-36095938D03*
%TD*%
%TO.C,D1201*%
X-12760000Y-31800452D03*
X-12440000Y-31246196D03*
%TD*%
%TO.C,D1875*%
X20140000Y-47562115D03*
X20460000Y-47007859D03*
%TD*%
%TO.C,D460*%
X56540000Y-11189048D03*
X56860000Y-10634792D03*
%TD*%
%TO.C,D1126*%
X12440000Y-29375581D03*
X12760000Y-28821325D03*
%TD*%
%TO.C,D467*%
X1240000Y-12401483D03*
X1560000Y-11847227D03*
%TD*%
%TO.C,D169*%
X39740000Y-3914434D03*
X40060000Y-3360178D03*
%TD*%
%TO.C,D1866*%
X32740000Y-47562115D03*
X33060000Y-47007859D03*
%TD*%
%TO.C,D70*%
X31340000Y-1489563D03*
X31660000Y-935307D03*
%TD*%
%TO.C,D1470*%
X38340000Y-37862630D03*
X38660000Y-37308374D03*
%TD*%
%TO.C,D1737*%
X18040000Y-51199421D03*
X18360000Y-50645165D03*
%TD*%
%TO.C,D2073*%
X3340000Y-42712372D03*
X3660000Y-42158116D03*
%TD*%
%TO.C,D546*%
X25040000Y-26950710D03*
X25360000Y-26396454D03*
%TD*%
%TO.C,D93*%
X-1560000Y-2701999D03*
X-1240000Y-2147743D03*
%TD*%
%TO.C,D688*%
X21540000Y-23313403D03*
X21860000Y-22759147D03*
%TD*%
%TO.C,D1025*%
X5440000Y-14826354D03*
X5760000Y-14272098D03*
%TD*%
%TO.C,D818*%
X34840000Y-19676097D03*
X35160000Y-19121841D03*
%TD*%
%TO.C,D1828*%
X20840000Y-48774550D03*
X21160000Y-48220294D03*
%TD*%
%TO.C,D2052*%
X32740000Y-42712372D03*
X33060000Y-42158116D03*
%TD*%
%TO.C,D1527*%
X-12060000Y-40287501D03*
X-11740000Y-39733245D03*
%TD*%
%TO.C,D1705*%
X-2260000Y-52411857D03*
X-1940000Y-51857601D03*
%TD*%
%TO.C,D501*%
X48840000Y-12401483D03*
X49160000Y-11847227D03*
%TD*%
%TO.C,D2094*%
X39040000Y-41499937D03*
X39360000Y-40945681D03*
%TD*%
%TO.C,D1656*%
X1240000Y-53624292D03*
X1560000Y-53070036D03*
%TD*%
%TO.C,D203*%
X22240000Y-5126870D03*
X22560000Y-4572614D03*
%TD*%
%TO.C,D145*%
X6140000Y-3914434D03*
X6460000Y-3360178D03*
%TD*%
%TO.C,D2033*%
X-5760000Y-43924808D03*
X-5440000Y-43370552D03*
%TD*%
%TO.C,D1558*%
X31340000Y-40287501D03*
X31660000Y-39733245D03*
%TD*%
%TO.C,D1133*%
X22240000Y-29375581D03*
X22560000Y-28821325D03*
%TD*%
%TO.C,D958*%
X34140000Y-16038790D03*
X34460000Y-15484534D03*
%TD*%
%TO.C,D1957*%
X35540000Y-45137243D03*
X35860000Y-44582987D03*
%TD*%
%TO.C,D614*%
X-5060000Y-25738274D03*
X-4740000Y-25184018D03*
%TD*%
%TO.C,D338*%
X15940000Y-8764176D03*
X16260000Y-8209920D03*
%TD*%
%TO.C,D878*%
X15940000Y-18463661D03*
X16260000Y-17909405D03*
%TD*%
%TO.C,D456*%
X50940000Y-11189048D03*
X51260000Y-10634792D03*
%TD*%
%TO.C,D175*%
X48140000Y-3914434D03*
X48460000Y-3360178D03*
%TD*%
%TO.C,D1322*%
X26440000Y-34225323D03*
X26760000Y-33671067D03*
%TD*%
%TO.C,D1652*%
X6840000Y-53624292D03*
X7160000Y-53070036D03*
%TD*%
%TO.C,D1990*%
X-10660000Y-45137243D03*
X-10340000Y-44582987D03*
%TD*%
%TO.C,D1449*%
X8940000Y-37862630D03*
X9260000Y-37308374D03*
%TD*%
%TO.C,D1118*%
X1240000Y-29375581D03*
X1560000Y-28821325D03*
%TD*%
%TO.C,D752*%
X-2960000Y-22100968D03*
X-2640000Y-21546712D03*
%TD*%
%TO.C,D434*%
X20140000Y-11189048D03*
X20460000Y-10634792D03*
%TD*%
%TO.C,D575*%
X-15560000Y-26950710D03*
X-15240000Y-26396454D03*
%TD*%
%TO.C,D1278*%
X29940000Y-33012888D03*
X30260000Y-32458632D03*
%TD*%
%TO.C,D505*%
X54440000Y-12401483D03*
X54760000Y-11847227D03*
%TD*%
%TO.C,D663*%
X-8560000Y-24525839D03*
X-8240000Y-23971583D03*
%TD*%
%TO.C,D812*%
X43240000Y-19676097D03*
X43560000Y-19121841D03*
%TD*%
%TO.C,D711*%
X-10660000Y-23313403D03*
X-10340000Y-22759147D03*
%TD*%
%TO.C,D1137*%
X27840000Y-29375581D03*
X28160000Y-28821325D03*
%TD*%
%TO.C,D1495*%
X8240000Y-39075066D03*
X8560000Y-38520810D03*
%TD*%
%TO.C,D1512*%
X32040000Y-39075066D03*
X32360000Y-38520810D03*
%TD*%
%TO.C,D301*%
X29240000Y-7551741D03*
X29560000Y-6997485D03*
%TD*%
%TO.C,D1660*%
X-4360000Y-53624292D03*
X-4040000Y-53070036D03*
%TD*%
%TO.C,D725*%
X34840000Y-22100968D03*
X35160000Y-21546712D03*
%TD*%
%TO.C,D1586*%
X5440000Y-41499937D03*
X5760000Y-40945681D03*
%TD*%
%TO.C,D1731*%
X26440000Y-51199421D03*
X26760000Y-50645165D03*
%TD*%
%TO.C,D722*%
X39040000Y-22100968D03*
X39360000Y-21546712D03*
%TD*%
%TO.C,D1734*%
X22240000Y-51199421D03*
X22560000Y-50645165D03*
%TD*%
%TO.C,D1246*%
X-14860000Y-33012888D03*
X-14540000Y-32458632D03*
%TD*%
%TO.C,D1913*%
X32040000Y-46349679D03*
X32360000Y-45795423D03*
%TD*%
%TO.C,D1424*%
X39040000Y-36650194D03*
X39360000Y-36095938D03*
%TD*%
%TO.C,D1212*%
X2640000Y-31800452D03*
X2960000Y-31246196D03*
%TD*%
%TO.C,D576*%
X48140000Y-25738274D03*
X48460000Y-25184018D03*
%TD*%
%TO.C,D1542*%
X8940000Y-40287501D03*
X9260000Y-39733245D03*
%TD*%
%TO.C,D1981*%
X1940000Y-45137243D03*
X2260000Y-44582987D03*
%TD*%
%TO.C,D1236*%
X36240000Y-31800452D03*
X36560000Y-31246196D03*
%TD*%
%TO.C,D1190*%
X36940000Y-30588017D03*
X37260000Y-30033761D03*
%TD*%
%TO.C,D1561*%
X35540000Y-40287501D03*
X35860000Y-39733245D03*
%TD*%
%TO.C,D1639*%
X25040000Y-53624292D03*
X25360000Y-53070036D03*
%TD*%
%TO.C,D1481*%
X-11360000Y-39075066D03*
X-11040000Y-38520810D03*
%TD*%
%TO.C,D46*%
X62840000Y-277128D03*
X63160000Y277128D03*
%TD*%
%TO.C,D1171*%
X10340000Y-30588017D03*
X10660000Y-30033761D03*
%TD*%
%TO.C,D1369*%
X27140000Y-35437759D03*
X27460000Y-34883503D03*
%TD*%
%TO.C,D757*%
X-9960000Y-22100968D03*
X-9640000Y-21546712D03*
%TD*%
%TO.C,D277*%
X-4360000Y-7551741D03*
X-4040000Y-6997485D03*
%TD*%
%TO.C,D542*%
X30640000Y-26950710D03*
X30960000Y-26396454D03*
%TD*%
%TO.C,D1307*%
X5440000Y-34225323D03*
X5760000Y-33671067D03*
%TD*%
%TO.C,D1508*%
X26440000Y-39075066D03*
X26760000Y-38520810D03*
%TD*%
%TO.C,D1647*%
X13840000Y-53624292D03*
X14160000Y-53070036D03*
%TD*%
%TO.C,D1942*%
X-8560000Y-46349679D03*
X-8240000Y-45795423D03*
%TD*%
%TO.C,D414*%
X57240000Y-9976612D03*
X57560000Y-9422356D03*
%TD*%
%TO.C,D99*%
X6840000Y-2701999D03*
X7160000Y-2147743D03*
%TD*%
%TO.C,D1726*%
X33440000Y-51199421D03*
X33760000Y-50645165D03*
%TD*%
%TO.C,D1370*%
X28540000Y-35437759D03*
X28860000Y-34883503D03*
%TD*%
%TO.C,D934*%
X2640000Y-17251225D03*
X2960000Y-16696969D03*
%TD*%
%TO.C,D2044*%
X-21160000Y-43924808D03*
X-20840000Y-43370552D03*
%TD*%
%TO.C,D72*%
X34140000Y-1489563D03*
X34460000Y-935307D03*
%TD*%
%TO.C,D1629*%
X-26060000Y-54836728D03*
X-25740000Y-54282472D03*
%TD*%
%TO.C,D1330*%
X37640000Y-34225323D03*
X37960000Y-33671067D03*
%TD*%
%TO.C,D108*%
X19440000Y-2701999D03*
X19760000Y-2147743D03*
%TD*%
%TO.C,D1844*%
X-1560000Y-48774550D03*
X-1240000Y-48220294D03*
%TD*%
%TO.C,D1299*%
X-5760000Y-34225323D03*
X-5440000Y-33671067D03*
%TD*%
%TO.C,D567*%
X-4360000Y-26950710D03*
X-4040000Y-26396454D03*
%TD*%
%TO.C,D308*%
X39040000Y-7551741D03*
X39360000Y-6997485D03*
%TD*%
%TO.C,D692*%
X15940000Y-23313403D03*
X16260000Y-22759147D03*
%TD*%
%TO.C,D1574*%
X-11360000Y-41499937D03*
X-11040000Y-40945681D03*
%TD*%
%TO.C,D423*%
X4740000Y-11189048D03*
X5060000Y-10634792D03*
%TD*%
%TO.C,D1303*%
X-160000Y-34225323D03*
X160000Y-33671067D03*
%TD*%
%TO.C,D1057*%
X25740000Y-13613919D03*
X26060000Y-13059663D03*
%TD*%
%TO.C,D1017*%
X16640000Y-14826354D03*
X16960000Y-14272098D03*
%TD*%
%TO.C,D1468*%
X35540000Y-37862630D03*
X35860000Y-37308374D03*
%TD*%
%TO.C,D705*%
X-2260000Y-23313403D03*
X-1940000Y-22759147D03*
%TD*%
%TO.C,D486*%
X27840000Y-12401483D03*
X28160000Y-11847227D03*
%TD*%
%TO.C,D666*%
X-12760000Y-24525839D03*
X-12440000Y-23971583D03*
%TD*%
%TO.C,D763*%
X46740000Y-20888532D03*
X47060000Y-20334276D03*
%TD*%
%TO.C,D1434*%
X-12060000Y-37862630D03*
X-11740000Y-37308374D03*
%TD*%
%TO.C,D1120*%
X4040000Y-29375581D03*
X4360000Y-28821325D03*
%TD*%
%TO.C,D1496*%
X9640000Y-39075066D03*
X9960000Y-38520810D03*
%TD*%
%TO.C,D79*%
X43940000Y-1489563D03*
X44260000Y-935307D03*
%TD*%
%TO.C,D1570*%
X-16960000Y-41499937D03*
X-16640000Y-40945681D03*
%TD*%
%TO.C,D286*%
X8240000Y-7551741D03*
X8560000Y-6997485D03*
%TD*%
%TO.C,D1520*%
X-21860000Y-40287501D03*
X-21540000Y-39733245D03*
%TD*%
%TO.C,D1374*%
X34140000Y-35437759D03*
X34460000Y-34883503D03*
%TD*%
%TO.C,D250*%
X22940000Y-6339305D03*
X23260000Y-5785049D03*
%TD*%
%TO.C,D1886*%
X4740000Y-47562115D03*
X5060000Y-47007859D03*
%TD*%
%TO.C,D1030*%
X-1560000Y-14826354D03*
X-1240000Y-14272098D03*
%TD*%
%TO.C,D539*%
X34840000Y-26950710D03*
X35160000Y-26396454D03*
%TD*%
%TO.C,D582*%
X39740000Y-25738274D03*
X40060000Y-25184018D03*
%TD*%
%TO.C,D865*%
X34140000Y-18463661D03*
X34460000Y-17909405D03*
%TD*%
%TO.C,D653*%
X5440000Y-24525839D03*
X5760000Y-23971583D03*
%TD*%
%TO.C,D637*%
X27840000Y-24525839D03*
X28160000Y-23971583D03*
%TD*%
%TO.C,D1357*%
X10340000Y-35437759D03*
X10660000Y-34883503D03*
%TD*%
%TO.C,D1714*%
X-14860000Y-52411857D03*
X-14540000Y-51857601D03*
%TD*%
%TO.C,D492*%
X36240000Y-12401483D03*
X36560000Y-11847227D03*
%TD*%
%TO.C,D890*%
X-860000Y-18463661D03*
X-540000Y-17909405D03*
%TD*%
%TO.C,D997*%
X44640000Y-14826354D03*
X44960000Y-14272098D03*
%TD*%
%TO.C,D267*%
X46740000Y-6339305D03*
X47060000Y-5785049D03*
%TD*%
%TO.C,D1008*%
X29240000Y-14826354D03*
X29560000Y-14272098D03*
%TD*%
%TO.C,D1312*%
X12440000Y-34225323D03*
X12760000Y-33671067D03*
%TD*%
%TO.C,D1870*%
X27140000Y-47562115D03*
X27460000Y-47007859D03*
%TD*%
%TO.C,D377*%
X5440000Y-9976612D03*
X5760000Y-9422356D03*
%TD*%
%TO.C,D693*%
X14540000Y-23313403D03*
X14860000Y-22759147D03*
%TD*%
%TO.C,D1431*%
X-16260000Y-37862630D03*
X-15940000Y-37308374D03*
%TD*%
%TO.C,D1679*%
X-30960000Y-53624292D03*
X-30640000Y-53070036D03*
%TD*%
%TO.C,D1253*%
X-5060000Y-33012888D03*
X-4740000Y-32458632D03*
%TD*%
%TO.C,D26*%
X34840000Y-277128D03*
X35160000Y277128D03*
%TD*%
%TO.C,D2086*%
X-14860000Y-42712372D03*
X-14540000Y-42158116D03*
%TD*%
%TO.C,D886*%
X4740000Y-18463661D03*
X5060000Y-17909405D03*
%TD*%
%TO.C,D841*%
X2640000Y-19676097D03*
X2960000Y-19121841D03*
%TD*%
%TO.C,D951*%
X43940000Y-16038790D03*
X44260000Y-15484534D03*
%TD*%
%TO.C,D355*%
X39740000Y-8764176D03*
X40060000Y-8209920D03*
%TD*%
%TO.C,D1514*%
X34840000Y-39075066D03*
X35160000Y-38520810D03*
%TD*%
%TO.C,D1250*%
X-9260000Y-33012888D03*
X-8940000Y-32458632D03*
%TD*%
%TO.C,D928*%
X11040000Y-17251225D03*
X11360000Y-16696969D03*
%TD*%
%TO.C,D1910*%
X36240000Y-46349679D03*
X36560000Y-45795423D03*
%TD*%
%TO.C,D312*%
X44640000Y-7551741D03*
X44960000Y-6997485D03*
%TD*%
%TO.C,D1031*%
X-2960000Y-14826354D03*
X-2640000Y-14272098D03*
%TD*%
%TO.C,D645*%
X16640000Y-24525839D03*
X16960000Y-23971583D03*
%TD*%
%TO.C,D1934*%
X2640000Y-46349679D03*
X2960000Y-45795423D03*
%TD*%
%TO.C,D2097*%
X34840000Y-41499937D03*
X35160000Y-40945681D03*
%TD*%
%TO.C,D297*%
X23640000Y-7551741D03*
X23960000Y-6997485D03*
%TD*%
%TO.C,D34*%
X46040000Y-277128D03*
X46360000Y277128D03*
%TD*%
%TO.C,D907*%
X40440000Y-17251225D03*
X40760000Y-16696969D03*
%TD*%
%TO.C,D1446*%
X4740000Y-37862630D03*
X5060000Y-37308374D03*
%TD*%
%TO.C,D608*%
X3340000Y-25738274D03*
X3660000Y-25184018D03*
%TD*%
%TO.C,D933*%
X4040000Y-17251225D03*
X4360000Y-16696969D03*
%TD*%
%TO.C,D1096*%
X35540000Y-28163146D03*
X35860000Y-27608890D03*
%TD*%
%TO.C,D920*%
X22240000Y-17251225D03*
X22560000Y-16696969D03*
%TD*%
%TO.C,D1845*%
X-2960000Y-48774550D03*
X-2640000Y-48220294D03*
%TD*%
%TO.C,D916*%
X27840000Y-17251225D03*
X28160000Y-16696969D03*
%TD*%
%TO.C,D1131*%
X19440000Y-29375581D03*
X19760000Y-28821325D03*
%TD*%
%TO.C,D2100*%
X30640000Y-41499937D03*
X30960000Y-40945681D03*
%TD*%
%TO.C,D982*%
X540000Y-16038790D03*
X860000Y-15484534D03*
%TD*%
%TO.C,D137*%
X60040000Y-2701999D03*
X60360000Y-2147743D03*
%TD*%
%TO.C,D526*%
X18740000Y-13613919D03*
X19060000Y-13059663D03*
%TD*%
%TO.C,D2063*%
X17340000Y-42712372D03*
X17660000Y-42158116D03*
%TD*%
%TO.C,D1170*%
X8940000Y-30588017D03*
X9260000Y-30033761D03*
%TD*%
%TO.C,D1860*%
X-23960000Y-48774550D03*
X-23640000Y-48220294D03*
%TD*%
%TO.C,D2062*%
X18740000Y-42712372D03*
X19060000Y-42158116D03*
%TD*%
%TO.C,D1403*%
X9640000Y-36650194D03*
X9960000Y-36095938D03*
%TD*%
%TO.C,D1447*%
X6140000Y-37862630D03*
X6460000Y-37308374D03*
%TD*%
%TO.C,D2087*%
X-16260000Y-42712372D03*
X-15940000Y-42158116D03*
%TD*%
%TO.C,D1203*%
X-9960000Y-31800452D03*
X-9640000Y-31246196D03*
%TD*%
%TO.C,D1710*%
X-9260000Y-52411857D03*
X-8940000Y-51857601D03*
%TD*%
%TO.C,D1173*%
X13140000Y-30588017D03*
X13460000Y-30033761D03*
%TD*%
%TO.C,D1493*%
X5440000Y-39075066D03*
X5760000Y-38520810D03*
%TD*%
%TO.C,D120*%
X36240000Y-2701999D03*
X36560000Y-2147743D03*
%TD*%
%TO.C,D984*%
X-2260000Y-16038790D03*
X-1940000Y-15484534D03*
%TD*%
%TO.C,D750*%
X-160000Y-22100968D03*
X160000Y-21546712D03*
%TD*%
%TO.C,D568*%
X-5760000Y-26950710D03*
X-5440000Y-26396454D03*
%TD*%
%TO.C,D1390*%
X-8560000Y-36650194D03*
X-8240000Y-36095938D03*
%TD*%
%TO.C,D1129*%
X16640000Y-29375581D03*
X16960000Y-28821325D03*
%TD*%
%TO.C,D105*%
X15240000Y-2701999D03*
X15560000Y-2147743D03*
%TD*%
%TO.C,D1122*%
X6840000Y-29375581D03*
X7160000Y-28821325D03*
%TD*%
%TO.C,D972*%
X14540000Y-16038790D03*
X14860000Y-15484534D03*
%TD*%
%TO.C,D119*%
X34840000Y-2701999D03*
X35160000Y-2147743D03*
%TD*%
%TO.C,D1818*%
X34840000Y-48774550D03*
X35160000Y-48220294D03*
%TD*%
%TO.C,D322*%
X58640000Y-7551741D03*
X58960000Y-6997485D03*
%TD*%
%TO.C,D1196*%
X45340000Y-30588017D03*
X45660000Y-30033761D03*
%TD*%
%TO.C,D1908*%
X-26060000Y-47562115D03*
X-25740000Y-47007859D03*
%TD*%
%TO.C,D1373*%
X32740000Y-35437759D03*
X33060000Y-34883503D03*
%TD*%
%TO.C,D106*%
X16640000Y-2701999D03*
X16960000Y-2147743D03*
%TD*%
%TO.C,D679*%
X34140000Y-23313403D03*
X34460000Y-22759147D03*
%TD*%
%TO.C,D1162*%
X-2260000Y-30588017D03*
X-1940000Y-30033761D03*
%TD*%
%TO.C,D91*%
X60740000Y-1489563D03*
X61060000Y-935307D03*
%TD*%
%TO.C,D1890*%
X-860000Y-47562115D03*
X-540000Y-47007859D03*
%TD*%
%TO.C,D1423*%
X37640000Y-36650194D03*
X37960000Y-36095938D03*
%TD*%
%TO.C,D1926*%
X13840000Y-46349679D03*
X14160000Y-45795423D03*
%TD*%
%TO.C,D141*%
X540000Y-3914434D03*
X860000Y-3360178D03*
%TD*%
%TO.C,D710*%
X-9260000Y-23313403D03*
X-8940000Y-22759147D03*
%TD*%
%TO.C,D775*%
X29940000Y-20888532D03*
X30260000Y-20334276D03*
%TD*%
%TO.C,D340*%
X18740000Y-8764176D03*
X19060000Y-8209920D03*
%TD*%
%TO.C,D1296*%
X-9960000Y-34225323D03*
X-9640000Y-33671067D03*
%TD*%
%TO.C,D1146*%
X40440000Y-29375581D03*
X40760000Y-28821325D03*
%TD*%
%TO.C,D772*%
X34140000Y-20888532D03*
X34460000Y-20334276D03*
%TD*%
%TO.C,D658*%
X-1560000Y-24525839D03*
X-1240000Y-23971583D03*
%TD*%
%TO.C,D190*%
X4040000Y-5126870D03*
X4360000Y-4572614D03*
%TD*%
%TO.C,D770*%
X36940000Y-20888532D03*
X37260000Y-20334276D03*
%TD*%
%TO.C,D873*%
X22940000Y-18463661D03*
X23260000Y-17909405D03*
%TD*%
%TO.C,D424*%
X6140000Y-11189048D03*
X6460000Y-10634792D03*
%TD*%
%TO.C,D204*%
X23640000Y-5126870D03*
X23960000Y-4572614D03*
%TD*%
%TO.C,D359*%
X45340000Y-8764176D03*
X45660000Y-8209920D03*
%TD*%
%TO.C,D1533*%
X-3660000Y-40287501D03*
X-3340000Y-39733245D03*
%TD*%
%TO.C,D196*%
X12440000Y-5126870D03*
X12760000Y-4572614D03*
%TD*%
%TO.C,D328*%
X1940000Y-8764176D03*
X2260000Y-8209920D03*
%TD*%
%TO.C,D810*%
X46040000Y-19676097D03*
X46360000Y-19121841D03*
%TD*%
%TO.C,D1460*%
X24340000Y-37862630D03*
X24660000Y-37308374D03*
%TD*%
%TO.C,D1856*%
X-18360000Y-48774550D03*
X-18040000Y-48220294D03*
%TD*%
%TO.C,D85*%
X52340000Y-1489563D03*
X52660000Y-935307D03*
%TD*%
%TO.C,D531*%
X46040000Y-26950710D03*
X46360000Y-26396454D03*
%TD*%
%TO.C,D1804*%
X-10660000Y-49986986D03*
X-10340000Y-49432730D03*
%TD*%
%TO.C,D1097*%
X36940000Y-28163146D03*
X37260000Y-27608890D03*
%TD*%
%TO.C,D183*%
X59340000Y-3914434D03*
X59660000Y-3360178D03*
%TD*%
%TO.C,D401*%
X39040000Y-9976612D03*
X39360000Y-9422356D03*
%TD*%
%TO.C,D514*%
X1940000Y-13613919D03*
X2260000Y-13059663D03*
%TD*%
%TO.C,D331*%
X6140000Y-8764176D03*
X6460000Y-8209920D03*
%TD*%
%TO.C,D313*%
X46040000Y-7551741D03*
X46360000Y-6997485D03*
%TD*%
%TO.C,D230*%
X60040000Y-5126870D03*
X60360000Y-4572614D03*
%TD*%
%TO.C,D1800*%
X-5060000Y-49986986D03*
X-4740000Y-49432730D03*
%TD*%
%TO.C,D551*%
X18040000Y-26950710D03*
X18360000Y-26396454D03*
%TD*%
%TO.C,D1513*%
X33440000Y-39075066D03*
X33760000Y-38520810D03*
%TD*%
%TO.C,D743*%
X9640000Y-22100968D03*
X9960000Y-21546712D03*
%TD*%
%TO.C,D1210*%
X-160000Y-31800452D03*
X160000Y-31246196D03*
%TD*%
%TO.C,D2109*%
X18040000Y-41499937D03*
X18360000Y-40945681D03*
%TD*%
%TO.C,D346*%
X27140000Y-8764176D03*
X27460000Y-8209920D03*
%TD*%
%TO.C,D453*%
X46740000Y-11189048D03*
X47060000Y-10634792D03*
%TD*%
%TO.C,D1437*%
X-7860000Y-37862630D03*
X-7540000Y-37308374D03*
%TD*%
%TO.C,D938*%
X-2960000Y-17251225D03*
X-2640000Y-16696969D03*
%TD*%
%TO.C,D955*%
X38340000Y-16038790D03*
X38660000Y-15484534D03*
%TD*%
%TO.C,D871*%
X25740000Y-18463661D03*
X26060000Y-17909405D03*
%TD*%
%TO.C,D38*%
X51640000Y-277128D03*
X51960000Y277128D03*
%TD*%
%TO.C,D784*%
X17340000Y-20888532D03*
X17660000Y-20334276D03*
%TD*%
%TO.C,D1206*%
X-5760000Y-31800452D03*
X-5440000Y-31246196D03*
%TD*%
%TO.C,D1464*%
X29940000Y-37862630D03*
X30260000Y-37308374D03*
%TD*%
%TO.C,D1947*%
X-15560000Y-46349679D03*
X-15240000Y-45795423D03*
%TD*%
%TO.C,D773*%
X32740000Y-20888532D03*
X33060000Y-20334276D03*
%TD*%
%TO.C,D1014*%
X20840000Y-14826354D03*
X21160000Y-14272098D03*
%TD*%
%TO.C,D237*%
X4740000Y-6339305D03*
X5060000Y-5785049D03*
%TD*%
%TO.C,D97*%
X4040000Y-2701999D03*
X4360000Y-2147743D03*
%TD*%
%TO.C,D408*%
X48840000Y-9976612D03*
X49160000Y-9422356D03*
%TD*%
%TO.C,D1775*%
X29940000Y-49986986D03*
X30260000Y-49432730D03*
%TD*%
%TO.C,D1962*%
X28540000Y-45137243D03*
X28860000Y-44582987D03*
%TD*%
%TO.C,D324*%
X-3660000Y-8764176D03*
X-3340000Y-8209920D03*
%TD*%
%TO.C,D1630*%
X-27460000Y-54836728D03*
X-27140000Y-54282472D03*
%TD*%
%TO.C,D293*%
X18040000Y-7551741D03*
X18360000Y-6997485D03*
%TD*%
%TO.C,D227*%
X55840000Y-5126870D03*
X56160000Y-4572614D03*
%TD*%
%TO.C,D1022*%
X9640000Y-14826354D03*
X9960000Y-14272098D03*
%TD*%
%TO.C,D159*%
X25740000Y-3914434D03*
X26060000Y-3360178D03*
%TD*%
%TO.C,D1945*%
X-12760000Y-46349679D03*
X-12440000Y-45795423D03*
%TD*%
%TO.C,D191*%
X5440000Y-5126870D03*
X5760000Y-4572614D03*
%TD*%
%TO.C,D655*%
X2640000Y-24525839D03*
X2960000Y-23971583D03*
%TD*%
%TO.C,D41*%
X55840000Y-277128D03*
X56160000Y277128D03*
%TD*%
%TO.C,D508*%
X-6460000Y-13613919D03*
X-6140000Y-13059663D03*
%TD*%
%TO.C,D756*%
X-8560000Y-22100968D03*
X-8240000Y-21546712D03*
%TD*%
%TO.C,D1221*%
X15240000Y-31800452D03*
X15560000Y-31246196D03*
%TD*%
%TO.C,D428*%
X11740000Y-11189048D03*
X12060000Y-10634792D03*
%TD*%
%TO.C,D292*%
X16640000Y-7551741D03*
X16960000Y-6997485D03*
%TD*%
%TO.C,D349*%
X31340000Y-8764176D03*
X31660000Y-8209920D03*
%TD*%
%TO.C,D1166*%
X3340000Y-30588017D03*
X3660000Y-30033761D03*
%TD*%
%TO.C,D1923*%
X18040000Y-46349679D03*
X18360000Y-45795423D03*
%TD*%
%TO.C,D512*%
X-860000Y-13613919D03*
X-540000Y-13059663D03*
%TD*%
%TO.C,D618*%
X-10660000Y-25738274D03*
X-10340000Y-25184018D03*
%TD*%
%TO.C,D1123*%
X8240000Y-29375581D03*
X8560000Y-28821325D03*
%TD*%
%TO.C,D2032*%
X-4360000Y-43924808D03*
X-4040000Y-43370552D03*
%TD*%
%TO.C,D420*%
X540000Y-11189048D03*
X860000Y-10634792D03*
%TD*%
%TO.C,D195*%
X11040000Y-5126870D03*
X11360000Y-4572614D03*
%TD*%
%TO.C,D2011*%
X25040000Y-43924808D03*
X25360000Y-43370552D03*
%TD*%
%TO.C,D826*%
X23640000Y-19676097D03*
X23960000Y-19121841D03*
%TD*%
%TO.C,D1406*%
X13840000Y-36650194D03*
X14160000Y-36095938D03*
%TD*%
%TO.C,D586*%
X34140000Y-25738274D03*
X34460000Y-25184018D03*
%TD*%
%TO.C,D1259*%
X3340000Y-33012888D03*
X3660000Y-32458632D03*
%TD*%
%TO.C,D7*%
X8240000Y-277128D03*
X8560000Y277128D03*
%TD*%
%TO.C,D544*%
X27840000Y-26950710D03*
X28160000Y-26396454D03*
%TD*%
%TO.C,D1898*%
X-12060000Y-47562115D03*
X-11740000Y-47007859D03*
%TD*%
%TO.C,D1336*%
X-19060000Y-35437759D03*
X-18740000Y-34883503D03*
%TD*%
%TO.C,D2014*%
X20840000Y-43924808D03*
X21160000Y-43370552D03*
%TD*%
%TO.C,D2040*%
X-15560000Y-43924808D03*
X-15240000Y-43370552D03*
%TD*%
%TO.C,D946*%
X50940000Y-16038790D03*
X51260000Y-15484534D03*
%TD*%
%TO.C,D395*%
X30640000Y-9976612D03*
X30960000Y-9422356D03*
%TD*%
%TO.C,D1861*%
X-25360000Y-48774550D03*
X-25040000Y-48220294D03*
%TD*%
%TO.C,D2055*%
X28540000Y-42712372D03*
X28860000Y-42158116D03*
%TD*%
%TO.C,D1525*%
X-14860000Y-40287501D03*
X-14540000Y-39733245D03*
%TD*%
%TO.C,D23*%
X30640000Y-277128D03*
X30960000Y277128D03*
%TD*%
%TO.C,D1796*%
X540000Y-49986986D03*
X860000Y-49432730D03*
%TD*%
%TO.C,D1382*%
X-19760000Y-36650194D03*
X-19440000Y-36095938D03*
%TD*%
%TO.C,D1392*%
X-5760000Y-36650194D03*
X-5440000Y-36095938D03*
%TD*%
%TO.C,D117*%
X32040000Y-2701999D03*
X32360000Y-2147743D03*
%TD*%
%TO.C,D1225*%
X20840000Y-31800452D03*
X21160000Y-31246196D03*
%TD*%
%TO.C,D1411*%
X20840000Y-36650194D03*
X21160000Y-36095938D03*
%TD*%
%TO.C,D1776*%
X28540000Y-49986986D03*
X28860000Y-49432730D03*
%TD*%
%TO.C,D1315*%
X16640000Y-34225323D03*
X16960000Y-33671067D03*
%TD*%
%TO.C,D193*%
X8240000Y-5126870D03*
X8560000Y-4572614D03*
%TD*%
%TO.C,D1824*%
X26440000Y-48774550D03*
X26760000Y-48220294D03*
%TD*%
%TO.C,D1569*%
X-18360000Y-41499937D03*
X-18040000Y-40945681D03*
%TD*%
%TO.C,D1398*%
X2640000Y-36650194D03*
X2960000Y-36095938D03*
%TD*%
%TO.C,D769*%
X38340000Y-20888532D03*
X38660000Y-20334276D03*
%TD*%
%TO.C,D511*%
X-2260000Y-13613919D03*
X-1940000Y-13059663D03*
%TD*%
%TO.C,D2042*%
X-18360000Y-43924808D03*
X-18040000Y-43370552D03*
%TD*%
%TO.C,D419*%
X-860000Y-11189048D03*
X-540000Y-10634792D03*
%TD*%
%TO.C,D274*%
X56540000Y-6339305D03*
X56860000Y-5785049D03*
%TD*%
%TO.C,D1054*%
X29940000Y-13613919D03*
X30260000Y-13059663D03*
%TD*%
%TO.C,D613*%
X-3660000Y-25738274D03*
X-3340000Y-25184018D03*
%TD*%
%TO.C,D1178*%
X20140000Y-30588017D03*
X20460000Y-30033761D03*
%TD*%
%TO.C,D263*%
X41140000Y-6339305D03*
X41460000Y-5785049D03*
%TD*%
%TO.C,D649*%
X11040000Y-24525839D03*
X11360000Y-23971583D03*
%TD*%
%TO.C,D1228*%
X25040000Y-31800452D03*
X25360000Y-31246196D03*
%TD*%
%TO.C,D521*%
X11740000Y-13613919D03*
X12060000Y-13059663D03*
%TD*%
%TO.C,D1213*%
X4040000Y-31800452D03*
X4360000Y-31246196D03*
%TD*%
%TO.C,D344*%
X24340000Y-8764176D03*
X24660000Y-8209920D03*
%TD*%
%TO.C,D1534*%
X-2260000Y-40287501D03*
X-1940000Y-39733245D03*
%TD*%
%TO.C,D782*%
X20140000Y-20888532D03*
X20460000Y-20334276D03*
%TD*%
%TO.C,D1231*%
X29240000Y-31800452D03*
X29560000Y-31246196D03*
%TD*%
%TO.C,D251*%
X24340000Y-6339305D03*
X24660000Y-5785049D03*
%TD*%
%TO.C,D405*%
X44640000Y-9976612D03*
X44960000Y-9422356D03*
%TD*%
%TO.C,D1222*%
X16640000Y-31800452D03*
X16960000Y-31246196D03*
%TD*%
%TO.C,D569*%
X-7160000Y-26950710D03*
X-6840000Y-26396454D03*
%TD*%
%TO.C,D2003*%
X36240000Y-43924808D03*
X36560000Y-43370552D03*
%TD*%
%TO.C,D373*%
X-160000Y-9976612D03*
X160000Y-9422356D03*
%TD*%
%TO.C,D472*%
X8240000Y-12401483D03*
X8560000Y-11847227D03*
%TD*%
%TO.C,D1794*%
X3340000Y-49986986D03*
X3660000Y-49432730D03*
%TD*%
%TO.C,D779*%
X24340000Y-20888532D03*
X24660000Y-20334276D03*
%TD*%
%TO.C,D1377*%
X38340000Y-35437759D03*
X38660000Y-34883503D03*
%TD*%
%TO.C,D168*%
X38340000Y-3914434D03*
X38660000Y-3360178D03*
%TD*%
%TO.C,D1589*%
X29940000Y-54836728D03*
X30260000Y-54282472D03*
%TD*%
%TO.C,D1907*%
X-24660000Y-47562115D03*
X-24340000Y-47007859D03*
%TD*%
%TO.C,D1591*%
X27140000Y-54836728D03*
X27460000Y-54282472D03*
%TD*%
%TO.C,D1311*%
X11040000Y-34225323D03*
X11360000Y-33671067D03*
%TD*%
%TO.C,D271*%
X52340000Y-6339305D03*
X52660000Y-5785049D03*
%TD*%
%TO.C,D1895*%
X-7860000Y-47562115D03*
X-7540000Y-47007859D03*
%TD*%
%TO.C,D341*%
X20140000Y-8764176D03*
X20460000Y-8209920D03*
%TD*%
%TO.C,D1878*%
X15940000Y-47562115D03*
X16260000Y-47007859D03*
%TD*%
%TO.C,D318*%
X53040000Y-7551741D03*
X53360000Y-6997485D03*
%TD*%
%TO.C,D1622*%
X-16260000Y-54836728D03*
X-15940000Y-54282472D03*
%TD*%
%TO.C,D372*%
X-1560000Y-9976612D03*
X-1240000Y-9422356D03*
%TD*%
%TO.C,D1415*%
X26440000Y-36650194D03*
X26760000Y-36095938D03*
%TD*%
%TO.C,D200*%
X18040000Y-5126870D03*
X18360000Y-4572614D03*
%TD*%
%TO.C,D364*%
X52340000Y-8764176D03*
X52660000Y-8209920D03*
%TD*%
%TO.C,D1801*%
X-6460000Y-49986986D03*
X-6140000Y-49432730D03*
%TD*%
%TO.C,D704*%
X-860000Y-23313403D03*
X-540000Y-22759147D03*
%TD*%
%TO.C,D1488*%
X-1560000Y-39075066D03*
X-1240000Y-38520810D03*
%TD*%
%TO.C,D64*%
X22940000Y-1489563D03*
X23260000Y-935307D03*
%TD*%
%TO.C,D503*%
X51640000Y-12401483D03*
X51960000Y-11847227D03*
%TD*%
%TO.C,D98*%
X5440000Y-2701999D03*
X5760000Y-2147743D03*
%TD*%
%TO.C,D433*%
X18740000Y-11189048D03*
X19060000Y-10634792D03*
%TD*%
%TO.C,D478*%
X16640000Y-12401483D03*
X16960000Y-11847227D03*
%TD*%
%TO.C,D487*%
X29240000Y-12401483D03*
X29560000Y-11847227D03*
%TD*%
%TO.C,D1442*%
X-860000Y-37862630D03*
X-540000Y-37308374D03*
%TD*%
%TO.C,D936*%
X-160000Y-17251225D03*
X160000Y-16696969D03*
%TD*%
%TO.C,D1234*%
X33440000Y-31800452D03*
X33760000Y-31246196D03*
%TD*%
%TO.C,D2061*%
X20140000Y-42712372D03*
X20460000Y-42158116D03*
%TD*%
%TO.C,D799*%
X-3660000Y-20888532D03*
X-3340000Y-20334276D03*
%TD*%
%TO.C,D652*%
X6840000Y-24525839D03*
X7160000Y-23971583D03*
%TD*%
%TO.C,D1973*%
X13140000Y-45137243D03*
X13460000Y-44582987D03*
%TD*%
%TO.C,D1899*%
X-13460000Y-47562115D03*
X-13140000Y-47007859D03*
%TD*%
%TO.C,D948*%
X48140000Y-16038790D03*
X48460000Y-15484534D03*
%TD*%
%TO.C,D961*%
X29940000Y-16038790D03*
X30260000Y-15484534D03*
%TD*%
%TO.C,D900*%
X50240000Y-17251225D03*
X50560000Y-16696969D03*
%TD*%
%TO.C,D1943*%
X-9960000Y-46349679D03*
X-9640000Y-45795423D03*
%TD*%
%TO.C,D774*%
X31340000Y-20888532D03*
X31660000Y-20334276D03*
%TD*%
%TO.C,D1704*%
X-860000Y-52411857D03*
X-540000Y-51857601D03*
%TD*%
%TO.C,D1721*%
X-24660000Y-52411857D03*
X-24340000Y-51857601D03*
%TD*%
%TO.C,D883*%
X8940000Y-18463661D03*
X9260000Y-17909405D03*
%TD*%
%TO.C,D369*%
X-5760000Y-9976612D03*
X-5440000Y-9422356D03*
%TD*%
%TO.C,D631*%
X36240000Y-24525839D03*
X36560000Y-23971583D03*
%TD*%
%TO.C,D1416*%
X27840000Y-36650194D03*
X28160000Y-36095938D03*
%TD*%
%TO.C,D1182*%
X25740000Y-30588017D03*
X26060000Y-30033761D03*
%TD*%
%TO.C,D1693*%
X14540000Y-52411857D03*
X14860000Y-51857601D03*
%TD*%
%TO.C,D1323*%
X27840000Y-34225323D03*
X28160000Y-33671067D03*
%TD*%
%TO.C,D1092*%
X29940000Y-28163146D03*
X30260000Y-27608890D03*
%TD*%
%TO.C,D2046*%
X-23960000Y-43924808D03*
X-23640000Y-43370552D03*
%TD*%
%TO.C,D673*%
X42540000Y-23313403D03*
X42860000Y-22759147D03*
%TD*%
%TO.C,D893*%
X-5060000Y-18463661D03*
X-4740000Y-17909405D03*
%TD*%
%TO.C,D2113*%
X12440000Y-41499937D03*
X12760000Y-40945681D03*
%TD*%
%TO.C,D1901*%
X-16260000Y-47562115D03*
X-15940000Y-47007859D03*
%TD*%
%TO.C,D1518*%
X40440000Y-39075066D03*
X40760000Y-38520810D03*
%TD*%
%TO.C,D2056*%
X27140000Y-42712372D03*
X27460000Y-42158116D03*
%TD*%
%TO.C,D1906*%
X-23260000Y-47562115D03*
X-22940000Y-47007859D03*
%TD*%
%TO.C,D1605*%
X7540000Y-54836728D03*
X7860000Y-54282472D03*
%TD*%
%TO.C,D477*%
X15240000Y-12401483D03*
X15560000Y-11847227D03*
%TD*%
%TO.C,D545*%
X26440000Y-26950710D03*
X26760000Y-26396454D03*
%TD*%
%TO.C,D817*%
X36240000Y-19676097D03*
X36560000Y-19121841D03*
%TD*%
%TO.C,D289*%
X12440000Y-7551741D03*
X12760000Y-6997485D03*
%TD*%
%TO.C,D223*%
X50240000Y-5126870D03*
X50560000Y-4572614D03*
%TD*%
%TO.C,D1620*%
X-13460000Y-54836728D03*
X-13140000Y-54282472D03*
%TD*%
%TO.C,D751*%
X-1560000Y-22100968D03*
X-1240000Y-21546712D03*
%TD*%
%TO.C,D910*%
X36240000Y-17251225D03*
X36560000Y-16696969D03*
%TD*%
%TO.C,D749*%
X1240000Y-22100968D03*
X1560000Y-21546712D03*
%TD*%
%TO.C,D925*%
X15240000Y-17251225D03*
X15560000Y-16696969D03*
%TD*%
%TO.C,D1769*%
X-26760000Y-51199421D03*
X-26440000Y-50645165D03*
%TD*%
%TO.C,D502*%
X50240000Y-12401483D03*
X50560000Y-11847227D03*
%TD*%
%TO.C,D1935*%
X1240000Y-46349679D03*
X1560000Y-45795423D03*
%TD*%
%TO.C,D201*%
X19440000Y-5126870D03*
X19760000Y-4572614D03*
%TD*%
%TO.C,D4*%
X4040000Y-277128D03*
X4360000Y277128D03*
%TD*%
%TO.C,D476*%
X13840000Y-12401483D03*
X14160000Y-11847227D03*
%TD*%
%TO.C,D455*%
X49540000Y-11189048D03*
X49860000Y-10634792D03*
%TD*%
%TO.C,D1114*%
X-4360000Y-29375581D03*
X-4040000Y-28821325D03*
%TD*%
%TO.C,D823*%
X27840000Y-19676097D03*
X28160000Y-19121841D03*
%TD*%
%TO.C,D404*%
X43240000Y-9976612D03*
X43560000Y-9422356D03*
%TD*%
%TO.C,D403*%
X41840000Y-9976612D03*
X42160000Y-9422356D03*
%TD*%
%TO.C,D662*%
X-7160000Y-24525839D03*
X-6840000Y-23971583D03*
%TD*%
%TO.C,D554*%
X13840000Y-26950710D03*
X14160000Y-26396454D03*
%TD*%
%TO.C,D730*%
X27840000Y-22100968D03*
X28160000Y-21546712D03*
%TD*%
%TO.C,D560*%
X5440000Y-26950710D03*
X5760000Y-26396454D03*
%TD*%
%TO.C,D651*%
X8240000Y-24525839D03*
X8560000Y-23971583D03*
%TD*%
%TO.C,D1055*%
X28540000Y-13613919D03*
X28860000Y-13059663D03*
%TD*%
%TO.C,D866*%
X32740000Y-18463661D03*
X33060000Y-17909405D03*
%TD*%
%TO.C,D1841*%
X2640000Y-48774550D03*
X2960000Y-48220294D03*
%TD*%
%TO.C,D1790*%
X8940000Y-49986986D03*
X9260000Y-49432730D03*
%TD*%
%TO.C,D335*%
X11740000Y-8764176D03*
X12060000Y-8209920D03*
%TD*%
%TO.C,D1806*%
X-13460000Y-49986986D03*
X-13140000Y-49432730D03*
%TD*%
%TO.C,D590*%
X28540000Y-25738274D03*
X28860000Y-25184018D03*
%TD*%
%TO.C,D1891*%
X-2260000Y-47562115D03*
X-1940000Y-47007859D03*
%TD*%
%TO.C,D1604*%
X8940000Y-54836728D03*
X9260000Y-54282472D03*
%TD*%
%TO.C,D365*%
X53740000Y-8764176D03*
X54060000Y-8209920D03*
%TD*%
%TO.C,D1583*%
X1240000Y-41499937D03*
X1560000Y-40945681D03*
%TD*%
%TO.C,D1362*%
X17340000Y-35437759D03*
X17660000Y-34883503D03*
%TD*%
%TO.C,D815*%
X39040000Y-19676097D03*
X39360000Y-19121841D03*
%TD*%
%TO.C,D1989*%
X-9260000Y-45137243D03*
X-8940000Y-44582987D03*
%TD*%
%TO.C,D1499*%
X13840000Y-39075066D03*
X14160000Y-38520810D03*
%TD*%
%TO.C,D1320*%
X23640000Y-34225323D03*
X23960000Y-33671067D03*
%TD*%
%TO.C,D1978*%
X6140000Y-45137243D03*
X6460000Y-44582987D03*
%TD*%
%TO.C,D1027*%
X2640000Y-14826354D03*
X2960000Y-14272098D03*
%TD*%
%TO.C,D1080*%
X13140000Y-28163146D03*
X13460000Y-27608890D03*
%TD*%
%TO.C,D1892*%
X-3660000Y-47562115D03*
X-3340000Y-47007859D03*
%TD*%
%TO.C,D850*%
X-9960000Y-19676097D03*
X-9640000Y-19121841D03*
%TD*%
%TO.C,D820*%
X32040000Y-19676097D03*
X32360000Y-19121841D03*
%TD*%
%TO.C,D809*%
X47440000Y-19676097D03*
X47760000Y-19121841D03*
%TD*%
%TO.C,D17*%
X22240000Y-277128D03*
X22560000Y277128D03*
%TD*%
%TO.C,D1247*%
X-13460000Y-33012888D03*
X-13140000Y-32458632D03*
%TD*%
%TO.C,D103*%
X12440000Y-2701999D03*
X12760000Y-2147743D03*
%TD*%
%TO.C,D585*%
X35540000Y-25738274D03*
X35860000Y-25184018D03*
%TD*%
%TO.C,D397*%
X33440000Y-9976612D03*
X33760000Y-9422356D03*
%TD*%
%TO.C,D703*%
X540000Y-23313403D03*
X860000Y-22759147D03*
%TD*%
%TO.C,D861*%
X39740000Y-18463661D03*
X40060000Y-17909405D03*
%TD*%
%TO.C,D1602*%
X11740000Y-54836728D03*
X12060000Y-54282472D03*
%TD*%
%TO.C,D1758*%
X-11360000Y-51199421D03*
X-11040000Y-50645165D03*
%TD*%
%TO.C,D1407*%
X15240000Y-36650194D03*
X15560000Y-36095938D03*
%TD*%
%TO.C,D1684*%
X27140000Y-52411857D03*
X27460000Y-51857601D03*
%TD*%
%TO.C,D382*%
X12440000Y-9976612D03*
X12760000Y-9422356D03*
%TD*%
%TO.C,D995*%
X47440000Y-14826354D03*
X47760000Y-14272098D03*
%TD*%
%TO.C,D1625*%
X-20460000Y-54836728D03*
X-20140000Y-54282472D03*
%TD*%
%TO.C,D903*%
X46040000Y-17251225D03*
X46360000Y-16696969D03*
%TD*%
%TO.C,D911*%
X34840000Y-17251225D03*
X35160000Y-16696969D03*
%TD*%
%TO.C,D1872*%
X24340000Y-47562115D03*
X24660000Y-47007859D03*
%TD*%
%TO.C,D358*%
X43940000Y-8764176D03*
X44260000Y-8209920D03*
%TD*%
%TO.C,D288*%
X11040000Y-7551741D03*
X11360000Y-6997485D03*
%TD*%
%TO.C,D463*%
X-4360000Y-12401483D03*
X-4040000Y-11847227D03*
%TD*%
%TO.C,D1252*%
X-6460000Y-33012888D03*
X-6140000Y-32458632D03*
%TD*%
%TO.C,D332*%
X7540000Y-8764176D03*
X7860000Y-8209920D03*
%TD*%
%TO.C,D177*%
X50940000Y-3914434D03*
X51260000Y-3360178D03*
%TD*%
%TO.C,D1353*%
X4740000Y-35437759D03*
X5060000Y-34883503D03*
%TD*%
%TO.C,D92*%
X62140000Y-1489563D03*
X62460000Y-935307D03*
%TD*%
%TO.C,D1554*%
X25740000Y-40287501D03*
X26060000Y-39733245D03*
%TD*%
%TO.C,D1571*%
X-15560000Y-41499937D03*
X-15240000Y-40945681D03*
%TD*%
%TO.C,D1884*%
X7540000Y-47562115D03*
X7860000Y-47007859D03*
%TD*%
%TO.C,D600*%
X14540000Y-25738274D03*
X14860000Y-25184018D03*
%TD*%
%TO.C,D1991*%
X-12060000Y-45137243D03*
X-11740000Y-44582987D03*
%TD*%
%TO.C,D254*%
X28540000Y-6339305D03*
X28860000Y-5785049D03*
%TD*%
%TO.C,D1810*%
X-19060000Y-49986986D03*
X-18740000Y-49432730D03*
%TD*%
%TO.C,D1545*%
X13140000Y-40287501D03*
X13460000Y-39733245D03*
%TD*%
%TO.C,D1505*%
X22240000Y-39075066D03*
X22560000Y-38520810D03*
%TD*%
%TO.C,D1817*%
X-28860000Y-49986986D03*
X-28540000Y-49432730D03*
%TD*%
%TO.C,D244*%
X14540000Y-6339305D03*
X14860000Y-5785049D03*
%TD*%
%TO.C,D2103*%
X26440000Y-41499937D03*
X26760000Y-40945681D03*
%TD*%
%TO.C,D1690*%
X18740000Y-52411857D03*
X19060000Y-51857601D03*
%TD*%
%TO.C,D101*%
X9640000Y-2701999D03*
X9960000Y-2147743D03*
%TD*%
%TO.C,D1599*%
X15940000Y-54836728D03*
X16260000Y-54282472D03*
%TD*%
%TO.C,D1792*%
X6140000Y-49986986D03*
X6460000Y-49432730D03*
%TD*%
%TO.C,D127*%
X46040000Y-2701999D03*
X46360000Y-2147743D03*
%TD*%
%TO.C,D461*%
X-7160000Y-12401483D03*
X-6840000Y-11847227D03*
%TD*%
%TO.C,D285*%
X6840000Y-7551741D03*
X7160000Y-6997485D03*
%TD*%
%TO.C,D1862*%
X-26760000Y-48774550D03*
X-26440000Y-48220294D03*
%TD*%
%TO.C,D1823*%
X27840000Y-48774550D03*
X28160000Y-48220294D03*
%TD*%
%TO.C,D1972*%
X14540000Y-45137243D03*
X14860000Y-44582987D03*
%TD*%
%TO.C,D1347*%
X-3660000Y-35437759D03*
X-3340000Y-34883503D03*
%TD*%
%TO.C,D2102*%
X27840000Y-41499937D03*
X28160000Y-40945681D03*
%TD*%
%TO.C,D43*%
X58640000Y-277128D03*
X58960000Y277128D03*
%TD*%
%TO.C,D136*%
X58640000Y-2701999D03*
X58960000Y-2147743D03*
%TD*%
%TO.C,D192*%
X6840000Y-5126870D03*
X7160000Y-4572614D03*
%TD*%
%TO.C,D398*%
X34840000Y-9976612D03*
X35160000Y-9422356D03*
%TD*%
%TO.C,D758*%
X-11360000Y-22100968D03*
X-11040000Y-21546712D03*
%TD*%
%TO.C,D1863*%
X-28160000Y-48774550D03*
X-27840000Y-48220294D03*
%TD*%
%TO.C,D149*%
X11740000Y-3914434D03*
X12060000Y-3360178D03*
%TD*%
%TO.C,D2043*%
X-19760000Y-43924808D03*
X-19440000Y-43370552D03*
%TD*%
%TO.C,D1573*%
X-12760000Y-41499937D03*
X-12440000Y-40945681D03*
%TD*%
%TO.C,D1889*%
X540000Y-47562115D03*
X860000Y-47007859D03*
%TD*%
%TO.C,D580*%
X42540000Y-25738274D03*
X42860000Y-25184018D03*
%TD*%
%TO.C,D1608*%
X3340000Y-54836728D03*
X3660000Y-54282472D03*
%TD*%
%TO.C,D517*%
X6140000Y-13613919D03*
X6460000Y-13059663D03*
%TD*%
%TO.C,D2028*%
X1240000Y-43924808D03*
X1560000Y-43370552D03*
%TD*%
%TO.C,D368*%
X57940000Y-8764176D03*
X58260000Y-8209920D03*
%TD*%
%TO.C,D869*%
X28540000Y-18463661D03*
X28860000Y-17909405D03*
%TD*%
%TO.C,D1633*%
X-31660000Y-54836728D03*
X-31340000Y-54282472D03*
%TD*%
%TO.C,D1859*%
X-22560000Y-48774550D03*
X-22240000Y-48220294D03*
%TD*%
%TO.C,D1306*%
X4040000Y-34225323D03*
X4360000Y-33671067D03*
%TD*%
%TO.C,D1797*%
X-860000Y-49986986D03*
X-540000Y-49432730D03*
%TD*%
%TO.C,D129*%
X48840000Y-2701999D03*
X49160000Y-2147743D03*
%TD*%
%TO.C,D846*%
X-4360000Y-19676097D03*
X-4040000Y-19121841D03*
%TD*%
%TO.C,D1035*%
X-8560000Y-14826354D03*
X-8240000Y-14272098D03*
%TD*%
%TO.C,D2029*%
X-160000Y-43924808D03*
X160000Y-43370552D03*
%TD*%
%TO.C,D484*%
X25040000Y-12401483D03*
X25360000Y-11847227D03*
%TD*%
%TO.C,D1273*%
X22940000Y-33012888D03*
X23260000Y-32458632D03*
%TD*%
%TO.C,D695*%
X11740000Y-23313403D03*
X12060000Y-22759147D03*
%TD*%
%TO.C,D962*%
X28540000Y-16038790D03*
X28860000Y-15484534D03*
%TD*%
%TO.C,D1102*%
X43940000Y-28163146D03*
X44260000Y-27608890D03*
%TD*%
%TO.C,D842*%
X1240000Y-19676097D03*
X1560000Y-19121841D03*
%TD*%
%TO.C,D483*%
X23640000Y-12401483D03*
X23960000Y-11847227D03*
%TD*%
%TO.C,D443*%
X32740000Y-11189048D03*
X33060000Y-10634792D03*
%TD*%
%TO.C,D1976*%
X8940000Y-45137243D03*
X9260000Y-44582987D03*
%TD*%
%TO.C,D1842*%
X1240000Y-48774550D03*
X1560000Y-48220294D03*
%TD*%
%TO.C,D1263*%
X8940000Y-33012888D03*
X9260000Y-32458632D03*
%TD*%
%TO.C,D1364*%
X20140000Y-35437759D03*
X20460000Y-34883503D03*
%TD*%
%TO.C,D832*%
X15240000Y-19676097D03*
X15560000Y-19121841D03*
%TD*%
%TO.C,D1504*%
X20840000Y-39075066D03*
X21160000Y-38520810D03*
%TD*%
%TO.C,D905*%
X43240000Y-17251225D03*
X43560000Y-16696969D03*
%TD*%
%TO.C,D1324*%
X29240000Y-34225323D03*
X29560000Y-33671067D03*
%TD*%
%TO.C,D1286*%
X41140000Y-33012888D03*
X41460000Y-32458632D03*
%TD*%
%TO.C,D2106*%
X22240000Y-41499937D03*
X22560000Y-40945681D03*
%TD*%
%TO.C,D864*%
X35540000Y-18463661D03*
X35860000Y-17909405D03*
%TD*%
%TO.C,D497*%
X43240000Y-12401483D03*
X43560000Y-11847227D03*
%TD*%
%TO.C,D315*%
X48840000Y-7551741D03*
X49160000Y-6997485D03*
%TD*%
%TO.C,D1509*%
X27840000Y-39075066D03*
X28160000Y-38520810D03*
%TD*%
%TO.C,D1471*%
X39740000Y-37862630D03*
X40060000Y-37308374D03*
%TD*%
%TO.C,D896*%
X-9260000Y-18463661D03*
X-8940000Y-17909405D03*
%TD*%
%TO.C,D50*%
X3340000Y-1489563D03*
X3660000Y-935307D03*
%TD*%
%TO.C,D1632*%
X-30260000Y-54836728D03*
X-29940000Y-54282472D03*
%TD*%
%TO.C,D1208*%
X-2960000Y-31800452D03*
X-2640000Y-31246196D03*
%TD*%
%TO.C,D949*%
X46740000Y-16038790D03*
X47060000Y-15484534D03*
%TD*%
%TO.C,D1834*%
X12440000Y-48774550D03*
X12760000Y-48220294D03*
%TD*%
%TO.C,D1959*%
X32740000Y-45137243D03*
X33060000Y-44582987D03*
%TD*%
%TO.C,D1321*%
X25040000Y-34225323D03*
X25360000Y-33671067D03*
%TD*%
%TO.C,D1409*%
X18040000Y-36650194D03*
X18360000Y-36095938D03*
%TD*%
%TO.C,D902*%
X47440000Y-17251225D03*
X47760000Y-16696969D03*
%TD*%
%TO.C,D1042*%
X46740000Y-13613919D03*
X47060000Y-13059663D03*
%TD*%
%TO.C,D1180*%
X22940000Y-30588017D03*
X23260000Y-30033761D03*
%TD*%
%TO.C,D669*%
X48140000Y-23313403D03*
X48460000Y-22759147D03*
%TD*%
%TO.C,D1994*%
X-16260000Y-45137243D03*
X-15940000Y-44582987D03*
%TD*%
%TO.C,D876*%
X18740000Y-18463661D03*
X19060000Y-17909405D03*
%TD*%
%TO.C,D976*%
X8940000Y-16038790D03*
X9260000Y-15484534D03*
%TD*%
%TO.C,D1621*%
X-14860000Y-54836728D03*
X-14540000Y-54282472D03*
%TD*%
%TO.C,D1342*%
X-10660000Y-35437759D03*
X-10340000Y-34883503D03*
%TD*%
%TO.C,D1195*%
X43940000Y-30588017D03*
X44260000Y-30033761D03*
%TD*%
%TO.C,D88*%
X56540000Y-1489563D03*
X56860000Y-935307D03*
%TD*%
%TO.C,D1207*%
X-4360000Y-31800452D03*
X-4040000Y-31246196D03*
%TD*%
%TO.C,D960*%
X31340000Y-16038790D03*
X31660000Y-15484534D03*
%TD*%
%TO.C,D1855*%
X-16960000Y-48774550D03*
X-16640000Y-48220294D03*
%TD*%
%TO.C,D1368*%
X25740000Y-35437759D03*
X26060000Y-34883503D03*
%TD*%
%TO.C,D406*%
X46040000Y-9976612D03*
X46360000Y-9422356D03*
%TD*%
%TO.C,D996*%
X46040000Y-14826354D03*
X46360000Y-14272098D03*
%TD*%
%TO.C,D620*%
X-13460000Y-25738274D03*
X-13140000Y-25184018D03*
%TD*%
%TO.C,D416*%
X-5060000Y-11189048D03*
X-4740000Y-10634792D03*
%TD*%
%TO.C,D1333*%
X41840000Y-34225323D03*
X42160000Y-33671067D03*
%TD*%
%TO.C,D884*%
X7540000Y-18463661D03*
X7860000Y-17909405D03*
%TD*%
%TO.C,D1549*%
X18740000Y-40287501D03*
X19060000Y-39733245D03*
%TD*%
%TO.C,D1903*%
X-19060000Y-47562115D03*
X-18740000Y-47007859D03*
%TD*%
%TO.C,D152*%
X15940000Y-3914434D03*
X16260000Y-3360178D03*
%TD*%
%TO.C,D1581*%
X-1560000Y-41499937D03*
X-1240000Y-40945681D03*
%TD*%
%TO.C,D48*%
X540000Y-1489563D03*
X860000Y-935307D03*
%TD*%
%TO.C,D1083*%
X17340000Y-28163146D03*
X17660000Y-27608890D03*
%TD*%
%TO.C,D1072*%
X1940000Y-28163146D03*
X2260000Y-27608890D03*
%TD*%
%TO.C,D1186*%
X31340000Y-30588017D03*
X31660000Y-30033761D03*
%TD*%
%TO.C,D1115*%
X-2960000Y-29375581D03*
X-2640000Y-28821325D03*
%TD*%
%TO.C,D913*%
X32040000Y-17251225D03*
X32360000Y-16696969D03*
%TD*%
%TO.C,D321*%
X57240000Y-7551741D03*
X57560000Y-6997485D03*
%TD*%
%TO.C,D1211*%
X1240000Y-31800452D03*
X1560000Y-31246196D03*
%TD*%
%TO.C,D2070*%
X7540000Y-42712372D03*
X7860000Y-42158116D03*
%TD*%
%TO.C,D2107*%
X20840000Y-41499937D03*
X21160000Y-40945681D03*
%TD*%
%TO.C,D1565*%
X-23960000Y-41499937D03*
X-23640000Y-40945681D03*
%TD*%
%TO.C,D796*%
X540000Y-20888532D03*
X860000Y-20334276D03*
%TD*%
%TO.C,D155*%
X20140000Y-3914434D03*
X20460000Y-3360178D03*
%TD*%
%TO.C,D171*%
X42540000Y-3914434D03*
X42860000Y-3360178D03*
%TD*%
%TO.C,D53*%
X7540000Y-1489563D03*
X7860000Y-935307D03*
%TD*%
%TO.C,D218*%
X43240000Y-5126870D03*
X43560000Y-4572614D03*
%TD*%
%TO.C,D1553*%
X24340000Y-40287501D03*
X24660000Y-39733245D03*
%TD*%
%TO.C,D1904*%
X-20460000Y-47562115D03*
X-20140000Y-47007859D03*
%TD*%
%TO.C,D1788*%
X11740000Y-49986986D03*
X12060000Y-49432730D03*
%TD*%
%TO.C,D1544*%
X11740000Y-40287501D03*
X12060000Y-39733245D03*
%TD*%
%TO.C,D2069*%
X8940000Y-42712372D03*
X9260000Y-42158116D03*
%TD*%
%TO.C,D701*%
X3340000Y-23313403D03*
X3660000Y-22759147D03*
%TD*%
%TO.C,D615*%
X-6460000Y-25738274D03*
X-6140000Y-25184018D03*
%TD*%
%TO.C,D1177*%
X18740000Y-30588017D03*
X19060000Y-30033761D03*
%TD*%
%TO.C,D737*%
X18040000Y-22100968D03*
X18360000Y-21546712D03*
%TD*%
%TO.C,D499*%
X46040000Y-12401483D03*
X46360000Y-11847227D03*
%TD*%
%TO.C,D572*%
X-11360000Y-26950710D03*
X-11040000Y-26396454D03*
%TD*%
%TO.C,D2019*%
X13840000Y-43924808D03*
X14160000Y-43370552D03*
%TD*%
%TO.C,D1160*%
X-5060000Y-30588017D03*
X-4740000Y-30033761D03*
%TD*%
%TO.C,D706*%
X-3660000Y-23313403D03*
X-3340000Y-22759147D03*
%TD*%
%TO.C,D1590*%
X28540000Y-54836728D03*
X28860000Y-54282472D03*
%TD*%
%TO.C,D954*%
X39740000Y-16038790D03*
X40060000Y-15484534D03*
%TD*%
%TO.C,D1168*%
X6140000Y-30588017D03*
X6460000Y-30033761D03*
%TD*%
%TO.C,D753*%
X-4360000Y-22100968D03*
X-4040000Y-21546712D03*
%TD*%
%TO.C,D1157*%
X-9260000Y-30588017D03*
X-8940000Y-30033761D03*
%TD*%
%TO.C,D1795*%
X1940000Y-49986986D03*
X2260000Y-49432730D03*
%TD*%
%TO.C,D2088*%
X-17660000Y-42712372D03*
X-17340000Y-42158116D03*
%TD*%
%TO.C,D51*%
X4740000Y-1489563D03*
X5060000Y-935307D03*
%TD*%
%TO.C,D1293*%
X-14160000Y-34225323D03*
X-13840000Y-33671067D03*
%TD*%
%TO.C,D696*%
X10340000Y-23313403D03*
X10660000Y-22759147D03*
%TD*%
%TO.C,D1567*%
X-21160000Y-41499937D03*
X-20840000Y-40945681D03*
%TD*%
%TO.C,D1852*%
X-12760000Y-48774550D03*
X-12440000Y-48220294D03*
%TD*%
%TO.C,D1239*%
X40440000Y-31800452D03*
X40760000Y-31246196D03*
%TD*%
%TO.C,D1241*%
X43240000Y-31800452D03*
X43560000Y-31246196D03*
%TD*%
%TO.C,D2065*%
X14540000Y-42712372D03*
X14860000Y-42158116D03*
%TD*%
%TO.C,D821*%
X30640000Y-19676097D03*
X30960000Y-19121841D03*
%TD*%
%TO.C,D128*%
X47440000Y-2701999D03*
X47760000Y-2147743D03*
%TD*%
%TO.C,D1463*%
X28540000Y-37862630D03*
X28860000Y-37308374D03*
%TD*%
%TO.C,D1741*%
X12440000Y-51199421D03*
X12760000Y-50645165D03*
%TD*%
%TO.C,D498*%
X44640000Y-12401483D03*
X44960000Y-11847227D03*
%TD*%
%TO.C,D2030*%
X-1560000Y-43924808D03*
X-1240000Y-43370552D03*
%TD*%
%TO.C,D2115*%
X9640000Y-41499937D03*
X9960000Y-40945681D03*
%TD*%
%TO.C,D744*%
X8240000Y-22100968D03*
X8560000Y-21546712D03*
%TD*%
%TO.C,D685*%
X25740000Y-23313403D03*
X26060000Y-22759147D03*
%TD*%
%TO.C,D49*%
X1940000Y-1489563D03*
X2260000Y-935307D03*
%TD*%
%TO.C,D276*%
X59340000Y-6339305D03*
X59660000Y-5785049D03*
%TD*%
%TO.C,D1691*%
X17340000Y-52411857D03*
X17660000Y-51857601D03*
%TD*%
%TO.C,D1202*%
X-11360000Y-31800452D03*
X-11040000Y-31246196D03*
%TD*%
%TO.C,D691*%
X17340000Y-23313403D03*
X17660000Y-22759147D03*
%TD*%
%TO.C,D1719*%
X-21860000Y-52411857D03*
X-21540000Y-51857601D03*
%TD*%
%TO.C,D1479*%
X-14160000Y-39075066D03*
X-13840000Y-38520810D03*
%TD*%
%TO.C,D1503*%
X19440000Y-39075066D03*
X19760000Y-38520810D03*
%TD*%
%TO.C,D1075*%
X6140000Y-28163146D03*
X6460000Y-27608890D03*
%TD*%
%TO.C,D1143*%
X36240000Y-29375581D03*
X36560000Y-28821325D03*
%TD*%
%TO.C,D1814*%
X-24660000Y-49986986D03*
X-24340000Y-49432730D03*
%TD*%
%TO.C,D290*%
X13840000Y-7551741D03*
X14160000Y-6997485D03*
%TD*%
%TO.C,D731*%
X26440000Y-22100968D03*
X26760000Y-21546712D03*
%TD*%
%TO.C,D1687*%
X22940000Y-52411857D03*
X23260000Y-51857601D03*
%TD*%
%TO.C,D1116*%
X-1560000Y-29375581D03*
X-1240000Y-28821325D03*
%TD*%
%TO.C,D1711*%
X-10660000Y-52411857D03*
X-10340000Y-51857601D03*
%TD*%
%TO.C,D163*%
X31340000Y-3914434D03*
X31660000Y-3360178D03*
%TD*%
%TO.C,D919*%
X23640000Y-17251225D03*
X23960000Y-16696969D03*
%TD*%
%TO.C,D73*%
X35540000Y-1489563D03*
X35860000Y-935307D03*
%TD*%
%TO.C,D291*%
X15240000Y-7551741D03*
X15560000Y-6997485D03*
%TD*%
%TO.C,D342*%
X21540000Y-8764176D03*
X21860000Y-8209920D03*
%TD*%
%TO.C,D671*%
X45340000Y-23313403D03*
X45660000Y-22759147D03*
%TD*%
%TO.C,D870*%
X27140000Y-18463661D03*
X27460000Y-17909405D03*
%TD*%
%TO.C,D1536*%
X540000Y-40287501D03*
X860000Y-39733245D03*
%TD*%
%TO.C,D513*%
X540000Y-13613919D03*
X860000Y-13059663D03*
%TD*%
%TO.C,D2054*%
X29940000Y-42712372D03*
X30260000Y-42158116D03*
%TD*%
%TO.C,D411*%
X53040000Y-9976612D03*
X53360000Y-9422356D03*
%TD*%
%TO.C,D1550*%
X20140000Y-40287501D03*
X20460000Y-39733245D03*
%TD*%
%TO.C,D1422*%
X36240000Y-36650194D03*
X36560000Y-36095938D03*
%TD*%
%TO.C,D847*%
X-5760000Y-19676097D03*
X-5440000Y-19121841D03*
%TD*%
%TO.C,D589*%
X29940000Y-25738274D03*
X30260000Y-25184018D03*
%TD*%
%TO.C,D741*%
X12440000Y-22100968D03*
X12760000Y-21546712D03*
%TD*%
%TO.C,D1070*%
X-860000Y-28163146D03*
X-540000Y-27608890D03*
%TD*%
%TO.C,D2039*%
X-14160000Y-43924808D03*
X-13840000Y-43370552D03*
%TD*%
%TO.C,D140*%
X-860000Y-3914434D03*
X-540000Y-3360178D03*
%TD*%
%TO.C,D482*%
X22240000Y-12401483D03*
X22560000Y-11847227D03*
%TD*%
%TO.C,D1223*%
X18040000Y-31800452D03*
X18360000Y-31246196D03*
%TD*%
%TO.C,D792*%
X6140000Y-20888532D03*
X6460000Y-20334276D03*
%TD*%
%TO.C,D1005*%
X33440000Y-14826354D03*
X33760000Y-14272098D03*
%TD*%
%TO.C,D970*%
X17340000Y-16038790D03*
X17660000Y-15484534D03*
%TD*%
%TO.C,D1729*%
X29240000Y-51199421D03*
X29560000Y-50645165D03*
%TD*%
%TO.C,D314*%
X47440000Y-7551741D03*
X47760000Y-6997485D03*
%TD*%
%TO.C,D851*%
X-11360000Y-19676097D03*
X-11040000Y-19121841D03*
%TD*%
%TO.C,D425*%
X7540000Y-11189048D03*
X7860000Y-10634792D03*
%TD*%
%TO.C,D840*%
X4040000Y-19676097D03*
X4360000Y-19121841D03*
%TD*%
%TO.C,D1420*%
X33440000Y-36650194D03*
X33760000Y-36095938D03*
%TD*%
%TO.C,D1784*%
X17340000Y-49986986D03*
X17660000Y-49432730D03*
%TD*%
%TO.C,D788*%
X11740000Y-20888532D03*
X12060000Y-20334276D03*
%TD*%
%TO.C,D985*%
X-3660000Y-16038790D03*
X-3340000Y-15484534D03*
%TD*%
%TO.C,D595*%
X21540000Y-25738274D03*
X21860000Y-25184018D03*
%TD*%
%TO.C,D221*%
X47440000Y-5126870D03*
X47760000Y-4572614D03*
%TD*%
%TO.C,D947*%
X49540000Y-16038790D03*
X49860000Y-15484534D03*
%TD*%
%TO.C,D738*%
X16640000Y-22100968D03*
X16960000Y-21546712D03*
%TD*%
%TO.C,D1179*%
X21540000Y-30588017D03*
X21860000Y-30033761D03*
%TD*%
%TO.C,D1101*%
X42540000Y-28163146D03*
X42860000Y-27608890D03*
%TD*%
%TO.C,D1587*%
X6840000Y-41499937D03*
X7160000Y-40945681D03*
%TD*%
%TO.C,D766*%
X42540000Y-20888532D03*
X42860000Y-20334276D03*
%TD*%
%TO.C,D1618*%
X-10660000Y-54836728D03*
X-10340000Y-54282472D03*
%TD*%
%TO.C,D1780*%
X22940000Y-49986986D03*
X23260000Y-49432730D03*
%TD*%
%TO.C,D62*%
X20140000Y-1489563D03*
X20460000Y-935307D03*
%TD*%
%TO.C,D1577*%
X-7160000Y-41499937D03*
X-6840000Y-40945681D03*
%TD*%
%TO.C,D895*%
X-7860000Y-18463661D03*
X-7540000Y-17909405D03*
%TD*%
%TO.C,D63*%
X21540000Y-1489563D03*
X21860000Y-935307D03*
%TD*%
%TO.C,D2081*%
X-7860000Y-42712372D03*
X-7540000Y-42158116D03*
%TD*%
%TO.C,D1510*%
X29240000Y-39075066D03*
X29560000Y-38520810D03*
%TD*%
%TO.C,D1888*%
X1940000Y-47562115D03*
X2260000Y-47007859D03*
%TD*%
%TO.C,D474*%
X11040000Y-12401483D03*
X11360000Y-11847227D03*
%TD*%
%TO.C,D1339*%
X-14860000Y-35437759D03*
X-14540000Y-34883503D03*
%TD*%
%TO.C,D1142*%
X34840000Y-29375581D03*
X35160000Y-28821325D03*
%TD*%
%TO.C,D1681*%
X31340000Y-52411857D03*
X31660000Y-51857601D03*
%TD*%
%TO.C,D384*%
X15240000Y-9976612D03*
X15560000Y-9422356D03*
%TD*%
%TO.C,D1308*%
X6840000Y-34225323D03*
X7160000Y-33671067D03*
%TD*%
%TO.C,D1176*%
X17340000Y-30588017D03*
X17660000Y-30033761D03*
%TD*%
%TO.C,D624*%
X46040000Y-24525839D03*
X46360000Y-23971583D03*
%TD*%
%TO.C,D1248*%
X-12060000Y-33012888D03*
X-11740000Y-32458632D03*
%TD*%
%TO.C,D161*%
X28540000Y-3914434D03*
X28860000Y-3360178D03*
%TD*%
%TO.C,D1614*%
X-5060000Y-54836728D03*
X-4740000Y-54282472D03*
%TD*%
%TO.C,D1490*%
X1240000Y-39075066D03*
X1560000Y-38520810D03*
%TD*%
%TO.C,D676*%
X38340000Y-23313403D03*
X38660000Y-22759147D03*
%TD*%
%TO.C,D983*%
X-860000Y-16038790D03*
X-540000Y-15484534D03*
%TD*%
%TO.C,D697*%
X8940000Y-23313403D03*
X9260000Y-22759147D03*
%TD*%
%TO.C,D1360*%
X14540000Y-35437759D03*
X14860000Y-34883503D03*
%TD*%
%TO.C,D219*%
X44640000Y-5126870D03*
X44960000Y-4572614D03*
%TD*%
%TO.C,D309*%
X40440000Y-7551741D03*
X40760000Y-6997485D03*
%TD*%
%TO.C,D665*%
X-11360000Y-24525839D03*
X-11040000Y-23971583D03*
%TD*%
%TO.C,D1429*%
X-19060000Y-37862630D03*
X-18740000Y-37308374D03*
%TD*%
%TO.C,D36*%
X48840000Y-277128D03*
X49160000Y277128D03*
%TD*%
%TO.C,D1164*%
X540000Y-30588017D03*
X860000Y-30033761D03*
%TD*%
%TO.C,D275*%
X57940000Y-6339305D03*
X58260000Y-5785049D03*
%TD*%
%TO.C,D172*%
X43940000Y-3914434D03*
X44260000Y-3360178D03*
%TD*%
%TO.C,D1739*%
X15240000Y-51199421D03*
X15560000Y-50645165D03*
%TD*%
%TO.C,D77*%
X41140000Y-1489563D03*
X41460000Y-935307D03*
%TD*%
%TO.C,D40*%
X54440000Y-277128D03*
X54760000Y277128D03*
%TD*%
%TO.C,D874*%
X21540000Y-18463661D03*
X21860000Y-17909405D03*
%TD*%
%TO.C,D1255*%
X-2260000Y-33012888D03*
X-1940000Y-32458632D03*
%TD*%
%TO.C,D694*%
X13140000Y-23313403D03*
X13460000Y-22759147D03*
%TD*%
%TO.C,D1725*%
X-30260000Y-52411857D03*
X-29940000Y-51857601D03*
%TD*%
%TO.C,D610*%
X540000Y-25738274D03*
X860000Y-25184018D03*
%TD*%
%TO.C,D1214*%
X5440000Y-31800452D03*
X5760000Y-31246196D03*
%TD*%
%TO.C,D628*%
X40440000Y-24525839D03*
X40760000Y-23971583D03*
%TD*%
%TO.C,D436*%
X22940000Y-11189048D03*
X23260000Y-10634792D03*
%TD*%
%TO.C,D1876*%
X18740000Y-47562115D03*
X19060000Y-47007859D03*
%TD*%
%TO.C,D1363*%
X18740000Y-35437759D03*
X19060000Y-34883503D03*
%TD*%
%TO.C,D337*%
X14540000Y-8764176D03*
X14860000Y-8209920D03*
%TD*%
%TO.C,D100*%
X8240000Y-2701999D03*
X8560000Y-2147743D03*
%TD*%
%TO.C,D1588*%
X31340000Y-54836728D03*
X31660000Y-54282472D03*
%TD*%
%TO.C,D1601*%
X13140000Y-54836728D03*
X13460000Y-54282472D03*
%TD*%
%TO.C,D1592*%
X25740000Y-54836728D03*
X26060000Y-54282472D03*
%TD*%
%TO.C,D304*%
X33440000Y-7551741D03*
X33760000Y-6997485D03*
%TD*%
%TO.C,D604*%
X8940000Y-25738274D03*
X9260000Y-25184018D03*
%TD*%
%TO.C,D1694*%
X13140000Y-52411857D03*
X13460000Y-51857601D03*
%TD*%
%TO.C,D1662*%
X-7160000Y-53624292D03*
X-6840000Y-53070036D03*
%TD*%
%TO.C,D978*%
X6140000Y-16038790D03*
X6460000Y-15484534D03*
%TD*%
%TO.C,D2015*%
X19440000Y-43924808D03*
X19760000Y-43370552D03*
%TD*%
%TO.C,D1637*%
X27840000Y-53624292D03*
X28160000Y-53070036D03*
%TD*%
%TO.C,D1432*%
X-14860000Y-37862630D03*
X-14540000Y-37308374D03*
%TD*%
%TO.C,D547*%
X23640000Y-26950710D03*
X23960000Y-26396454D03*
%TD*%
%TO.C,D1421*%
X34840000Y-36650194D03*
X35160000Y-36095938D03*
%TD*%
%TO.C,D1458*%
X21540000Y-37862630D03*
X21860000Y-37308374D03*
%TD*%
%TO.C,D1472*%
X41140000Y-37862630D03*
X41460000Y-37308374D03*
%TD*%
%TO.C,D1695*%
X11740000Y-52411857D03*
X12060000Y-51857601D03*
%TD*%
%TO.C,D1535*%
X-860000Y-40287501D03*
X-540000Y-39733245D03*
%TD*%
%TO.C,D1272*%
X21540000Y-33012888D03*
X21860000Y-32458632D03*
%TD*%
%TO.C,D58*%
X14540000Y-1489563D03*
X14860000Y-935307D03*
%TD*%
%TO.C,D1857*%
X-19760000Y-48774550D03*
X-19440000Y-48220294D03*
%TD*%
%TO.C,D298*%
X25040000Y-7551741D03*
X25360000Y-6997485D03*
%TD*%
%TO.C,D1346*%
X-5060000Y-35437759D03*
X-4740000Y-34883503D03*
%TD*%
%TO.C,D2047*%
X-25360000Y-43924808D03*
X-25040000Y-43370552D03*
%TD*%
%TO.C,D1281*%
X34140000Y-33012888D03*
X34460000Y-32458632D03*
%TD*%
%TO.C,D1937*%
X-1560000Y-46349679D03*
X-1240000Y-45795423D03*
%TD*%
%TO.C,D834*%
X12440000Y-19676097D03*
X12760000Y-19121841D03*
%TD*%
%TO.C,D1359*%
X13140000Y-35437759D03*
X13460000Y-34883503D03*
%TD*%
%TO.C,D1427*%
X-21860000Y-37862630D03*
X-21540000Y-37308374D03*
%TD*%
%TO.C,D1438*%
X-6460000Y-37862630D03*
X-6140000Y-37308374D03*
%TD*%
%TO.C,D1050*%
X35540000Y-13613919D03*
X35860000Y-13059663D03*
%TD*%
%TO.C,D633*%
X33440000Y-24525839D03*
X33760000Y-23971583D03*
%TD*%
%TO.C,D1269*%
X17340000Y-33012888D03*
X17660000Y-32458632D03*
%TD*%
%TO.C,D413*%
X55840000Y-9976612D03*
X56160000Y-9422356D03*
%TD*%
%TO.C,D1013*%
X22240000Y-14826354D03*
X22560000Y-14272098D03*
%TD*%
%TO.C,D1007*%
X30640000Y-14826354D03*
X30960000Y-14272098D03*
%TD*%
%TO.C,D785*%
X15940000Y-20888532D03*
X16260000Y-20334276D03*
%TD*%
%TO.C,D2066*%
X13140000Y-42712372D03*
X13460000Y-42158116D03*
%TD*%
%TO.C,D1700*%
X4740000Y-52411857D03*
X5060000Y-51857601D03*
%TD*%
%TO.C,D378*%
X6840000Y-9976612D03*
X7160000Y-9422356D03*
%TD*%
%TO.C,D552*%
X16640000Y-26950710D03*
X16960000Y-26396454D03*
%TD*%
%TO.C,D449*%
X41140000Y-11189048D03*
X41460000Y-10634792D03*
%TD*%
%TO.C,D2023*%
X8240000Y-43924808D03*
X8560000Y-43370552D03*
%TD*%
%TO.C,D1485*%
X-5760000Y-39075066D03*
X-5440000Y-38520810D03*
%TD*%
%TO.C,D971*%
X15940000Y-16038790D03*
X16260000Y-15484534D03*
%TD*%
%TO.C,D179*%
X53740000Y-3914434D03*
X54060000Y-3360178D03*
%TD*%
%TO.C,D400*%
X37640000Y-9976612D03*
X37960000Y-9422356D03*
%TD*%
%TO.C,D557*%
X9640000Y-26950710D03*
X9960000Y-26396454D03*
%TD*%
%TO.C,D1850*%
X-9960000Y-48774550D03*
X-9640000Y-48220294D03*
%TD*%
%TO.C,D1491*%
X2640000Y-39075066D03*
X2960000Y-38520810D03*
%TD*%
%TO.C,D3*%
X2640000Y-277128D03*
X2960000Y277128D03*
%TD*%
%TO.C,D1556*%
X28540000Y-40287501D03*
X28860000Y-39733245D03*
%TD*%
%TO.C,D659*%
X-2960000Y-24525839D03*
X-2640000Y-23971583D03*
%TD*%
%TO.C,D1537*%
X1940000Y-40287501D03*
X2260000Y-39733245D03*
%TD*%
%TO.C,D1575*%
X-9960000Y-41499937D03*
X-9640000Y-40945681D03*
%TD*%
%TO.C,D45*%
X61440000Y-277128D03*
X61760000Y277128D03*
%TD*%
%TO.C,D1912*%
X33440000Y-46349679D03*
X33760000Y-45795423D03*
%TD*%
%TO.C,D1275*%
X25740000Y-33012888D03*
X26060000Y-32458632D03*
%TD*%
%TO.C,D921*%
X20840000Y-17251225D03*
X21160000Y-16696969D03*
%TD*%
%TO.C,D333*%
X8940000Y-8764176D03*
X9260000Y-8209920D03*
%TD*%
%TO.C,D233*%
X-860000Y-6339305D03*
X-540000Y-5785049D03*
%TD*%
%TO.C,D81*%
X46740000Y-1489563D03*
X47060000Y-935307D03*
%TD*%
%TO.C,D353*%
X36940000Y-8764176D03*
X37260000Y-8209920D03*
%TD*%
%TO.C,D176*%
X49540000Y-3914434D03*
X49860000Y-3360178D03*
%TD*%
%TO.C,D2082*%
X-9260000Y-42712372D03*
X-8940000Y-42158116D03*
%TD*%
%TO.C,D109*%
X20840000Y-2701999D03*
X21160000Y-2147743D03*
%TD*%
%TO.C,D632*%
X34840000Y-24525839D03*
X35160000Y-23971583D03*
%TD*%
%TO.C,D1732*%
X25040000Y-51199421D03*
X25360000Y-50645165D03*
%TD*%
%TO.C,D1106*%
X-15560000Y-29375581D03*
X-15240000Y-28821325D03*
%TD*%
%TO.C,D110*%
X22240000Y-2701999D03*
X22560000Y-2147743D03*
%TD*%
%TO.C,D1785*%
X15940000Y-49986986D03*
X16260000Y-49432730D03*
%TD*%
%TO.C,D459*%
X55140000Y-11189048D03*
X55460000Y-10634792D03*
%TD*%
%TO.C,D1462*%
X27140000Y-37862630D03*
X27460000Y-37308374D03*
%TD*%
%TO.C,D1661*%
X-5760000Y-53624292D03*
X-5440000Y-53070036D03*
%TD*%
%TO.C,D914*%
X30640000Y-17251225D03*
X30960000Y-16696969D03*
%TD*%
%TO.C,D330*%
X4740000Y-8764176D03*
X5060000Y-8209920D03*
%TD*%
%TO.C,D2064*%
X15940000Y-42712372D03*
X16260000Y-42158116D03*
%TD*%
%TO.C,D740*%
X13840000Y-22100968D03*
X14160000Y-21546712D03*
%TD*%
%TO.C,D739*%
X15240000Y-22100968D03*
X15560000Y-21546712D03*
%TD*%
%TO.C,D570*%
X-8560000Y-26950710D03*
X-8240000Y-26396454D03*
%TD*%
%TO.C,D1467*%
X34140000Y-37862630D03*
X34460000Y-37308374D03*
%TD*%
%TO.C,D412*%
X54440000Y-9976612D03*
X54760000Y-9422356D03*
%TD*%
%TO.C,D980*%
X3340000Y-16038790D03*
X3660000Y-15484534D03*
%TD*%
%TO.C,D500*%
X47440000Y-12401483D03*
X47760000Y-11847227D03*
%TD*%
%TO.C,D1917*%
X26440000Y-46349679D03*
X26760000Y-45795423D03*
%TD*%
%TO.C,D47*%
X-860000Y-1489563D03*
X-540000Y-935307D03*
%TD*%
%TO.C,D699*%
X6140000Y-23313403D03*
X6460000Y-22759147D03*
%TD*%
%TO.C,D897*%
X-10660000Y-18463661D03*
X-10340000Y-17909405D03*
%TD*%
%TO.C,D956*%
X36940000Y-16038790D03*
X37260000Y-15484534D03*
%TD*%
%TO.C,D2008*%
X29240000Y-43924808D03*
X29560000Y-43370552D03*
%TD*%
%TO.C,D269*%
X49540000Y-6339305D03*
X49860000Y-5785049D03*
%TD*%
%TO.C,D1560*%
X34140000Y-40287501D03*
X34460000Y-39733245D03*
%TD*%
%TO.C,D1099*%
X39740000Y-28163146D03*
X40060000Y-27608890D03*
%TD*%
%TO.C,D1584*%
X2640000Y-41499937D03*
X2960000Y-40945681D03*
%TD*%
%TO.C,D35*%
X47440000Y-277128D03*
X47760000Y277128D03*
%TD*%
%TO.C,D457*%
X52340000Y-11189048D03*
X52660000Y-10634792D03*
%TD*%
%TO.C,D764*%
X45340000Y-20888532D03*
X45660000Y-20334276D03*
%TD*%
%TO.C,D253*%
X27140000Y-6339305D03*
X27460000Y-5785049D03*
%TD*%
%TO.C,D776*%
X28540000Y-20888532D03*
X28860000Y-20334276D03*
%TD*%
%TO.C,D78*%
X42540000Y-1489563D03*
X42860000Y-935307D03*
%TD*%
%TO.C,D1521*%
X-20460000Y-40287501D03*
X-20140000Y-39733245D03*
%TD*%
%TO.C,D2068*%
X10340000Y-42712372D03*
X10660000Y-42158116D03*
%TD*%
%TO.C,D967*%
X21540000Y-16038790D03*
X21860000Y-15484534D03*
%TD*%
%TO.C,D1969*%
X18740000Y-45137243D03*
X19060000Y-44582987D03*
%TD*%
%TO.C,D1147*%
X41840000Y-29375581D03*
X42160000Y-28821325D03*
%TD*%
%TO.C,D1452*%
X13140000Y-37862630D03*
X13460000Y-37308374D03*
%TD*%
%TO.C,D1484*%
X-7160000Y-39075066D03*
X-6840000Y-38520810D03*
%TD*%
%TO.C,D84*%
X50940000Y-1489563D03*
X51260000Y-935307D03*
%TD*%
%TO.C,D1473*%
X-22560000Y-39075066D03*
X-22240000Y-38520810D03*
%TD*%
%TO.C,D1674*%
X-23960000Y-53624292D03*
X-23640000Y-53070036D03*
%TD*%
%TO.C,D636*%
X29240000Y-24525839D03*
X29560000Y-23971583D03*
%TD*%
%TO.C,D966*%
X22940000Y-16038790D03*
X23260000Y-15484534D03*
%TD*%
%TO.C,D2110*%
X16640000Y-41499937D03*
X16960000Y-40945681D03*
%TD*%
%TO.C,D1002*%
X37640000Y-14826354D03*
X37960000Y-14272098D03*
%TD*%
%TO.C,D164*%
X32740000Y-3914434D03*
X33060000Y-3360178D03*
%TD*%
%TO.C,D639*%
X25040000Y-24525839D03*
X25360000Y-23971583D03*
%TD*%
%TO.C,D1799*%
X-3660000Y-49986986D03*
X-3340000Y-49432730D03*
%TD*%
%TO.C,D1750*%
X-160000Y-51199421D03*
X160000Y-50645165D03*
%TD*%
%TO.C,D245*%
X15940000Y-6339305D03*
X16260000Y-5785049D03*
%TD*%
%TO.C,D1082*%
X15940000Y-28163146D03*
X16260000Y-27608890D03*
%TD*%
%TO.C,D1755*%
X-7160000Y-51199421D03*
X-6840000Y-50645165D03*
%TD*%
%TO.C,D1939*%
X-4360000Y-46349679D03*
X-4040000Y-45795423D03*
%TD*%
%TO.C,D646*%
X15240000Y-24525839D03*
X15560000Y-23971583D03*
%TD*%
%TO.C,D1417*%
X29240000Y-36650194D03*
X29560000Y-36095938D03*
%TD*%
%TO.C,D199*%
X16640000Y-5126870D03*
X16960000Y-4572614D03*
%TD*%
%TO.C,D228*%
X57240000Y-5126870D03*
X57560000Y-4572614D03*
%TD*%
%TO.C,D1365*%
X21540000Y-35437759D03*
X21860000Y-34883503D03*
%TD*%
%TO.C,D1388*%
X-11360000Y-36650194D03*
X-11040000Y-36095938D03*
%TD*%
%TO.C,D1249*%
X-10660000Y-33012888D03*
X-10340000Y-32458632D03*
%TD*%
%TO.C,D334*%
X10340000Y-8764176D03*
X10660000Y-8209920D03*
%TD*%
%TO.C,D1193*%
X41140000Y-30588017D03*
X41460000Y-30033761D03*
%TD*%
%TO.C,D287*%
X9640000Y-7551741D03*
X9960000Y-6997485D03*
%TD*%
%TO.C,D296*%
X22240000Y-7551741D03*
X22560000Y-6997485D03*
%TD*%
%TO.C,D56*%
X11740000Y-1489563D03*
X12060000Y-935307D03*
%TD*%
%TO.C,D1502*%
X18040000Y-39075066D03*
X18360000Y-38520810D03*
%TD*%
%TO.C,D2059*%
X22940000Y-42712372D03*
X23260000Y-42158116D03*
%TD*%
%TO.C,D643*%
X19440000Y-24525839D03*
X19760000Y-23971583D03*
%TD*%
%TO.C,D642*%
X20840000Y-24525839D03*
X21160000Y-23971583D03*
%TD*%
%TO.C,D1062*%
X-12060000Y-28163146D03*
X-11740000Y-27608890D03*
%TD*%
%TO.C,D1381*%
X-21160000Y-36650194D03*
X-20840000Y-36095938D03*
%TD*%
%TO.C,D57*%
X13140000Y-1489563D03*
X13460000Y-935307D03*
%TD*%
%TO.C,D1893*%
X-5060000Y-47562115D03*
X-4740000Y-47007859D03*
%TD*%
%TO.C,D1950*%
X-19760000Y-46349679D03*
X-19440000Y-45795423D03*
%TD*%
%TO.C,D831*%
X16640000Y-19676097D03*
X16960000Y-19121841D03*
%TD*%
%TO.C,D754*%
X-5760000Y-22100968D03*
X-5440000Y-21546712D03*
%TD*%
%TO.C,D529*%
X22940000Y-13613919D03*
X23260000Y-13059663D03*
%TD*%
%TO.C,D383*%
X13840000Y-9976612D03*
X14160000Y-9422356D03*
%TD*%
%TO.C,D173*%
X45340000Y-3914434D03*
X45660000Y-3360178D03*
%TD*%
%TO.C,D1911*%
X34840000Y-46349679D03*
X35160000Y-45795423D03*
%TD*%
%TO.C,D1465*%
X31340000Y-37862630D03*
X31660000Y-37308374D03*
%TD*%
%TO.C,D942*%
X-8560000Y-17251225D03*
X-8240000Y-16696969D03*
%TD*%
%TO.C,D272*%
X53740000Y-6339305D03*
X54060000Y-5785049D03*
%TD*%
%TO.C,D1816*%
X-27460000Y-49986986D03*
X-27140000Y-49432730D03*
%TD*%
%TO.C,D388*%
X20840000Y-9976612D03*
X21160000Y-9422356D03*
%TD*%
%TO.C,D1454*%
X15940000Y-37862630D03*
X16260000Y-37308374D03*
%TD*%
%TO.C,D1383*%
X-18360000Y-36650194D03*
X-18040000Y-36095938D03*
%TD*%
%TO.C,D550*%
X19440000Y-26950710D03*
X19760000Y-26396454D03*
%TD*%
%TO.C,D1267*%
X14540000Y-33012888D03*
X14860000Y-32458632D03*
%TD*%
%TO.C,D1578*%
X-5760000Y-41499937D03*
X-5440000Y-40945681D03*
%TD*%
%TO.C,D991*%
X53040000Y-14826354D03*
X53360000Y-14272098D03*
%TD*%
%TO.C,D811*%
X44640000Y-19676097D03*
X44960000Y-19121841D03*
%TD*%
%TO.C,D559*%
X6840000Y-26950710D03*
X7160000Y-26396454D03*
%TD*%
%TO.C,D95*%
X1240000Y-2701999D03*
X1560000Y-2147743D03*
%TD*%
%TO.C,D2092*%
X-23260000Y-42712372D03*
X-22940000Y-42158116D03*
%TD*%
%TO.C,D549*%
X20840000Y-26950710D03*
X21160000Y-26396454D03*
%TD*%
%TO.C,D1305*%
X2640000Y-34225323D03*
X2960000Y-33671067D03*
%TD*%
%TO.C,D1268*%
X15940000Y-33012888D03*
X16260000Y-32458632D03*
%TD*%
%TO.C,D1019*%
X13840000Y-14826354D03*
X14160000Y-14272098D03*
%TD*%
%TO.C,D860*%
X41140000Y-18463661D03*
X41460000Y-17909405D03*
%TD*%
%TO.C,D999*%
X41840000Y-14826354D03*
X42160000Y-14272098D03*
%TD*%
%TO.C,D977*%
X7540000Y-16038790D03*
X7860000Y-15484534D03*
%TD*%
%TO.C,D255*%
X29940000Y-6339305D03*
X30260000Y-5785049D03*
%TD*%
%TO.C,D1867*%
X31340000Y-47562115D03*
X31660000Y-47007859D03*
%TD*%
%TO.C,D148*%
X10340000Y-3914434D03*
X10660000Y-3360178D03*
%TD*%
%TO.C,D561*%
X4040000Y-26950710D03*
X4360000Y-26396454D03*
%TD*%
%TO.C,D1626*%
X-21860000Y-54836728D03*
X-21540000Y-54282472D03*
%TD*%
%TO.C,D1506*%
X23640000Y-39075066D03*
X23960000Y-38520810D03*
%TD*%
%TO.C,D800*%
X-5060000Y-20888532D03*
X-4740000Y-20334276D03*
%TD*%
%TO.C,D1489*%
X-160000Y-39075066D03*
X160000Y-38520810D03*
%TD*%
%TO.C,D432*%
X17340000Y-11189048D03*
X17660000Y-10634792D03*
%TD*%
%TO.C,D1078*%
X10340000Y-28163146D03*
X10660000Y-27608890D03*
%TD*%
%TO.C,D1331*%
X39040000Y-34225323D03*
X39360000Y-33671067D03*
%TD*%
%TO.C,D1830*%
X18040000Y-48774550D03*
X18360000Y-48220294D03*
%TD*%
%TO.C,D1922*%
X19440000Y-46349679D03*
X19760000Y-45795423D03*
%TD*%
%TO.C,D1138*%
X29240000Y-29375581D03*
X29560000Y-28821325D03*
%TD*%
%TO.C,D470*%
X5440000Y-12401483D03*
X5760000Y-11847227D03*
%TD*%
%TO.C,D1065*%
X-7860000Y-28163146D03*
X-7540000Y-27608890D03*
%TD*%
%TO.C,D1251*%
X-7860000Y-33012888D03*
X-7540000Y-32458632D03*
%TD*%
%TO.C,D1955*%
X-26760000Y-46349679D03*
X-26440000Y-45795423D03*
%TD*%
%TO.C,D1076*%
X7540000Y-28163146D03*
X7860000Y-27608890D03*
%TD*%
%TO.C,D1941*%
X-7160000Y-46349679D03*
X-6840000Y-45795423D03*
%TD*%
%TO.C,D1026*%
X4040000Y-14826354D03*
X4360000Y-14272098D03*
%TD*%
%TO.C,D1547*%
X15940000Y-40287501D03*
X16260000Y-39733245D03*
%TD*%
%TO.C,D1227*%
X23640000Y-31800452D03*
X23960000Y-31246196D03*
%TD*%
%TO.C,D518*%
X7540000Y-13613919D03*
X7860000Y-13059663D03*
%TD*%
%TO.C,D1456*%
X18740000Y-37862630D03*
X19060000Y-37308374D03*
%TD*%
%TO.C,D1327*%
X33440000Y-34225323D03*
X33760000Y-33671067D03*
%TD*%
%TO.C,D279*%
X-1560000Y-7551741D03*
X-1240000Y-6997485D03*
%TD*%
%TO.C,D6*%
X6840000Y-277128D03*
X7160000Y277128D03*
%TD*%
%TO.C,D726*%
X33440000Y-22100968D03*
X33760000Y-21546712D03*
%TD*%
%TO.C,D1235*%
X34840000Y-31800452D03*
X35160000Y-31246196D03*
%TD*%
%TO.C,D875*%
X20140000Y-18463661D03*
X20460000Y-17909405D03*
%TD*%
%TO.C,D1313*%
X13840000Y-34225323D03*
X14160000Y-33671067D03*
%TD*%
%TO.C,D1012*%
X23640000Y-14826354D03*
X23960000Y-14272098D03*
%TD*%
%TO.C,D1628*%
X-24660000Y-54836728D03*
X-24340000Y-54282472D03*
%TD*%
%TO.C,D224*%
X51640000Y-5126870D03*
X51960000Y-4572614D03*
%TD*%
%TO.C,D1262*%
X7540000Y-33012888D03*
X7860000Y-32458632D03*
%TD*%
%TO.C,D1832*%
X15240000Y-48774550D03*
X15560000Y-48220294D03*
%TD*%
%TO.C,D1310*%
X9640000Y-34225323D03*
X9960000Y-33671067D03*
%TD*%
%TO.C,D1435*%
X-10660000Y-37862630D03*
X-10340000Y-37308374D03*
%TD*%
%TO.C,D1606*%
X6140000Y-54836728D03*
X6460000Y-54282472D03*
%TD*%
%TO.C,D609*%
X1940000Y-25738274D03*
X2260000Y-25184018D03*
%TD*%
%TO.C,D1585*%
X4040000Y-41499937D03*
X4360000Y-40945681D03*
%TD*%
%TO.C,D1226*%
X22240000Y-31800452D03*
X22560000Y-31246196D03*
%TD*%
%TO.C,D698*%
X7540000Y-23313403D03*
X7860000Y-22759147D03*
%TD*%
%TO.C,D1218*%
X11040000Y-31800452D03*
X11360000Y-31246196D03*
%TD*%
%TO.C,D1340*%
X-13460000Y-35437759D03*
X-13140000Y-34883503D03*
%TD*%
%TO.C,D1067*%
X-5060000Y-28163146D03*
X-4740000Y-27608890D03*
%TD*%
%TO.C,D2037*%
X-11360000Y-43924808D03*
X-11040000Y-43370552D03*
%TD*%
%TO.C,D1997*%
X-20460000Y-45137243D03*
X-20140000Y-44582987D03*
%TD*%
%TO.C,D1113*%
X-5760000Y-29375581D03*
X-5440000Y-28821325D03*
%TD*%
%TO.C,D790*%
X8940000Y-20888532D03*
X9260000Y-20334276D03*
%TD*%
%TO.C,D2071*%
X6140000Y-42712372D03*
X6460000Y-42158116D03*
%TD*%
%TO.C,D1187*%
X32740000Y-30588017D03*
X33060000Y-30033761D03*
%TD*%
%TO.C,D1348*%
X-2260000Y-35437759D03*
X-1940000Y-34883503D03*
%TD*%
%TO.C,D37*%
X50240000Y-277128D03*
X50560000Y277128D03*
%TD*%
%TO.C,D923*%
X18040000Y-17251225D03*
X18360000Y-16696969D03*
%TD*%
%TO.C,D1394*%
X-2960000Y-36650194D03*
X-2640000Y-36095938D03*
%TD*%
%TO.C,D635*%
X30640000Y-24525839D03*
X30960000Y-23971583D03*
%TD*%
%TO.C,D283*%
X4040000Y-7551741D03*
X4360000Y-6997485D03*
%TD*%
%TO.C,D2024*%
X6840000Y-43924808D03*
X7160000Y-43370552D03*
%TD*%
%TO.C,D854*%
X49540000Y-18463661D03*
X49860000Y-17909405D03*
%TD*%
%TO.C,D708*%
X-6460000Y-23313403D03*
X-6140000Y-22759147D03*
%TD*%
%TO.C,D1879*%
X14540000Y-47562115D03*
X14860000Y-47007859D03*
%TD*%
%TO.C,D1440*%
X-3660000Y-37862630D03*
X-3340000Y-37308374D03*
%TD*%
%TO.C,D180*%
X55140000Y-3914434D03*
X55460000Y-3360178D03*
%TD*%
%TO.C,D1290*%
X-18360000Y-34225323D03*
X-18040000Y-33671067D03*
%TD*%
%TO.C,D802*%
X-7860000Y-20888532D03*
X-7540000Y-20334276D03*
%TD*%
%TO.C,D2025*%
X5440000Y-43924808D03*
X5760000Y-43370552D03*
%TD*%
%TO.C,D144*%
X4740000Y-3914434D03*
X5060000Y-3360178D03*
%TD*%
%TO.C,D1209*%
X-1560000Y-31800452D03*
X-1240000Y-31246196D03*
%TD*%
%TO.C,D65*%
X24340000Y-1489563D03*
X24660000Y-935307D03*
%TD*%
%TO.C,D243*%
X13140000Y-6339305D03*
X13460000Y-5785049D03*
%TD*%
%TO.C,D678*%
X35540000Y-23313403D03*
X35860000Y-22759147D03*
%TD*%
%TO.C,D929*%
X9640000Y-17251225D03*
X9960000Y-16696969D03*
%TD*%
%TO.C,D1642*%
X20840000Y-53624292D03*
X21160000Y-53070036D03*
%TD*%
%TO.C,D1760*%
X-14160000Y-51199421D03*
X-13840000Y-50645165D03*
%TD*%
%TO.C,D712*%
X-12060000Y-23313403D03*
X-11740000Y-22759147D03*
%TD*%
%TO.C,D1664*%
X-9960000Y-53624292D03*
X-9640000Y-53070036D03*
%TD*%
%TO.C,D1807*%
X-14860000Y-49986986D03*
X-14540000Y-49432730D03*
%TD*%
%TO.C,D325*%
X-2260000Y-8764176D03*
X-1940000Y-8209920D03*
%TD*%
%TO.C,D626*%
X43240000Y-24525839D03*
X43560000Y-23971583D03*
%TD*%
%TO.C,D160*%
X27140000Y-3914434D03*
X27460000Y-3360178D03*
%TD*%
%TO.C,D226*%
X54440000Y-5126870D03*
X54760000Y-4572614D03*
%TD*%
%TO.C,D1224*%
X19440000Y-31800452D03*
X19760000Y-31246196D03*
%TD*%
%TO.C,D638*%
X26440000Y-24525839D03*
X26760000Y-23971583D03*
%TD*%
%TO.C,D360*%
X46740000Y-8764176D03*
X47060000Y-8209920D03*
%TD*%
%TO.C,D445*%
X35540000Y-11189048D03*
X35860000Y-10634792D03*
%TD*%
%TO.C,D284*%
X5440000Y-7551741D03*
X5760000Y-6997485D03*
%TD*%
%TO.C,D1727*%
X32040000Y-51199421D03*
X32360000Y-50645165D03*
%TD*%
%TO.C,D1401*%
X6840000Y-36650194D03*
X7160000Y-36095938D03*
%TD*%
%TO.C,D1764*%
X-19760000Y-51199421D03*
X-19440000Y-50645165D03*
%TD*%
%TO.C,D1044*%
X43940000Y-13613919D03*
X44260000Y-13059663D03*
%TD*%
%TO.C,D1501*%
X16640000Y-39075066D03*
X16960000Y-38520810D03*
%TD*%
%TO.C,D1244*%
X-17660000Y-33012888D03*
X-17340000Y-32458632D03*
%TD*%
%TO.C,D22*%
X29240000Y-277128D03*
X29560000Y277128D03*
%TD*%
%TO.C,D837*%
X8240000Y-19676097D03*
X8560000Y-19121841D03*
%TD*%
%TO.C,D1128*%
X15240000Y-29375581D03*
X15560000Y-28821325D03*
%TD*%
%TO.C,D1596*%
X20140000Y-54836728D03*
X20460000Y-54282472D03*
%TD*%
%TO.C,D1966*%
X22940000Y-45137243D03*
X23260000Y-44582987D03*
%TD*%
%TO.C,D1667*%
X-14160000Y-53624292D03*
X-13840000Y-53070036D03*
%TD*%
%TO.C,D209*%
X30640000Y-5126870D03*
X30960000Y-4572614D03*
%TD*%
%TO.C,D2067*%
X11740000Y-42712372D03*
X12060000Y-42158116D03*
%TD*%
%TO.C,D1707*%
X-5060000Y-52411857D03*
X-4740000Y-51857601D03*
%TD*%
%TO.C,D1302*%
X-1560000Y-34225323D03*
X-1240000Y-33671067D03*
%TD*%
%TO.C,D1045*%
X42540000Y-13613919D03*
X42860000Y-13059663D03*
%TD*%
%TO.C,D1692*%
X15940000Y-52411857D03*
X16260000Y-51857601D03*
%TD*%
%TO.C,D887*%
X3340000Y-18463661D03*
X3660000Y-17909405D03*
%TD*%
%TO.C,D1111*%
X-8560000Y-29375581D03*
X-8240000Y-28821325D03*
%TD*%
%TO.C,D1900*%
X-14860000Y-47562115D03*
X-14540000Y-47007859D03*
%TD*%
%TO.C,D473*%
X9640000Y-12401483D03*
X9960000Y-11847227D03*
%TD*%
%TO.C,D584*%
X36940000Y-25738274D03*
X37260000Y-25184018D03*
%TD*%
%TO.C,D973*%
X13140000Y-16038790D03*
X13460000Y-15484534D03*
%TD*%
%TO.C,D133*%
X54440000Y-2701999D03*
X54760000Y-2147743D03*
%TD*%
%TO.C,D1264*%
X10340000Y-33012888D03*
X10660000Y-32458632D03*
%TD*%
%TO.C,D1979*%
X4740000Y-45137243D03*
X5060000Y-44582987D03*
%TD*%
%TO.C,D1762*%
X-16960000Y-51199421D03*
X-16640000Y-50645165D03*
%TD*%
%TO.C,D1430*%
X-17660000Y-37862630D03*
X-17340000Y-37308374D03*
%TD*%
%TO.C,D1289*%
X-19760000Y-34225323D03*
X-19440000Y-33671067D03*
%TD*%
%TO.C,D1597*%
X18740000Y-54836728D03*
X19060000Y-54282472D03*
%TD*%
%TO.C,D118*%
X33440000Y-2701999D03*
X33760000Y-2147743D03*
%TD*%
%TO.C,D194*%
X9640000Y-5126870D03*
X9960000Y-4572614D03*
%TD*%
%TO.C,D667*%
X-14160000Y-24525839D03*
X-13840000Y-23971583D03*
%TD*%
%TO.C,D527*%
X20140000Y-13613919D03*
X20460000Y-13059663D03*
%TD*%
%TO.C,D1399*%
X4040000Y-36650194D03*
X4360000Y-36095938D03*
%TD*%
%TO.C,D393*%
X27840000Y-9976612D03*
X28160000Y-9422356D03*
%TD*%
%TO.C,D566*%
X-2960000Y-26950710D03*
X-2640000Y-26396454D03*
%TD*%
%TO.C,D1658*%
X-1560000Y-53624292D03*
X-1240000Y-53070036D03*
%TD*%
%TO.C,D113*%
X26440000Y-2701999D03*
X26760000Y-2147743D03*
%TD*%
%TO.C,D1024*%
X6840000Y-14826354D03*
X7160000Y-14272098D03*
%TD*%
%TO.C,D496*%
X41840000Y-12401483D03*
X42160000Y-11847227D03*
%TD*%
%TO.C,D213*%
X36240000Y-5126870D03*
X36560000Y-4572614D03*
%TD*%
%TO.C,D469*%
X4040000Y-12401483D03*
X4360000Y-11847227D03*
%TD*%
%TO.C,D979*%
X4740000Y-16038790D03*
X5060000Y-15484534D03*
%TD*%
%TO.C,D311*%
X43240000Y-7551741D03*
X43560000Y-6997485D03*
%TD*%
%TO.C,D1615*%
X-6460000Y-54836728D03*
X-6140000Y-54282472D03*
%TD*%
%TO.C,D112*%
X25040000Y-2701999D03*
X25360000Y-2147743D03*
%TD*%
%TO.C,D1367*%
X24340000Y-35437759D03*
X24660000Y-34883503D03*
%TD*%
%TO.C,D1242*%
X44640000Y-31800452D03*
X44960000Y-31246196D03*
%TD*%
%TO.C,D480*%
X19440000Y-12401483D03*
X19760000Y-11847227D03*
%TD*%
%TO.C,D761*%
X49540000Y-20888532D03*
X49860000Y-20334276D03*
%TD*%
%TO.C,D953*%
X41140000Y-16038790D03*
X41460000Y-15484534D03*
%TD*%
%TO.C,D336*%
X13140000Y-8764176D03*
X13460000Y-8209920D03*
%TD*%
%TO.C,D266*%
X45340000Y-6339305D03*
X45660000Y-5785049D03*
%TD*%
%TO.C,D504*%
X53040000Y-12401483D03*
X53360000Y-11847227D03*
%TD*%
%TO.C,D1376*%
X36940000Y-35437759D03*
X37260000Y-34883503D03*
%TD*%
%TO.C,D1341*%
X-12060000Y-35437759D03*
X-11740000Y-34883503D03*
%TD*%
%TO.C,D1448*%
X7540000Y-37862630D03*
X7860000Y-37308374D03*
%TD*%
%TO.C,D2084*%
X-12060000Y-42712372D03*
X-11740000Y-42158116D03*
%TD*%
%TO.C,D597*%
X18740000Y-25738274D03*
X19060000Y-25184018D03*
%TD*%
%TO.C,D316*%
X50240000Y-7551741D03*
X50560000Y-6997485D03*
%TD*%
%TO.C,D462*%
X-5760000Y-12401483D03*
X-5440000Y-11847227D03*
%TD*%
%TO.C,D656*%
X1240000Y-24525839D03*
X1560000Y-23971583D03*
%TD*%
%TO.C,D2078*%
X-3660000Y-42712372D03*
X-3340000Y-42158116D03*
%TD*%
%TO.C,D2005*%
X33440000Y-43924808D03*
X33760000Y-43370552D03*
%TD*%
%TO.C,D188*%
X1240000Y-5126870D03*
X1560000Y-4572614D03*
%TD*%
%TO.C,D562*%
X2640000Y-26950710D03*
X2960000Y-26396454D03*
%TD*%
%TO.C,D489*%
X32040000Y-12401483D03*
X32360000Y-11847227D03*
%TD*%
%TO.C,D2018*%
X15240000Y-43924808D03*
X15560000Y-43370552D03*
%TD*%
%TO.C,D189*%
X2640000Y-5126870D03*
X2960000Y-4572614D03*
%TD*%
%TO.C,D1087*%
X22940000Y-28163146D03*
X23260000Y-27608890D03*
%TD*%
%TO.C,D844*%
X-1560000Y-19676097D03*
X-1240000Y-19121841D03*
%TD*%
%TO.C,D231*%
X-3660000Y-6339305D03*
X-3340000Y-5785049D03*
%TD*%
%TO.C,D1317*%
X19440000Y-34225323D03*
X19760000Y-33671067D03*
%TD*%
%TO.C,D571*%
X-9960000Y-26950710D03*
X-9640000Y-26396454D03*
%TD*%
%TO.C,D939*%
X-4360000Y-17251225D03*
X-4040000Y-16696969D03*
%TD*%
%TO.C,D2114*%
X11040000Y-41499937D03*
X11360000Y-40945681D03*
%TD*%
%TO.C,D1517*%
X39040000Y-39075066D03*
X39360000Y-38520810D03*
%TD*%
%TO.C,D1466*%
X32740000Y-37862630D03*
X33060000Y-37308374D03*
%TD*%
%TO.C,D1781*%
X21540000Y-49986986D03*
X21860000Y-49432730D03*
%TD*%
%TO.C,D495*%
X40440000Y-12401483D03*
X40760000Y-11847227D03*
%TD*%
%TO.C,D520*%
X10340000Y-13613919D03*
X10660000Y-13059663D03*
%TD*%
%TO.C,D1245*%
X-16260000Y-33012888D03*
X-15940000Y-32458632D03*
%TD*%
%TO.C,D1672*%
X-21160000Y-53624292D03*
X-20840000Y-53070036D03*
%TD*%
%TO.C,D1492*%
X4040000Y-39075066D03*
X4360000Y-38520810D03*
%TD*%
%TO.C,D1798*%
X-2260000Y-49986986D03*
X-1940000Y-49432730D03*
%TD*%
%TO.C,D1930*%
X8240000Y-46349679D03*
X8560000Y-45795423D03*
%TD*%
%TO.C,D1925*%
X15240000Y-46349679D03*
X15560000Y-45795423D03*
%TD*%
%TO.C,D1749*%
X1240000Y-51199421D03*
X1560000Y-50645165D03*
%TD*%
%TO.C,D1069*%
X-2260000Y-28163146D03*
X-1940000Y-27608890D03*
%TD*%
%TO.C,D629*%
X39040000Y-24525839D03*
X39360000Y-23971583D03*
%TD*%
%TO.C,D532*%
X44640000Y-26950710D03*
X44960000Y-26396454D03*
%TD*%
%TO.C,D249*%
X21540000Y-6339305D03*
X21860000Y-5785049D03*
%TD*%
%TO.C,D1119*%
X2640000Y-29375581D03*
X2960000Y-28821325D03*
%TD*%
%TO.C,D1653*%
X5440000Y-53624292D03*
X5760000Y-53070036D03*
%TD*%
%TO.C,D1279*%
X31340000Y-33012888D03*
X31660000Y-32458632D03*
%TD*%
%TO.C,D1902*%
X-17660000Y-47562115D03*
X-17340000Y-47007859D03*
%TD*%
%TO.C,D617*%
X-9260000Y-25738274D03*
X-8940000Y-25184018D03*
%TD*%
%TO.C,D1419*%
X32040000Y-36650194D03*
X32360000Y-36095938D03*
%TD*%
%TO.C,D15*%
X19440000Y-277128D03*
X19760000Y277128D03*
%TD*%
%TO.C,D1124*%
X9640000Y-29375581D03*
X9960000Y-28821325D03*
%TD*%
%TO.C,D1148*%
X43240000Y-29375581D03*
X43560000Y-28821325D03*
%TD*%
%TO.C,D1949*%
X-18360000Y-46349679D03*
X-18040000Y-45795423D03*
%TD*%
%TO.C,D13*%
X16640000Y-277128D03*
X16960000Y277128D03*
%TD*%
%TO.C,D1932*%
X5440000Y-46349679D03*
X5760000Y-45795423D03*
%TD*%
%TO.C,D2045*%
X-22560000Y-43924808D03*
X-22240000Y-43370552D03*
%TD*%
%TO.C,D2076*%
X-860000Y-42712372D03*
X-540000Y-42158116D03*
%TD*%
%TO.C,D1582*%
X-160000Y-41499937D03*
X160000Y-40945681D03*
%TD*%
%TO.C,D2013*%
X22240000Y-43924808D03*
X22560000Y-43370552D03*
%TD*%
%TO.C,D1477*%
X-16960000Y-39075066D03*
X-16640000Y-38520810D03*
%TD*%
%TO.C,D178*%
X52340000Y-3914434D03*
X52660000Y-3360178D03*
%TD*%
%TO.C,D1*%
X-160000Y-277128D03*
X160000Y277128D03*
%TD*%
%TO.C,D2112*%
X13840000Y-41499937D03*
X14160000Y-40945681D03*
%TD*%
%TO.C,D1426*%
X41840000Y-36650194D03*
X42160000Y-36095938D03*
%TD*%
%TO.C,D317*%
X51640000Y-7551741D03*
X51960000Y-6997485D03*
%TD*%
%TO.C,D672*%
X43940000Y-23313403D03*
X44260000Y-22759147D03*
%TD*%
%TO.C,D641*%
X22240000Y-24525839D03*
X22560000Y-23971583D03*
%TD*%
%TO.C,D1068*%
X-3660000Y-28163146D03*
X-3340000Y-27608890D03*
%TD*%
%TO.C,D601*%
X13140000Y-25738274D03*
X13460000Y-25184018D03*
%TD*%
%TO.C,D2090*%
X-20460000Y-42712372D03*
X-20140000Y-42158116D03*
%TD*%
%TO.C,D1410*%
X19440000Y-36650194D03*
X19760000Y-36095938D03*
%TD*%
%TO.C,D1896*%
X-9260000Y-47562115D03*
X-8940000Y-47007859D03*
%TD*%
%TO.C,D319*%
X54440000Y-7551741D03*
X54760000Y-6997485D03*
%TD*%
%TO.C,D807*%
X50240000Y-19676097D03*
X50560000Y-19121841D03*
%TD*%
%TO.C,D19*%
X25040000Y-277128D03*
X25360000Y277128D03*
%TD*%
%TO.C,D1003*%
X36240000Y-14826354D03*
X36560000Y-14272098D03*
%TD*%
%TO.C,D565*%
X-1560000Y-26950710D03*
X-1240000Y-26396454D03*
%TD*%
%TO.C,D742*%
X11040000Y-22100968D03*
X11360000Y-21546712D03*
%TD*%
%TO.C,D516*%
X4740000Y-13613919D03*
X5060000Y-13059663D03*
%TD*%
%TO.C,D1326*%
X32040000Y-34225323D03*
X32360000Y-33671067D03*
%TD*%
%TO.C,D1074*%
X4740000Y-28163146D03*
X5060000Y-27608890D03*
%TD*%
%TO.C,D1384*%
X-16960000Y-36650194D03*
X-16640000Y-36095938D03*
%TD*%
%TO.C,D240*%
X8940000Y-6339305D03*
X9260000Y-5785049D03*
%TD*%
%TO.C,D924*%
X16640000Y-17251225D03*
X16960000Y-16696969D03*
%TD*%
%TO.C,D657*%
X-160000Y-24525839D03*
X160000Y-23971583D03*
%TD*%
%TO.C,D1566*%
X-22560000Y-41499937D03*
X-22240000Y-40945681D03*
%TD*%
%TO.C,D599*%
X15940000Y-25738274D03*
X16260000Y-25184018D03*
%TD*%
%TO.C,D1295*%
X-11360000Y-34225323D03*
X-11040000Y-33671067D03*
%TD*%
%TO.C,D1767*%
X-23960000Y-51199421D03*
X-23640000Y-50645165D03*
%TD*%
%TO.C,D363*%
X50940000Y-8764176D03*
X51260000Y-8209920D03*
%TD*%
%TO.C,D1165*%
X1940000Y-30588017D03*
X2260000Y-30033761D03*
%TD*%
%TO.C,D1720*%
X-23260000Y-52411857D03*
X-22940000Y-51857601D03*
%TD*%
%TO.C,D1826*%
X23640000Y-48774550D03*
X23960000Y-48220294D03*
%TD*%
%TO.C,D1334*%
X43240000Y-34225323D03*
X43560000Y-33671067D03*
%TD*%
%TO.C,D833*%
X13840000Y-19676097D03*
X14160000Y-19121841D03*
%TD*%
%TO.C,D29*%
X39040000Y-277128D03*
X39360000Y277128D03*
%TD*%
%TO.C,D661*%
X-5760000Y-24525839D03*
X-5440000Y-23971583D03*
%TD*%
%TO.C,D1929*%
X9640000Y-46349679D03*
X9960000Y-45795423D03*
%TD*%
%TO.C,D2111*%
X15240000Y-41499937D03*
X15560000Y-40945681D03*
%TD*%
%TO.C,D937*%
X-1560000Y-17251225D03*
X-1240000Y-16696969D03*
%TD*%
%TO.C,D668*%
X49540000Y-23313403D03*
X49860000Y-22759147D03*
%TD*%
%TO.C,D839*%
X5440000Y-19676097D03*
X5760000Y-19121841D03*
%TD*%
%TO.C,D485*%
X26440000Y-12401483D03*
X26760000Y-11847227D03*
%TD*%
%TO.C,D1243*%
X-19060000Y-33012888D03*
X-18740000Y-32458632D03*
%TD*%
%TO.C,D422*%
X3340000Y-11189048D03*
X3660000Y-10634792D03*
%TD*%
%TO.C,D1185*%
X29940000Y-30588017D03*
X30260000Y-30033761D03*
%TD*%
%TO.C,D1706*%
X-3660000Y-52411857D03*
X-3340000Y-51857601D03*
%TD*%
%TO.C,D1960*%
X31340000Y-45137243D03*
X31660000Y-44582987D03*
%TD*%
%TO.C,D1572*%
X-14160000Y-41499937D03*
X-13840000Y-40945681D03*
%TD*%
%TO.C,D1665*%
X-11360000Y-53624292D03*
X-11040000Y-53070036D03*
%TD*%
%TO.C,D71*%
X32740000Y-1489563D03*
X33060000Y-935307D03*
%TD*%
%TO.C,D138*%
X61440000Y-2701999D03*
X61760000Y-2147743D03*
%TD*%
%TO.C,D1254*%
X-3660000Y-33012888D03*
X-3340000Y-32458632D03*
%TD*%
%TO.C,D664*%
X-9960000Y-24525839D03*
X-9640000Y-23971583D03*
%TD*%
%TO.C,D1086*%
X21540000Y-28163146D03*
X21860000Y-27608890D03*
%TD*%
%TO.C,D717*%
X46040000Y-22100968D03*
X46360000Y-21546712D03*
%TD*%
%TO.C,D156*%
X21540000Y-3914434D03*
X21860000Y-3360178D03*
%TD*%
%TO.C,D1408*%
X16640000Y-36650194D03*
X16960000Y-36095938D03*
%TD*%
%TO.C,D528*%
X21540000Y-13613919D03*
X21860000Y-13059663D03*
%TD*%
%TO.C,D534*%
X41840000Y-26950710D03*
X42160000Y-26396454D03*
%TD*%
%TO.C,D1944*%
X-11360000Y-46349679D03*
X-11040000Y-45795423D03*
%TD*%
%TO.C,D399*%
X36240000Y-9976612D03*
X36560000Y-9422356D03*
%TD*%
%TO.C,D1819*%
X33440000Y-48774550D03*
X33760000Y-48220294D03*
%TD*%
%TO.C,D1093*%
X31340000Y-28163146D03*
X31660000Y-27608890D03*
%TD*%
%TO.C,D1385*%
X-15560000Y-36650194D03*
X-15240000Y-36095938D03*
%TD*%
%TO.C,D1854*%
X-15560000Y-48774550D03*
X-15240000Y-48220294D03*
%TD*%
%TO.C,D1349*%
X-860000Y-35437759D03*
X-540000Y-34883503D03*
%TD*%
%TO.C,D1028*%
X1240000Y-14826354D03*
X1560000Y-14272098D03*
%TD*%
%TO.C,D1073*%
X3340000Y-28163146D03*
X3660000Y-27608890D03*
%TD*%
%TO.C,D1280*%
X32740000Y-33012888D03*
X33060000Y-32458632D03*
%TD*%
%TO.C,D1141*%
X33440000Y-29375581D03*
X33760000Y-28821325D03*
%TD*%
%TO.C,D535*%
X40440000Y-26950710D03*
X40760000Y-26396454D03*
%TD*%
%TO.C,D1998*%
X-21860000Y-45137243D03*
X-21540000Y-44582987D03*
%TD*%
%TO.C,D96*%
X2640000Y-2701999D03*
X2960000Y-2147743D03*
%TD*%
%TO.C,D68*%
X28540000Y-1489563D03*
X28860000Y-935307D03*
%TD*%
%TO.C,D1039*%
X50940000Y-13613919D03*
X51260000Y-13059663D03*
%TD*%
%TO.C,D898*%
X53040000Y-17251225D03*
X53360000Y-16696969D03*
%TD*%
%TO.C,D574*%
X-14160000Y-26950710D03*
X-13840000Y-26396454D03*
%TD*%
%TO.C,D1152*%
X-16260000Y-30588017D03*
X-15940000Y-30033761D03*
%TD*%
%TO.C,D543*%
X29240000Y-26950710D03*
X29560000Y-26396454D03*
%TD*%
%TO.C,D154*%
X18740000Y-3914434D03*
X19060000Y-3360178D03*
%TD*%
%TO.C,D1358*%
X11740000Y-35437759D03*
X12060000Y-34883503D03*
%TD*%
%TO.C,D852*%
X52340000Y-18463661D03*
X52660000Y-17909405D03*
%TD*%
%TO.C,D2006*%
X32040000Y-43924808D03*
X32360000Y-43370552D03*
%TD*%
%TO.C,D1722*%
X-26060000Y-52411857D03*
X-25740000Y-51857601D03*
%TD*%
%TO.C,D134*%
X55840000Y-2701999D03*
X56160000Y-2147743D03*
%TD*%
%TO.C,D1638*%
X26440000Y-53624292D03*
X26760000Y-53070036D03*
%TD*%
%TO.C,D1309*%
X8240000Y-34225323D03*
X8560000Y-33671067D03*
%TD*%
%TO.C,D80*%
X45340000Y-1489563D03*
X45660000Y-935307D03*
%TD*%
%TO.C,D1971*%
X15940000Y-45137243D03*
X16260000Y-44582987D03*
%TD*%
%TO.C,D993*%
X50240000Y-14826354D03*
X50560000Y-14272098D03*
%TD*%
%TO.C,D1880*%
X13140000Y-47562115D03*
X13460000Y-47007859D03*
%TD*%
%TO.C,D1414*%
X25040000Y-36650194D03*
X25360000Y-36095938D03*
%TD*%
%TO.C,D1507*%
X25040000Y-39075066D03*
X25360000Y-38520810D03*
%TD*%
%TO.C,D352*%
X35540000Y-8764176D03*
X35860000Y-8209920D03*
%TD*%
%TO.C,D11*%
X13840000Y-277128D03*
X14160000Y277128D03*
%TD*%
%TO.C,D2057*%
X25740000Y-42712372D03*
X26060000Y-42158116D03*
%TD*%
%TO.C,D427*%
X10340000Y-11189048D03*
X10660000Y-10634792D03*
%TD*%
%TO.C,D1066*%
X-6460000Y-28163146D03*
X-6140000Y-27608890D03*
%TD*%
%TO.C,D522*%
X13140000Y-13613919D03*
X13460000Y-13059663D03*
%TD*%
%TO.C,D1740*%
X13840000Y-51199421D03*
X14160000Y-50645165D03*
%TD*%
%TO.C,D1809*%
X-17660000Y-49986986D03*
X-17340000Y-49432730D03*
%TD*%
%TO.C,D1469*%
X36940000Y-37862630D03*
X37260000Y-37308374D03*
%TD*%
%TO.C,D1839*%
X5440000Y-48774550D03*
X5760000Y-48220294D03*
%TD*%
%TO.C,D206*%
X26440000Y-5126870D03*
X26760000Y-4572614D03*
%TD*%
%TO.C,D2060*%
X21540000Y-42712372D03*
X21860000Y-42158116D03*
%TD*%
%TO.C,D1300*%
X-4360000Y-34225323D03*
X-4040000Y-33671067D03*
%TD*%
%TO.C,D1677*%
X-28160000Y-53624292D03*
X-27840000Y-53070036D03*
%TD*%
%TO.C,D1548*%
X17340000Y-40287501D03*
X17660000Y-39733245D03*
%TD*%
%TO.C,D1869*%
X28540000Y-47562115D03*
X28860000Y-47007859D03*
%TD*%
%TO.C,D853*%
X50940000Y-18463661D03*
X51260000Y-17909405D03*
%TD*%
%TO.C,D767*%
X41140000Y-20888532D03*
X41460000Y-20334276D03*
%TD*%
%TO.C,D612*%
X-2260000Y-25738274D03*
X-1940000Y-25184018D03*
%TD*%
%TO.C,D1405*%
X12440000Y-36650194D03*
X12760000Y-36095938D03*
%TD*%
%TO.C,D8*%
X9640000Y-277128D03*
X9960000Y277128D03*
%TD*%
%TO.C,D2002*%
X37640000Y-43924808D03*
X37960000Y-43370552D03*
%TD*%
%TO.C,D1675*%
X-25360000Y-53624292D03*
X-25040000Y-53070036D03*
%TD*%
%TO.C,D515*%
X3340000Y-13613919D03*
X3660000Y-13059663D03*
%TD*%
%TO.C,D1455*%
X17340000Y-37862630D03*
X17660000Y-37308374D03*
%TD*%
%TO.C,D1021*%
X11040000Y-14826354D03*
X11360000Y-14272098D03*
%TD*%
%TO.C,D124*%
X41840000Y-2701999D03*
X42160000Y-2147743D03*
%TD*%
%TO.C,D2093*%
X-24660000Y-42712372D03*
X-24340000Y-42158116D03*
%TD*%
%TO.C,D1397*%
X1240000Y-36650194D03*
X1560000Y-36095938D03*
%TD*%
%TO.C,D452*%
X45340000Y-11189048D03*
X45660000Y-10634792D03*
%TD*%
%TO.C,D115*%
X29240000Y-2701999D03*
X29560000Y-2147743D03*
%TD*%
%TO.C,D1853*%
X-14160000Y-48774550D03*
X-13840000Y-48220294D03*
%TD*%
%TO.C,D519*%
X8940000Y-13613919D03*
X9260000Y-13059663D03*
%TD*%
%TO.C,D410*%
X51640000Y-9976612D03*
X51960000Y-9422356D03*
%TD*%
%TO.C,D135*%
X57240000Y-2701999D03*
X57560000Y-2147743D03*
%TD*%
%TO.C,D990*%
X54440000Y-14826354D03*
X54760000Y-14272098D03*
%TD*%
%TO.C,D451*%
X43940000Y-11189048D03*
X44260000Y-10634792D03*
%TD*%
%TO.C,D935*%
X1240000Y-17251225D03*
X1560000Y-16696969D03*
%TD*%
%TO.C,D252*%
X25740000Y-6339305D03*
X26060000Y-5785049D03*
%TD*%
%TO.C,D791*%
X7540000Y-20888532D03*
X7860000Y-20334276D03*
%TD*%
%TO.C,D1837*%
X8240000Y-48774550D03*
X8560000Y-48220294D03*
%TD*%
%TO.C,D2083*%
X-10660000Y-42712372D03*
X-10340000Y-42158116D03*
%TD*%
%TO.C,D475*%
X12440000Y-12401483D03*
X12760000Y-11847227D03*
%TD*%
%TO.C,D682*%
X29940000Y-23313403D03*
X30260000Y-22759147D03*
%TD*%
%TO.C,D187*%
X-160000Y-5126870D03*
X160000Y-4572614D03*
%TD*%
%TO.C,D1090*%
X27140000Y-28163146D03*
X27460000Y-27608890D03*
%TD*%
%TO.C,D1428*%
X-20460000Y-37862630D03*
X-20140000Y-37308374D03*
%TD*%
%TO.C,D1098*%
X38340000Y-28163146D03*
X38660000Y-27608890D03*
%TD*%
%TO.C,D1815*%
X-26060000Y-49986986D03*
X-25740000Y-49432730D03*
%TD*%
%TO.C,D347*%
X28540000Y-8764176D03*
X28860000Y-8209920D03*
%TD*%
%TO.C,D1931*%
X6840000Y-46349679D03*
X7160000Y-45795423D03*
%TD*%
%TO.C,D1623*%
X-17660000Y-54836728D03*
X-17340000Y-54282472D03*
%TD*%
%TO.C,D885*%
X6140000Y-18463661D03*
X6460000Y-17909405D03*
%TD*%
%TO.C,D917*%
X26440000Y-17251225D03*
X26760000Y-16696969D03*
%TD*%
%TO.C,D783*%
X18740000Y-20888532D03*
X19060000Y-20334276D03*
%TD*%
%TO.C,D1010*%
X26440000Y-14826354D03*
X26760000Y-14272098D03*
%TD*%
%TO.C,D30*%
X40440000Y-277128D03*
X40760000Y277128D03*
%TD*%
%TO.C,D729*%
X29240000Y-22100968D03*
X29560000Y-21546712D03*
%TD*%
%TO.C,D1361*%
X15940000Y-35437759D03*
X16260000Y-34883503D03*
%TD*%
%TO.C,D1265*%
X11740000Y-33012888D03*
X12060000Y-32458632D03*
%TD*%
%TO.C,D130*%
X50240000Y-2701999D03*
X50560000Y-2147743D03*
%TD*%
%TO.C,D261*%
X38340000Y-6339305D03*
X38660000Y-5785049D03*
%TD*%
%TO.C,D1366*%
X22940000Y-35437759D03*
X23260000Y-34883503D03*
%TD*%
%TO.C,D1883*%
X8940000Y-47562115D03*
X9260000Y-47007859D03*
%TD*%
%TO.C,D350*%
X32740000Y-8764176D03*
X33060000Y-8209920D03*
%TD*%
%TO.C,D1671*%
X-19760000Y-53624292D03*
X-19440000Y-53070036D03*
%TD*%
%TO.C,D214*%
X37640000Y-5126870D03*
X37960000Y-4572614D03*
%TD*%
%TO.C,D856*%
X46740000Y-18463661D03*
X47060000Y-17909405D03*
%TD*%
%TO.C,D488*%
X30640000Y-12401483D03*
X30960000Y-11847227D03*
%TD*%
%TO.C,D1117*%
X-160000Y-29375581D03*
X160000Y-28821325D03*
%TD*%
%TO.C,D1613*%
X-3660000Y-54836728D03*
X-3340000Y-54282472D03*
%TD*%
%TO.C,D813*%
X41840000Y-19676097D03*
X42160000Y-19121841D03*
%TD*%
%TO.C,D348*%
X29940000Y-8764176D03*
X30260000Y-8209920D03*
%TD*%
%TO.C,D573*%
X-12760000Y-26950710D03*
X-12440000Y-26396454D03*
%TD*%
%TO.C,D167*%
X36940000Y-3914434D03*
X37260000Y-3360178D03*
%TD*%
%TO.C,D1105*%
X-16960000Y-29375581D03*
X-16640000Y-28821325D03*
%TD*%
%TO.C,D843*%
X-160000Y-19676097D03*
X160000Y-19121841D03*
%TD*%
%TO.C,D1821*%
X30640000Y-48774550D03*
X30960000Y-48220294D03*
%TD*%
%TO.C,D1696*%
X10340000Y-52411857D03*
X10660000Y-51857601D03*
%TD*%
%TO.C,D5*%
X5440000Y-277128D03*
X5760000Y277128D03*
%TD*%
%TO.C,D61*%
X18740000Y-1489563D03*
X19060000Y-935307D03*
%TD*%
%TO.C,D789*%
X10340000Y-20888532D03*
X10660000Y-20334276D03*
%TD*%
%TO.C,D481*%
X20840000Y-12401483D03*
X21160000Y-11847227D03*
%TD*%
%TO.C,D1956*%
X36940000Y-45137243D03*
X37260000Y-44582987D03*
%TD*%
%TO.C,D379*%
X8240000Y-9976612D03*
X8560000Y-9422356D03*
%TD*%
%TO.C,D768*%
X39740000Y-20888532D03*
X40060000Y-20334276D03*
%TD*%
%TO.C,D12*%
X15240000Y-277128D03*
X15560000Y277128D03*
%TD*%
%TO.C,D602*%
X11740000Y-25738274D03*
X12060000Y-25184018D03*
%TD*%
%TO.C,D723*%
X37640000Y-22100968D03*
X37960000Y-21546712D03*
%TD*%
%TO.C,D280*%
X-160000Y-7551741D03*
X160000Y-6997485D03*
%TD*%
%TO.C,D242*%
X11740000Y-6339305D03*
X12060000Y-5785049D03*
%TD*%
%TO.C,D1292*%
X-15560000Y-34225323D03*
X-15240000Y-33671067D03*
%TD*%
%TO.C,D816*%
X37640000Y-19676097D03*
X37960000Y-19121841D03*
%TD*%
%TO.C,D759*%
X-12760000Y-22100968D03*
X-12440000Y-21546712D03*
%TD*%
%TO.C,D945*%
X52340000Y-16038790D03*
X52660000Y-15484534D03*
%TD*%
%TO.C,D1996*%
X-19060000Y-45137243D03*
X-18740000Y-44582987D03*
%TD*%
%TO.C,D1552*%
X22940000Y-40287501D03*
X23260000Y-39733245D03*
%TD*%
%TO.C,D1580*%
X-2960000Y-41499937D03*
X-2640000Y-40945681D03*
%TD*%
%TO.C,D606*%
X6140000Y-25738274D03*
X6460000Y-25184018D03*
%TD*%
%TO.C,D1646*%
X15240000Y-53624292D03*
X15560000Y-53070036D03*
%TD*%
%TO.C,D1016*%
X18040000Y-14826354D03*
X18360000Y-14272098D03*
%TD*%
%TO.C,D648*%
X12440000Y-24525839D03*
X12760000Y-23971583D03*
%TD*%
%TO.C,D798*%
X-2260000Y-20888532D03*
X-1940000Y-20334276D03*
%TD*%
%TO.C,D438*%
X25740000Y-11189048D03*
X26060000Y-10634792D03*
%TD*%
%TO.C,D2116*%
X8240000Y-41499937D03*
X8560000Y-40945681D03*
%TD*%
%TO.C,D1233*%
X32040000Y-31800452D03*
X32360000Y-31246196D03*
%TD*%
%TO.C,D76*%
X39740000Y-1489563D03*
X40060000Y-935307D03*
%TD*%
%TO.C,D1319*%
X22240000Y-34225323D03*
X22560000Y-33671067D03*
%TD*%
%TO.C,D1487*%
X-2960000Y-39075066D03*
X-2640000Y-38520810D03*
%TD*%
%TO.C,D1752*%
X-2960000Y-51199421D03*
X-2640000Y-50645165D03*
%TD*%
%TO.C,D835*%
X11040000Y-19676097D03*
X11360000Y-19121841D03*
%TD*%
%TO.C,D1699*%
X6140000Y-52411857D03*
X6460000Y-51857601D03*
%TD*%
%TO.C,D814*%
X40440000Y-19676097D03*
X40760000Y-19121841D03*
%TD*%
%TO.C,D1905*%
X-21860000Y-47562115D03*
X-21540000Y-47007859D03*
%TD*%
%TO.C,D1984*%
X-2260000Y-45137243D03*
X-1940000Y-44582987D03*
%TD*%
%TO.C,D60*%
X17340000Y-1489563D03*
X17660000Y-935307D03*
%TD*%
%TO.C,D700*%
X4740000Y-23313403D03*
X5060000Y-22759147D03*
%TD*%
%TO.C,D1774*%
X31340000Y-49986986D03*
X31660000Y-49432730D03*
%TD*%
%TO.C,D265*%
X43940000Y-6339305D03*
X44260000Y-5785049D03*
%TD*%
%TO.C,D1100*%
X41140000Y-28163146D03*
X41460000Y-27608890D03*
%TD*%
%TO.C,D1761*%
X-15560000Y-51199421D03*
X-15240000Y-50645165D03*
%TD*%
%TO.C,D1736*%
X19440000Y-51199421D03*
X19760000Y-50645165D03*
%TD*%
%TO.C,D222*%
X48840000Y-5126870D03*
X49160000Y-4572614D03*
%TD*%
%TO.C,D1715*%
X-16260000Y-52411857D03*
X-15940000Y-51857601D03*
%TD*%
%TO.C,D208*%
X29240000Y-5126870D03*
X29560000Y-4572614D03*
%TD*%
%TO.C,D2053*%
X31340000Y-42712372D03*
X31660000Y-42158116D03*
%TD*%
%TO.C,D1751*%
X-1560000Y-51199421D03*
X-1240000Y-50645165D03*
%TD*%
%TO.C,D968*%
X20140000Y-16038790D03*
X20460000Y-15484534D03*
%TD*%
%TO.C,D75*%
X38340000Y-1489563D03*
X38660000Y-935307D03*
%TD*%
%TO.C,D746*%
X5440000Y-22100968D03*
X5760000Y-21546712D03*
%TD*%
%TO.C,D1825*%
X25040000Y-48774550D03*
X25360000Y-48220294D03*
%TD*%
%TO.C,D719*%
X43240000Y-22100968D03*
X43560000Y-21546712D03*
%TD*%
%TO.C,D1297*%
X-8560000Y-34225323D03*
X-8240000Y-33671067D03*
%TD*%
%TO.C,D2079*%
X-5060000Y-42712372D03*
X-4740000Y-42158116D03*
%TD*%
%TO.C,D366*%
X55140000Y-8764176D03*
X55460000Y-8209920D03*
%TD*%
%TO.C,D1557*%
X29940000Y-40287501D03*
X30260000Y-39733245D03*
%TD*%
%TO.C,D755*%
X-7160000Y-22100968D03*
X-6840000Y-21546712D03*
%TD*%
%TO.C,D1256*%
X-860000Y-33012888D03*
X-540000Y-32458632D03*
%TD*%
%TO.C,D1200*%
X-14160000Y-31800452D03*
X-13840000Y-31246196D03*
%TD*%
%TO.C,D1085*%
X20140000Y-28163146D03*
X20460000Y-27608890D03*
%TD*%
%TO.C,D1304*%
X1240000Y-34225323D03*
X1560000Y-33671067D03*
%TD*%
%TO.C,D1219*%
X12440000Y-31800452D03*
X12760000Y-31246196D03*
%TD*%
%TO.C,D592*%
X25740000Y-25738274D03*
X26060000Y-25184018D03*
%TD*%
%TO.C,D241*%
X10340000Y-6339305D03*
X10660000Y-5785049D03*
%TD*%
%TO.C,D1154*%
X-13460000Y-30588017D03*
X-13140000Y-30033761D03*
%TD*%
%TO.C,D1033*%
X-5760000Y-14826354D03*
X-5440000Y-14272098D03*
%TD*%
%TO.C,D1987*%
X-6460000Y-45137243D03*
X-6140000Y-44582987D03*
%TD*%
%TO.C,D1413*%
X23640000Y-36650194D03*
X23960000Y-36095938D03*
%TD*%
%TO.C,D197*%
X13840000Y-5126870D03*
X14160000Y-4572614D03*
%TD*%
%TO.C,D1607*%
X4740000Y-54836728D03*
X5060000Y-54282472D03*
%TD*%
%TO.C,D1673*%
X-22560000Y-53624292D03*
X-22240000Y-53070036D03*
%TD*%
%TO.C,D59*%
X15940000Y-1489563D03*
X16260000Y-935307D03*
%TD*%
%TO.C,D465*%
X-1560000Y-12401483D03*
X-1240000Y-11847227D03*
%TD*%
%TO.C,D392*%
X26440000Y-9976612D03*
X26760000Y-9422356D03*
%TD*%
%TO.C,D1770*%
X-28160000Y-51199421D03*
X-27840000Y-50645165D03*
%TD*%
%TO.C,D1728*%
X30640000Y-51199421D03*
X30960000Y-50645165D03*
%TD*%
%TO.C,D1778*%
X25740000Y-49986986D03*
X26060000Y-49432730D03*
%TD*%
%TO.C,D1061*%
X-13460000Y-28163146D03*
X-13140000Y-27608890D03*
%TD*%
%TO.C,D1636*%
X29240000Y-53624292D03*
X29560000Y-53070036D03*
%TD*%
%TO.C,D16*%
X20840000Y-277128D03*
X21160000Y277128D03*
%TD*%
%TO.C,D236*%
X3340000Y-6339305D03*
X3660000Y-5785049D03*
%TD*%
%TO.C,D906*%
X41840000Y-17251225D03*
X42160000Y-16696969D03*
%TD*%
%TO.C,D367*%
X56540000Y-8764176D03*
X56860000Y-8209920D03*
%TD*%
%TO.C,D450*%
X42540000Y-11189048D03*
X42860000Y-10634792D03*
%TD*%
%TO.C,D848*%
X-7160000Y-19676097D03*
X-6840000Y-19121841D03*
%TD*%
%TO.C,D1864*%
X35540000Y-47562115D03*
X35860000Y-47007859D03*
%TD*%
%TO.C,D634*%
X32040000Y-24525839D03*
X32360000Y-23971583D03*
%TD*%
%TO.C,D1125*%
X11040000Y-29375581D03*
X11360000Y-28821325D03*
%TD*%
%TO.C,D1282*%
X35540000Y-33012888D03*
X35860000Y-32458632D03*
%TD*%
%TO.C,D256*%
X31340000Y-6339305D03*
X31660000Y-5785049D03*
%TD*%
%TO.C,D975*%
X10340000Y-16038790D03*
X10660000Y-15484534D03*
%TD*%
%TO.C,D1598*%
X17340000Y-54836728D03*
X17660000Y-54282472D03*
%TD*%
%TO.C,D1924*%
X16640000Y-46349679D03*
X16960000Y-45795423D03*
%TD*%
%TO.C,D1813*%
X-23260000Y-49986986D03*
X-22940000Y-49432730D03*
%TD*%
%TO.C,D429*%
X13140000Y-11189048D03*
X13460000Y-10634792D03*
%TD*%
%TO.C,D479*%
X18040000Y-12401483D03*
X18360000Y-11847227D03*
%TD*%
%TO.C,D1968*%
X20140000Y-45137243D03*
X20460000Y-44582987D03*
%TD*%
%TO.C,D389*%
X22240000Y-9976612D03*
X22560000Y-9422356D03*
%TD*%
%TO.C,D578*%
X45340000Y-25738274D03*
X45660000Y-25184018D03*
%TD*%
%TO.C,D2099*%
X32040000Y-41499937D03*
X32360000Y-40945681D03*
%TD*%
%TO.C,D986*%
X-5060000Y-16038790D03*
X-4740000Y-15484534D03*
%TD*%
%TO.C,D131*%
X51640000Y-2701999D03*
X51960000Y-2147743D03*
%TD*%
%TO.C,D25*%
X33440000Y-277128D03*
X33760000Y277128D03*
%TD*%
%TO.C,D468*%
X2640000Y-12401483D03*
X2960000Y-11847227D03*
%TD*%
%TO.C,D1849*%
X-8560000Y-48774550D03*
X-8240000Y-48220294D03*
%TD*%
%TO.C,D1833*%
X13840000Y-48774550D03*
X14160000Y-48220294D03*
%TD*%
%TO.C,D541*%
X32040000Y-26950710D03*
X32360000Y-26396454D03*
%TD*%
%TO.C,D1257*%
X540000Y-33012888D03*
X860000Y-32458632D03*
%TD*%
%TO.C,D1594*%
X22940000Y-54836728D03*
X23260000Y-54282472D03*
%TD*%
%TO.C,D660*%
X-4360000Y-24525839D03*
X-4040000Y-23971583D03*
%TD*%
%TO.C,D1444*%
X1940000Y-37862630D03*
X2260000Y-37308374D03*
%TD*%
%TO.C,D1445*%
X3340000Y-37862630D03*
X3660000Y-37308374D03*
%TD*%
%TO.C,D728*%
X30640000Y-22100968D03*
X30960000Y-21546712D03*
%TD*%
%TO.C,D1986*%
X-5060000Y-45137243D03*
X-4740000Y-44582987D03*
%TD*%
%TO.C,D229*%
X58640000Y-5126870D03*
X58960000Y-4572614D03*
%TD*%
%TO.C,D1191*%
X38340000Y-30588017D03*
X38660000Y-30033761D03*
%TD*%
%TO.C,D205*%
X25040000Y-5126870D03*
X25360000Y-4572614D03*
%TD*%
%TO.C,D1539*%
X4740000Y-40287501D03*
X5060000Y-39733245D03*
%TD*%
%TO.C,D490*%
X33440000Y-12401483D03*
X33760000Y-11847227D03*
%TD*%
%TO.C,D1060*%
X-14860000Y-28163146D03*
X-14540000Y-27608890D03*
%TD*%
%TO.C,D1006*%
X32040000Y-14826354D03*
X32360000Y-14272098D03*
%TD*%
%TO.C,D1897*%
X-10660000Y-47562115D03*
X-10340000Y-47007859D03*
%TD*%
%TO.C,D264*%
X42540000Y-6339305D03*
X42860000Y-5785049D03*
%TD*%
%TO.C,D579*%
X43940000Y-25738274D03*
X44260000Y-25184018D03*
%TD*%
%TO.C,D721*%
X40440000Y-22100968D03*
X40760000Y-21546712D03*
%TD*%
%TO.C,D210*%
X32040000Y-5126870D03*
X32360000Y-4572614D03*
%TD*%
%TO.C,D220*%
X46040000Y-5126870D03*
X46360000Y-4572614D03*
%TD*%
%TO.C,D762*%
X48140000Y-20888532D03*
X48460000Y-20334276D03*
%TD*%
%TO.C,D1733*%
X23640000Y-51199421D03*
X23960000Y-50645165D03*
%TD*%
%TO.C,D418*%
X-2260000Y-11189048D03*
X-1940000Y-10634792D03*
%TD*%
%TO.C,D2080*%
X-6460000Y-42712372D03*
X-6140000Y-42158116D03*
%TD*%
%TO.C,D2091*%
X-21860000Y-42712372D03*
X-21540000Y-42158116D03*
%TD*%
%TO.C,D927*%
X12440000Y-17251225D03*
X12760000Y-16696969D03*
%TD*%
%TO.C,D1043*%
X45340000Y-13613919D03*
X45660000Y-13059663D03*
%TD*%
%TO.C,D1023*%
X8240000Y-14826354D03*
X8560000Y-14272098D03*
%TD*%
%TO.C,D1928*%
X11040000Y-46349679D03*
X11360000Y-45795423D03*
%TD*%
%TO.C,D2051*%
X34140000Y-42712372D03*
X34460000Y-42158116D03*
%TD*%
%TO.C,D2072*%
X4740000Y-42712372D03*
X5060000Y-42158116D03*
%TD*%
%TO.C,D1436*%
X-9260000Y-37862630D03*
X-8940000Y-37308374D03*
%TD*%
%TO.C,D1192*%
X39740000Y-30588017D03*
X40060000Y-30033761D03*
%TD*%
%TO.C,D819*%
X33440000Y-19676097D03*
X33760000Y-19121841D03*
%TD*%
%TO.C,D1056*%
X27140000Y-13613919D03*
X27460000Y-13059663D03*
%TD*%
%TO.C,D1985*%
X-3660000Y-45137243D03*
X-3340000Y-44582987D03*
%TD*%
%TO.C,D650*%
X9640000Y-24525839D03*
X9960000Y-23971583D03*
%TD*%
%TO.C,D587*%
X32740000Y-25738274D03*
X33060000Y-25184018D03*
%TD*%
%TO.C,D577*%
X46740000Y-25738274D03*
X47060000Y-25184018D03*
%TD*%
%TO.C,D409*%
X50240000Y-9976612D03*
X50560000Y-9422356D03*
%TD*%
%TO.C,D1648*%
X12440000Y-53624292D03*
X12760000Y-53070036D03*
%TD*%
%TO.C,D2108*%
X19440000Y-41499937D03*
X19760000Y-40945681D03*
%TD*%
%TO.C,D1713*%
X-13460000Y-52411857D03*
X-13140000Y-51857601D03*
%TD*%
%TO.C,D1745*%
X6840000Y-51199421D03*
X7160000Y-50645165D03*
%TD*%
%TO.C,D950*%
X45340000Y-16038790D03*
X45660000Y-15484534D03*
%TD*%
%TO.C,D1156*%
X-10660000Y-30588017D03*
X-10340000Y-30033761D03*
%TD*%
%TO.C,D357*%
X42540000Y-8764176D03*
X42860000Y-8209920D03*
%TD*%
%TO.C,D1433*%
X-13460000Y-37862630D03*
X-13140000Y-37308374D03*
%TD*%
%TO.C,D1654*%
X4040000Y-53624292D03*
X4360000Y-53070036D03*
%TD*%
%TO.C,D533*%
X43240000Y-26950710D03*
X43560000Y-26396454D03*
%TD*%
%TO.C,D901*%
X48840000Y-17251225D03*
X49160000Y-16696969D03*
%TD*%
%TO.C,D803*%
X-9260000Y-20888532D03*
X-8940000Y-20334276D03*
%TD*%
%TO.C,D2000*%
X-24660000Y-45137243D03*
X-24340000Y-44582987D03*
%TD*%
%TO.C,D1001*%
X39040000Y-14826354D03*
X39360000Y-14272098D03*
%TD*%
%TO.C,D216*%
X40440000Y-5126870D03*
X40760000Y-4572614D03*
%TD*%
%TO.C,D1345*%
X-6460000Y-35437759D03*
X-6140000Y-34883503D03*
%TD*%
%TO.C,D380*%
X9640000Y-9976612D03*
X9960000Y-9422356D03*
%TD*%
%TO.C,D581*%
X41140000Y-25738274D03*
X41460000Y-25184018D03*
%TD*%
%TO.C,D735*%
X20840000Y-22100968D03*
X21160000Y-21546712D03*
%TD*%
%TO.C,D1372*%
X31340000Y-35437759D03*
X31660000Y-34883503D03*
%TD*%
%TO.C,D1355*%
X7540000Y-35437759D03*
X7860000Y-34883503D03*
%TD*%
%TO.C,D1439*%
X-5060000Y-37862630D03*
X-4740000Y-37308374D03*
%TD*%
%TO.C,D619*%
X-12060000Y-25738274D03*
X-11740000Y-25184018D03*
%TD*%
%TO.C,D307*%
X37640000Y-7551741D03*
X37960000Y-6997485D03*
%TD*%
%TO.C,D1188*%
X34140000Y-30588017D03*
X34460000Y-30033761D03*
%TD*%
%TO.C,D1538*%
X3340000Y-40287501D03*
X3660000Y-39733245D03*
%TD*%
%TO.C,D806*%
X51640000Y-19676097D03*
X51960000Y-19121841D03*
%TD*%
%TO.C,D1386*%
X-14160000Y-36650194D03*
X-13840000Y-36095938D03*
%TD*%
%TO.C,D952*%
X42540000Y-16038790D03*
X42860000Y-15484534D03*
%TD*%
%TO.C,D998*%
X43240000Y-14826354D03*
X43560000Y-14272098D03*
%TD*%
%TO.C,D1619*%
X-12060000Y-54836728D03*
X-11740000Y-54282472D03*
%TD*%
%TO.C,D1543*%
X10340000Y-40287501D03*
X10660000Y-39733245D03*
%TD*%
%TO.C,D540*%
X33440000Y-26950710D03*
X33760000Y-26396454D03*
%TD*%
%TO.C,D555*%
X12440000Y-26950710D03*
X12760000Y-26396454D03*
%TD*%
%TO.C,D965*%
X24340000Y-16038790D03*
X24660000Y-15484534D03*
%TD*%
%TO.C,D21*%
X27840000Y-277128D03*
X28160000Y277128D03*
%TD*%
%TO.C,D1524*%
X-16260000Y-40287501D03*
X-15940000Y-39733245D03*
%TD*%
%TO.C,D1532*%
X-5060000Y-40287501D03*
X-4740000Y-39733245D03*
%TD*%
%TO.C,D431*%
X15940000Y-11189048D03*
X16260000Y-10634792D03*
%TD*%
%TO.C,D1482*%
X-9960000Y-39075066D03*
X-9640000Y-38520810D03*
%TD*%
%TO.C,D787*%
X13140000Y-20888532D03*
X13460000Y-20334276D03*
%TD*%
%TO.C,D1130*%
X18040000Y-29375581D03*
X18360000Y-28821325D03*
%TD*%
%TO.C,D855*%
X48140000Y-18463661D03*
X48460000Y-17909405D03*
%TD*%
%TO.C,D904*%
X44640000Y-17251225D03*
X44960000Y-16696969D03*
%TD*%
%TO.C,D1079*%
X11740000Y-28163146D03*
X12060000Y-27608890D03*
%TD*%
%TO.C,D506*%
X55840000Y-12401483D03*
X56160000Y-11847227D03*
%TD*%
%TO.C,D1983*%
X-860000Y-45137243D03*
X-540000Y-44582987D03*
%TD*%
%TO.C,D1688*%
X21540000Y-52411857D03*
X21860000Y-51857601D03*
%TD*%
%TO.C,D836*%
X9640000Y-19676097D03*
X9960000Y-19121841D03*
%TD*%
%TO.C,D1766*%
X-22560000Y-51199421D03*
X-22240000Y-50645165D03*
%TD*%
%TO.C,D771*%
X35540000Y-20888532D03*
X35860000Y-20334276D03*
%TD*%
%TO.C,D987*%
X-6460000Y-16038790D03*
X-6140000Y-15484534D03*
%TD*%
%TO.C,D18*%
X23640000Y-277128D03*
X23960000Y277128D03*
%TD*%
%TO.C,D523*%
X14540000Y-13613919D03*
X14860000Y-13059663D03*
%TD*%
%TO.C,D1919*%
X23640000Y-46349679D03*
X23960000Y-45795423D03*
%TD*%
%TO.C,D24*%
X32040000Y-277128D03*
X32360000Y277128D03*
%TD*%
%TO.C,D553*%
X15240000Y-26950710D03*
X15560000Y-26396454D03*
%TD*%
%TO.C,D67*%
X27140000Y-1489563D03*
X27460000Y-935307D03*
%TD*%
%TO.C,D845*%
X-2960000Y-19676097D03*
X-2640000Y-19121841D03*
%TD*%
%TO.C,D157*%
X22940000Y-3914434D03*
X23260000Y-3360178D03*
%TD*%
%TO.C,D1294*%
X-12760000Y-34225323D03*
X-12440000Y-33671067D03*
%TD*%
%TO.C,D435*%
X21540000Y-11189048D03*
X21860000Y-10634792D03*
%TD*%
%TO.C,D1680*%
X32740000Y-52411857D03*
X33060000Y-51857601D03*
%TD*%
%TO.C,D107*%
X18040000Y-2701999D03*
X18360000Y-2147743D03*
%TD*%
%TO.C,D588*%
X31340000Y-25738274D03*
X31660000Y-25184018D03*
%TD*%
%TO.C,D1140*%
X32040000Y-29375581D03*
X32360000Y-28821325D03*
%TD*%
%TO.C,D1914*%
X30640000Y-46349679D03*
X30960000Y-45795423D03*
%TD*%
%TO.C,D1887*%
X3340000Y-47562115D03*
X3660000Y-47007859D03*
%TD*%
%TO.C,D1038*%
X52340000Y-13613919D03*
X52660000Y-13059663D03*
%TD*%
%TO.C,D714*%
X50240000Y-22100968D03*
X50560000Y-21546712D03*
%TD*%
%TO.C,D1894*%
X-6460000Y-47562115D03*
X-6140000Y-47007859D03*
%TD*%
%TO.C,D491*%
X34840000Y-12401483D03*
X35160000Y-11847227D03*
%TD*%
%TO.C,D1350*%
X540000Y-35437759D03*
X860000Y-34883503D03*
%TD*%
%TO.C,D327*%
X540000Y-8764176D03*
X860000Y-8209920D03*
%TD*%
%TO.C,D1980*%
X3340000Y-45137243D03*
X3660000Y-44582987D03*
%TD*%
%TO.C,D1393*%
X-4360000Y-36650194D03*
X-4040000Y-36095938D03*
%TD*%
%TO.C,D959*%
X32740000Y-16038790D03*
X33060000Y-15484534D03*
%TD*%
%TO.C,D1343*%
X-9260000Y-35437759D03*
X-8940000Y-34883503D03*
%TD*%
%TO.C,D454*%
X48140000Y-11189048D03*
X48460000Y-10634792D03*
%TD*%
%TO.C,D1716*%
X-17660000Y-52411857D03*
X-17340000Y-51857601D03*
%TD*%
%TO.C,D1803*%
X-9260000Y-49986986D03*
X-8940000Y-49432730D03*
%TD*%
%TO.C,D727*%
X32040000Y-22100968D03*
X32360000Y-21546712D03*
%TD*%
%TO.C,D1443*%
X540000Y-37862630D03*
X860000Y-37308374D03*
%TD*%
%TO.C,D2041*%
X-16960000Y-43924808D03*
X-16640000Y-43370552D03*
%TD*%
%TO.C,D2048*%
X38340000Y-42712372D03*
X38660000Y-42158116D03*
%TD*%
%TO.C,D1151*%
X-17660000Y-30588017D03*
X-17340000Y-30033761D03*
%TD*%
%TO.C,D1328*%
X34840000Y-34225323D03*
X35160000Y-33671067D03*
%TD*%
%TO.C,D1616*%
X-7860000Y-54836728D03*
X-7540000Y-54282472D03*
%TD*%
%TO.C,D1284*%
X38340000Y-33012888D03*
X38660000Y-32458632D03*
%TD*%
%TO.C,D162*%
X29940000Y-3914434D03*
X30260000Y-3360178D03*
%TD*%
%TO.C,D918*%
X25040000Y-17251225D03*
X25360000Y-16696969D03*
%TD*%
%TO.C,D151*%
X14540000Y-3914434D03*
X14860000Y-3360178D03*
%TD*%
%TO.C,D295*%
X20840000Y-7551741D03*
X21160000Y-6997485D03*
%TD*%
%TO.C,D593*%
X24340000Y-25738274D03*
X24660000Y-25184018D03*
%TD*%
%TO.C,D1811*%
X-20460000Y-49986986D03*
X-20140000Y-49432730D03*
%TD*%
%TO.C,D471*%
X6840000Y-12401483D03*
X7160000Y-11847227D03*
%TD*%
%TO.C,D1063*%
X-10660000Y-28163146D03*
X-10340000Y-27608890D03*
%TD*%
%TO.C,D1325*%
X30640000Y-34225323D03*
X30960000Y-33671067D03*
%TD*%
%TO.C,D83*%
X49540000Y-1489563D03*
X49860000Y-935307D03*
%TD*%
%TO.C,D1494*%
X6840000Y-39075066D03*
X7160000Y-38520810D03*
%TD*%
%TO.C,D246*%
X17340000Y-6339305D03*
X17660000Y-5785049D03*
%TD*%
%TO.C,D702*%
X1940000Y-23313403D03*
X2260000Y-22759147D03*
%TD*%
%TO.C,D1786*%
X14540000Y-49986986D03*
X14860000Y-49432730D03*
%TD*%
%TO.C,D1172*%
X11740000Y-30588017D03*
X12060000Y-30033761D03*
%TD*%
%TO.C,D1391*%
X-7160000Y-36650194D03*
X-6840000Y-36095938D03*
%TD*%
%TO.C,D1663*%
X-8560000Y-53624292D03*
X-8240000Y-53070036D03*
%TD*%
%TO.C,D371*%
X-2960000Y-9976612D03*
X-2640000Y-9422356D03*
%TD*%
%TO.C,D1717*%
X-19060000Y-52411857D03*
X-18740000Y-51857601D03*
%TD*%
%TO.C,D1835*%
X11040000Y-48774550D03*
X11360000Y-48220294D03*
%TD*%
%TO.C,D1868*%
X29940000Y-47562115D03*
X30260000Y-47007859D03*
%TD*%
%TO.C,D591*%
X27140000Y-25738274D03*
X27460000Y-25184018D03*
%TD*%
%TO.C,D621*%
X-14860000Y-25738274D03*
X-14540000Y-25184018D03*
%TD*%
%TO.C,D1084*%
X18740000Y-28163146D03*
X19060000Y-27608890D03*
%TD*%
%TO.C,D1564*%
X39740000Y-40287501D03*
X40060000Y-39733245D03*
%TD*%
%TO.C,D2034*%
X-7160000Y-43924808D03*
X-6840000Y-43370552D03*
%TD*%
%TO.C,D1048*%
X38340000Y-13613919D03*
X38660000Y-13059663D03*
%TD*%
%TO.C,D198*%
X15240000Y-5126870D03*
X15560000Y-4572614D03*
%TD*%
%TO.C,D1515*%
X36240000Y-39075066D03*
X36560000Y-38520810D03*
%TD*%
%TO.C,D1603*%
X10340000Y-54836728D03*
X10660000Y-54282472D03*
%TD*%
%TO.C,D868*%
X29940000Y-18463661D03*
X30260000Y-17909405D03*
%TD*%
%TO.C,D683*%
X28540000Y-23313403D03*
X28860000Y-22759147D03*
%TD*%
%TO.C,D713*%
X-13460000Y-23313403D03*
X-13140000Y-22759147D03*
%TD*%
%TO.C,D2022*%
X9640000Y-43924808D03*
X9960000Y-43370552D03*
%TD*%
%TO.C,D793*%
X4740000Y-20888532D03*
X5060000Y-20334276D03*
%TD*%
%TO.C,D2021*%
X11040000Y-43924808D03*
X11360000Y-43370552D03*
%TD*%
%TO.C,D158*%
X24340000Y-3914434D03*
X24660000Y-3360178D03*
%TD*%
%TO.C,D39*%
X53040000Y-277128D03*
X53360000Y277128D03*
%TD*%
%TO.C,D170*%
X41140000Y-3914434D03*
X41460000Y-3360178D03*
%TD*%
%TO.C,D1669*%
X-16960000Y-53624292D03*
X-16640000Y-53070036D03*
%TD*%
%TO.C,D1723*%
X-27460000Y-52411857D03*
X-27140000Y-51857601D03*
%TD*%
%TO.C,D86*%
X53740000Y-1489563D03*
X54060000Y-935307D03*
%TD*%
%TO.C,D2085*%
X-13460000Y-42712372D03*
X-13140000Y-42158116D03*
%TD*%
%TO.C,D1077*%
X8940000Y-28163146D03*
X9260000Y-27608890D03*
%TD*%
%TO.C,D932*%
X5440000Y-17251225D03*
X5760000Y-16696969D03*
%TD*%
%TO.C,D1486*%
X-4360000Y-39075066D03*
X-4040000Y-38520810D03*
%TD*%
%TO.C,D1271*%
X20140000Y-33012888D03*
X20460000Y-32458632D03*
%TD*%
%TO.C,D2036*%
X-9960000Y-43924808D03*
X-9640000Y-43370552D03*
%TD*%
%TO.C,D630*%
X37640000Y-24525839D03*
X37960000Y-23971583D03*
%TD*%
%TO.C,D1791*%
X7540000Y-49986986D03*
X7860000Y-49432730D03*
%TD*%
%TO.C,D880*%
X13140000Y-18463661D03*
X13460000Y-17909405D03*
%TD*%
%TO.C,D1135*%
X25040000Y-29375581D03*
X25360000Y-28821325D03*
%TD*%
%TO.C,D1975*%
X10340000Y-45137243D03*
X10660000Y-44582987D03*
%TD*%
%TO.C,D10*%
X12440000Y-277128D03*
X12760000Y277128D03*
%TD*%
%TO.C,D270*%
X50940000Y-6339305D03*
X51260000Y-5785049D03*
%TD*%
%TO.C,D2035*%
X-8560000Y-43924808D03*
X-8240000Y-43370552D03*
%TD*%
%TO.C,D894*%
X-6460000Y-18463661D03*
X-6140000Y-17909405D03*
%TD*%
%TO.C,D165*%
X34140000Y-3914434D03*
X34460000Y-3360178D03*
%TD*%
%TO.C,D2016*%
X18040000Y-43924808D03*
X18360000Y-43370552D03*
%TD*%
%TO.C,D548*%
X22240000Y-26950710D03*
X22560000Y-26396454D03*
%TD*%
%TO.C,D458*%
X53740000Y-11189048D03*
X54060000Y-10634792D03*
%TD*%
%TO.C,D733*%
X23640000Y-22100968D03*
X23960000Y-21546712D03*
%TD*%
%TO.C,D1121*%
X5440000Y-29375581D03*
X5760000Y-28821325D03*
%TD*%
%TO.C,D439*%
X27140000Y-11189048D03*
X27460000Y-10634792D03*
%TD*%
%TO.C,D1709*%
X-7860000Y-52411857D03*
X-7540000Y-51857601D03*
%TD*%
%TO.C,D407*%
X47440000Y-9976612D03*
X47760000Y-9422356D03*
%TD*%
%TO.C,D299*%
X26440000Y-7551741D03*
X26760000Y-6997485D03*
%TD*%
%TO.C,D1041*%
X48140000Y-13613919D03*
X48460000Y-13059663D03*
%TD*%
%TO.C,D150*%
X13140000Y-3914434D03*
X13460000Y-3360178D03*
%TD*%
%TO.C,D1682*%
X29940000Y-52411857D03*
X30260000Y-51857601D03*
%TD*%
%TO.C,D1885*%
X6140000Y-47562115D03*
X6460000Y-47007859D03*
%TD*%
%TO.C,D780*%
X22940000Y-20888532D03*
X23260000Y-20334276D03*
%TD*%
%TO.C,D376*%
X4040000Y-9976612D03*
X4360000Y-9422356D03*
%TD*%
%TO.C,D126*%
X44640000Y-2701999D03*
X44960000Y-2147743D03*
%TD*%
%TO.C,D1511*%
X30640000Y-39075066D03*
X30960000Y-38520810D03*
%TD*%
%TO.C,D55*%
X10340000Y-1489563D03*
X10660000Y-935307D03*
%TD*%
%TO.C,D1046*%
X41140000Y-13613919D03*
X41460000Y-13059663D03*
%TD*%
%TO.C,D969*%
X18740000Y-16038790D03*
X19060000Y-15484534D03*
%TD*%
%TO.C,D797*%
X-860000Y-20888532D03*
X-540000Y-20334276D03*
%TD*%
%TO.C,D647*%
X13840000Y-24525839D03*
X14160000Y-23971583D03*
%TD*%
%TO.C,D1820*%
X32040000Y-48774550D03*
X32360000Y-48220294D03*
%TD*%
%TO.C,D351*%
X34140000Y-8764176D03*
X34460000Y-8209920D03*
%TD*%
%TO.C,D1285*%
X39740000Y-33012888D03*
X40060000Y-32458632D03*
%TD*%
%TO.C,D988*%
X-7860000Y-16038790D03*
X-7540000Y-15484534D03*
%TD*%
%TO.C,D1848*%
X-7160000Y-48774550D03*
X-6840000Y-48220294D03*
%TD*%
%TO.C,D1053*%
X31340000Y-13613919D03*
X31660000Y-13059663D03*
%TD*%
%TO.C,D1847*%
X-5760000Y-48774550D03*
X-5440000Y-48220294D03*
%TD*%
%TO.C,D1483*%
X-8560000Y-39075066D03*
X-8240000Y-38520810D03*
%TD*%
%TO.C,D2012*%
X23640000Y-43924808D03*
X23960000Y-43370552D03*
%TD*%
%TO.C,D74*%
X36940000Y-1489563D03*
X37260000Y-935307D03*
%TD*%
%TO.C,D879*%
X14540000Y-18463661D03*
X14860000Y-17909405D03*
%TD*%
%TO.C,D2010*%
X26440000Y-43924808D03*
X26760000Y-43370552D03*
%TD*%
%TO.C,D1915*%
X29240000Y-46349679D03*
X29560000Y-45795423D03*
%TD*%
%TO.C,D745*%
X6840000Y-22100968D03*
X7160000Y-21546712D03*
%TD*%
%TO.C,D748*%
X2640000Y-22100968D03*
X2960000Y-21546712D03*
%TD*%
%TO.C,D2049*%
X36940000Y-42712372D03*
X37260000Y-42158116D03*
%TD*%
%TO.C,D1768*%
X-25360000Y-51199421D03*
X-25040000Y-50645165D03*
%TD*%
%TO.C,D1155*%
X-12060000Y-30588017D03*
X-11740000Y-30033761D03*
%TD*%
%TO.C,D1418*%
X30640000Y-36650194D03*
X30960000Y-36095938D03*
%TD*%
%TO.C,D1541*%
X7540000Y-40287501D03*
X7860000Y-39733245D03*
%TD*%
%TO.C,D1335*%
X-20460000Y-35437759D03*
X-20140000Y-34883503D03*
%TD*%
%TO.C,D1283*%
X36940000Y-33012888D03*
X37260000Y-32458632D03*
%TD*%
%TO.C,D1999*%
X-23260000Y-45137243D03*
X-22940000Y-44582987D03*
%TD*%
%TO.C,D1150*%
X46040000Y-29375581D03*
X46360000Y-28821325D03*
%TD*%
%TO.C,D1457*%
X20140000Y-37862630D03*
X20460000Y-37308374D03*
%TD*%
%TO.C,D1453*%
X14540000Y-37862630D03*
X14860000Y-37308374D03*
%TD*%
%TO.C,D1145*%
X39040000Y-29375581D03*
X39360000Y-28821325D03*
%TD*%
%TO.C,D564*%
X-160000Y-26950710D03*
X160000Y-26396454D03*
%TD*%
%TO.C,D1822*%
X29240000Y-48774550D03*
X29560000Y-48220294D03*
%TD*%
%TO.C,D888*%
X1940000Y-18463661D03*
X2260000Y-17909405D03*
%TD*%
%TO.C,D525*%
X17340000Y-13613919D03*
X17660000Y-13059663D03*
%TD*%
%TO.C,D27*%
X36240000Y-277128D03*
X36560000Y277128D03*
%TD*%
%TO.C,D1232*%
X30640000Y-31800452D03*
X30960000Y-31246196D03*
%TD*%
%TO.C,D1356*%
X8940000Y-35437759D03*
X9260000Y-34883503D03*
%TD*%
%TO.C,D1697*%
X8940000Y-52411857D03*
X9260000Y-51857601D03*
%TD*%
%TO.C,D616*%
X-7860000Y-25738274D03*
X-7540000Y-25184018D03*
%TD*%
%TO.C,D343*%
X22940000Y-8764176D03*
X23260000Y-8209920D03*
%TD*%
%TO.C,D1040*%
X49540000Y-13613919D03*
X49860000Y-13059663D03*
%TD*%
%TO.C,D838*%
X6840000Y-19676097D03*
X7160000Y-19121841D03*
%TD*%
%TO.C,D375*%
X2640000Y-9976612D03*
X2960000Y-9422356D03*
%TD*%
%TO.C,D828*%
X20840000Y-19676097D03*
X21160000Y-19121841D03*
%TD*%
%TO.C,D1858*%
X-21160000Y-48774550D03*
X-20840000Y-48220294D03*
%TD*%
%TO.C,D94*%
X-160000Y-2701999D03*
X160000Y-2147743D03*
%TD*%
%TO.C,D760*%
X50940000Y-20888532D03*
X51260000Y-20334276D03*
%TD*%
%TO.C,D1689*%
X20140000Y-52411857D03*
X20460000Y-51857601D03*
%TD*%
%TO.C,D1772*%
X34140000Y-49986986D03*
X34460000Y-49432730D03*
%TD*%
%TO.C,D114*%
X27840000Y-2701999D03*
X28160000Y-2147743D03*
%TD*%
%TO.C,D909*%
X37640000Y-17251225D03*
X37960000Y-16696969D03*
%TD*%
%TO.C,D989*%
X-9260000Y-16038790D03*
X-8940000Y-15484534D03*
%TD*%
%TO.C,D1181*%
X24340000Y-30588017D03*
X24660000Y-30033761D03*
%TD*%
%TO.C,D1829*%
X19440000Y-48774550D03*
X19760000Y-48220294D03*
%TD*%
%TO.C,D1089*%
X25740000Y-28163146D03*
X26060000Y-27608890D03*
%TD*%
%TO.C,D994*%
X48840000Y-14826354D03*
X49160000Y-14272098D03*
%TD*%
%TO.C,D1742*%
X11040000Y-51199421D03*
X11360000Y-50645165D03*
%TD*%
%TO.C,D281*%
X1240000Y-7551741D03*
X1560000Y-6997485D03*
%TD*%
%TO.C,D212*%
X34840000Y-5126870D03*
X35160000Y-4572614D03*
%TD*%
%TO.C,D1993*%
X-14860000Y-45137243D03*
X-14540000Y-44582987D03*
%TD*%
%TO.C,D1396*%
X-160000Y-36650194D03*
X160000Y-36095938D03*
%TD*%
%TO.C,D1686*%
X24340000Y-52411857D03*
X24660000Y-51857601D03*
%TD*%
%TO.C,D1640*%
X23640000Y-53624292D03*
X23960000Y-53070036D03*
%TD*%
%TO.C,D1744*%
X8240000Y-51199421D03*
X8560000Y-50645165D03*
%TD*%
%TO.C,D1877*%
X17340000Y-47562115D03*
X17660000Y-47007859D03*
%TD*%
%TO.C,D941*%
X-7160000Y-17251225D03*
X-6840000Y-16696969D03*
%TD*%
%TO.C,D583*%
X38340000Y-25738274D03*
X38660000Y-25184018D03*
%TD*%
%TO.C,D116*%
X30640000Y-2701999D03*
X30960000Y-2147743D03*
%TD*%
%TO.C,D1379*%
X41140000Y-35437759D03*
X41460000Y-34883503D03*
%TD*%
%TO.C,D1773*%
X32740000Y-49986986D03*
X33060000Y-49432730D03*
%TD*%
%TO.C,D1526*%
X-13460000Y-40287501D03*
X-13140000Y-39733245D03*
%TD*%
%TO.C,D1134*%
X23640000Y-29375581D03*
X23960000Y-28821325D03*
%TD*%
%TO.C,D1184*%
X28540000Y-30588017D03*
X28860000Y-30033761D03*
%TD*%
%TO.C,D257*%
X32740000Y-6339305D03*
X33060000Y-5785049D03*
%TD*%
%TO.C,D1954*%
X-25360000Y-46349679D03*
X-25040000Y-45795423D03*
%TD*%
%TO.C,D90*%
X59340000Y-1489563D03*
X59660000Y-935307D03*
%TD*%
%TO.C,D1204*%
X-8560000Y-31800452D03*
X-8240000Y-31246196D03*
%TD*%
%TO.C,D122*%
X39040000Y-2701999D03*
X39360000Y-2147743D03*
%TD*%
%TO.C,D1617*%
X-9260000Y-54836728D03*
X-8940000Y-54282472D03*
%TD*%
%TO.C,D1724*%
X-28860000Y-52411857D03*
X-28540000Y-51857601D03*
%TD*%
%TO.C,D396*%
X32040000Y-9976612D03*
X32360000Y-9422356D03*
%TD*%
%TO.C,D1139*%
X30640000Y-29375581D03*
X30960000Y-28821325D03*
%TD*%
%TO.C,D964*%
X25740000Y-16038790D03*
X26060000Y-15484534D03*
%TD*%
%TO.C,D1678*%
X-29560000Y-53624292D03*
X-29240000Y-53070036D03*
%TD*%
%TO.C,D1551*%
X21540000Y-40287501D03*
X21860000Y-39733245D03*
%TD*%
%TO.C,D1059*%
X-16260000Y-28163146D03*
X-15940000Y-27608890D03*
%TD*%
%TO.C,D1451*%
X11740000Y-37862630D03*
X12060000Y-37308374D03*
%TD*%
%TO.C,D2038*%
X-12760000Y-43924808D03*
X-12440000Y-43370552D03*
%TD*%
%TO.C,D1650*%
X9640000Y-53624292D03*
X9960000Y-53070036D03*
%TD*%
%TO.C,D1952*%
X-22560000Y-46349679D03*
X-22240000Y-45795423D03*
%TD*%
%TO.C,D1676*%
X-26760000Y-53624292D03*
X-26440000Y-53070036D03*
%TD*%
%TO.C,D440*%
X28540000Y-11189048D03*
X28860000Y-10634792D03*
%TD*%
%TO.C,D1498*%
X12440000Y-39075066D03*
X12760000Y-38520810D03*
%TD*%
%TO.C,D1641*%
X22240000Y-53624292D03*
X22560000Y-53070036D03*
%TD*%
%TO.C,D1110*%
X-9960000Y-29375581D03*
X-9640000Y-28821325D03*
%TD*%
%TO.C,D709*%
X-7860000Y-23313403D03*
X-7540000Y-22759147D03*
%TD*%
%TO.C,D747*%
X4040000Y-22100968D03*
X4360000Y-21546712D03*
%TD*%
%TO.C,D494*%
X39040000Y-12401483D03*
X39360000Y-11847227D03*
%TD*%
%TO.C,D686*%
X24340000Y-23313403D03*
X24660000Y-22759147D03*
%TD*%
%TO.C,D1352*%
X3340000Y-35437759D03*
X3660000Y-34883503D03*
%TD*%
%TO.C,D1158*%
X-7860000Y-30588017D03*
X-7540000Y-30033761D03*
%TD*%
%TO.C,D1611*%
X-860000Y-54836728D03*
X-540000Y-54282472D03*
%TD*%
%TO.C,D1540*%
X6140000Y-40287501D03*
X6460000Y-39733245D03*
%TD*%
%TO.C,D52*%
X6140000Y-1489563D03*
X6460000Y-935307D03*
%TD*%
%TO.C,D2058*%
X24340000Y-42712372D03*
X24660000Y-42158116D03*
%TD*%
%TO.C,D509*%
X-5060000Y-13613919D03*
X-4740000Y-13059663D03*
%TD*%
%TO.C,D1666*%
X-12760000Y-53624292D03*
X-12440000Y-53070036D03*
%TD*%
%TO.C,D1701*%
X3340000Y-52411857D03*
X3660000Y-51857601D03*
%TD*%
%TO.C,D258*%
X34140000Y-6339305D03*
X34460000Y-5785049D03*
%TD*%
%TO.C,D1634*%
X32040000Y-53624292D03*
X32360000Y-53070036D03*
%TD*%
%TO.C,D1276*%
X27140000Y-33012888D03*
X27460000Y-32458632D03*
%TD*%
%TO.C,D858*%
X43940000Y-18463661D03*
X44260000Y-17909405D03*
%TD*%
%TO.C,D2027*%
X2640000Y-43924808D03*
X2960000Y-43370552D03*
%TD*%
%TO.C,D1579*%
X-4360000Y-41499937D03*
X-4040000Y-40945681D03*
%TD*%
%TO.C,D1735*%
X20840000Y-51199421D03*
X21160000Y-50645165D03*
%TD*%
%TO.C,D889*%
X540000Y-18463661D03*
X860000Y-17909405D03*
%TD*%
%TO.C,D877*%
X17340000Y-18463661D03*
X17660000Y-17909405D03*
%TD*%
%TO.C,D687*%
X22940000Y-23313403D03*
X23260000Y-22759147D03*
%TD*%
%TO.C,D54*%
X8940000Y-1489563D03*
X9260000Y-935307D03*
%TD*%
%TO.C,D44*%
X60040000Y-277128D03*
X60360000Y277128D03*
%TD*%
%TO.C,D1831*%
X16640000Y-48774550D03*
X16960000Y-48220294D03*
%TD*%
%TO.C,D282*%
X2640000Y-7551741D03*
X2960000Y-6997485D03*
%TD*%
%TO.C,D611*%
X-860000Y-25738274D03*
X-540000Y-25184018D03*
%TD*%
%TO.C,D441*%
X29940000Y-11189048D03*
X30260000Y-10634792D03*
%TD*%
%TO.C,D1400*%
X5440000Y-36650194D03*
X5760000Y-36095938D03*
%TD*%
%TO.C,D326*%
X-860000Y-8764176D03*
X-540000Y-8209920D03*
%TD*%
%TO.C,D556*%
X11040000Y-26950710D03*
X11360000Y-26396454D03*
%TD*%
%TO.C,D1198*%
X-16960000Y-31800452D03*
X-16640000Y-31246196D03*
%TD*%
%TO.C,D715*%
X48840000Y-22100968D03*
X49160000Y-21546712D03*
%TD*%
%TO.C,D248*%
X20140000Y-6339305D03*
X20460000Y-5785049D03*
%TD*%
%TO.C,D215*%
X39040000Y-5126870D03*
X39360000Y-4572614D03*
%TD*%
%TO.C,D2105*%
X23640000Y-41499937D03*
X23960000Y-40945681D03*
%TD*%
%TO.C,D537*%
X37640000Y-26950710D03*
X37960000Y-26396454D03*
%TD*%
%TO.C,D1936*%
X-160000Y-46349679D03*
X160000Y-45795423D03*
%TD*%
%TO.C,D863*%
X36940000Y-18463661D03*
X37260000Y-17909405D03*
%TD*%
%TO.C,D66*%
X25740000Y-1489563D03*
X26060000Y-935307D03*
%TD*%
%TO.C,D2101*%
X29240000Y-41499937D03*
X29560000Y-40945681D03*
%TD*%
%TO.C,D1743*%
X9640000Y-51199421D03*
X9960000Y-50645165D03*
%TD*%
%TO.C,D1787*%
X13140000Y-49986986D03*
X13460000Y-49432730D03*
%TD*%
%TO.C,D1982*%
X540000Y-45137243D03*
X860000Y-44582987D03*
%TD*%
%TO.C,D926*%
X13840000Y-17251225D03*
X14160000Y-16696969D03*
%TD*%
%TO.C,D1298*%
X-7160000Y-34225323D03*
X-6840000Y-33671067D03*
%TD*%
%TO.C,D1958*%
X34140000Y-45137243D03*
X34460000Y-44582987D03*
%TD*%
%TO.C,D28*%
X37640000Y-277128D03*
X37960000Y277128D03*
%TD*%
%TO.C,D1593*%
X24340000Y-54836728D03*
X24660000Y-54282472D03*
%TD*%
%TO.C,D310*%
X41840000Y-7551741D03*
X42160000Y-6997485D03*
%TD*%
%TO.C,D14*%
X18040000Y-277128D03*
X18360000Y277128D03*
%TD*%
%TO.C,D374*%
X1240000Y-9976612D03*
X1560000Y-9422356D03*
%TD*%
%TO.C,D1237*%
X37640000Y-31800452D03*
X37960000Y-31246196D03*
%TD*%
%TO.C,D1851*%
X-11360000Y-48774550D03*
X-11040000Y-48220294D03*
%TD*%
%TO.C,D596*%
X20140000Y-25738274D03*
X20460000Y-25184018D03*
%TD*%
%TO.C,D421*%
X1940000Y-11189048D03*
X2260000Y-10634792D03*
%TD*%
%TO.C,D1808*%
X-16260000Y-49986986D03*
X-15940000Y-49432730D03*
%TD*%
%TO.C,D1318*%
X20840000Y-34225323D03*
X21160000Y-33671067D03*
%TD*%
%TO.C,D1371*%
X29940000Y-35437759D03*
X30260000Y-34883503D03*
%TD*%
%TO.C,D824*%
X26440000Y-19676097D03*
X26760000Y-19121841D03*
%TD*%
%TO.C,D801*%
X-6460000Y-20888532D03*
X-6140000Y-20334276D03*
%TD*%
%TO.C,D147*%
X8940000Y-3914434D03*
X9260000Y-3360178D03*
%TD*%
%TO.C,D1266*%
X13140000Y-33012888D03*
X13460000Y-32458632D03*
%TD*%
%TO.C,D1425*%
X40440000Y-36650194D03*
X40760000Y-36095938D03*
%TD*%
%TO.C,D121*%
X37640000Y-2701999D03*
X37960000Y-2147743D03*
%TD*%
%TO.C,D1058*%
X24340000Y-13613919D03*
X24660000Y-13059663D03*
%TD*%
%TO.C,D493*%
X37640000Y-12401483D03*
X37960000Y-11847227D03*
%TD*%
%TO.C,D1412*%
X22240000Y-36650194D03*
X22560000Y-36095938D03*
%TD*%
%TO.C,D1708*%
X-6460000Y-52411857D03*
X-6140000Y-51857601D03*
%TD*%
%TO.C,D1523*%
X-17660000Y-40287501D03*
X-17340000Y-39733245D03*
%TD*%
%TO.C,D786*%
X14540000Y-20888532D03*
X14860000Y-20334276D03*
%TD*%
%TO.C,D1718*%
X-20460000Y-52411857D03*
X-20140000Y-51857601D03*
%TD*%
%TO.C,D1881*%
X11740000Y-47562115D03*
X12060000Y-47007859D03*
%TD*%
%TO.C,D1779*%
X24340000Y-49986986D03*
X24660000Y-49432730D03*
%TD*%
%TO.C,D1670*%
X-18360000Y-53624292D03*
X-18040000Y-53070036D03*
%TD*%
%TO.C,D1793*%
X4740000Y-49986986D03*
X5060000Y-49432730D03*
%TD*%
%TO.C,D1874*%
X21540000Y-47562115D03*
X21860000Y-47007859D03*
%TD*%
%TO.C,D1759*%
X-12760000Y-51199421D03*
X-12440000Y-50645165D03*
%TD*%
%TO.C,D1730*%
X27840000Y-51199421D03*
X28160000Y-50645165D03*
%TD*%
%TO.C,D1530*%
X-7860000Y-40287501D03*
X-7540000Y-39733245D03*
%TD*%
%TO.C,D1497*%
X11040000Y-39075066D03*
X11360000Y-38520810D03*
%TD*%
%TO.C,D829*%
X19440000Y-19676097D03*
X19760000Y-19121841D03*
%TD*%
%TO.C,D139*%
X-2260000Y-3914434D03*
X-1940000Y-3360178D03*
%TD*%
%TO.C,D1873*%
X22940000Y-47562115D03*
X23260000Y-47007859D03*
%TD*%
%TO.C,D1175*%
X15940000Y-30588017D03*
X16260000Y-30033761D03*
%TD*%
%TO.C,D1920*%
X22240000Y-46349679D03*
X22560000Y-45795423D03*
%TD*%
%TO.C,D20*%
X26440000Y-277128D03*
X26760000Y277128D03*
%TD*%
%TO.C,D1112*%
X-7160000Y-29375581D03*
X-6840000Y-28821325D03*
%TD*%
%TO.C,D944*%
X53740000Y-16038790D03*
X54060000Y-15484534D03*
%TD*%
%TO.C,D1840*%
X4040000Y-48774550D03*
X4360000Y-48220294D03*
%TD*%
%TO.C,D1644*%
X18040000Y-53624292D03*
X18360000Y-53070036D03*
%TD*%
%TO.C,D716*%
X47440000Y-22100968D03*
X47760000Y-21546712D03*
%TD*%
%TO.C,D805*%
X-12060000Y-20888532D03*
X-11740000Y-20334276D03*
%TD*%
%TO.C,D1827*%
X22240000Y-48774550D03*
X22560000Y-48220294D03*
%TD*%
%TO.C,D1161*%
X-3660000Y-30588017D03*
X-3340000Y-30033761D03*
%TD*%
%TO.C,D1763*%
X-18360000Y-51199421D03*
X-18040000Y-50645165D03*
%TD*%
%TO.C,D1194*%
X42540000Y-30588017D03*
X42860000Y-30033761D03*
%TD*%
%TO.C,D1258*%
X1940000Y-33012888D03*
X2260000Y-32458632D03*
%TD*%
%TO.C,D930*%
X8240000Y-17251225D03*
X8560000Y-16696969D03*
%TD*%
%TO.C,D1036*%
X55140000Y-13613919D03*
X55460000Y-13059663D03*
%TD*%
%TO.C,D1314*%
X15240000Y-34225323D03*
X15560000Y-33671067D03*
%TD*%
%TO.C,D862*%
X38340000Y-18463661D03*
X38660000Y-17909405D03*
%TD*%
%TO.C,D1563*%
X38340000Y-40287501D03*
X38660000Y-39733245D03*
%TD*%
%TO.C,D273*%
X55140000Y-6339305D03*
X55460000Y-5785049D03*
%TD*%
%TO.C,D558*%
X8240000Y-26950710D03*
X8560000Y-26396454D03*
%TD*%
%TO.C,D1938*%
X-2960000Y-46349679D03*
X-2640000Y-45795423D03*
%TD*%
%TO.C,D908*%
X39040000Y-17251225D03*
X39360000Y-16696969D03*
%TD*%
%TO.C,D1921*%
X20840000Y-46349679D03*
X21160000Y-45795423D03*
%TD*%
%TO.C,D1380*%
X42540000Y-35437759D03*
X42860000Y-34883503D03*
%TD*%
%TO.C,D1600*%
X14540000Y-54836728D03*
X14860000Y-54282472D03*
%TD*%
%TO.C,D1189*%
X35540000Y-30588017D03*
X35860000Y-30033761D03*
%TD*%
%TO.C,D1291*%
X-16960000Y-34225323D03*
X-16640000Y-33671067D03*
%TD*%
%TO.C,D446*%
X36940000Y-11189048D03*
X37260000Y-10634792D03*
%TD*%
%TO.C,D931*%
X6840000Y-17251225D03*
X7160000Y-16696969D03*
%TD*%
%TO.C,D640*%
X23640000Y-24525839D03*
X23960000Y-23971583D03*
%TD*%
%TO.C,D1029*%
X-160000Y-14826354D03*
X160000Y-14272098D03*
%TD*%
%TO.C,D184*%
X60740000Y-3914434D03*
X61060000Y-3360178D03*
%TD*%
%TO.C,D1702*%
X1940000Y-52411857D03*
X2260000Y-51857601D03*
%TD*%
%TO.C,D1528*%
X-10660000Y-40287501D03*
X-10340000Y-39733245D03*
%TD*%
%TO.C,D1748*%
X2640000Y-51199421D03*
X2960000Y-50645165D03*
%TD*%
%TO.C,D1522*%
X-19060000Y-40287501D03*
X-18740000Y-39733245D03*
%TD*%
%TO.C,D1765*%
X-21160000Y-51199421D03*
X-20840000Y-50645165D03*
%TD*%
%TO.C,D1909*%
X-27460000Y-47562115D03*
X-27140000Y-47007859D03*
%TD*%
%TO.C,D1843*%
X-160000Y-48774550D03*
X160000Y-48220294D03*
%TD*%
%TO.C,D1627*%
X-23260000Y-54836728D03*
X-22940000Y-54282472D03*
%TD*%
%TO.C,D320*%
X55840000Y-7551741D03*
X56160000Y-6997485D03*
%TD*%
%TO.C,D232*%
X-2260000Y-6339305D03*
X-1940000Y-5785049D03*
%TD*%
%TO.C,D300*%
X27840000Y-7551741D03*
X28160000Y-6997485D03*
%TD*%
%TO.C,D1402*%
X8240000Y-36650194D03*
X8560000Y-36095938D03*
%TD*%
%TO.C,D1047*%
X39740000Y-13613919D03*
X40060000Y-13059663D03*
%TD*%
%TO.C,D1332*%
X40440000Y-34225323D03*
X40760000Y-33671067D03*
%TD*%
%TO.C,D1351*%
X1940000Y-35437759D03*
X2260000Y-34883503D03*
%TD*%
%TO.C,D370*%
X-4360000Y-9976612D03*
X-4040000Y-9422356D03*
%TD*%
%TO.C,D510*%
X-3660000Y-13613919D03*
X-3340000Y-13059663D03*
%TD*%
%TO.C,D166*%
X35540000Y-3914434D03*
X35860000Y-3360178D03*
%TD*%
%TO.C,D1450*%
X10340000Y-37862630D03*
X10660000Y-37308374D03*
%TD*%
%TO.C,D323*%
X-5060000Y-8764176D03*
X-4740000Y-8209920D03*
%TD*%
%TO.C,D1882*%
X10340000Y-47562115D03*
X10660000Y-47007859D03*
%TD*%
%TO.C,D1215*%
X6840000Y-31800452D03*
X7160000Y-31246196D03*
%TD*%
%TO.C,D362*%
X49540000Y-8764176D03*
X49860000Y-8209920D03*
%TD*%
%TO.C,D690*%
X18740000Y-23313403D03*
X19060000Y-22759147D03*
%TD*%
%TO.C,D922*%
X19440000Y-17251225D03*
X19760000Y-16696969D03*
%TD*%
%TO.C,D87*%
X55140000Y-1489563D03*
X55460000Y-935307D03*
%TD*%
%TO.C,D689*%
X20140000Y-23313403D03*
X20460000Y-22759147D03*
%TD*%
%TO.C,D182*%
X57940000Y-3914434D03*
X58260000Y-3360178D03*
%TD*%
%TO.C,D1576*%
X-8560000Y-41499937D03*
X-8240000Y-40945681D03*
%TD*%
%TO.C,D536*%
X39040000Y-26950710D03*
X39360000Y-26396454D03*
%TD*%
%TO.C,D1051*%
X34140000Y-13613919D03*
X34460000Y-13059663D03*
%TD*%
%TO.C,D1329*%
X36240000Y-34225323D03*
X36560000Y-33671067D03*
%TD*%
%TO.C,D1516*%
X37640000Y-39075066D03*
X37960000Y-38520810D03*
%TD*%
%TO.C,D1643*%
X19440000Y-53624292D03*
X19760000Y-53070036D03*
%TD*%
%TO.C,D795*%
X1940000Y-20888532D03*
X2260000Y-20334276D03*
%TD*%
%TO.C,D794*%
X3340000Y-20888532D03*
X3660000Y-20334276D03*
%TD*%
%TO.C,D1229*%
X26440000Y-31800452D03*
X26760000Y-31246196D03*
%TD*%
%TO.C,D385*%
X16640000Y-9976612D03*
X16960000Y-9422356D03*
%TD*%
%TO.C,D1199*%
X-15560000Y-31800452D03*
X-15240000Y-31246196D03*
%TD*%
%TO.C,D2*%
X1240000Y-277128D03*
X1560000Y277128D03*
%TD*%
%TO.C,D1167*%
X4740000Y-30588017D03*
X5060000Y-30033761D03*
%TD*%
%TO.C,D211*%
X33440000Y-5126870D03*
X33760000Y-4572614D03*
%TD*%
%TO.C,D1270*%
X18740000Y-33012888D03*
X19060000Y-32458632D03*
%TD*%
%TO.C,D1474*%
X-21160000Y-39075066D03*
X-20840000Y-38520810D03*
%TD*%
%TO.C,D1387*%
X-12760000Y-36650194D03*
X-12440000Y-36095938D03*
%TD*%
%TO.C,D2096*%
X36240000Y-41499937D03*
X36560000Y-40945681D03*
%TD*%
%TO.C,D143*%
X3340000Y-3914434D03*
X3660000Y-3360178D03*
%TD*%
%TO.C,D262*%
X39740000Y-6339305D03*
X40060000Y-5785049D03*
%TD*%
%TO.C,D891*%
X-2260000Y-18463661D03*
X-1940000Y-17909405D03*
%TD*%
%TO.C,D202*%
X20840000Y-5126870D03*
X21160000Y-4572614D03*
%TD*%
%TO.C,D1216*%
X8240000Y-31800452D03*
X8560000Y-31246196D03*
%TD*%
%TO.C,D442*%
X31340000Y-11189048D03*
X31660000Y-10634792D03*
%TD*%
%TO.C,D1032*%
X-4360000Y-14826354D03*
X-4040000Y-14272098D03*
%TD*%
%TO.C,D1961*%
X29940000Y-45137243D03*
X30260000Y-44582987D03*
%TD*%
%TO.C,D1712*%
X-12060000Y-52411857D03*
X-11740000Y-51857601D03*
%TD*%
%TO.C,D1649*%
X11040000Y-53624292D03*
X11360000Y-53070036D03*
%TD*%
%TO.C,D1988*%
X-7860000Y-45137243D03*
X-7540000Y-44582987D03*
%TD*%
%TO.C,D622*%
X48840000Y-24525839D03*
X49160000Y-23971583D03*
%TD*%
%TO.C,D31*%
X41840000Y-277128D03*
X42160000Y277128D03*
%TD*%
%TO.C,D1163*%
X-860000Y-30588017D03*
X-540000Y-30033761D03*
%TD*%
%TO.C,D1103*%
X45340000Y-28163146D03*
X45660000Y-27608890D03*
%TD*%
%TO.C,D563*%
X1240000Y-26950710D03*
X1560000Y-26396454D03*
%TD*%
%TO.C,D381*%
X11040000Y-9976612D03*
X11360000Y-9422356D03*
%TD*%
%TO.C,D1948*%
X-16960000Y-46349679D03*
X-16640000Y-45795423D03*
%TD*%
%TO.C,D627*%
X41840000Y-24525839D03*
X42160000Y-23971583D03*
%TD*%
%TO.C,D594*%
X22940000Y-25738274D03*
X23260000Y-25184018D03*
%TD*%
%TO.C,D675*%
X39740000Y-23313403D03*
X40060000Y-22759147D03*
%TD*%
%TO.C,D447*%
X38340000Y-11189048D03*
X38660000Y-10634792D03*
%TD*%
%TO.C,D524*%
X15940000Y-13613919D03*
X16260000Y-13059663D03*
%TD*%
%TO.C,D804*%
X-10660000Y-20888532D03*
X-10340000Y-20334276D03*
%TD*%
%TO.C,D1205*%
X-7160000Y-31800452D03*
X-6840000Y-31246196D03*
%TD*%
%TO.C,D1004*%
X34840000Y-14826354D03*
X35160000Y-14272098D03*
%TD*%
%TO.C,D294*%
X19440000Y-7551741D03*
X19760000Y-6997485D03*
%TD*%
%TO.C,D1149*%
X44640000Y-29375581D03*
X44960000Y-28821325D03*
%TD*%
%TO.C,D674*%
X41140000Y-23313403D03*
X41460000Y-22759147D03*
%TD*%
%TO.C,D1375*%
X35540000Y-35437759D03*
X35860000Y-34883503D03*
%TD*%
%TO.C,D1217*%
X9640000Y-31800452D03*
X9960000Y-31246196D03*
%TD*%
%TO.C,D1645*%
X16640000Y-53624292D03*
X16960000Y-53070036D03*
%TD*%
%TO.C,D303*%
X32040000Y-7551741D03*
X32360000Y-6997485D03*
%TD*%
%TO.C,D1020*%
X12440000Y-14826354D03*
X12760000Y-14272098D03*
%TD*%
%TO.C,D225*%
X53040000Y-5126870D03*
X53360000Y-4572614D03*
%TD*%
%TO.C,D1287*%
X42540000Y-33012888D03*
X42860000Y-32458632D03*
%TD*%
%TO.C,D538*%
X36240000Y-26950710D03*
X36560000Y-26396454D03*
%TD*%
%TO.C,D1562*%
X36940000Y-40287501D03*
X37260000Y-39733245D03*
%TD*%
%TO.C,D1836*%
X9640000Y-48774550D03*
X9960000Y-48220294D03*
%TD*%
%TO.C,D1657*%
X-160000Y-53624292D03*
X160000Y-53070036D03*
%TD*%
%TO.C,D2095*%
X37640000Y-41499937D03*
X37960000Y-40945681D03*
%TD*%
%TO.C,D1933*%
X4040000Y-46349679D03*
X4360000Y-45795423D03*
%TD*%
%TO.C,D670*%
X46740000Y-23313403D03*
X47060000Y-22759147D03*
%TD*%
%TO.C,D598*%
X17340000Y-25738274D03*
X17660000Y-25184018D03*
%TD*%
%TO.C,D781*%
X21540000Y-20888532D03*
X21860000Y-20334276D03*
%TD*%
%TO.C,D859*%
X42540000Y-18463661D03*
X42860000Y-17909405D03*
%TD*%
%TO.C,D1531*%
X-6460000Y-40287501D03*
X-6140000Y-39733245D03*
%TD*%
%TO.C,D2074*%
X1940000Y-42712372D03*
X2260000Y-42158116D03*
%TD*%
%TO.C,D1136*%
X26440000Y-29375581D03*
X26760000Y-28821325D03*
%TD*%
%TO.C,D448*%
X39740000Y-11189048D03*
X40060000Y-10634792D03*
%TD*%
%TO.C,D1546*%
X14540000Y-40287501D03*
X14860000Y-39733245D03*
%TD*%
%TO.C,D1655*%
X2640000Y-53624292D03*
X2960000Y-53070036D03*
%TD*%
%TO.C,D654*%
X4040000Y-24525839D03*
X4360000Y-23971583D03*
%TD*%
%TO.C,D1940*%
X-5760000Y-46349679D03*
X-5440000Y-45795423D03*
%TD*%
%TO.C,D1132*%
X20840000Y-29375581D03*
X21160000Y-28821325D03*
%TD*%
%TO.C,D1838*%
X6840000Y-48774550D03*
X7160000Y-48220294D03*
%TD*%
%TO.C,D102*%
X11040000Y-2701999D03*
X11360000Y-2147743D03*
%TD*%
%TO.C,D1220*%
X13840000Y-31800452D03*
X14160000Y-31246196D03*
%TD*%
%TO.C,D259*%
X35540000Y-6339305D03*
X35860000Y-5785049D03*
%TD*%
%TO.C,D881*%
X11740000Y-18463661D03*
X12060000Y-17909405D03*
%TD*%
%TO.C,D1753*%
X-4360000Y-51199421D03*
X-4040000Y-50645165D03*
%TD*%
%TO.C,D2009*%
X27840000Y-43924808D03*
X28160000Y-43370552D03*
%TD*%
%TO.C,D1478*%
X-15560000Y-39075066D03*
X-15240000Y-38520810D03*
%TD*%
%TO.C,D899*%
X51640000Y-17251225D03*
X51960000Y-16696969D03*
%TD*%
%TO.C,D305*%
X34840000Y-7551741D03*
X35160000Y-6997485D03*
%TD*%
%TO.C,D684*%
X27140000Y-23313403D03*
X27460000Y-22759147D03*
%TD*%
%TO.C,D963*%
X27140000Y-16038790D03*
X27460000Y-15484534D03*
%TD*%
%TO.C,D1459*%
X22940000Y-37862630D03*
X23260000Y-37308374D03*
%TD*%
%TO.C,D1240*%
X41840000Y-31800452D03*
X42160000Y-31246196D03*
%TD*%
%TO.C,D825*%
X25040000Y-19676097D03*
X25360000Y-19121841D03*
%TD*%
%TO.C,D235*%
X1940000Y-6339305D03*
X2260000Y-5785049D03*
%TD*%
%TO.C,D644*%
X18040000Y-24525839D03*
X18360000Y-23971583D03*
%TD*%
%TO.C,D2075*%
X540000Y-42712372D03*
X860000Y-42158116D03*
%TD*%
%TO.C,D1568*%
X-19760000Y-41499937D03*
X-19440000Y-40945681D03*
%TD*%
%TO.C,D734*%
X22240000Y-22100968D03*
X22560000Y-21546712D03*
%TD*%
%TO.C,D394*%
X29240000Y-9976612D03*
X29560000Y-9422356D03*
%TD*%
%TO.C,D1378*%
X39740000Y-35437759D03*
X40060000Y-34883503D03*
%TD*%
%TO.C,D1000*%
X40440000Y-14826354D03*
X40760000Y-14272098D03*
%TD*%
%TO.C,D680*%
X32740000Y-23313403D03*
X33060000Y-22759147D03*
%TD*%
%TO.C,D1169*%
X7540000Y-30588017D03*
X7860000Y-30033761D03*
%TD*%
%TO.C,D1918*%
X25040000Y-46349679D03*
X25360000Y-45795423D03*
%TD*%
%TO.C,D724*%
X36240000Y-22100968D03*
X36560000Y-21546712D03*
%TD*%
%TO.C,D1018*%
X15240000Y-14826354D03*
X15560000Y-14272098D03*
%TD*%
%TO.C,D1230*%
X27840000Y-31800452D03*
X28160000Y-31246196D03*
%TD*%
%TO.C,D1965*%
X24340000Y-45137243D03*
X24660000Y-44582987D03*
%TD*%
%TO.C,D391*%
X25040000Y-9976612D03*
X25360000Y-9422356D03*
%TD*%
%TO.C,D2050*%
X35540000Y-42712372D03*
X35860000Y-42158116D03*
%TD*%
%TO.C,D437*%
X24340000Y-11189048D03*
X24660000Y-10634792D03*
%TD*%
%TO.C,D867*%
X31340000Y-18463661D03*
X31660000Y-17909405D03*
%TD*%
%TO.C,D356*%
X41140000Y-8764176D03*
X41460000Y-8209920D03*
%TD*%
%TO.C,D89*%
X57940000Y-1489563D03*
X58260000Y-935307D03*
%TD*%
%TO.C,D1071*%
X540000Y-28163146D03*
X860000Y-27608890D03*
%TD*%
%TO.C,D1953*%
X-23960000Y-46349679D03*
X-23640000Y-45795423D03*
%TD*%
%TO.C,D1183*%
X27140000Y-30588017D03*
X27460000Y-30033761D03*
%TD*%
%TO.C,D1967*%
X21540000Y-45137243D03*
X21860000Y-44582987D03*
%TD*%
%TO.C,D1461*%
X25740000Y-37862630D03*
X26060000Y-37308374D03*
%TD*%
%TO.C,D857*%
X45340000Y-18463661D03*
X45660000Y-17909405D03*
%TD*%
%TO.C,D1011*%
X25040000Y-14826354D03*
X25360000Y-14272098D03*
%TD*%
%TO.C,D1337*%
X-17660000Y-35437759D03*
X-17340000Y-34883503D03*
%TD*%
%TO.C,D1034*%
X-7160000Y-14826354D03*
X-6840000Y-14272098D03*
%TD*%
%TO.C,D1624*%
X-19060000Y-54836728D03*
X-18740000Y-54282472D03*
%TD*%
%TO.C,D1316*%
X18040000Y-34225323D03*
X18360000Y-33671067D03*
%TD*%
%TO.C,D2004*%
X34840000Y-43924808D03*
X35160000Y-43370552D03*
%TD*%
%TO.C,D623*%
X47440000Y-24525839D03*
X47760000Y-23971583D03*
%TD*%
%TO.C,D1260*%
X4740000Y-33012888D03*
X5060000Y-32458632D03*
%TD*%
%TO.C,D1261*%
X6140000Y-33012888D03*
X6460000Y-32458632D03*
%TD*%
%TO.C,D2077*%
X-2260000Y-42712372D03*
X-1940000Y-42158116D03*
%TD*%
%TO.C,D1107*%
X-14160000Y-29375581D03*
X-13840000Y-28821325D03*
%TD*%
%TO.C,D849*%
X-8560000Y-19676097D03*
X-8240000Y-19121841D03*
%TD*%
%TO.C,D387*%
X19440000Y-9976612D03*
X19760000Y-9422356D03*
%TD*%
%TO.C,D1703*%
X540000Y-52411857D03*
X860000Y-51857601D03*
%TD*%
%TO.C,D9*%
X11040000Y-277128D03*
X11360000Y277128D03*
%TD*%
%TO.C,D915*%
X29240000Y-17251225D03*
X29560000Y-16696969D03*
%TD*%
%TO.C,D777*%
X27140000Y-20888532D03*
X27460000Y-20334276D03*
%TD*%
%TO.C,D464*%
X-2960000Y-12401483D03*
X-2640000Y-11847227D03*
%TD*%
%TO.C,D1946*%
X-14160000Y-46349679D03*
X-13840000Y-45795423D03*
%TD*%
%TO.C,D943*%
X-9960000Y-17251225D03*
X-9640000Y-16696969D03*
%TD*%
%TO.C,D1052*%
X32740000Y-13613919D03*
X33060000Y-13059663D03*
%TD*%
%TO.C,D239*%
X7540000Y-6339305D03*
X7860000Y-5785049D03*
%TD*%
%TO.C,D1104*%
X46740000Y-28163146D03*
X47060000Y-27608890D03*
%TD*%
%TO.C,D1771*%
X-29560000Y-51199421D03*
X-29240000Y-50645165D03*
%TD*%
%TO.C,D1095*%
X34140000Y-28163146D03*
X34460000Y-27608890D03*
%TD*%
%TO.C,D260*%
X36940000Y-6339305D03*
X37260000Y-5785049D03*
%TD*%
%TO.C,D830*%
X18040000Y-19676097D03*
X18360000Y-19121841D03*
%TD*%
%TO.C,D732*%
X25040000Y-22100968D03*
X25360000Y-21546712D03*
%TD*%
%TO.C,D2020*%
X12440000Y-43924808D03*
X12760000Y-43370552D03*
%TD*%
%TO.C,D1754*%
X-5760000Y-51199421D03*
X-5440000Y-50645165D03*
%TD*%
%TO.C,D2098*%
X33440000Y-41499937D03*
X33760000Y-40945681D03*
%TD*%
%TO.C,D1037*%
X53740000Y-13613919D03*
X54060000Y-13059663D03*
%TD*%
%TO.C,D1802*%
X-7860000Y-49986986D03*
X-7540000Y-49432730D03*
%TD*%
%TO.C,D607*%
X4740000Y-25738274D03*
X5060000Y-25184018D03*
%TD*%
%TO.C,D2031*%
X-2960000Y-43924808D03*
X-2640000Y-43370552D03*
%TD*%
%TO.C,D153*%
X17340000Y-3914434D03*
X17660000Y-3360178D03*
%TD*%
%TO.C,D1344*%
X-7860000Y-35437759D03*
X-7540000Y-34883503D03*
%TD*%
%TO.C,D1500*%
X15240000Y-39075066D03*
X15560000Y-38520810D03*
%TD*%
%TO.C,D1995*%
X-17660000Y-45137243D03*
X-17340000Y-44582987D03*
%TD*%
%TO.C,D1635*%
X30640000Y-53624292D03*
X30960000Y-53070036D03*
%TD*%
%TO.C,D603*%
X10340000Y-25738274D03*
X10660000Y-25184018D03*
%TD*%
%TO.C,D186*%
X-1560000Y-5126870D03*
X-1240000Y-4572614D03*
%TD*%
%TO.C,D1009*%
X27840000Y-14826354D03*
X28160000Y-14272098D03*
%TD*%
%TO.C,D1974*%
X11740000Y-45137243D03*
X12060000Y-44582987D03*
%TD*%
%TO.C,D466*%
X-160000Y-12401483D03*
X160000Y-11847227D03*
%TD*%
%TO.C,D778*%
X25740000Y-20888532D03*
X26060000Y-20334276D03*
%TD*%
%TO.C,D677*%
X36940000Y-23313403D03*
X37260000Y-22759147D03*
%TD*%
%TO.C,D125*%
X43240000Y-2701999D03*
X43560000Y-2147743D03*
%TD*%
%TO.C,D1738*%
X16640000Y-51199421D03*
X16960000Y-50645165D03*
%TD*%
%TO.C,D765*%
X43940000Y-20888532D03*
X44260000Y-20334276D03*
%TD*%
%TO.C,D1081*%
X14540000Y-28163146D03*
X14860000Y-27608890D03*
%TD*%
%TO.C,D1064*%
X-9260000Y-28163146D03*
X-8940000Y-27608890D03*
%TD*%
%TO.C,D992*%
X51640000Y-14826354D03*
X51960000Y-14272098D03*
%TD*%
%TO.C,D718*%
X44640000Y-22100968D03*
X44960000Y-21546712D03*
%TD*%
%TO.C,D822*%
X29240000Y-19676097D03*
X29560000Y-19121841D03*
%TD*%
%TO.C,D415*%
X-6460000Y-11189048D03*
X-6140000Y-10634792D03*
%TD*%
%TO.C,D1519*%
X-23260000Y-40287501D03*
X-22940000Y-39733245D03*
%TD*%
%TO.C,D174*%
X46740000Y-3914434D03*
X47060000Y-3360178D03*
%TD*%
%TO.C,D69*%
X29940000Y-1489563D03*
X30260000Y-935307D03*
%TD*%
%TO.C,D1555*%
X27140000Y-40287501D03*
X27460000Y-39733245D03*
%TD*%
%TO.C,D306*%
X36240000Y-7551741D03*
X36560000Y-6997485D03*
%TD*%
%TO.C,D1871*%
X25740000Y-47562115D03*
X26060000Y-47007859D03*
%TD*%
%TO.C,D507*%
X-7860000Y-13613919D03*
X-7540000Y-13059663D03*
%TD*%
%TO.C,D1964*%
X25740000Y-45137243D03*
X26060000Y-44582987D03*
%TD*%
%TO.C,D892*%
X-3660000Y-18463661D03*
X-3340000Y-17909405D03*
%TD*%
%TO.C,D2104*%
X25040000Y-41499937D03*
X25360000Y-40945681D03*
%TD*%
%TO.C,D142*%
X1940000Y-3914434D03*
X2260000Y-3360178D03*
%TD*%
%TO.C,D1698*%
X7540000Y-52411857D03*
X7860000Y-51857601D03*
%TD*%
%TO.C,D302*%
X30640000Y-7551741D03*
X30960000Y-6997485D03*
%TD*%
%TO.C,D1127*%
X13840000Y-29375581D03*
X14160000Y-28821325D03*
%TD*%
%TO.C,D1476*%
X-18360000Y-39075066D03*
X-18040000Y-38520810D03*
%TD*%
%TO.C,D720*%
X41840000Y-22100968D03*
X42160000Y-21546712D03*
%TD*%
%TO.C,D625*%
X44640000Y-24525839D03*
X44960000Y-23971583D03*
%TD*%
%TO.C,D1756*%
X-8560000Y-51199421D03*
X-8240000Y-50645165D03*
%TD*%
%TO.C,D1612*%
X-2260000Y-54836728D03*
X-1940000Y-54282472D03*
%TD*%
%TO.C,D1529*%
X-9260000Y-40287501D03*
X-8940000Y-39733245D03*
%TD*%
%TO.C,D1094*%
X32740000Y-28163146D03*
X33060000Y-27608890D03*
%TD*%
%TO.C,D2089*%
X-19060000Y-42712372D03*
X-18740000Y-42158116D03*
%TD*%
%TO.C,D707*%
X-5060000Y-23313403D03*
X-4740000Y-22759147D03*
%TD*%
%TO.C,D1049*%
X36940000Y-13613919D03*
X37260000Y-13059663D03*
%TD*%
%TO.C,D247*%
X18740000Y-6339305D03*
X19060000Y-5785049D03*
%TD*%
%TO.C,D1685*%
X25740000Y-52411857D03*
X26060000Y-51857601D03*
%TD*%
%TO.C,D1354*%
X6140000Y-35437759D03*
X6460000Y-34883503D03*
%TD*%
%TO.C,D417*%
X-3660000Y-11189048D03*
X-3340000Y-10634792D03*
%TD*%
%TO.C,D1238*%
X39040000Y-31800452D03*
X39360000Y-31246196D03*
%TD*%
%TO.C,D530*%
X47440000Y-26950710D03*
X47760000Y-26396454D03*
%TD*%
%TO.C,D390*%
X23640000Y-9976612D03*
X23960000Y-9422356D03*
%TD*%
%TO.C,D1668*%
X-15560000Y-53624292D03*
X-15240000Y-53070036D03*
%TD*%
%TO.C,D872*%
X24340000Y-18463661D03*
X24660000Y-17909405D03*
%TD*%
%TO.C,D1174*%
X14540000Y-30588017D03*
X14860000Y-30033761D03*
%TD*%
%TO.C,D1301*%
X-2960000Y-34225323D03*
X-2640000Y-33671067D03*
%TD*%
%TO.C,D354*%
X38340000Y-8764176D03*
X38660000Y-8209920D03*
%TD*%
%TO.C,D1091*%
X28540000Y-28163146D03*
X28860000Y-27608890D03*
%TD*%
%TO.C,D605*%
X7540000Y-25738274D03*
X7860000Y-25184018D03*
%TD*%
%TO.C,D1916*%
X27840000Y-46349679D03*
X28160000Y-45795423D03*
%TD*%
%TO.C,D1812*%
X-21860000Y-49986986D03*
X-21540000Y-49432730D03*
%TD*%
%TO.C,D1659*%
X-2960000Y-53624292D03*
X-2640000Y-53070036D03*
%TD*%
%TO.C,D1288*%
X43940000Y-33012888D03*
X44260000Y-32458632D03*
%TD*%
%TO.C,D1389*%
X-9960000Y-36650194D03*
X-9640000Y-36095938D03*
%TD*%
%TO.C,D402*%
X40440000Y-9976612D03*
X40760000Y-9422356D03*
%TD*%
%TO.C,D1610*%
X540000Y-54836728D03*
X860000Y-54282472D03*
%TD*%
%TO.C,D1609*%
X1940000Y-54836728D03*
X2260000Y-54282472D03*
%TD*%
%TO.C,D1927*%
X12440000Y-46349679D03*
X12760000Y-45795423D03*
%TD*%
%TO.C,D42*%
X57240000Y-277128D03*
X57560000Y277128D03*
%TD*%
%TO.C,D1782*%
X20140000Y-49986986D03*
X20460000Y-49432730D03*
%TD*%
%TO.C,D2026*%
X4040000Y-43924808D03*
X4360000Y-43370552D03*
%TD*%
%TO.C,D882*%
X10340000Y-18463661D03*
X10660000Y-17909405D03*
%TD*%
%TO.C,D1746*%
X5440000Y-51199421D03*
X5760000Y-50645165D03*
%TD*%
%TO.C,D32*%
X43240000Y-277128D03*
X43560000Y277128D03*
%TD*%
%TO.C,D974*%
X11740000Y-16038790D03*
X12060000Y-15484534D03*
%TD*%
%TO.C,D278*%
X-2960000Y-7551741D03*
X-2640000Y-6997485D03*
%TD*%
M02*
