%TF.GenerationSoftware,KiCad,Pcbnew,8.0.8*%
%TF.CreationDate,2025-03-26T10:56:16-07:00*%
%TF.ProjectId,led_mapper_850,6c65645f-6d61-4707-9065-725f3835302e,rev?*%
%TF.SameCoordinates,Original*%
%TF.FileFunction,Copper,L3,Inr*%
%TF.FilePolarity,Positive*%
%FSLAX46Y46*%
G04 Gerber Fmt 4.6, Leading zero omitted, Abs format (unit mm)*
G04 Created by KiCad (PCBNEW 8.0.8) date 2025-03-26 10:56:16*
%MOMM*%
%LPD*%
G01*
G04 APERTURE LIST*
%TA.AperFunction,ViaPad*%
%ADD10C,0.600000*%
%TD*%
%TA.AperFunction,Conductor*%
%ADD11C,0.200000*%
%TD*%
G04 APERTURE END LIST*
D10*
%TO.N,/P24*%
X19062000Y-21518014D03*
X26062000Y-9393658D03*
X62462000Y-2119045D03*
X47762000Y-27580192D03*
X54762000Y-15455836D03*
X2262000Y-50616467D03*
X51962000Y-20305578D03*
X29562000Y-3331480D03*
X43562000Y-34854805D03*
X37262000Y-45766725D03*
X39362000Y-42129418D03*
X49862000Y-23942885D03*
X30962000Y-906609D03*
X5062000Y-45766725D03*
X35162000Y-49404032D03*
X42862000Y-36067240D03*
X21862000Y-16668271D03*
X44262000Y-33642369D03*
X40762000Y-39704547D03*
X9262000Y-38492112D03*
X36562000Y-46979161D03*
X25362000Y-10606094D03*
X17662000Y-23942885D03*
X33762000Y-51828903D03*
X162000Y-54253774D03*
X16262000Y-26367756D03*
X24662000Y-11818529D03*
X20462000Y-19093143D03*
X33062000Y-53041338D03*
X42162000Y-37279676D03*
X14162000Y-30005063D03*
X10662000Y-36067240D03*
X30262000Y-2119045D03*
X41462000Y-38492112D03*
X55462000Y-14243400D03*
X862000Y-53041338D03*
X4362000Y-46979161D03*
X61062000Y-4543916D03*
X40062000Y-40916983D03*
X58262000Y-9393658D03*
X38662000Y-43341854D03*
X49162000Y-25155320D03*
X18362000Y-22730449D03*
X23262000Y-14243400D03*
X58962000Y-8181222D03*
X48462000Y-26367756D03*
X6462000Y-43341854D03*
X57562000Y-10606094D03*
X28862000Y-4543916D03*
X9962000Y-37279676D03*
X7862000Y-40916983D03*
X32362000Y-54253774D03*
X2962000Y-49404032D03*
X27462000Y-6968787D03*
X46362000Y-30005063D03*
X19762000Y-20305578D03*
X35862000Y-48191596D03*
X23962000Y-13030965D03*
X45662000Y-31217498D03*
X14862000Y-28792627D03*
X8562000Y-39704547D03*
X22562000Y-15455836D03*
X56862000Y-11818529D03*
X12062000Y-33642369D03*
X63162000Y-906609D03*
X59662000Y-6968787D03*
X7162000Y-42129418D03*
X61762000Y-3331480D03*
X16962000Y-25155320D03*
X3662000Y-48191596D03*
X60362000Y-5756351D03*
X13462000Y-31217498D03*
X11362000Y-34854805D03*
X63862000Y305826D03*
X28162000Y-5756351D03*
X5762000Y-44554289D03*
X56162000Y-13030965D03*
X47062000Y-28792627D03*
X12762000Y-32429934D03*
X26762000Y-8181222D03*
X44962000Y-32429934D03*
X37962000Y-44554289D03*
X54062000Y-16668271D03*
X51262000Y-21518014D03*
X34462000Y-50616467D03*
X21162000Y-17880707D03*
X59914894Y-38021772D03*
X52662000Y-19093143D03*
X50562000Y-22730449D03*
X1562000Y-51828903D03*
X53362000Y-17880707D03*
%TO.N,/P1*%
X30962000Y-3331480D03*
X14862000Y-31217498D03*
X-20838000Y-37279676D03*
X4362000Y-49404032D03*
X-13838000Y-25155320D03*
X-1938000Y-4543916D03*
X22562000Y-17880707D03*
X31662000Y-2119045D03*
X-4738000Y-9393658D03*
X-14538000Y-26367756D03*
X-18038000Y-32429934D03*
X26062000Y-11818529D03*
X-13138000Y-23942885D03*
X7862000Y-43341854D03*
X5762000Y-46979161D03*
X-7538000Y-14243400D03*
X-10338000Y-19093143D03*
X8562000Y-42129418D03*
X3662000Y-50616467D03*
X-2638000Y-5756351D03*
X25362000Y-13030965D03*
X23262000Y-16668271D03*
X9262000Y-40916983D03*
X-27838000Y-49404032D03*
X-6838000Y-13030965D03*
X20462000Y-21518014D03*
X-9638000Y-17880707D03*
X34651924Y-55698524D03*
X12762000Y-34854805D03*
X-22938000Y-40916983D03*
X-11038000Y-20305578D03*
X2962000Y-51828903D03*
X-15938000Y-28792627D03*
X-16638000Y-30005063D03*
X162000Y-906609D03*
X21162000Y-20305578D03*
X19062000Y-23942885D03*
X19762000Y-22730449D03*
X29562000Y-5756351D03*
X28162000Y-8181222D03*
X28862000Y-6968787D03*
X-22238000Y-39704547D03*
X6462000Y-45766725D03*
X13462000Y-33642369D03*
X11362000Y-37279676D03*
X27462000Y-9393658D03*
X2262000Y-53041338D03*
X-12438000Y-22730449D03*
X-25038000Y-44554289D03*
X-29938000Y-53041338D03*
X-8938000Y-16668271D03*
X10662000Y-38492112D03*
X-20138000Y-36067240D03*
X-28538000Y-50616467D03*
X18362000Y-25155320D03*
X-15238000Y-27580192D03*
X32362000Y-906609D03*
X24662000Y-14243400D03*
X-6138000Y-11818529D03*
X16262000Y-28792627D03*
X-538000Y-2119045D03*
X-11738000Y-21518014D03*
X-21538000Y-38492112D03*
X12062000Y-36067240D03*
X-27138000Y-48191596D03*
X-29238000Y-51828903D03*
X-17338000Y-31217498D03*
X-18738000Y-33642369D03*
X7162000Y-44554289D03*
X26762000Y-10606094D03*
X-3338000Y-6968787D03*
X-23638000Y-42129418D03*
X-25738000Y-45766725D03*
X-26438000Y-46979161D03*
X-8238000Y-15455836D03*
X21862000Y-19093143D03*
X16962000Y-27580192D03*
X9962000Y-39704547D03*
X14162000Y-32429934D03*
X862000Y305826D03*
X30262000Y-4543916D03*
X23962000Y-15455836D03*
X-19438000Y-34854805D03*
X-24338000Y-43341854D03*
X5062000Y-48191596D03*
X-5438000Y-10606094D03*
X33062000Y305826D03*
X-1238000Y-3331480D03*
X-4038000Y-8181222D03*
X-30638000Y-54253774D03*
X15562000Y-30005063D03*
%TO.N,/P2*%
X162000Y-3331480D03*
X-20138000Y-38492112D03*
X-16638000Y-32429934D03*
X9962000Y-42129418D03*
X-25038000Y-46979161D03*
X-10338000Y-21518014D03*
X-20838000Y-39704547D03*
X5762000Y-49404032D03*
X-24338000Y-45766725D03*
X862000Y-2119045D03*
X-21538000Y-40916983D03*
X20462000Y-23942885D03*
X-13838000Y-27580192D03*
X-11738000Y-23942885D03*
X-26438000Y-49404032D03*
X14162000Y-34854805D03*
X16262000Y-31217498D03*
X31662000Y-4543916D03*
X-8238000Y-17880707D03*
X22562000Y-20305578D03*
X-1238000Y-5756351D03*
X17662000Y-28792627D03*
X9262000Y-43341854D03*
X25362000Y-15455836D03*
X-22938000Y-43341854D03*
X-22238000Y-42129418D03*
X-27838000Y-51828903D03*
X-2638000Y-8181222D03*
X30962000Y-5756351D03*
X23962000Y-17880707D03*
X7162000Y-46979161D03*
X16962000Y-30005063D03*
X29562000Y-8181222D03*
X-13138000Y-26367756D03*
X-9638000Y-20305578D03*
X24662000Y-16668271D03*
X33762000Y-906609D03*
X2262000Y305826D03*
X18362000Y-27580192D03*
X-4738000Y-11818529D03*
X14862000Y-33642369D03*
X-18738000Y-36067240D03*
X-4038000Y-10606094D03*
X17662000Y-26367756D03*
X10662000Y-40916983D03*
X21862000Y-21518014D03*
X-15238000Y-30005063D03*
X-27138000Y-50616467D03*
X33062000Y-2119045D03*
X-8938000Y-19093143D03*
X-23638000Y-44554289D03*
X-28538000Y-53041338D03*
X-3338000Y-9393658D03*
X28862000Y-9393658D03*
X-25738000Y-48191596D03*
X-7538000Y-16668271D03*
X-15938000Y-31217498D03*
X8562000Y-44554289D03*
X-1938000Y-6968787D03*
X21162000Y-22730449D03*
X-5438000Y-13030965D03*
X7862000Y-45766725D03*
X-19438000Y-37279676D03*
X5062000Y-50616467D03*
X23262000Y-19093143D03*
X-6838000Y-15455836D03*
X-18038000Y-34854805D03*
X30262000Y-6968787D03*
X28162000Y-10606094D03*
X34462000Y305826D03*
X26762000Y-13030965D03*
X1562000Y-54253774D03*
X12762000Y-37279676D03*
X4362000Y-51828903D03*
X-12438000Y-25155320D03*
X-538000Y-4543916D03*
X-17338000Y-33642369D03*
X-29238000Y-54253774D03*
X-6138000Y-14243400D03*
X1562000Y-906609D03*
X32362000Y-3331480D03*
X-11038000Y-22730449D03*
X-14538000Y-28792627D03*
X26062000Y-14243400D03*
X12062000Y-38492112D03*
X13462000Y-36067240D03*
X15562000Y-32429934D03*
X6462000Y-48191596D03*
X35921924Y-53498818D03*
%TO.N,/P3*%
X-7538000Y-19093143D03*
X34462000Y-2119045D03*
X-20138000Y-40916983D03*
X-24338000Y-48191596D03*
X2962000Y-906609D03*
X31662000Y-6968787D03*
X30962000Y-8181222D03*
X162000Y-5756351D03*
X-25738000Y-50616467D03*
X-13138000Y-28792627D03*
X1562000Y-3331480D03*
X-21538000Y-43341854D03*
X15562000Y-34854805D03*
X30262000Y-9393658D03*
X27462000Y-14243400D03*
X32362000Y-5756351D03*
X-25038000Y-49404032D03*
X-2638000Y-10606094D03*
X11362000Y-42129418D03*
X3662000Y-53041338D03*
X7862000Y-48191596D03*
X-27138000Y-53041338D03*
X-15238000Y-32429934D03*
X14862000Y-36067240D03*
X-1938000Y-9393658D03*
X26762000Y-15455836D03*
X-15938000Y-33642369D03*
X-22238000Y-44554289D03*
X-19438000Y-39704547D03*
X33062000Y-4543916D03*
X-8238000Y-20305578D03*
X-3338000Y-11818529D03*
X-5438000Y-15455836D03*
X28162000Y-13030965D03*
X-16638000Y-34854805D03*
X18362000Y-30005063D03*
X11362000Y-39704547D03*
X-22938000Y-45766725D03*
X19062000Y-26367756D03*
X-12438000Y-27580192D03*
X-11738000Y-26367756D03*
X2962000Y-54253774D03*
X-14538000Y-31217498D03*
X33762000Y-3331480D03*
X-6138000Y-16668271D03*
X35862000Y305826D03*
X-23638000Y-46979161D03*
X16262000Y-33642369D03*
X-6838000Y-17880707D03*
X6462000Y-50616467D03*
X-1238000Y-8181222D03*
X12062000Y-40916983D03*
X19762000Y-25155320D03*
X9962000Y-44554289D03*
X-10338000Y-23942885D03*
X24662000Y-19093143D03*
X862000Y-4543916D03*
X9262000Y-45766725D03*
X16962000Y-32429934D03*
X19062000Y-28792627D03*
X-8938000Y-21518014D03*
X-18038000Y-37279676D03*
X2262000Y-2119045D03*
X27462000Y-11818529D03*
X8562000Y-46979161D03*
X37191924Y-51299115D03*
X14162000Y-37279676D03*
X-26438000Y-51828903D03*
X26062000Y-16668271D03*
X23262000Y-21518014D03*
X-4738000Y-14243400D03*
X17662000Y-31217498D03*
X3662000Y305826D03*
X-11038000Y-25155320D03*
X-4038000Y-13030965D03*
X23962000Y-20305578D03*
X-9638000Y-22730449D03*
X22562000Y-22730449D03*
X19762000Y-27580192D03*
X-13838000Y-30005063D03*
X-18738000Y-38492112D03*
X-538000Y-6968787D03*
X-20838000Y-42129418D03*
X-27838000Y-54253774D03*
X10662000Y-43341854D03*
X7162000Y-49404032D03*
X-17338000Y-36067240D03*
X25362000Y-17880707D03*
X35162000Y-906609D03*
%TO.N,/P4*%
X9962000Y-46979161D03*
X28862000Y-11818529D03*
X21162000Y-27580192D03*
X29562000Y-13030965D03*
X-2638000Y-13030965D03*
X33762000Y-5756351D03*
X20462000Y-26367756D03*
X-10338000Y-26367756D03*
X-5438000Y-17880707D03*
X8562000Y-49404032D03*
X5762000Y-51828903D03*
X3662000Y-2119045D03*
X-22238000Y-46979161D03*
X-8938000Y-23942885D03*
X25362000Y-20305578D03*
X-11038000Y-27580192D03*
X27462000Y-16668271D03*
X19762000Y-30005063D03*
X38461924Y-49099411D03*
X29562000Y-10606094D03*
X-23638000Y-49404032D03*
X26762000Y-17880707D03*
X16962000Y-34854805D03*
X34462000Y-4543916D03*
X-16638000Y-37279676D03*
X-24338000Y-50616467D03*
X-20138000Y-43341854D03*
X17662000Y-33642369D03*
X-21538000Y-45766725D03*
X162000Y-8181222D03*
X21162000Y-25155320D03*
X24662000Y-21518014D03*
X9262000Y-48191596D03*
X13462000Y-40916983D03*
X-4038000Y-15455836D03*
X-13838000Y-32429934D03*
X19062000Y-31217498D03*
X5062000Y305826D03*
X-1938000Y-11818529D03*
X-15938000Y-36067240D03*
X-22938000Y-48191596D03*
X-7538000Y-21518014D03*
X11362000Y-44554289D03*
X26062000Y-19093143D03*
X-13138000Y-31217498D03*
X33062000Y-6968787D03*
X12762000Y-39704547D03*
X32362000Y-8181222D03*
X-11738000Y-28792627D03*
X-17338000Y-38492112D03*
X-8238000Y-22730449D03*
X-9638000Y-25155320D03*
X-3338000Y-14243400D03*
X35162000Y-3331480D03*
X-12438000Y-30005063D03*
X12062000Y-43341854D03*
X-6138000Y-19093143D03*
X18362000Y-32429934D03*
X28862000Y-14243400D03*
X-25738000Y-53041338D03*
X-18738000Y-40916983D03*
X-25038000Y-51828903D03*
X-538000Y-9393658D03*
X-4738000Y-16668271D03*
X-1238000Y-10606094D03*
X20462000Y-28792627D03*
X10662000Y-45766725D03*
X-26438000Y-54253774D03*
X36562000Y-906609D03*
X28162000Y-15455836D03*
X-19438000Y-42129418D03*
X-15238000Y-34854805D03*
X2962000Y-3331480D03*
X-18038000Y-39704547D03*
X4362000Y-54253774D03*
X-20838000Y-44554289D03*
X12762000Y-42129418D03*
X-14538000Y-33642369D03*
X2262000Y-4543916D03*
X5062000Y-53041338D03*
X37262000Y305826D03*
X1562000Y-5756351D03*
X35862000Y-2119045D03*
X13462000Y-38492112D03*
X16262000Y-36067240D03*
X21862000Y-23942885D03*
X4362000Y-906609D03*
X862000Y-6968787D03*
X-6838000Y-20305578D03*
%TO.N,/P5*%
X-5438000Y-20305578D03*
X37262000Y-2119045D03*
X-8938000Y-26367756D03*
X39731924Y-46899706D03*
X11362000Y-46979161D03*
X21862000Y-28792627D03*
X-9638000Y-27580192D03*
X-22938000Y-50616467D03*
X-4038000Y-17880707D03*
X-3338000Y-16668271D03*
X-7538000Y-23942885D03*
X19062000Y-33642369D03*
X21162000Y-30005063D03*
X-24338000Y-53041338D03*
X28862000Y-16668271D03*
X-25038000Y-54253774D03*
X-16638000Y-39704547D03*
X-6138000Y-21518014D03*
X862000Y-9393658D03*
X2262000Y-6968787D03*
X10662000Y-48191596D03*
X-1938000Y-14243400D03*
X1562000Y-8181222D03*
X-8238000Y-25155320D03*
X6462000Y-53041338D03*
X3662000Y-4543916D03*
X-4738000Y-19093143D03*
X34462000Y-6968787D03*
X-18038000Y-42129418D03*
X27462000Y-19093143D03*
X162000Y-10606094D03*
X-22238000Y-49404032D03*
X28162000Y-17880707D03*
X26762000Y-20305578D03*
X14162000Y-39704547D03*
X37962000Y-906609D03*
X38662000Y305826D03*
X-14538000Y-36067240D03*
X-19438000Y-44554289D03*
X30962000Y-10606094D03*
X35862000Y-4543916D03*
X-12438000Y-32429934D03*
X18362000Y-34854805D03*
X5762000Y-906609D03*
X6462000Y305826D03*
X5062000Y-2119045D03*
X5762000Y-54253774D03*
X2962000Y-5756351D03*
X-20138000Y-45766725D03*
X14862000Y-38492112D03*
X30262000Y-14243400D03*
X-1238000Y-13030965D03*
X31662000Y-9393658D03*
X12762000Y-44554289D03*
X30262000Y-11818529D03*
X-15938000Y-38492112D03*
X-6838000Y-22730449D03*
X-21538000Y-48191596D03*
X-2638000Y-15455836D03*
X14862000Y-40916983D03*
X15562000Y-37279676D03*
X21862000Y-26367756D03*
X-13138000Y-33642369D03*
X7862000Y-50616467D03*
X30962000Y-13030965D03*
X-538000Y-11818529D03*
X-13838000Y-34854805D03*
X29562000Y-15455836D03*
X19762000Y-32429934D03*
X20462000Y-31217498D03*
X-15238000Y-37279676D03*
X14162000Y-42129418D03*
X-23638000Y-51828903D03*
X35162000Y-5756351D03*
X23262000Y-23942885D03*
X-18738000Y-43341854D03*
X-20838000Y-46979161D03*
X22562000Y-25155320D03*
X12062000Y-45766725D03*
X-17338000Y-40916983D03*
X22562000Y-27580192D03*
X13462000Y-43341854D03*
X36562000Y-3331480D03*
X7162000Y-51828903D03*
X23962000Y-22730449D03*
X4362000Y-3331480D03*
X-11038000Y-30005063D03*
X-11738000Y-31217498D03*
X-10338000Y-28792627D03*
%TO.N,/P6*%
X-20838000Y-49404032D03*
X20462000Y-33642369D03*
X2262000Y-9393658D03*
X-5438000Y-22730449D03*
X7162000Y-906609D03*
X14862000Y-43341854D03*
X14162000Y-44554289D03*
X29562000Y-17880707D03*
X-22238000Y-51828903D03*
X2962000Y-8181222D03*
X33762000Y-8181222D03*
X16262000Y-40916983D03*
X31662000Y-11818529D03*
X-7538000Y-26367756D03*
X23262000Y-28792627D03*
X6462000Y-2119045D03*
X-19438000Y-46979161D03*
X36562000Y-5756351D03*
X4362000Y-5756351D03*
X-12438000Y-34854805D03*
X-16638000Y-42129418D03*
X38662000Y-2119045D03*
X-23638000Y-54253774D03*
X9962000Y-49404032D03*
X40062000Y305826D03*
X23962000Y-25155320D03*
X1562000Y-10606094D03*
X-1238000Y-15455836D03*
X5062000Y-4543916D03*
X28862000Y-19093143D03*
X8562000Y-51828903D03*
X-8238000Y-27580192D03*
X-11038000Y-32429934D03*
X-13838000Y-37279676D03*
X-18738000Y-45766725D03*
X-538000Y-14243400D03*
X-21538000Y-50616467D03*
X32362000Y-10606094D03*
X13462000Y-45766725D03*
X-9638000Y-30005063D03*
X-6838000Y-25155320D03*
X17662000Y-36067240D03*
X-4038000Y-20305578D03*
X-13138000Y-36067240D03*
X21162000Y-32429934D03*
X41001924Y-44700001D03*
X-15238000Y-39704547D03*
X31662000Y-14243400D03*
X-6138000Y-23942885D03*
X26062000Y-21518014D03*
X5762000Y-3331480D03*
X21862000Y-31217498D03*
X-2638000Y-17880707D03*
X16962000Y-37279676D03*
X-20138000Y-48191596D03*
X-15938000Y-40916983D03*
X15562000Y-39704547D03*
X-4738000Y-21518014D03*
X39362000Y-906609D03*
X-17338000Y-43341854D03*
X7162000Y-54253774D03*
X12762000Y-46979161D03*
X23262000Y-26367756D03*
X33062000Y-9393658D03*
X37262000Y-4543916D03*
X24662000Y-23942885D03*
X7862000Y-53041338D03*
X9262000Y-50616467D03*
X-11738000Y-33642369D03*
X30962000Y-15455836D03*
X-1938000Y-16668271D03*
X22562000Y-30005063D03*
X30262000Y-16668271D03*
X-18038000Y-44554289D03*
X-22938000Y-53041338D03*
X3662000Y-6968787D03*
X25362000Y-22730449D03*
X-14538000Y-38492112D03*
X-8938000Y-28792627D03*
X37962000Y-3331480D03*
X23962000Y-27580192D03*
X7862000Y305826D03*
X862000Y-11818529D03*
X-10338000Y-31217498D03*
X-3338000Y-19093143D03*
X16262000Y-38492112D03*
X162000Y-13030965D03*
X32362000Y-13030965D03*
X15562000Y-42129418D03*
%TO.N,/P7*%
X-6838000Y-27580192D03*
X-1938000Y-19093143D03*
X7162000Y-3331480D03*
X8562000Y-54253774D03*
X31662000Y-16668271D03*
X40062000Y-2119045D03*
X-3338000Y-21518014D03*
X22562000Y-32429934D03*
X-4038000Y-22730449D03*
X38662000Y-4543916D03*
X-20138000Y-50616467D03*
X9262000Y305826D03*
X17662000Y-38492112D03*
X-15938000Y-43341854D03*
X33762000Y-10606094D03*
X32362000Y-15455836D03*
X35162000Y-8181222D03*
X16962000Y-42129418D03*
X33762000Y-13030965D03*
X-10338000Y-33642369D03*
X-5438000Y-25155320D03*
X34462000Y-9393658D03*
X-22238000Y-54253774D03*
X9962000Y-51828903D03*
X26762000Y-22730449D03*
X-14538000Y-40916983D03*
X-538000Y-16668271D03*
X33062000Y-14243400D03*
X862000Y-14243400D03*
X4362000Y-8181222D03*
X-17338000Y-45766725D03*
X10662000Y-50616467D03*
X-20838000Y-51828903D03*
X-8938000Y-31217498D03*
X-6138000Y-26367756D03*
X15562000Y-44554289D03*
X3662000Y-9393658D03*
X-12438000Y-37279676D03*
X-2638000Y-20305578D03*
X5762000Y-5756351D03*
X1562000Y-13030965D03*
X17662000Y-40916983D03*
X2962000Y-10606094D03*
X-8238000Y-30005063D03*
X23962000Y-30005063D03*
X42271924Y-42500297D03*
X8562000Y-906609D03*
X12062000Y-48191596D03*
X-13838000Y-39704547D03*
X-1238000Y-17880707D03*
X40762000Y-906609D03*
X6462000Y-4543916D03*
X7862000Y-2119045D03*
X28162000Y-20305578D03*
X162000Y-15455836D03*
X24662000Y-28792627D03*
X9262000Y-53041338D03*
X-18038000Y-46979161D03*
X-7538000Y-28792627D03*
X-9638000Y-32429934D03*
X-11738000Y-36067240D03*
X30962000Y-17880707D03*
X-15238000Y-42129418D03*
X-16638000Y-44554289D03*
X33062000Y-11818529D03*
X41462000Y305826D03*
X23262000Y-31217498D03*
X-21538000Y-53041338D03*
X-4738000Y-23942885D03*
X25362000Y-27580192D03*
X-11038000Y-34854805D03*
X-19438000Y-49404032D03*
X14862000Y-45766725D03*
X19062000Y-36067240D03*
X11362000Y-49404032D03*
X26062000Y-23942885D03*
X-13138000Y-38492112D03*
X-18738000Y-48191596D03*
X35862000Y-6968787D03*
X25362000Y-25155320D03*
X39362000Y-3331480D03*
X27462000Y-21518014D03*
X16262000Y-43341854D03*
X19762000Y-34854805D03*
X18362000Y-37279676D03*
X24662000Y-26367756D03*
X2262000Y-11818529D03*
X5062000Y-6968787D03*
X16962000Y-39704547D03*
%TO.N,/P8*%
X-7538000Y-31217498D03*
X-2638000Y-22730449D03*
X2962000Y-13030965D03*
X-15238000Y-44554289D03*
X-18038000Y-49404032D03*
X-4738000Y-26367756D03*
X-15938000Y-45766725D03*
X12062000Y-50616467D03*
X40762000Y-3331480D03*
X-12438000Y-39704547D03*
X12762000Y-49404032D03*
X28162000Y-22730449D03*
X-6138000Y-28792627D03*
X-13138000Y-40916983D03*
X20462000Y-36067240D03*
X26062000Y-28792627D03*
X42162000Y-906609D03*
X-6838000Y-30005063D03*
X11362000Y-51828903D03*
X162000Y-17880707D03*
X30262000Y-19093143D03*
X33762000Y-15455836D03*
X-20838000Y-54253774D03*
X36562000Y-8181222D03*
X5062000Y-9393658D03*
X29562000Y-20305578D03*
X-5438000Y-27580192D03*
X-19438000Y-51828903D03*
X-13838000Y-42129418D03*
X1562000Y-15455836D03*
X37962000Y-5756351D03*
X41462000Y-2119045D03*
X14162000Y-46979161D03*
X17662000Y-43341854D03*
X19062000Y-38492112D03*
X13462000Y-48191596D03*
X9962000Y-54253774D03*
X-16638000Y-46979161D03*
X37262000Y-6968787D03*
X-4038000Y-25155320D03*
X19062000Y-40916983D03*
X862000Y-16668271D03*
X-11038000Y-37279676D03*
X-14538000Y-43341854D03*
X3662000Y-11818529D03*
X9262000Y-2119045D03*
X25362000Y-30005063D03*
X34462000Y-11818529D03*
X10662000Y305826D03*
X-1238000Y-20305578D03*
X28862000Y-21518014D03*
X7162000Y-5756351D03*
X-1938000Y-21518014D03*
X21162000Y-34854805D03*
X18362000Y-42129418D03*
X-3338000Y-23942885D03*
X26762000Y-27580192D03*
X-18738000Y-50616467D03*
X9962000Y-906609D03*
X33062000Y-16668271D03*
X6462000Y-6968787D03*
X5762000Y-8181222D03*
X4362000Y-10606094D03*
X-538000Y-19093143D03*
X35862000Y-9393658D03*
X43541924Y-40300592D03*
X26062000Y-26367756D03*
X21862000Y-33642369D03*
X10662000Y-53041338D03*
X-10338000Y-36067240D03*
X18362000Y-39704547D03*
X-9638000Y-34854805D03*
X19762000Y-37279676D03*
X16962000Y-44554289D03*
X7862000Y-4543916D03*
X8562000Y-3331480D03*
X-20138000Y-53041338D03*
X-8238000Y-32429934D03*
X42862000Y305826D03*
X2262000Y-14243400D03*
X35162000Y-10606094D03*
X34462000Y-14243400D03*
X-17338000Y-48191596D03*
X27462000Y-23942885D03*
X-8938000Y-33642369D03*
X24662000Y-31217498D03*
X26762000Y-25155320D03*
X-11738000Y-38492112D03*
X35162000Y-13030965D03*
%TO.N,/P9*%
X21862000Y-36067240D03*
X28862000Y-23942885D03*
X38662000Y-6968787D03*
X19762000Y-39704547D03*
X30962000Y-20305578D03*
X-17338000Y-50616467D03*
X37962000Y-8181222D03*
X-18038000Y-51828903D03*
X7862000Y-6968787D03*
X-1238000Y-22730449D03*
X32362000Y-17880707D03*
X27462000Y-28792627D03*
X20462000Y-38492112D03*
X31662000Y-19093143D03*
X36562000Y-13030965D03*
X4362000Y-13030965D03*
X-11038000Y-39704547D03*
X-1938000Y-23942885D03*
X-10338000Y-38492112D03*
X-6138000Y-31217498D03*
X11362000Y-54253774D03*
X9962000Y-3331480D03*
X36562000Y-10606094D03*
X22562000Y-34854805D03*
X15562000Y-46979161D03*
X-4038000Y-27580192D03*
X19062000Y-43341854D03*
X13462000Y-50616467D03*
X6462000Y-9393658D03*
X8562000Y-5756351D03*
X-16638000Y-49404032D03*
X-4738000Y-28792627D03*
X-538000Y-21518014D03*
X-12438000Y-42129418D03*
X37262000Y-9393658D03*
X28162000Y-25155320D03*
X44811924Y-38100888D03*
X40062000Y-4543916D03*
X39362000Y-5756351D03*
X-2638000Y-25155320D03*
X28162000Y-27580192D03*
X35862000Y-14243400D03*
X20462000Y-40916983D03*
X12062000Y305826D03*
X-11738000Y-40916983D03*
X5062000Y-11818529D03*
X11362000Y-906609D03*
X-8238000Y-34854805D03*
X14862000Y-48191596D03*
X23262000Y-33642369D03*
X19762000Y-42129418D03*
X10662000Y-2119045D03*
X-15938000Y-48191596D03*
X2962000Y-15455836D03*
X23962000Y-32429934D03*
X-15238000Y-46979161D03*
X-5438000Y-30005063D03*
X12762000Y-51828903D03*
X26762000Y-30005063D03*
X2262000Y-16668271D03*
X-19438000Y-54253774D03*
X43562000Y-906609D03*
X162000Y-20305578D03*
X29562000Y-22730449D03*
X5762000Y-10606094D03*
X7162000Y-8181222D03*
X-6838000Y-32429934D03*
X16262000Y-45766725D03*
X862000Y-19093143D03*
X44262000Y305826D03*
X30262000Y-21518014D03*
X21162000Y-37279676D03*
X-14538000Y-45766725D03*
X-13838000Y-44554289D03*
X-13138000Y-43341854D03*
X42862000Y-2119045D03*
X-7538000Y-33642369D03*
X-3338000Y-26367756D03*
X-8938000Y-36067240D03*
X3662000Y-14243400D03*
X27462000Y-26367756D03*
X-18738000Y-53041338D03*
X35862000Y-11818529D03*
X9262000Y-4543916D03*
X35162000Y-15455836D03*
X14162000Y-49404032D03*
X-9638000Y-37279676D03*
X1562000Y-17880707D03*
X12062000Y-53041338D03*
%TO.N,/P10*%
X13462000Y305826D03*
X-8938000Y-38492112D03*
X14162000Y-51828903D03*
X21862000Y-38492112D03*
X162000Y-22730449D03*
X30262000Y-23942885D03*
X12762000Y-54253774D03*
X28862000Y-26367756D03*
X30962000Y-22730449D03*
X21162000Y-39704547D03*
X21862000Y-40916983D03*
X12062000Y-2119045D03*
X32362000Y-20305578D03*
X23262000Y-36067240D03*
X37962000Y-10606094D03*
X-15238000Y-49404032D03*
X-538000Y-23942885D03*
X33062000Y-19093143D03*
X31662000Y-21518014D03*
X23962000Y-34854805D03*
X38662000Y-9393658D03*
X45662000Y305826D03*
X862000Y-21518014D03*
X-1938000Y-26367756D03*
X25362000Y-32429934D03*
X-11038000Y-42129418D03*
X33762000Y-17880707D03*
X-4038000Y-30005063D03*
X9962000Y-5756351D03*
X-18038000Y-54253774D03*
X46081924Y-35901183D03*
X40062000Y-6968787D03*
X-11738000Y-43341854D03*
X10662000Y-4543916D03*
X5062000Y-14243400D03*
X6462000Y-11818529D03*
X3662000Y-16668271D03*
X41462000Y-4543916D03*
X42162000Y-3331480D03*
X44962000Y-906609D03*
X-12438000Y-44554289D03*
X-13838000Y-46979161D03*
X7162000Y-10606094D03*
X18362000Y-44554289D03*
X2262000Y-19093143D03*
X16962000Y-46979161D03*
X22562000Y-37279676D03*
X2962000Y-17880707D03*
X15562000Y-49404032D03*
X39362000Y-8181222D03*
X-8238000Y-37279676D03*
X5762000Y-13030965D03*
X29562000Y-25155320D03*
X26062000Y-31217498D03*
X37962000Y-13030965D03*
X7862000Y-9393658D03*
X4362000Y-15455836D03*
X16262000Y-48191596D03*
X-9638000Y-39704547D03*
X40762000Y-5756351D03*
X11362000Y-3331480D03*
X14862000Y-50616467D03*
X-6138000Y-33642369D03*
X-10338000Y-40916983D03*
X-4738000Y-31217498D03*
X8562000Y-8181222D03*
X1562000Y-20305578D03*
X24662000Y-33642369D03*
X13462000Y-53041338D03*
X-2638000Y-27580192D03*
X28862000Y-28792627D03*
X21162000Y-42129418D03*
X-16638000Y-51828903D03*
X-6838000Y-34854805D03*
X-3338000Y-28792627D03*
X-5438000Y-32429934D03*
X-13138000Y-45766725D03*
X37262000Y-14243400D03*
X37262000Y-11818529D03*
X34462000Y-16668271D03*
X9262000Y-6968787D03*
X-15938000Y-50616467D03*
X-17338000Y-53041338D03*
X12762000Y-906609D03*
X-1238000Y-25155320D03*
X-14538000Y-48191596D03*
X29562000Y-27580192D03*
X-7538000Y-36067240D03*
X17662000Y-45766725D03*
%TO.N,/P11*%
X35862000Y-16668271D03*
X2262000Y-21518014D03*
X-9638000Y-42129418D03*
X14862000Y-53041338D03*
X-7538000Y-38492112D03*
X24662000Y-36067240D03*
X12762000Y-3331480D03*
X47062000Y305826D03*
X14162000Y-906609D03*
X26062000Y-33642369D03*
X16262000Y-50616467D03*
X34462000Y-19093143D03*
X-14538000Y-50616467D03*
X10662000Y-6968787D03*
X8562000Y-10606094D03*
X-5438000Y-34854805D03*
X5762000Y-15455836D03*
X19762000Y-44554289D03*
X23962000Y-37279676D03*
X25362000Y-34854805D03*
X13462000Y-2119045D03*
X36562000Y-15455836D03*
X30962000Y-25155320D03*
X30962000Y-27580192D03*
X-15238000Y-51828903D03*
X12062000Y-4543916D03*
X39362000Y-13030965D03*
X-8238000Y-39704547D03*
X1562000Y-22730449D03*
X9962000Y-8181222D03*
X39362000Y-10606094D03*
X-12438000Y-46979161D03*
X-6138000Y-36067240D03*
X19062000Y-45766725D03*
X31662000Y-23942885D03*
X-1238000Y-27580192D03*
X14162000Y-54253774D03*
X162000Y-25155320D03*
X11362000Y-5756351D03*
X-16638000Y-54253774D03*
X26762000Y-32429934D03*
X7862000Y-11818529D03*
X47351924Y-33701479D03*
X44262000Y-2119045D03*
X-8938000Y-40916983D03*
X17662000Y-48191596D03*
X42162000Y-5756351D03*
X35162000Y-17880707D03*
X43562000Y-3331480D03*
X-11738000Y-45766725D03*
X6462000Y-14243400D03*
X30262000Y-26367756D03*
X41462000Y-6968787D03*
X22562000Y-39704547D03*
X-4738000Y-33642369D03*
X20462000Y-43341854D03*
X-13838000Y-49404032D03*
X7162000Y-13030965D03*
X-13138000Y-48191596D03*
X33062000Y-21518014D03*
X38662000Y-11818529D03*
X18362000Y-46979161D03*
X-6838000Y-37279676D03*
X32362000Y-22730449D03*
X-3338000Y-31217498D03*
X40062000Y-9393658D03*
X-2638000Y-30005063D03*
X-15938000Y-53041338D03*
X40762000Y-8181222D03*
X16962000Y-49404032D03*
X-538000Y-26367756D03*
X-11038000Y-44554289D03*
X-1938000Y-28792627D03*
X862000Y-23942885D03*
X5062000Y-16668271D03*
X4362000Y-17880707D03*
X23262000Y-40916983D03*
X33762000Y-20305578D03*
X3662000Y-19093143D03*
X-4038000Y-32429934D03*
X-10338000Y-43341854D03*
X27462000Y-31217498D03*
X2962000Y-20305578D03*
X42862000Y-4543916D03*
X15562000Y-51828903D03*
X9262000Y-9393658D03*
X23262000Y-38492112D03*
X14862000Y305826D03*
X28162000Y-30005063D03*
%TO.N,/P12*%
X5762000Y-17880707D03*
X24662000Y-38492112D03*
X27462000Y-33642369D03*
X43562000Y-5756351D03*
X-13838000Y-51828903D03*
X12762000Y-5756351D03*
X44262000Y-4543916D03*
X48621924Y-31501774D03*
X40762000Y-10606094D03*
X-8238000Y-42129418D03*
X31662000Y-26367756D03*
X-10338000Y-45766725D03*
X14862000Y-2119045D03*
X20462000Y-45766725D03*
X28862000Y-31217498D03*
X-8938000Y-43341854D03*
X162000Y-27580192D03*
X15562000Y-54253774D03*
X-6138000Y-38492112D03*
X-11738000Y-48191596D03*
X-14538000Y-53041338D03*
X46362000Y-906609D03*
X35162000Y-20305578D03*
X33762000Y-22730449D03*
X30262000Y-28792627D03*
X-12438000Y-49404032D03*
X862000Y-26367756D03*
X3662000Y-21518014D03*
X9262000Y-11818529D03*
X17662000Y-50616467D03*
X34462000Y-21518014D03*
X-11038000Y-46979161D03*
X-4738000Y-36067240D03*
X37962000Y-15455836D03*
X26062000Y-36067240D03*
X44962000Y-3331480D03*
X6462000Y-16668271D03*
X-3338000Y-33642369D03*
X-2638000Y-32429934D03*
X-1938000Y-31217498D03*
X32362000Y-25155320D03*
X45662000Y-2119045D03*
X9962000Y-10606094D03*
X1562000Y-25155320D03*
X16262000Y305826D03*
X-15238000Y-54253774D03*
X-1238000Y-30005063D03*
X-7538000Y-40916983D03*
X13462000Y-4543916D03*
X2262000Y-23942885D03*
X41462000Y-9393658D03*
X15562000Y-906609D03*
X7162000Y-15455836D03*
X8562000Y-13030965D03*
X25362000Y-37279676D03*
X19062000Y-48191596D03*
X12062000Y-6968787D03*
X28162000Y-32429934D03*
X26762000Y-34854805D03*
X-4038000Y-34854805D03*
X21162000Y-44554289D03*
X4362000Y-20305578D03*
X-538000Y-28792627D03*
X18362000Y-49404032D03*
X7862000Y-14243400D03*
X-5438000Y-37279676D03*
X16262000Y-53041338D03*
X42862000Y-6968787D03*
X35862000Y-19093143D03*
X14162000Y-3331480D03*
X33062000Y-23942885D03*
X11362000Y-8181222D03*
X-6838000Y-39704547D03*
X16962000Y-51828903D03*
X22562000Y-42129418D03*
X37262000Y-16668271D03*
X21862000Y-43341854D03*
X19762000Y-46979161D03*
X2962000Y-22730449D03*
X29562000Y-30005063D03*
X38662000Y-14243400D03*
X42162000Y-8181222D03*
X5062000Y-19093143D03*
X23962000Y-39704547D03*
X40062000Y-11818529D03*
X36562000Y-17880707D03*
X-9638000Y-44554289D03*
X-13138000Y-50616467D03*
X10662000Y-9393658D03*
%TO.N,/P13*%
X17662000Y305826D03*
X30262000Y-31217498D03*
X-4038000Y-37279676D03*
X28862000Y-33642369D03*
X5062000Y-21518014D03*
X-11738000Y-50616467D03*
X4362000Y-22730449D03*
X44262000Y-6968787D03*
X16262000Y-2119045D03*
X35162000Y-22730449D03*
X862000Y-28792627D03*
X20462000Y-48191596D03*
X-2638000Y-34854805D03*
X23262000Y-43341854D03*
X8562000Y-15455836D03*
X39362000Y-15455836D03*
X-9638000Y-46979161D03*
X162000Y-30005063D03*
X2962000Y-25155320D03*
X21862000Y-45766725D03*
X9262000Y-14243400D03*
X45944894Y-62218522D03*
X33762000Y-25155320D03*
X37262000Y-19093143D03*
X-6838000Y-42129418D03*
X16962000Y-54253774D03*
X26762000Y-37279676D03*
X11362000Y-10606094D03*
X14862000Y-4543916D03*
X43562000Y-8181222D03*
X-8238000Y-44554289D03*
X-538000Y-31217498D03*
X-3338000Y-36067240D03*
X19062000Y-50616467D03*
X32362000Y-27580192D03*
X13462000Y-6968787D03*
X6462000Y-19093143D03*
X40062000Y-14243400D03*
X-12438000Y-51828903D03*
X36562000Y-20305578D03*
X-1238000Y-32429934D03*
X-11038000Y-49404032D03*
X40762000Y-13030965D03*
X18362000Y-51828903D03*
X21162000Y-46979161D03*
X25362000Y-39704547D03*
X33062000Y-26367756D03*
X22562000Y-44554289D03*
X37962000Y-17880707D03*
X27462000Y-36067240D03*
X15562000Y-3331480D03*
X35862000Y-21518014D03*
X7162000Y-17880707D03*
X-10338000Y-48191596D03*
X-1938000Y-33642369D03*
X-5438000Y-39704547D03*
X-8938000Y-45766725D03*
X3662000Y-23942885D03*
X31662000Y-28792627D03*
X41462000Y-11818529D03*
X-7538000Y-43341854D03*
X30962000Y-30005063D03*
X48462000Y305826D03*
X17662000Y-53041338D03*
X19762000Y-49404032D03*
X44962000Y-5756351D03*
X38662000Y-16668271D03*
X34462000Y-23942885D03*
X26062000Y-38492112D03*
X12062000Y-9393658D03*
X24662000Y-40916983D03*
X42862000Y-9393658D03*
X28162000Y-34854805D03*
X47062000Y-2119045D03*
X23962000Y-42129418D03*
X42162000Y-10606094D03*
X10662000Y-11818529D03*
X-4738000Y-38492112D03*
X12762000Y-8181222D03*
X29562000Y-32429934D03*
X14162000Y-5756351D03*
X46362000Y-3331480D03*
X1562000Y-27580192D03*
X45662000Y-4543916D03*
X5762000Y-20305578D03*
X16962000Y-906609D03*
X-13138000Y-53041338D03*
X47762000Y-906609D03*
X7862000Y-16668271D03*
%TO.N,/P14*%
X9262000Y-16668271D03*
X10662000Y-14243400D03*
X13462000Y-9393658D03*
X5062000Y-23942885D03*
X42162000Y-13030965D03*
X40062000Y-16668271D03*
X39362000Y-17880707D03*
X-11038000Y-51828903D03*
X35162000Y-25155320D03*
X5762000Y-22730449D03*
X30962000Y-32429934D03*
X37962000Y-20305578D03*
X25362000Y-42129418D03*
X23962000Y-44554289D03*
X31662000Y-31217498D03*
X-6138000Y-40916983D03*
X9962000Y-13030965D03*
X33062000Y-28792627D03*
X-2638000Y-37279676D03*
X19762000Y-51828903D03*
X28162000Y-37279676D03*
X46362000Y-5756351D03*
X6462000Y-21518014D03*
X7862000Y-19093143D03*
X14162000Y-8181222D03*
X47214894Y-60018817D03*
X42862000Y-11818529D03*
X-10338000Y-50616467D03*
X18362000Y-906609D03*
X-1238000Y-34854805D03*
X7162000Y-20305578D03*
X-3338000Y-38492112D03*
X2962000Y-27580192D03*
X37262000Y-21518014D03*
X162000Y-32429934D03*
X48462000Y-2119045D03*
X862000Y-31217498D03*
X44962000Y-8181222D03*
X24662000Y-43341854D03*
X-1938000Y-36067240D03*
X-6838000Y-44554289D03*
X2262000Y-28792627D03*
X1562000Y-30005063D03*
X26762000Y-39704547D03*
X9962000Y-15455836D03*
X-5438000Y-42129418D03*
X44262000Y-9393658D03*
X19062000Y305826D03*
X41462000Y-14243400D03*
X33762000Y-27580192D03*
X35862000Y-23942885D03*
X26062000Y-40916983D03*
X17662000Y-2119045D03*
X16962000Y-3331480D03*
X40762000Y-15455836D03*
X15562000Y-5756351D03*
X-6138000Y-43341854D03*
X32362000Y-30005063D03*
X20462000Y-50616467D03*
X43562000Y-10606094D03*
X49862000Y305826D03*
X18362000Y-54253774D03*
X2262000Y-26367756D03*
X14862000Y-6968787D03*
X23262000Y-45766725D03*
X38662000Y-19093143D03*
X34462000Y-26367756D03*
X47062000Y-4543916D03*
X-8938000Y-48191596D03*
X-7538000Y-45766725D03*
X12762000Y-10606094D03*
X-8238000Y-46979161D03*
X28862000Y-36067240D03*
X8562000Y-17880707D03*
X29562000Y-34854805D03*
X21862000Y-48191596D03*
X27462000Y-38492112D03*
X36562000Y-22730449D03*
X-538000Y-33642369D03*
X16262000Y-4543916D03*
X45662000Y-6968787D03*
X-13838000Y-54253774D03*
X47762000Y-3331480D03*
X-9638000Y-49404032D03*
X19062000Y-53041338D03*
X22562000Y-46979161D03*
X30262000Y-33642369D03*
X21162000Y-49404032D03*
X49162000Y-906609D03*
%TO.N,/P15*%
X1562000Y-32429934D03*
X41462000Y-16668271D03*
X16962000Y-5756351D03*
X43562000Y-13030965D03*
X48462000Y-4543916D03*
X37962000Y-22730449D03*
X49162000Y-3331480D03*
X48484894Y-57819113D03*
X9962000Y-17880707D03*
X-5438000Y-44554289D03*
X12062000Y-14243400D03*
X29562000Y-37279676D03*
X47762000Y-5756351D03*
X23962000Y-46979161D03*
X3662000Y-26367756D03*
X47062000Y-6968787D03*
X19762000Y-906609D03*
X50562000Y-906609D03*
X2962000Y-30005063D03*
X51262000Y305826D03*
X39362000Y-20305578D03*
X-6838000Y-46979161D03*
X32362000Y-32429934D03*
X-4738000Y-43341854D03*
X-7538000Y-48191596D03*
X40762000Y-17880707D03*
X-8938000Y-50616467D03*
X19762000Y-54253774D03*
X17662000Y-4543916D03*
X40062000Y-19093143D03*
X38662000Y-21518014D03*
X30262000Y-36067240D03*
X26762000Y-42129418D03*
X12062000Y-11818529D03*
X46362000Y-8181222D03*
X21162000Y-51828903D03*
X36562000Y-25155320D03*
X18362000Y-3331480D03*
X4362000Y-25155320D03*
X10662000Y-16668271D03*
X44262000Y-11818529D03*
X16262000Y-6968787D03*
X45662000Y-9393658D03*
X31662000Y-33642369D03*
X28162000Y-39704547D03*
X-4038000Y-39704547D03*
X11362000Y-13030965D03*
X7862000Y-21518014D03*
X20462000Y305826D03*
X9262000Y-19093143D03*
X11362000Y-15455836D03*
X49862000Y-2119045D03*
X15562000Y-8181222D03*
X35862000Y-26367756D03*
X37262000Y-23942885D03*
X862000Y-33642369D03*
X44962000Y-10606094D03*
X3662000Y-28792627D03*
X22562000Y-49404032D03*
X2262000Y-31217498D03*
X33762000Y-30005063D03*
X-8238000Y-49404032D03*
X23262000Y-48191596D03*
X30962000Y-34854805D03*
X28862000Y-38492112D03*
X-11738000Y-53041338D03*
X-4738000Y-40916983D03*
X162000Y-34854805D03*
X19062000Y-2119045D03*
X25362000Y-44554289D03*
X-1238000Y-37279676D03*
X35162000Y-27580192D03*
X20462000Y-53041338D03*
X24662000Y-45766725D03*
X27462000Y-40916983D03*
X33062000Y-31217498D03*
X34462000Y-28792627D03*
X26062000Y-43341854D03*
X-6138000Y-45766725D03*
X42162000Y-15455836D03*
X-4038000Y-42129418D03*
X8562000Y-20305578D03*
X21862000Y-50616467D03*
X-12438000Y-54253774D03*
X14862000Y-9393658D03*
X4362000Y-27580192D03*
X-538000Y-36067240D03*
X42862000Y-14243400D03*
X7162000Y-22730449D03*
%TO.N,/P16*%
X-6838000Y-49404032D03*
X3662000Y-31217498D03*
X21162000Y-906609D03*
X32362000Y-34854805D03*
X-10338000Y-53041338D03*
X-3338000Y-40916983D03*
X34462000Y-31217498D03*
X-6138000Y-48191596D03*
X14162000Y-10606094D03*
X10662000Y-19093143D03*
X-1938000Y-38492112D03*
X-5438000Y-46979161D03*
X13462000Y-14243400D03*
X49162000Y-5756351D03*
X13462000Y-11818529D03*
X46362000Y-10606094D03*
X48462000Y-6968787D03*
X47062000Y-9393658D03*
X50562000Y-3331480D03*
X-9638000Y-51828903D03*
X42162000Y-17880707D03*
X-4738000Y-45766725D03*
X31662000Y-36067240D03*
X38662000Y-23942885D03*
X40762000Y-20305578D03*
X19062000Y-4543916D03*
X9962000Y-20305578D03*
X33762000Y-32429934D03*
X28162000Y-42129418D03*
X41462000Y-19093143D03*
X30262000Y-38492112D03*
X2262000Y-33642369D03*
X-3338000Y-43341854D03*
X42862000Y-16668271D03*
X37262000Y-26367756D03*
X44262000Y-14243400D03*
X51262000Y-2119045D03*
X25362000Y-46979161D03*
X26062000Y-45766725D03*
X30962000Y-37279676D03*
X20462000Y-2119045D03*
X12762000Y-13030965D03*
X16962000Y-8181222D03*
X1562000Y-34854805D03*
X12062000Y-16668271D03*
X21862000Y-53041338D03*
X27462000Y-43341854D03*
X-2638000Y-42129418D03*
X39362000Y-22730449D03*
X35162000Y-30005063D03*
X23262000Y-50616467D03*
X-2638000Y-39704547D03*
X-4038000Y-44554289D03*
X5062000Y-28792627D03*
X5062000Y-26367756D03*
X28862000Y-40916983D03*
X36562000Y-27580192D03*
X33062000Y-33642369D03*
X21162000Y-54253774D03*
X11362000Y-17880707D03*
X9262000Y-21518014D03*
X19762000Y-3331480D03*
X49862000Y-4543916D03*
X23962000Y-49404032D03*
X43562000Y-15455836D03*
X49754894Y-55619408D03*
X47762000Y-8181222D03*
X44962000Y-13030965D03*
X18362000Y-5756351D03*
X4362000Y-30005063D03*
X52662000Y305826D03*
X2962000Y-32429934D03*
X29562000Y-39704547D03*
X12762000Y-15455836D03*
X51962000Y-906609D03*
X40062000Y-21518014D03*
X-11038000Y-54253774D03*
X5762000Y-27580192D03*
X35862000Y-28792627D03*
X37962000Y-25155320D03*
X5762000Y-25155320D03*
X45662000Y-11818529D03*
X24662000Y-48191596D03*
X6462000Y-23942885D03*
X21862000Y305826D03*
X22562000Y-51828903D03*
X17662000Y-6968787D03*
X862000Y-36067240D03*
X26762000Y-44554289D03*
%TO.N,/P17*%
X5762000Y-30005063D03*
X41462000Y-21518014D03*
X-4738000Y-48191596D03*
X3662000Y-33642369D03*
X-1238000Y-39704547D03*
X53362000Y-906609D03*
X4362000Y-32429934D03*
X28162000Y-44554289D03*
X30262000Y-40916983D03*
X14862000Y-11818529D03*
X37262000Y-28792627D03*
X42162000Y-20305578D03*
X162000Y-37279676D03*
X-538000Y-38492112D03*
X32362000Y-37279676D03*
X-9638000Y-54253774D03*
X44262000Y-16668271D03*
X34462000Y-33642369D03*
X21162000Y-3331480D03*
X28862000Y-43341854D03*
X33762000Y-34854805D03*
X35162000Y-32429934D03*
X-3338000Y-45766725D03*
X7162000Y-27580192D03*
X25362000Y-49404032D03*
X38662000Y-26367756D03*
X39362000Y-25155320D03*
X14862000Y-14243400D03*
X21862000Y-2119045D03*
X7162000Y-25155320D03*
X43562000Y-17880707D03*
X50562000Y-5756351D03*
X40062000Y-23942885D03*
X26062000Y-48191596D03*
X29562000Y-42129418D03*
X5062000Y-31217498D03*
X45662000Y-14243400D03*
X19762000Y-5756351D03*
X24662000Y-50616467D03*
X35862000Y-31217498D03*
X22562000Y-906609D03*
X-1238000Y-42129418D03*
X15562000Y-10606094D03*
X48462000Y-9393658D03*
X51024894Y-53419704D03*
X51962000Y-3331480D03*
X6462000Y-28792627D03*
X-7538000Y-50616467D03*
X-1938000Y-43341854D03*
X54062000Y305826D03*
X40762000Y-22730449D03*
X-8938000Y-53041338D03*
X47762000Y-10606094D03*
X11362000Y-20305578D03*
X8562000Y-22730449D03*
X14162000Y-13030965D03*
X49162000Y-8181222D03*
X47062000Y-11818529D03*
X20462000Y-4543916D03*
X2962000Y-34854805D03*
X31662000Y-38492112D03*
X7862000Y-23942885D03*
X44962000Y-15455836D03*
X-8238000Y-51828903D03*
X16262000Y-9393658D03*
X46362000Y-13030965D03*
X51262000Y-4543916D03*
X13462000Y-16668271D03*
X27462000Y-45766725D03*
X19062000Y-6968787D03*
X6462000Y-26367756D03*
X49862000Y-6968787D03*
X23262000Y305826D03*
X52662000Y-2119045D03*
X14162000Y-15455836D03*
X-1938000Y-40916983D03*
X26762000Y-46979161D03*
X23262000Y-53041338D03*
X-2638000Y-44554289D03*
X30962000Y-39704547D03*
X23962000Y-51828903D03*
X42862000Y-19093143D03*
X22562000Y-54253774D03*
X36562000Y-30005063D03*
X12062000Y-19093143D03*
X37962000Y-27580192D03*
X-4038000Y-46979161D03*
X33062000Y-36067240D03*
X12762000Y-17880707D03*
%TO.N,/P18*%
X21862000Y-4543916D03*
X47062000Y-14243400D03*
X35862000Y-33642369D03*
X2262000Y-36067240D03*
X39362000Y-27580192D03*
X28862000Y-45766725D03*
X162000Y-39704547D03*
X23962000Y-906609D03*
X29562000Y-44554289D03*
X42862000Y-21518014D03*
X30962000Y-42129418D03*
X862000Y-38492112D03*
X1562000Y-37279676D03*
X8562000Y-25155320D03*
X43562000Y-20305578D03*
X-7538000Y-53041338D03*
X32362000Y-39704547D03*
X52662000Y-4543916D03*
X8562000Y-27580192D03*
X7162000Y-30005063D03*
X16262000Y-11818529D03*
X49162000Y-10606094D03*
X25362000Y-51828903D03*
X28162000Y-46979161D03*
X162000Y-42129418D03*
X7862000Y-26367756D03*
X-1938000Y-45766725D03*
X9962000Y-22730449D03*
X36562000Y-32429934D03*
X5762000Y-32429934D03*
X44262000Y-19093143D03*
X10662000Y-21518014D03*
X33062000Y-38492112D03*
X40062000Y-26367756D03*
X54762000Y-906609D03*
X-538000Y-43341854D03*
X31662000Y-40916983D03*
X-8238000Y-54253774D03*
X52294894Y-51219999D03*
X38662000Y-28792627D03*
X26062000Y-50616467D03*
X23262000Y-2119045D03*
X24662000Y305826D03*
X9262000Y-23942885D03*
X55462000Y305826D03*
X21162000Y-5756351D03*
X51262000Y-6968787D03*
X47762000Y-13030965D03*
X46362000Y-15455836D03*
X6462000Y-31217498D03*
X40762000Y-25155320D03*
X15562000Y-15455836D03*
X53362000Y-3331480D03*
X15562000Y-13030965D03*
X49862000Y-9393658D03*
X14162000Y-17880707D03*
X26762000Y-49404032D03*
X22562000Y-3331480D03*
X34462000Y-36067240D03*
X30262000Y-43341854D03*
X-1238000Y-44554289D03*
X45662000Y-16668271D03*
X33762000Y-37279676D03*
X18362000Y-8181222D03*
X24662000Y-53041338D03*
X44962000Y-17880707D03*
X54062000Y-2119045D03*
X35162000Y-34854805D03*
X23962000Y-54253774D03*
X17662000Y-9393658D03*
X48462000Y-11818529D03*
X41462000Y-23942885D03*
X16262000Y-14243400D03*
X7862000Y-28792627D03*
X13462000Y-19093143D03*
X5062000Y-33642369D03*
X-6138000Y-50616467D03*
X16962000Y-10606094D03*
X-2638000Y-46979161D03*
X-6838000Y-51828903D03*
X37962000Y-30005063D03*
X-538000Y-40916983D03*
X37262000Y-31217498D03*
X27462000Y-48191596D03*
X-5438000Y-49404032D03*
X42162000Y-22730449D03*
X51962000Y-5756351D03*
X14862000Y-16668271D03*
X50562000Y-8181222D03*
%TO.N,/P19*%
X-6838000Y-54253774D03*
X53564894Y-49020295D03*
X16962000Y-13030965D03*
X30262000Y-45766725D03*
X30962000Y-44554289D03*
X47062000Y-16668271D03*
X-3338000Y-48191596D03*
X29562000Y-46979161D03*
X19762000Y-8181222D03*
X45662000Y-19093143D03*
X42862000Y-23942885D03*
X9962000Y-27580192D03*
X25362000Y-54253774D03*
X49862000Y-11818529D03*
X25362000Y-906609D03*
X42162000Y-25155320D03*
X-4738000Y-50616467D03*
X37262000Y-33642369D03*
X23262000Y-4543916D03*
X34462000Y-38492112D03*
X47762000Y-15455836D03*
X-5438000Y-51828903D03*
X50562000Y-10606094D03*
X49162000Y-13030965D03*
X862000Y-40916983D03*
X27462000Y-50616467D03*
X28162000Y-49404032D03*
X37962000Y-32429934D03*
X26762000Y-51828903D03*
X39362000Y-30005063D03*
X1562000Y-39704547D03*
X52662000Y-6968787D03*
X162000Y-44554289D03*
X1562000Y-42129418D03*
X3662000Y-36067240D03*
X43562000Y-22730449D03*
X33762000Y-39704547D03*
X24662000Y-2119045D03*
X26062000Y-53041338D03*
X48462000Y-14243400D03*
X7162000Y-32429934D03*
X15562000Y-17880707D03*
X10662000Y-23942885D03*
X17662000Y-14243400D03*
X31662000Y-43341854D03*
X28862000Y-48191596D03*
X2262000Y-38492112D03*
X32362000Y-42129418D03*
X40062000Y-28792627D03*
X12762000Y-20305578D03*
X26062000Y305826D03*
X9262000Y-28792627D03*
X35162000Y-37279676D03*
X-6138000Y-53041338D03*
X40762000Y-27580192D03*
X51962000Y-8181222D03*
X17662000Y-11818529D03*
X4362000Y-34854805D03*
X55462000Y-2119045D03*
X41462000Y-26367756D03*
X-4038000Y-49404032D03*
X7862000Y-31217498D03*
X-538000Y-45766725D03*
X18362000Y-10606094D03*
X33062000Y-40916983D03*
X56862000Y305826D03*
X9962000Y-25155320D03*
X19062000Y-9393658D03*
X36562000Y-34854805D03*
X12062000Y-21518014D03*
X8562000Y-30005063D03*
X16962000Y-15455836D03*
X44962000Y-20305578D03*
X54062000Y-4543916D03*
X38662000Y-31217498D03*
X11362000Y-22730449D03*
X23962000Y-3331480D03*
X20462000Y-6968787D03*
X51262000Y-9393658D03*
X862000Y-43341854D03*
X35862000Y-36067240D03*
X9262000Y-26367756D03*
X56162000Y-906609D03*
X16262000Y-16668271D03*
X46362000Y-17880707D03*
X44262000Y-21518014D03*
X2962000Y-37279676D03*
X53362000Y-5756351D03*
X54762000Y-3331480D03*
%TO.N,/P20*%
X31662000Y-45766725D03*
X30262000Y-48191596D03*
X-1938000Y-48191596D03*
X26762000Y-54253774D03*
X34462000Y-40916983D03*
X10662000Y-28792627D03*
X-5438000Y-54253774D03*
X43562000Y-25155320D03*
X27462000Y305826D03*
X21862000Y-6968787D03*
X51262000Y-11818529D03*
X51962000Y-10606094D03*
X-2638000Y-49404032D03*
X1562000Y-44554289D03*
X19062000Y-11818529D03*
X21162000Y-8181222D03*
X44262000Y-23942885D03*
X37962000Y-34854805D03*
X32362000Y-44554289D03*
X18362000Y-13030965D03*
X5062000Y-36067240D03*
X56862000Y-2119045D03*
X10662000Y-26367756D03*
X47762000Y-17880707D03*
X47062000Y-19093143D03*
X49162000Y-15455836D03*
X-1238000Y-46979161D03*
X11362000Y-27580192D03*
X-4038000Y-51828903D03*
X28162000Y-51828903D03*
X28862000Y-50616467D03*
X25362000Y-3331480D03*
X40762000Y-30005063D03*
X9962000Y-30005063D03*
X2262000Y-40916983D03*
X45662000Y-21518014D03*
X30962000Y-46979161D03*
X14862000Y-19093143D03*
X46362000Y-20305578D03*
X35162000Y-39704547D03*
X29562000Y-49404032D03*
X42862000Y-26367756D03*
X11362000Y-25155320D03*
X41462000Y-28792627D03*
X53362000Y-8181222D03*
X54062000Y-6968787D03*
X18362000Y-15455836D03*
X36562000Y-37279676D03*
X2962000Y-39704547D03*
X57562000Y-906609D03*
X27462000Y-53041338D03*
X4362000Y-37279676D03*
X48462000Y-16668271D03*
X52662000Y-9393658D03*
X3662000Y-38492112D03*
X2962000Y-42129418D03*
X14162000Y-20305578D03*
X33062000Y-43341854D03*
X-4738000Y-53041338D03*
X55462000Y-4543916D03*
X19762000Y-10606094D03*
X12062000Y-23942885D03*
X56162000Y-3331480D03*
X38662000Y-33642369D03*
X13462000Y-21518014D03*
X22562000Y-5756351D03*
X6462000Y-33642369D03*
X-3338000Y-50616467D03*
X40062000Y-31217498D03*
X42162000Y-27580192D03*
X37262000Y-36067240D03*
X9262000Y-31217498D03*
X35862000Y-38492112D03*
X12762000Y-22730449D03*
X44962000Y-22730449D03*
X5762000Y-34854805D03*
X26762000Y-906609D03*
X33762000Y-42129418D03*
X49862000Y-14243400D03*
X54834894Y-46820590D03*
X2262000Y-43341854D03*
X58262000Y305826D03*
X50562000Y-13030965D03*
X20462000Y-9393658D03*
X26062000Y-2119045D03*
X19062000Y-14243400D03*
X17662000Y-16668271D03*
X39362000Y-32429934D03*
X54762000Y-5756351D03*
%TO.N,/P21*%
X32362000Y-46979161D03*
X42862000Y-28792627D03*
X42162000Y-30005063D03*
X-538000Y-48191596D03*
X11362000Y-30005063D03*
X47762000Y-20305578D03*
X23962000Y-5756351D03*
X-1938000Y-50616467D03*
X49162000Y-17880707D03*
X24662000Y-4543916D03*
X57562000Y-3331480D03*
X27462000Y-2119045D03*
X22562000Y-8181222D03*
X56162000Y-5756351D03*
X37262000Y-38492112D03*
X56104894Y-44620885D03*
X58962000Y-906609D03*
X162000Y-46979161D03*
X21862000Y-9393658D03*
X54062000Y-9393658D03*
X39362000Y-34854805D03*
X12762000Y-27580192D03*
X29562000Y-51828903D03*
X862000Y-45766725D03*
X28862000Y-53041338D03*
X30262000Y-50616467D03*
X56862000Y-4543916D03*
X8562000Y-32429934D03*
X52662000Y-11818529D03*
X50562000Y-15455836D03*
X54762000Y-8181222D03*
X20462000Y-11818529D03*
X4362000Y-39704547D03*
X20462000Y-14243400D03*
X-3338000Y-53041338D03*
X12762000Y-25155320D03*
X34462000Y-43341854D03*
X51962000Y-13030965D03*
X12062000Y-26367756D03*
X14162000Y-22730449D03*
X14862000Y-21518014D03*
X47062000Y-21518014D03*
X23262000Y-6968787D03*
X49862000Y-16668271D03*
X59662000Y305826D03*
X53362000Y-10606094D03*
X33062000Y-45766725D03*
X36562000Y-39704547D03*
X44962000Y-25155320D03*
X5062000Y-38492112D03*
X37962000Y-37279676D03*
X43562000Y-27580192D03*
X48462000Y-19093143D03*
X19762000Y-15455836D03*
X33762000Y-44554289D03*
X-1238000Y-49404032D03*
X13462000Y-23942885D03*
X4362000Y-42129418D03*
X5762000Y-37279676D03*
X15562000Y-20305578D03*
X44262000Y-26367756D03*
X38662000Y-36067240D03*
X12062000Y-28792627D03*
X-2638000Y-51828903D03*
X16962000Y-17880707D03*
X35862000Y-40916983D03*
X40762000Y-32429934D03*
X45662000Y-23942885D03*
X55462000Y-6968787D03*
X16262000Y-19093143D03*
X19762000Y-13030965D03*
X40062000Y-33642369D03*
X51262000Y-14243400D03*
X46362000Y-22730449D03*
X6462000Y-36067240D03*
X7862000Y-33642369D03*
X58262000Y-2119045D03*
X28162000Y-906609D03*
X28162000Y-54253774D03*
X41462000Y-31217498D03*
X-4038000Y-54253774D03*
X35162000Y-42129418D03*
X3662000Y-43341854D03*
X28862000Y305826D03*
X7162000Y-34854805D03*
X30962000Y-49404032D03*
X21162000Y-10606094D03*
X3662000Y-40916983D03*
X31662000Y-48191596D03*
%TO.N,/P22*%
X54062000Y-11818529D03*
X9262000Y-33642369D03*
X862000Y-48191596D03*
X5762000Y-39704547D03*
X26062000Y-4543916D03*
X53362000Y-13030965D03*
X40762000Y-34854805D03*
X6462000Y-38492112D03*
X50562000Y-17880707D03*
X30262000Y-53041338D03*
X57562000Y-5756351D03*
X-2638000Y-54253774D03*
X26762000Y-3331480D03*
X16262000Y-21518014D03*
X7862000Y-36067240D03*
X42162000Y-32429934D03*
X29562000Y-54253774D03*
X39362000Y-37279676D03*
X45662000Y-26367756D03*
X5062000Y-40916983D03*
X13462000Y-26367756D03*
X19062000Y-16668271D03*
X36562000Y-42129418D03*
X47062000Y-23942885D03*
X21862000Y-14243400D03*
X57374894Y-42421181D03*
X9962000Y-32429934D03*
X13462000Y-28792627D03*
X16962000Y-20305578D03*
X37262000Y-40916983D03*
X47762000Y-22730449D03*
X43562000Y-30005063D03*
X29562000Y-906609D03*
X51962000Y-15455836D03*
X2262000Y-45766725D03*
X23262000Y-9393658D03*
X14162000Y-25155320D03*
X7162000Y-37279676D03*
X49862000Y-19093143D03*
X37962000Y-39704547D03*
X30262000Y305826D03*
X33762000Y-46979161D03*
X44262000Y-28792627D03*
X-538000Y-50616467D03*
X56162000Y-8181222D03*
X48462000Y-21518014D03*
X35162000Y-44554289D03*
X35862000Y-43341854D03*
X54762000Y-10606094D03*
X-1238000Y-51828903D03*
X38662000Y-38492112D03*
X23962000Y-8181222D03*
X42862000Y-31217498D03*
X32362000Y-49404032D03*
X31662000Y-50616467D03*
X21862000Y-11818529D03*
X46362000Y-25155320D03*
X1562000Y-46979161D03*
X30962000Y-51828903D03*
X59662000Y-2119045D03*
X60362000Y-906609D03*
X2962000Y-44554289D03*
X40062000Y-36067240D03*
X5762000Y-42129418D03*
X51262000Y-16668271D03*
X14162000Y-27580192D03*
X33062000Y-48191596D03*
X34462000Y-45766725D03*
X162000Y-49404032D03*
X22562000Y-10606094D03*
X-1938000Y-53041338D03*
X61062000Y305826D03*
X17662000Y-19093143D03*
X55462000Y-9393658D03*
X14862000Y-23942885D03*
X10662000Y-31217498D03*
X44962000Y-27580192D03*
X8562000Y-34854805D03*
X18362000Y-17880707D03*
X52662000Y-14243400D03*
X58962000Y-3331480D03*
X25362000Y-5756351D03*
X15562000Y-22730449D03*
X56862000Y-6968787D03*
X58262000Y-4543916D03*
X21162000Y-13030965D03*
X49162000Y-20305578D03*
X41462000Y-33642369D03*
X24662000Y-6968787D03*
%TO.N,/P23*%
X47762000Y-25155320D03*
X42862000Y-33642369D03*
X14862000Y-26367756D03*
X18362000Y-20305578D03*
X12062000Y-31217498D03*
X34462000Y-48191596D03*
X56162000Y-10606094D03*
X10662000Y-33642369D03*
X30962000Y-54253774D03*
X-1238000Y-54253774D03*
X16962000Y-22730449D03*
X38662000Y-40916983D03*
X43562000Y-32429934D03*
X11362000Y-32429934D03*
X36562000Y-44554289D03*
X58262000Y-6968787D03*
X15562000Y-25155320D03*
X4362000Y-44554289D03*
X25362000Y-8181222D03*
X49862000Y-21518014D03*
X33762000Y-49404032D03*
X42162000Y-34854805D03*
X2262000Y-48191596D03*
X48462000Y-23942885D03*
X35162000Y-46979161D03*
X40062000Y-38492112D03*
X57562000Y-8181222D03*
X31662000Y305826D03*
X61062000Y-2119045D03*
X3662000Y-45766725D03*
X862000Y-50616467D03*
X56862000Y-9393658D03*
X24662000Y-9393658D03*
X50562000Y-20305578D03*
X40762000Y-37279676D03*
X23262000Y-11818529D03*
X45662000Y-28792627D03*
X9962000Y-34854805D03*
X7862000Y-38492112D03*
X31662000Y-53041338D03*
X44962000Y-30005063D03*
X61762000Y-906609D03*
X8562000Y-37279676D03*
X32362000Y-51828903D03*
X-538000Y-53041338D03*
X23962000Y-10606094D03*
X12762000Y-30005063D03*
X37962000Y-42129418D03*
X5062000Y-43341854D03*
X9262000Y-36067240D03*
X62462000Y305826D03*
X58644894Y-40221478D03*
X46362000Y-27580192D03*
X35862000Y-45766725D03*
X47062000Y-26367756D03*
X55462000Y-11818529D03*
X39362000Y-39704547D03*
X2962000Y-46979161D03*
X17662000Y-21518014D03*
X6462000Y-40916983D03*
X1562000Y-49404032D03*
X162000Y-51828903D03*
X49162000Y-22730449D03*
X7162000Y-39704547D03*
X51262000Y-19093143D03*
X21162000Y-15455836D03*
X16262000Y-23942885D03*
X26062000Y-6968787D03*
X59662000Y-4543916D03*
X41462000Y-36067240D03*
X26762000Y-5756351D03*
X19762000Y-17880707D03*
X37262000Y-43341854D03*
X33062000Y-50616467D03*
X28862000Y-2119045D03*
X44262000Y-31217498D03*
X15562000Y-27580192D03*
X20462000Y-16668271D03*
X53362000Y-15455836D03*
X54062000Y-14243400D03*
X52662000Y-16668271D03*
X22562000Y-13030965D03*
X28162000Y-3331480D03*
X27462000Y-4543916D03*
X51962000Y-17880707D03*
X58962000Y-5756351D03*
X54762000Y-13030965D03*
X19062000Y-19093143D03*
X60362000Y-3331480D03*
%TD*%
D11*
%TO.N,/P24*%
X47062000Y-30005063D02*
X47412000Y-30611291D01*
X30962000Y-906609D02*
X31312000Y-300392D01*
X31312000Y-300392D02*
X62812000Y-300392D01*
X47986924Y-32601627D02*
X59914894Y-38021772D01*
X46362000Y-30005063D02*
X47062000Y-30005063D01*
X47412000Y-30611291D02*
X47986924Y-32601627D01*
X62812000Y-300392D02*
X63162000Y-906609D01*
%TO.N,/P1*%
X-15938000Y-28792627D02*
X-15588000Y-28186410D01*
X15912000Y-28186410D02*
X16262000Y-28792627D01*
X-15588000Y-28186410D02*
X15912000Y-28186410D01*
%TO.N,/P2*%
X-13488000Y-26973975D02*
X18012000Y-26973975D01*
X18012000Y-26973975D02*
X18362000Y-27580192D01*
X-13838000Y-27580192D02*
X-13488000Y-26973975D01*
%TO.N,/P3*%
X18712000Y-25761539D02*
X19062000Y-26367756D01*
X-11388000Y-25761539D02*
X18712000Y-25761539D01*
X-11738000Y-26367756D02*
X-11388000Y-25761539D01*
%TO.N,/P4*%
X-9638000Y-25155320D02*
X-9288000Y-24549103D01*
X20812000Y-24549103D02*
X21162000Y-25155320D01*
X-9288000Y-24549103D02*
X20812000Y-24549103D01*
%TO.N,/P5*%
X-7538000Y-23942885D02*
X-7188000Y-23336668D01*
X-7188000Y-23336668D02*
X22912000Y-23336668D01*
X22912000Y-23336668D02*
X23262000Y-23942885D01*
%TO.N,/P6*%
X-5088000Y-22124232D02*
X25012000Y-22124232D01*
X25012000Y-22124232D02*
X25362000Y-22730449D01*
X-5438000Y-22730449D02*
X-5088000Y-22124232D01*
%TO.N,/P7*%
X-2988000Y-20911797D02*
X27112000Y-20911797D01*
X-3338000Y-21518014D02*
X-2988000Y-20911797D01*
X27112000Y-20911797D02*
X27462000Y-21518014D01*
%TO.N,/P8*%
X29212000Y-19699361D02*
X29562000Y-20305578D01*
X-888000Y-19699361D02*
X29212000Y-19699361D01*
X-1238000Y-20305578D02*
X-888000Y-19699361D01*
%TO.N,/P9*%
X31312000Y-18486926D02*
X31662000Y-19093143D01*
X1212000Y-18486926D02*
X31312000Y-18486926D01*
X862000Y-19093143D02*
X1212000Y-18486926D01*
%TO.N,/P10*%
X3312000Y-17274490D02*
X33412000Y-17274490D01*
X2962000Y-17880707D02*
X3312000Y-17274490D01*
X33412000Y-17274490D02*
X33762000Y-17880707D01*
%TO.N,/P11*%
X35512000Y-16062054D02*
X35862000Y-16668271D01*
X5412000Y-16062054D02*
X35512000Y-16062054D01*
X5062000Y-16668271D02*
X5412000Y-16062054D01*
%TO.N,/P12*%
X37612000Y-14849619D02*
X37962000Y-15455836D01*
X7512000Y-14849619D02*
X37612000Y-14849619D01*
X7162000Y-15455836D02*
X7512000Y-14849619D01*
%TO.N,/P13*%
X39712000Y-13637183D02*
X40062000Y-14243400D01*
X33412000Y-54859991D02*
X34016924Y-56798377D01*
X25362000Y-39704547D02*
X25012000Y-40310764D01*
X34016924Y-56798377D02*
X45944894Y-62218522D01*
X9612000Y-13637183D02*
X39712000Y-13637183D01*
X25012000Y-40310764D02*
X33412000Y-54859991D01*
X9262000Y-14243400D02*
X9612000Y-13637183D01*
%TO.N,/P14*%
X35286924Y-54598671D02*
X47214894Y-60018817D01*
X34112000Y-53647556D02*
X35286924Y-54598671D01*
X26762000Y-39704547D02*
X26412000Y-40310764D01*
X41812000Y-12424748D02*
X42162000Y-13030965D01*
X10312000Y-12424748D02*
X41812000Y-12424748D01*
X26412000Y-40310764D02*
X34112000Y-53647556D01*
X9962000Y-13030965D02*
X10312000Y-12424748D01*
%TO.N,/P15*%
X36556924Y-52398968D02*
X48484894Y-57819113D01*
X12062000Y-11818529D02*
X12412000Y-11212312D01*
X28162000Y-39704547D02*
X27812000Y-40310764D01*
X34812000Y-52435121D02*
X36556924Y-52398968D01*
X27812000Y-40310764D02*
X34812000Y-52435121D01*
X43912000Y-11212312D02*
X44262000Y-11818529D01*
X12412000Y-11212312D02*
X43912000Y-11212312D01*
%TO.N,/P16*%
X46012000Y-9999877D02*
X46362000Y-10606094D01*
X29562000Y-39704547D02*
X30262000Y-39704547D01*
X14512000Y-9999877D02*
X46012000Y-9999877D01*
X14162000Y-10606094D02*
X14512000Y-9999877D01*
X36212000Y-50010251D02*
X37826924Y-50199264D01*
X37826924Y-50199264D02*
X49754894Y-55619408D01*
X30262000Y-39704547D02*
X36212000Y-50010251D01*
%TO.N,/P17*%
X32362000Y-38492112D02*
X37612000Y-47585381D01*
X39096924Y-47999559D02*
X51024894Y-53419704D01*
X16612000Y-8787441D02*
X48112000Y-8787441D01*
X16262000Y-9393658D02*
X16612000Y-8787441D01*
X31662000Y-38492112D02*
X32362000Y-38492112D01*
X48112000Y-8787441D02*
X48462000Y-9393658D01*
X37612000Y-47585381D02*
X39096924Y-47999559D01*
%TO.N,/P18*%
X40366924Y-45799854D02*
X52294894Y-51219999D01*
X50212000Y-7575005D02*
X50562000Y-8181222D01*
X39012000Y-45160511D02*
X40366924Y-45799854D01*
X33762000Y-37279676D02*
X34462000Y-37279676D01*
X34462000Y-37279676D02*
X39012000Y-45160511D01*
X18712000Y-7575005D02*
X50212000Y-7575005D01*
X18362000Y-8181222D02*
X18712000Y-7575005D01*
%TO.N,/P19*%
X40412000Y-42735641D02*
X41636924Y-43600150D01*
X52312000Y-6362570D02*
X52662000Y-6968787D01*
X36562000Y-36067240D02*
X40412000Y-42735641D01*
X20812000Y-6362570D02*
X52312000Y-6362570D01*
X41636924Y-43600150D02*
X53564894Y-49020295D01*
X35862000Y-36067240D02*
X36562000Y-36067240D01*
X20462000Y-6968787D02*
X20812000Y-6362570D01*
%TO.N,/P20*%
X54412000Y-5150134D02*
X54762000Y-5756351D01*
X41812000Y-40310771D02*
X42906924Y-41400445D01*
X22912000Y-5150134D02*
X54412000Y-5150134D01*
X37962000Y-34854805D02*
X38662000Y-34854805D01*
X38662000Y-34854805D02*
X41812000Y-40310771D01*
X22562000Y-5756351D02*
X22912000Y-5150134D01*
X42906924Y-41400445D02*
X54834894Y-46820590D01*
%TO.N,/P21*%
X25012000Y-3937699D02*
X56512000Y-3937699D01*
X43212000Y-37885901D02*
X44176924Y-39200741D01*
X24662000Y-4543916D02*
X25012000Y-3937699D01*
X56512000Y-3937699D02*
X56862000Y-4543916D01*
X40762000Y-33642369D02*
X43212000Y-37885901D01*
X44176924Y-39200741D02*
X56104894Y-44620885D01*
X40062000Y-33642369D02*
X40762000Y-33642369D01*
%TO.N,/P22*%
X42162000Y-32429934D02*
X42862000Y-32429934D01*
X26762000Y-3331480D02*
X27112000Y-2725263D01*
X44612000Y-35461031D02*
X45446924Y-37001036D01*
X27112000Y-2725263D02*
X58612000Y-2725263D01*
X58612000Y-2725263D02*
X58962000Y-3331480D01*
X45446924Y-37001036D02*
X57374894Y-42421181D01*
X42862000Y-32429934D02*
X44612000Y-35461031D01*
%TO.N,/P23*%
X28862000Y-2119045D02*
X29212000Y-1512828D01*
X60712000Y-1512828D02*
X61062000Y-2119045D01*
X29212000Y-1512828D02*
X60712000Y-1512828D01*
X44262000Y-31217498D02*
X44962000Y-31217498D01*
X46012000Y-33036161D02*
X46716924Y-34801332D01*
X44962000Y-31217498D02*
X46012000Y-33036161D01*
X46716924Y-34801332D02*
X58644894Y-40221478D01*
%TD*%
M02*
