M48
; DRILL file {KiCad 8.0.8} date 2025-03-26T11:08:23-0700
; FORMAT={-:-/ absolute / metric / decimal}
; #@! TF.CreationDate,2025-03-26T11:08:23-07:00
; #@! TF.GenerationSoftware,Kicad,Pcbnew,8.0.8
; #@! TF.FileFunction,Plated,1,4,PTH
FMAT,2
METRIC
; #@! TA.AperFunction,Plated,PTH,ViaDrill
T1C0.300
%
G90
G05
T1
X-63.862Y0.306
X-63.162Y-0.907
X-62.462Y0.306
X-62.462Y-2.119
X-61.762Y-0.907
X-61.762Y-3.331
X-61.062Y0.306
X-61.062Y-2.119
X-61.062Y-4.544
X-60.362Y-0.907
X-60.362Y-3.331
X-60.362Y-5.756
X-59.915Y-38.022
X-59.662Y0.306
X-59.662Y-2.119
X-59.662Y-4.544
X-59.662Y-6.969
X-58.962Y-0.907
X-58.962Y-3.331
X-58.962Y-5.756
X-58.962Y-8.181
X-58.645Y-40.221
X-58.262Y0.306
X-58.262Y-2.119
X-58.262Y-4.544
X-58.262Y-6.969
X-58.262Y-9.394
X-57.562Y-0.907
X-57.562Y-3.331
X-57.562Y-5.756
X-57.562Y-8.181
X-57.562Y-10.606
X-57.375Y-42.421
X-56.862Y0.306
X-56.862Y-2.119
X-56.862Y-4.544
X-56.862Y-6.969
X-56.862Y-9.394
X-56.862Y-11.819
X-56.162Y-0.907
X-56.162Y-3.331
X-56.162Y-5.756
X-56.162Y-8.181
X-56.162Y-10.606
X-56.162Y-13.031
X-56.105Y-44.621
X-55.462Y0.306
X-55.462Y-2.119
X-55.462Y-4.544
X-55.462Y-6.969
X-55.462Y-9.394
X-55.462Y-11.819
X-55.462Y-14.243
X-54.835Y-46.821
X-54.762Y-0.907
X-54.762Y-3.331
X-54.762Y-5.756
X-54.762Y-8.181
X-54.762Y-10.606
X-54.762Y-13.031
X-54.762Y-15.456
X-54.062Y0.306
X-54.062Y-2.119
X-54.062Y-4.544
X-54.062Y-6.969
X-54.062Y-9.394
X-54.062Y-11.819
X-54.062Y-14.243
X-54.062Y-16.668
X-53.565Y-49.02
X-53.362Y-0.907
X-53.362Y-3.331
X-53.362Y-5.756
X-53.362Y-8.181
X-53.362Y-10.606
X-53.362Y-13.031
X-53.362Y-15.456
X-53.362Y-17.881
X-52.662Y0.306
X-52.662Y-2.119
X-52.662Y-4.544
X-52.662Y-6.969
X-52.662Y-9.394
X-52.662Y-11.819
X-52.662Y-14.243
X-52.662Y-16.668
X-52.662Y-19.093
X-52.295Y-51.22
X-51.962Y-0.907
X-51.962Y-3.331
X-51.962Y-5.756
X-51.962Y-8.181
X-51.962Y-10.606
X-51.962Y-13.031
X-51.962Y-15.456
X-51.962Y-17.881
X-51.962Y-20.306
X-51.262Y0.306
X-51.262Y-2.119
X-51.262Y-4.544
X-51.262Y-6.969
X-51.262Y-9.394
X-51.262Y-11.819
X-51.262Y-14.243
X-51.262Y-16.668
X-51.262Y-19.093
X-51.262Y-21.518
X-51.025Y-53.42
X-50.562Y-0.907
X-50.562Y-3.331
X-50.562Y-5.756
X-50.562Y-8.181
X-50.562Y-10.606
X-50.562Y-13.031
X-50.562Y-15.456
X-50.562Y-17.881
X-50.562Y-20.306
X-50.562Y-22.73
X-49.862Y0.306
X-49.862Y-2.119
X-49.862Y-4.544
X-49.862Y-6.969
X-49.862Y-9.394
X-49.862Y-11.819
X-49.862Y-14.243
X-49.862Y-16.668
X-49.862Y-19.093
X-49.862Y-21.518
X-49.862Y-23.943
X-49.755Y-55.619
X-49.162Y-0.907
X-49.162Y-3.331
X-49.162Y-5.756
X-49.162Y-8.181
X-49.162Y-10.606
X-49.162Y-13.031
X-49.162Y-15.456
X-49.162Y-17.881
X-49.162Y-20.306
X-49.162Y-22.73
X-49.162Y-25.155
X-48.622Y-31.502
X-48.485Y-57.819
X-48.462Y0.306
X-48.462Y-2.119
X-48.462Y-4.544
X-48.462Y-6.969
X-48.462Y-9.394
X-48.462Y-11.819
X-48.462Y-14.243
X-48.462Y-16.668
X-48.462Y-19.093
X-48.462Y-21.518
X-48.462Y-23.943
X-48.462Y-26.368
X-47.762Y-0.907
X-47.762Y-3.331
X-47.762Y-5.756
X-47.762Y-8.181
X-47.762Y-10.606
X-47.762Y-13.031
X-47.762Y-15.456
X-47.762Y-17.881
X-47.762Y-20.306
X-47.762Y-22.73
X-47.762Y-25.155
X-47.762Y-27.58
X-47.352Y-33.701
X-47.215Y-60.019
X-47.062Y0.306
X-47.062Y-2.119
X-47.062Y-4.544
X-47.062Y-6.969
X-47.062Y-9.394
X-47.062Y-11.819
X-47.062Y-14.243
X-47.062Y-16.668
X-47.062Y-19.093
X-47.062Y-21.518
X-47.062Y-23.943
X-47.062Y-26.368
X-47.062Y-28.793
X-46.362Y-0.907
X-46.362Y-3.331
X-46.362Y-5.756
X-46.362Y-8.181
X-46.362Y-10.606
X-46.362Y-13.031
X-46.362Y-15.456
X-46.362Y-17.881
X-46.362Y-20.306
X-46.362Y-22.73
X-46.362Y-25.155
X-46.362Y-27.58
X-46.362Y-30.005
X-46.082Y-35.901
X-45.945Y-62.219
X-45.662Y0.306
X-45.662Y-2.119
X-45.662Y-4.544
X-45.662Y-6.969
X-45.662Y-9.394
X-45.662Y-11.819
X-45.662Y-14.243
X-45.662Y-16.668
X-45.662Y-19.093
X-45.662Y-21.518
X-45.662Y-23.943
X-45.662Y-26.368
X-45.662Y-28.793
X-45.662Y-31.217
X-44.962Y-0.907
X-44.962Y-3.331
X-44.962Y-5.756
X-44.962Y-8.181
X-44.962Y-10.606
X-44.962Y-13.031
X-44.962Y-15.456
X-44.962Y-17.881
X-44.962Y-20.306
X-44.962Y-22.73
X-44.962Y-25.155
X-44.962Y-27.58
X-44.962Y-30.005
X-44.962Y-32.43
X-44.812Y-38.101
X-44.262Y0.306
X-44.262Y-2.119
X-44.262Y-4.544
X-44.262Y-6.969
X-44.262Y-9.394
X-44.262Y-11.819
X-44.262Y-14.243
X-44.262Y-16.668
X-44.262Y-19.093
X-44.262Y-21.518
X-44.262Y-23.943
X-44.262Y-26.368
X-44.262Y-28.793
X-44.262Y-31.217
X-44.262Y-33.642
X-43.562Y-0.907
X-43.562Y-3.331
X-43.562Y-5.756
X-43.562Y-8.181
X-43.562Y-10.606
X-43.562Y-13.031
X-43.562Y-15.456
X-43.562Y-17.881
X-43.562Y-20.306
X-43.562Y-22.73
X-43.562Y-25.155
X-43.562Y-27.58
X-43.562Y-30.005
X-43.562Y-32.43
X-43.562Y-34.855
X-43.542Y-40.301
X-42.862Y0.306
X-42.862Y-2.119
X-42.862Y-4.544
X-42.862Y-6.969
X-42.862Y-9.394
X-42.862Y-11.819
X-42.862Y-14.243
X-42.862Y-16.668
X-42.862Y-19.093
X-42.862Y-21.518
X-42.862Y-23.943
X-42.862Y-26.368
X-42.862Y-28.793
X-42.862Y-31.217
X-42.862Y-33.642
X-42.862Y-36.067
X-42.272Y-42.5
X-42.162Y-0.907
X-42.162Y-3.331
X-42.162Y-5.756
X-42.162Y-8.181
X-42.162Y-10.606
X-42.162Y-13.031
X-42.162Y-15.456
X-42.162Y-17.881
X-42.162Y-20.306
X-42.162Y-22.73
X-42.162Y-25.155
X-42.162Y-27.58
X-42.162Y-30.005
X-42.162Y-32.43
X-42.162Y-34.855
X-42.162Y-37.28
X-41.462Y0.306
X-41.462Y-2.119
X-41.462Y-4.544
X-41.462Y-6.969
X-41.462Y-9.394
X-41.462Y-11.819
X-41.462Y-14.243
X-41.462Y-16.668
X-41.462Y-19.093
X-41.462Y-21.518
X-41.462Y-23.943
X-41.462Y-26.368
X-41.462Y-28.793
X-41.462Y-31.217
X-41.462Y-33.642
X-41.462Y-36.067
X-41.462Y-38.492
X-41.002Y-44.7
X-40.762Y-0.907
X-40.762Y-3.331
X-40.762Y-5.756
X-40.762Y-8.181
X-40.762Y-10.606
X-40.762Y-13.031
X-40.762Y-15.456
X-40.762Y-17.881
X-40.762Y-20.306
X-40.762Y-22.73
X-40.762Y-25.155
X-40.762Y-27.58
X-40.762Y-30.005
X-40.762Y-32.43
X-40.762Y-34.855
X-40.762Y-37.28
X-40.762Y-39.705
X-40.062Y0.306
X-40.062Y-2.119
X-40.062Y-4.544
X-40.062Y-6.969
X-40.062Y-9.394
X-40.062Y-11.819
X-40.062Y-14.243
X-40.062Y-16.668
X-40.062Y-19.093
X-40.062Y-21.518
X-40.062Y-23.943
X-40.062Y-26.368
X-40.062Y-28.793
X-40.062Y-31.217
X-40.062Y-33.642
X-40.062Y-36.067
X-40.062Y-38.492
X-40.062Y-40.917
X-39.732Y-46.9
X-39.362Y-0.907
X-39.362Y-3.331
X-39.362Y-5.756
X-39.362Y-8.181
X-39.362Y-10.606
X-39.362Y-13.031
X-39.362Y-15.456
X-39.362Y-17.881
X-39.362Y-20.306
X-39.362Y-22.73
X-39.362Y-25.155
X-39.362Y-27.58
X-39.362Y-30.005
X-39.362Y-32.43
X-39.362Y-34.855
X-39.362Y-37.28
X-39.362Y-39.705
X-39.362Y-42.129
X-38.662Y0.306
X-38.662Y-2.119
X-38.662Y-4.544
X-38.662Y-6.969
X-38.662Y-9.394
X-38.662Y-11.819
X-38.662Y-14.243
X-38.662Y-16.668
X-38.662Y-19.093
X-38.662Y-21.518
X-38.662Y-23.943
X-38.662Y-26.368
X-38.662Y-28.793
X-38.662Y-31.217
X-38.662Y-33.642
X-38.662Y-36.067
X-38.662Y-38.492
X-38.662Y-40.917
X-38.662Y-43.342
X-38.462Y-49.099
X-37.962Y-0.907
X-37.962Y-3.331
X-37.962Y-5.756
X-37.962Y-8.181
X-37.962Y-10.606
X-37.962Y-13.031
X-37.962Y-15.456
X-37.962Y-17.881
X-37.962Y-20.306
X-37.962Y-22.73
X-37.962Y-25.155
X-37.962Y-27.58
X-37.962Y-30.005
X-37.962Y-32.43
X-37.962Y-34.855
X-37.962Y-37.28
X-37.962Y-39.705
X-37.962Y-42.129
X-37.962Y-44.554
X-37.262Y0.306
X-37.262Y-2.119
X-37.262Y-4.544
X-37.262Y-6.969
X-37.262Y-9.394
X-37.262Y-11.819
X-37.262Y-14.243
X-37.262Y-16.668
X-37.262Y-19.093
X-37.262Y-21.518
X-37.262Y-23.943
X-37.262Y-26.368
X-37.262Y-28.793
X-37.262Y-31.217
X-37.262Y-33.642
X-37.262Y-36.067
X-37.262Y-38.492
X-37.262Y-40.917
X-37.262Y-43.342
X-37.262Y-45.767
X-37.192Y-51.299
X-36.562Y-0.907
X-36.562Y-3.331
X-36.562Y-5.756
X-36.562Y-8.181
X-36.562Y-10.606
X-36.562Y-13.031
X-36.562Y-15.456
X-36.562Y-17.881
X-36.562Y-20.306
X-36.562Y-22.73
X-36.562Y-25.155
X-36.562Y-27.58
X-36.562Y-30.005
X-36.562Y-32.43
X-36.562Y-34.855
X-36.562Y-37.28
X-36.562Y-39.705
X-36.562Y-42.129
X-36.562Y-44.554
X-36.562Y-46.979
X-35.922Y-53.499
X-35.862Y0.306
X-35.862Y-2.119
X-35.862Y-4.544
X-35.862Y-6.969
X-35.862Y-9.394
X-35.862Y-11.819
X-35.862Y-14.243
X-35.862Y-16.668
X-35.862Y-19.093
X-35.862Y-21.518
X-35.862Y-23.943
X-35.862Y-26.368
X-35.862Y-28.793
X-35.862Y-31.217
X-35.862Y-33.642
X-35.862Y-36.067
X-35.862Y-38.492
X-35.862Y-40.917
X-35.862Y-43.342
X-35.862Y-45.767
X-35.862Y-48.192
X-35.162Y-0.907
X-35.162Y-3.331
X-35.162Y-5.756
X-35.162Y-8.181
X-35.162Y-10.606
X-35.162Y-13.031
X-35.162Y-15.456
X-35.162Y-17.881
X-35.162Y-20.306
X-35.162Y-22.73
X-35.162Y-25.155
X-35.162Y-27.58
X-35.162Y-30.005
X-35.162Y-32.43
X-35.162Y-34.855
X-35.162Y-37.28
X-35.162Y-39.705
X-35.162Y-42.129
X-35.162Y-44.554
X-35.162Y-46.979
X-35.162Y-49.404
X-34.652Y-55.699
X-34.462Y0.306
X-34.462Y-2.119
X-34.462Y-4.544
X-34.462Y-6.969
X-34.462Y-9.394
X-34.462Y-11.819
X-34.462Y-14.243
X-34.462Y-16.668
X-34.462Y-19.093
X-34.462Y-21.518
X-34.462Y-23.943
X-34.462Y-26.368
X-34.462Y-28.793
X-34.462Y-31.217
X-34.462Y-33.642
X-34.462Y-36.067
X-34.462Y-38.492
X-34.462Y-40.917
X-34.462Y-43.342
X-34.462Y-45.767
X-34.462Y-48.192
X-34.462Y-50.616
X-33.762Y-0.907
X-33.762Y-3.331
X-33.762Y-5.756
X-33.762Y-8.181
X-33.762Y-10.606
X-33.762Y-13.031
X-33.762Y-15.456
X-33.762Y-17.881
X-33.762Y-20.306
X-33.762Y-22.73
X-33.762Y-25.155
X-33.762Y-27.58
X-33.762Y-30.005
X-33.762Y-32.43
X-33.762Y-34.855
X-33.762Y-37.28
X-33.762Y-39.705
X-33.762Y-42.129
X-33.762Y-44.554
X-33.762Y-46.979
X-33.762Y-49.404
X-33.762Y-51.829
X-33.062Y0.306
X-33.062Y-2.119
X-33.062Y-4.544
X-33.062Y-6.969
X-33.062Y-9.394
X-33.062Y-11.819
X-33.062Y-14.243
X-33.062Y-16.668
X-33.062Y-19.093
X-33.062Y-21.518
X-33.062Y-23.943
X-33.062Y-26.368
X-33.062Y-28.793
X-33.062Y-31.217
X-33.062Y-33.642
X-33.062Y-36.067
X-33.062Y-38.492
X-33.062Y-40.917
X-33.062Y-43.342
X-33.062Y-45.767
X-33.062Y-48.192
X-33.062Y-50.616
X-33.062Y-53.041
X-32.362Y-0.907
X-32.362Y-3.331
X-32.362Y-5.756
X-32.362Y-8.181
X-32.362Y-10.606
X-32.362Y-13.031
X-32.362Y-15.456
X-32.362Y-17.881
X-32.362Y-20.306
X-32.362Y-22.73
X-32.362Y-25.155
X-32.362Y-27.58
X-32.362Y-30.005
X-32.362Y-32.43
X-32.362Y-34.855
X-32.362Y-37.28
X-32.362Y-39.705
X-32.362Y-42.129
X-32.362Y-44.554
X-32.362Y-46.979
X-32.362Y-49.404
X-32.362Y-51.829
X-32.362Y-54.254
X-31.662Y0.306
X-31.662Y-2.119
X-31.662Y-4.544
X-31.662Y-6.969
X-31.662Y-9.394
X-31.662Y-11.819
X-31.662Y-14.243
X-31.662Y-16.668
X-31.662Y-19.093
X-31.662Y-21.518
X-31.662Y-23.943
X-31.662Y-26.368
X-31.662Y-28.793
X-31.662Y-31.217
X-31.662Y-33.642
X-31.662Y-36.067
X-31.662Y-38.492
X-31.662Y-40.917
X-31.662Y-43.342
X-31.662Y-45.767
X-31.662Y-48.192
X-31.662Y-50.616
X-31.662Y-53.041
X-30.962Y-0.907
X-30.962Y-3.331
X-30.962Y-5.756
X-30.962Y-8.181
X-30.962Y-10.606
X-30.962Y-13.031
X-30.962Y-15.456
X-30.962Y-17.881
X-30.962Y-20.306
X-30.962Y-22.73
X-30.962Y-25.155
X-30.962Y-27.58
X-30.962Y-30.005
X-30.962Y-32.43
X-30.962Y-34.855
X-30.962Y-37.28
X-30.962Y-39.705
X-30.962Y-42.129
X-30.962Y-44.554
X-30.962Y-46.979
X-30.962Y-49.404
X-30.962Y-51.829
X-30.962Y-54.254
X-30.262Y0.306
X-30.262Y-2.119
X-30.262Y-4.544
X-30.262Y-6.969
X-30.262Y-9.394
X-30.262Y-11.819
X-30.262Y-14.243
X-30.262Y-16.668
X-30.262Y-19.093
X-30.262Y-21.518
X-30.262Y-23.943
X-30.262Y-26.368
X-30.262Y-28.793
X-30.262Y-31.217
X-30.262Y-33.642
X-30.262Y-36.067
X-30.262Y-38.492
X-30.262Y-40.917
X-30.262Y-43.342
X-30.262Y-45.767
X-30.262Y-48.192
X-30.262Y-50.616
X-30.262Y-53.041
X-29.562Y-0.907
X-29.562Y-3.331
X-29.562Y-5.756
X-29.562Y-8.181
X-29.562Y-10.606
X-29.562Y-13.031
X-29.562Y-15.456
X-29.562Y-17.881
X-29.562Y-20.306
X-29.562Y-22.73
X-29.562Y-25.155
X-29.562Y-27.58
X-29.562Y-30.005
X-29.562Y-32.43
X-29.562Y-34.855
X-29.562Y-37.28
X-29.562Y-39.705
X-29.562Y-42.129
X-29.562Y-44.554
X-29.562Y-46.979
X-29.562Y-49.404
X-29.562Y-51.829
X-29.562Y-54.254
X-28.862Y0.306
X-28.862Y-2.119
X-28.862Y-4.544
X-28.862Y-6.969
X-28.862Y-9.394
X-28.862Y-11.819
X-28.862Y-14.243
X-28.862Y-16.668
X-28.862Y-19.093
X-28.862Y-21.518
X-28.862Y-23.943
X-28.862Y-26.368
X-28.862Y-28.793
X-28.862Y-31.217
X-28.862Y-33.642
X-28.862Y-36.067
X-28.862Y-38.492
X-28.862Y-40.917
X-28.862Y-43.342
X-28.862Y-45.767
X-28.862Y-48.192
X-28.862Y-50.616
X-28.862Y-53.041
X-28.162Y-0.907
X-28.162Y-3.331
X-28.162Y-5.756
X-28.162Y-8.181
X-28.162Y-10.606
X-28.162Y-13.031
X-28.162Y-15.456
X-28.162Y-17.881
X-28.162Y-20.306
X-28.162Y-22.73
X-28.162Y-25.155
X-28.162Y-27.58
X-28.162Y-30.005
X-28.162Y-32.43
X-28.162Y-34.855
X-28.162Y-37.28
X-28.162Y-39.705
X-28.162Y-42.129
X-28.162Y-44.554
X-28.162Y-46.979
X-28.162Y-49.404
X-28.162Y-51.829
X-28.162Y-54.254
X-27.462Y0.306
X-27.462Y-2.119
X-27.462Y-4.544
X-27.462Y-6.969
X-27.462Y-9.394
X-27.462Y-11.819
X-27.462Y-14.243
X-27.462Y-16.668
X-27.462Y-19.093
X-27.462Y-21.518
X-27.462Y-23.943
X-27.462Y-26.368
X-27.462Y-28.793
X-27.462Y-31.217
X-27.462Y-33.642
X-27.462Y-36.067
X-27.462Y-38.492
X-27.462Y-40.917
X-27.462Y-43.342
X-27.462Y-45.767
X-27.462Y-48.192
X-27.462Y-50.616
X-27.462Y-53.041
X-26.762Y-0.907
X-26.762Y-3.331
X-26.762Y-5.756
X-26.762Y-8.181
X-26.762Y-10.606
X-26.762Y-13.031
X-26.762Y-15.456
X-26.762Y-17.881
X-26.762Y-20.306
X-26.762Y-22.73
X-26.762Y-25.155
X-26.762Y-27.58
X-26.762Y-30.005
X-26.762Y-32.43
X-26.762Y-34.855
X-26.762Y-37.28
X-26.762Y-39.705
X-26.762Y-42.129
X-26.762Y-44.554
X-26.762Y-46.979
X-26.762Y-49.404
X-26.762Y-51.829
X-26.762Y-54.254
X-26.062Y0.306
X-26.062Y-2.119
X-26.062Y-4.544
X-26.062Y-6.969
X-26.062Y-9.394
X-26.062Y-11.819
X-26.062Y-14.243
X-26.062Y-16.668
X-26.062Y-19.093
X-26.062Y-21.518
X-26.062Y-23.943
X-26.062Y-26.368
X-26.062Y-28.793
X-26.062Y-31.217
X-26.062Y-33.642
X-26.062Y-36.067
X-26.062Y-38.492
X-26.062Y-40.917
X-26.062Y-43.342
X-26.062Y-45.767
X-26.062Y-48.192
X-26.062Y-50.616
X-26.062Y-53.041
X-25.362Y-0.907
X-25.362Y-3.331
X-25.362Y-5.756
X-25.362Y-8.181
X-25.362Y-10.606
X-25.362Y-13.031
X-25.362Y-15.456
X-25.362Y-17.881
X-25.362Y-20.306
X-25.362Y-22.73
X-25.362Y-25.155
X-25.362Y-27.58
X-25.362Y-30.005
X-25.362Y-32.43
X-25.362Y-34.855
X-25.362Y-37.28
X-25.362Y-39.705
X-25.362Y-42.129
X-25.362Y-44.554
X-25.362Y-46.979
X-25.362Y-49.404
X-25.362Y-51.829
X-25.362Y-54.254
X-24.662Y0.306
X-24.662Y-2.119
X-24.662Y-4.544
X-24.662Y-6.969
X-24.662Y-9.394
X-24.662Y-11.819
X-24.662Y-14.243
X-24.662Y-16.668
X-24.662Y-19.093
X-24.662Y-21.518
X-24.662Y-23.943
X-24.662Y-26.368
X-24.662Y-28.793
X-24.662Y-31.217
X-24.662Y-33.642
X-24.662Y-36.067
X-24.662Y-38.492
X-24.662Y-40.917
X-24.662Y-43.342
X-24.662Y-45.767
X-24.662Y-48.192
X-24.662Y-50.616
X-24.662Y-53.041
X-23.962Y-0.907
X-23.962Y-3.331
X-23.962Y-5.756
X-23.962Y-8.181
X-23.962Y-10.606
X-23.962Y-13.031
X-23.962Y-15.456
X-23.962Y-17.881
X-23.962Y-20.306
X-23.962Y-22.73
X-23.962Y-25.155
X-23.962Y-27.58
X-23.962Y-30.005
X-23.962Y-32.43
X-23.962Y-34.855
X-23.962Y-37.28
X-23.962Y-39.705
X-23.962Y-42.129
X-23.962Y-44.554
X-23.962Y-46.979
X-23.962Y-49.404
X-23.962Y-51.829
X-23.962Y-54.254
X-23.262Y0.306
X-23.262Y-2.119
X-23.262Y-4.544
X-23.262Y-6.969
X-23.262Y-9.394
X-23.262Y-11.819
X-23.262Y-14.243
X-23.262Y-16.668
X-23.262Y-19.093
X-23.262Y-21.518
X-23.262Y-23.943
X-23.262Y-26.368
X-23.262Y-28.793
X-23.262Y-31.217
X-23.262Y-33.642
X-23.262Y-36.067
X-23.262Y-38.492
X-23.262Y-40.917
X-23.262Y-43.342
X-23.262Y-45.767
X-23.262Y-48.192
X-23.262Y-50.616
X-23.262Y-53.041
X-22.562Y-0.907
X-22.562Y-3.331
X-22.562Y-5.756
X-22.562Y-8.181
X-22.562Y-10.606
X-22.562Y-13.031
X-22.562Y-15.456
X-22.562Y-17.881
X-22.562Y-20.306
X-22.562Y-22.73
X-22.562Y-25.155
X-22.562Y-27.58
X-22.562Y-30.005
X-22.562Y-32.43
X-22.562Y-34.855
X-22.562Y-37.28
X-22.562Y-39.705
X-22.562Y-42.129
X-22.562Y-44.554
X-22.562Y-46.979
X-22.562Y-49.404
X-22.562Y-51.829
X-22.562Y-54.254
X-21.862Y0.306
X-21.862Y-2.119
X-21.862Y-4.544
X-21.862Y-6.969
X-21.862Y-9.394
X-21.862Y-11.819
X-21.862Y-14.243
X-21.862Y-16.668
X-21.862Y-19.093
X-21.862Y-21.518
X-21.862Y-23.943
X-21.862Y-26.368
X-21.862Y-28.793
X-21.862Y-31.217
X-21.862Y-33.642
X-21.862Y-36.067
X-21.862Y-38.492
X-21.862Y-40.917
X-21.862Y-43.342
X-21.862Y-45.767
X-21.862Y-48.192
X-21.862Y-50.616
X-21.862Y-53.041
X-21.162Y-0.907
X-21.162Y-3.331
X-21.162Y-5.756
X-21.162Y-8.181
X-21.162Y-10.606
X-21.162Y-13.031
X-21.162Y-15.456
X-21.162Y-17.881
X-21.162Y-20.306
X-21.162Y-22.73
X-21.162Y-25.155
X-21.162Y-27.58
X-21.162Y-30.005
X-21.162Y-32.43
X-21.162Y-34.855
X-21.162Y-37.28
X-21.162Y-39.705
X-21.162Y-42.129
X-21.162Y-44.554
X-21.162Y-46.979
X-21.162Y-49.404
X-21.162Y-51.829
X-21.162Y-54.254
X-20.462Y0.306
X-20.462Y-2.119
X-20.462Y-4.544
X-20.462Y-6.969
X-20.462Y-9.394
X-20.462Y-11.819
X-20.462Y-14.243
X-20.462Y-16.668
X-20.462Y-19.093
X-20.462Y-21.518
X-20.462Y-23.943
X-20.462Y-26.368
X-20.462Y-28.793
X-20.462Y-31.217
X-20.462Y-33.642
X-20.462Y-36.067
X-20.462Y-38.492
X-20.462Y-40.917
X-20.462Y-43.342
X-20.462Y-45.767
X-20.462Y-48.192
X-20.462Y-50.616
X-20.462Y-53.041
X-19.762Y-0.907
X-19.762Y-3.331
X-19.762Y-5.756
X-19.762Y-8.181
X-19.762Y-10.606
X-19.762Y-13.031
X-19.762Y-15.456
X-19.762Y-17.881
X-19.762Y-20.306
X-19.762Y-22.73
X-19.762Y-25.155
X-19.762Y-27.58
X-19.762Y-30.005
X-19.762Y-32.43
X-19.762Y-34.855
X-19.762Y-37.28
X-19.762Y-39.705
X-19.762Y-42.129
X-19.762Y-44.554
X-19.762Y-46.979
X-19.762Y-49.404
X-19.762Y-51.829
X-19.762Y-54.254
X-19.062Y0.306
X-19.062Y-2.119
X-19.062Y-4.544
X-19.062Y-6.969
X-19.062Y-9.394
X-19.062Y-11.819
X-19.062Y-14.243
X-19.062Y-16.668
X-19.062Y-19.093
X-19.062Y-21.518
X-19.062Y-23.943
X-19.062Y-26.368
X-19.062Y-28.793
X-19.062Y-31.217
X-19.062Y-33.642
X-19.062Y-36.067
X-19.062Y-38.492
X-19.062Y-40.917
X-19.062Y-43.342
X-19.062Y-45.767
X-19.062Y-48.192
X-19.062Y-50.616
X-19.062Y-53.041
X-18.362Y-0.907
X-18.362Y-3.331
X-18.362Y-5.756
X-18.362Y-8.181
X-18.362Y-10.606
X-18.362Y-13.031
X-18.362Y-15.456
X-18.362Y-17.881
X-18.362Y-20.306
X-18.362Y-22.73
X-18.362Y-25.155
X-18.362Y-27.58
X-18.362Y-30.005
X-18.362Y-32.43
X-18.362Y-34.855
X-18.362Y-37.28
X-18.362Y-39.705
X-18.362Y-42.129
X-18.362Y-44.554
X-18.362Y-46.979
X-18.362Y-49.404
X-18.362Y-51.829
X-18.362Y-54.254
X-17.662Y0.306
X-17.662Y-2.119
X-17.662Y-4.544
X-17.662Y-6.969
X-17.662Y-9.394
X-17.662Y-11.819
X-17.662Y-14.243
X-17.662Y-16.668
X-17.662Y-19.093
X-17.662Y-21.518
X-17.662Y-23.943
X-17.662Y-26.368
X-17.662Y-28.793
X-17.662Y-31.217
X-17.662Y-33.642
X-17.662Y-36.067
X-17.662Y-38.492
X-17.662Y-40.917
X-17.662Y-43.342
X-17.662Y-45.767
X-17.662Y-48.192
X-17.662Y-50.616
X-17.662Y-53.041
X-16.962Y-0.907
X-16.962Y-3.331
X-16.962Y-5.756
X-16.962Y-8.181
X-16.962Y-10.606
X-16.962Y-13.031
X-16.962Y-15.456
X-16.962Y-17.881
X-16.962Y-20.306
X-16.962Y-22.73
X-16.962Y-25.155
X-16.962Y-27.58
X-16.962Y-30.005
X-16.962Y-32.43
X-16.962Y-34.855
X-16.962Y-37.28
X-16.962Y-39.705
X-16.962Y-42.129
X-16.962Y-44.554
X-16.962Y-46.979
X-16.962Y-49.404
X-16.962Y-51.829
X-16.962Y-54.254
X-16.262Y0.306
X-16.262Y-2.119
X-16.262Y-4.544
X-16.262Y-6.969
X-16.262Y-9.394
X-16.262Y-11.819
X-16.262Y-14.243
X-16.262Y-16.668
X-16.262Y-19.093
X-16.262Y-21.518
X-16.262Y-23.943
X-16.262Y-26.368
X-16.262Y-28.793
X-16.262Y-31.217
X-16.262Y-33.642
X-16.262Y-36.067
X-16.262Y-38.492
X-16.262Y-40.917
X-16.262Y-43.342
X-16.262Y-45.767
X-16.262Y-48.192
X-16.262Y-50.616
X-16.262Y-53.041
X-15.562Y-0.907
X-15.562Y-3.331
X-15.562Y-5.756
X-15.562Y-8.181
X-15.562Y-10.606
X-15.562Y-13.031
X-15.562Y-15.456
X-15.562Y-17.881
X-15.562Y-20.306
X-15.562Y-22.73
X-15.562Y-25.155
X-15.562Y-27.58
X-15.562Y-30.005
X-15.562Y-32.43
X-15.562Y-34.855
X-15.562Y-37.28
X-15.562Y-39.705
X-15.562Y-42.129
X-15.562Y-44.554
X-15.562Y-46.979
X-15.562Y-49.404
X-15.562Y-51.829
X-15.562Y-54.254
X-14.862Y0.306
X-14.862Y-2.119
X-14.862Y-4.544
X-14.862Y-6.969
X-14.862Y-9.394
X-14.862Y-11.819
X-14.862Y-14.243
X-14.862Y-16.668
X-14.862Y-19.093
X-14.862Y-21.518
X-14.862Y-23.943
X-14.862Y-26.368
X-14.862Y-28.793
X-14.862Y-31.217
X-14.862Y-33.642
X-14.862Y-36.067
X-14.862Y-38.492
X-14.862Y-40.917
X-14.862Y-43.342
X-14.862Y-45.767
X-14.862Y-48.192
X-14.862Y-50.616
X-14.862Y-53.041
X-14.162Y-0.907
X-14.162Y-3.331
X-14.162Y-5.756
X-14.162Y-8.181
X-14.162Y-10.606
X-14.162Y-13.031
X-14.162Y-15.456
X-14.162Y-17.881
X-14.162Y-20.306
X-14.162Y-22.73
X-14.162Y-25.155
X-14.162Y-27.58
X-14.162Y-30.005
X-14.162Y-32.43
X-14.162Y-34.855
X-14.162Y-37.28
X-14.162Y-39.705
X-14.162Y-42.129
X-14.162Y-44.554
X-14.162Y-46.979
X-14.162Y-49.404
X-14.162Y-51.829
X-14.162Y-54.254
X-13.462Y0.306
X-13.462Y-2.119
X-13.462Y-4.544
X-13.462Y-6.969
X-13.462Y-9.394
X-13.462Y-11.819
X-13.462Y-14.243
X-13.462Y-16.668
X-13.462Y-19.093
X-13.462Y-21.518
X-13.462Y-23.943
X-13.462Y-26.368
X-13.462Y-28.793
X-13.462Y-31.217
X-13.462Y-33.642
X-13.462Y-36.067
X-13.462Y-38.492
X-13.462Y-40.917
X-13.462Y-43.342
X-13.462Y-45.767
X-13.462Y-48.192
X-13.462Y-50.616
X-13.462Y-53.041
X-12.762Y-0.907
X-12.762Y-3.331
X-12.762Y-5.756
X-12.762Y-8.181
X-12.762Y-10.606
X-12.762Y-13.031
X-12.762Y-15.456
X-12.762Y-17.881
X-12.762Y-20.306
X-12.762Y-22.73
X-12.762Y-25.155
X-12.762Y-27.58
X-12.762Y-30.005
X-12.762Y-32.43
X-12.762Y-34.855
X-12.762Y-37.28
X-12.762Y-39.705
X-12.762Y-42.129
X-12.762Y-44.554
X-12.762Y-46.979
X-12.762Y-49.404
X-12.762Y-51.829
X-12.762Y-54.254
X-12.062Y0.306
X-12.062Y-2.119
X-12.062Y-4.544
X-12.062Y-6.969
X-12.062Y-9.394
X-12.062Y-11.819
X-12.062Y-14.243
X-12.062Y-16.668
X-12.062Y-19.093
X-12.062Y-21.518
X-12.062Y-23.943
X-12.062Y-26.368
X-12.062Y-28.793
X-12.062Y-31.217
X-12.062Y-33.642
X-12.062Y-36.067
X-12.062Y-38.492
X-12.062Y-40.917
X-12.062Y-43.342
X-12.062Y-45.767
X-12.062Y-48.192
X-12.062Y-50.616
X-12.062Y-53.041
X-11.362Y-0.907
X-11.362Y-3.331
X-11.362Y-5.756
X-11.362Y-8.181
X-11.362Y-10.606
X-11.362Y-13.031
X-11.362Y-15.456
X-11.362Y-17.881
X-11.362Y-20.306
X-11.362Y-22.73
X-11.362Y-25.155
X-11.362Y-27.58
X-11.362Y-30.005
X-11.362Y-32.43
X-11.362Y-34.855
X-11.362Y-37.28
X-11.362Y-39.705
X-11.362Y-42.129
X-11.362Y-44.554
X-11.362Y-46.979
X-11.362Y-49.404
X-11.362Y-51.829
X-11.362Y-54.254
X-10.662Y0.306
X-10.662Y-2.119
X-10.662Y-4.544
X-10.662Y-6.969
X-10.662Y-9.394
X-10.662Y-11.819
X-10.662Y-14.243
X-10.662Y-16.668
X-10.662Y-19.093
X-10.662Y-21.518
X-10.662Y-23.943
X-10.662Y-26.368
X-10.662Y-28.793
X-10.662Y-31.217
X-10.662Y-33.642
X-10.662Y-36.067
X-10.662Y-38.492
X-10.662Y-40.917
X-10.662Y-43.342
X-10.662Y-45.767
X-10.662Y-48.192
X-10.662Y-50.616
X-10.662Y-53.041
X-9.962Y-0.907
X-9.962Y-3.331
X-9.962Y-5.756
X-9.962Y-8.181
X-9.962Y-10.606
X-9.962Y-13.031
X-9.962Y-15.456
X-9.962Y-17.881
X-9.962Y-20.306
X-9.962Y-22.73
X-9.962Y-25.155
X-9.962Y-27.58
X-9.962Y-30.005
X-9.962Y-32.43
X-9.962Y-34.855
X-9.962Y-37.28
X-9.962Y-39.705
X-9.962Y-42.129
X-9.962Y-44.554
X-9.962Y-46.979
X-9.962Y-49.404
X-9.962Y-51.829
X-9.962Y-54.254
X-9.262Y0.306
X-9.262Y-2.119
X-9.262Y-4.544
X-9.262Y-6.969
X-9.262Y-9.394
X-9.262Y-11.819
X-9.262Y-14.243
X-9.262Y-16.668
X-9.262Y-19.093
X-9.262Y-21.518
X-9.262Y-23.943
X-9.262Y-26.368
X-9.262Y-28.793
X-9.262Y-31.217
X-9.262Y-33.642
X-9.262Y-36.067
X-9.262Y-38.492
X-9.262Y-40.917
X-9.262Y-43.342
X-9.262Y-45.767
X-9.262Y-48.192
X-9.262Y-50.616
X-9.262Y-53.041
X-8.562Y-0.907
X-8.562Y-3.331
X-8.562Y-5.756
X-8.562Y-8.181
X-8.562Y-10.606
X-8.562Y-13.031
X-8.562Y-15.456
X-8.562Y-17.881
X-8.562Y-20.306
X-8.562Y-22.73
X-8.562Y-25.155
X-8.562Y-27.58
X-8.562Y-30.005
X-8.562Y-32.43
X-8.562Y-34.855
X-8.562Y-37.28
X-8.562Y-39.705
X-8.562Y-42.129
X-8.562Y-44.554
X-8.562Y-46.979
X-8.562Y-49.404
X-8.562Y-51.829
X-8.562Y-54.254
X-7.862Y0.306
X-7.862Y-2.119
X-7.862Y-4.544
X-7.862Y-6.969
X-7.862Y-9.394
X-7.862Y-11.819
X-7.862Y-14.243
X-7.862Y-16.668
X-7.862Y-19.093
X-7.862Y-21.518
X-7.862Y-23.943
X-7.862Y-26.368
X-7.862Y-28.793
X-7.862Y-31.217
X-7.862Y-33.642
X-7.862Y-36.067
X-7.862Y-38.492
X-7.862Y-40.917
X-7.862Y-43.342
X-7.862Y-45.767
X-7.862Y-48.192
X-7.862Y-50.616
X-7.862Y-53.041
X-7.162Y-0.907
X-7.162Y-3.331
X-7.162Y-5.756
X-7.162Y-8.181
X-7.162Y-10.606
X-7.162Y-13.031
X-7.162Y-15.456
X-7.162Y-17.881
X-7.162Y-20.306
X-7.162Y-22.73
X-7.162Y-25.155
X-7.162Y-27.58
X-7.162Y-30.005
X-7.162Y-32.43
X-7.162Y-34.855
X-7.162Y-37.28
X-7.162Y-39.705
X-7.162Y-42.129
X-7.162Y-44.554
X-7.162Y-46.979
X-7.162Y-49.404
X-7.162Y-51.829
X-7.162Y-54.254
X-6.462Y0.306
X-6.462Y-2.119
X-6.462Y-4.544
X-6.462Y-6.969
X-6.462Y-9.394
X-6.462Y-11.819
X-6.462Y-14.243
X-6.462Y-16.668
X-6.462Y-19.093
X-6.462Y-21.518
X-6.462Y-23.943
X-6.462Y-26.368
X-6.462Y-28.793
X-6.462Y-31.217
X-6.462Y-33.642
X-6.462Y-36.067
X-6.462Y-38.492
X-6.462Y-40.917
X-6.462Y-43.342
X-6.462Y-45.767
X-6.462Y-48.192
X-6.462Y-50.616
X-6.462Y-53.041
X-5.762Y-0.907
X-5.762Y-3.331
X-5.762Y-5.756
X-5.762Y-8.181
X-5.762Y-10.606
X-5.762Y-13.031
X-5.762Y-15.456
X-5.762Y-17.881
X-5.762Y-20.306
X-5.762Y-22.73
X-5.762Y-25.155
X-5.762Y-27.58
X-5.762Y-30.005
X-5.762Y-32.43
X-5.762Y-34.855
X-5.762Y-37.28
X-5.762Y-39.705
X-5.762Y-42.129
X-5.762Y-44.554
X-5.762Y-46.979
X-5.762Y-49.404
X-5.762Y-51.829
X-5.762Y-54.254
X-5.062Y0.306
X-5.062Y-2.119
X-5.062Y-4.544
X-5.062Y-6.969
X-5.062Y-9.394
X-5.062Y-11.819
X-5.062Y-14.243
X-5.062Y-16.668
X-5.062Y-19.093
X-5.062Y-21.518
X-5.062Y-23.943
X-5.062Y-26.368
X-5.062Y-28.793
X-5.062Y-31.217
X-5.062Y-33.642
X-5.062Y-36.067
X-5.062Y-38.492
X-5.062Y-40.917
X-5.062Y-43.342
X-5.062Y-45.767
X-5.062Y-48.192
X-5.062Y-50.616
X-5.062Y-53.041
X-4.362Y-0.907
X-4.362Y-3.331
X-4.362Y-5.756
X-4.362Y-8.181
X-4.362Y-10.606
X-4.362Y-13.031
X-4.362Y-15.456
X-4.362Y-17.881
X-4.362Y-20.306
X-4.362Y-22.73
X-4.362Y-25.155
X-4.362Y-27.58
X-4.362Y-30.005
X-4.362Y-32.43
X-4.362Y-34.855
X-4.362Y-37.28
X-4.362Y-39.705
X-4.362Y-42.129
X-4.362Y-44.554
X-4.362Y-46.979
X-4.362Y-49.404
X-4.362Y-51.829
X-4.362Y-54.254
X-3.662Y0.306
X-3.662Y-2.119
X-3.662Y-4.544
X-3.662Y-6.969
X-3.662Y-9.394
X-3.662Y-11.819
X-3.662Y-14.243
X-3.662Y-16.668
X-3.662Y-19.093
X-3.662Y-21.518
X-3.662Y-23.943
X-3.662Y-26.368
X-3.662Y-28.793
X-3.662Y-31.217
X-3.662Y-33.642
X-3.662Y-36.067
X-3.662Y-38.492
X-3.662Y-40.917
X-3.662Y-43.342
X-3.662Y-45.767
X-3.662Y-48.192
X-3.662Y-50.616
X-3.662Y-53.041
X-2.962Y-0.907
X-2.962Y-3.331
X-2.962Y-5.756
X-2.962Y-8.181
X-2.962Y-10.606
X-2.962Y-13.031
X-2.962Y-15.456
X-2.962Y-17.881
X-2.962Y-20.306
X-2.962Y-22.73
X-2.962Y-25.155
X-2.962Y-27.58
X-2.962Y-30.005
X-2.962Y-32.43
X-2.962Y-34.855
X-2.962Y-37.28
X-2.962Y-39.705
X-2.962Y-42.129
X-2.962Y-44.554
X-2.962Y-46.979
X-2.962Y-49.404
X-2.962Y-51.829
X-2.962Y-54.254
X-2.262Y0.306
X-2.262Y-2.119
X-2.262Y-4.544
X-2.262Y-6.969
X-2.262Y-9.394
X-2.262Y-11.819
X-2.262Y-14.243
X-2.262Y-16.668
X-2.262Y-19.093
X-2.262Y-21.518
X-2.262Y-23.943
X-2.262Y-26.368
X-2.262Y-28.793
X-2.262Y-31.217
X-2.262Y-33.642
X-2.262Y-36.067
X-2.262Y-38.492
X-2.262Y-40.917
X-2.262Y-43.342
X-2.262Y-45.767
X-2.262Y-48.192
X-2.262Y-50.616
X-2.262Y-53.041
X-1.562Y-0.907
X-1.562Y-3.331
X-1.562Y-5.756
X-1.562Y-8.181
X-1.562Y-10.606
X-1.562Y-13.031
X-1.562Y-15.456
X-1.562Y-17.881
X-1.562Y-20.306
X-1.562Y-22.73
X-1.562Y-25.155
X-1.562Y-27.58
X-1.562Y-30.005
X-1.562Y-32.43
X-1.562Y-34.855
X-1.562Y-37.28
X-1.562Y-39.705
X-1.562Y-42.129
X-1.562Y-44.554
X-1.562Y-46.979
X-1.562Y-49.404
X-1.562Y-51.829
X-1.562Y-54.254
X-0.862Y0.306
X-0.862Y-2.119
X-0.862Y-4.544
X-0.862Y-6.969
X-0.862Y-9.394
X-0.862Y-11.819
X-0.862Y-14.243
X-0.862Y-16.668
X-0.862Y-19.093
X-0.862Y-21.518
X-0.862Y-23.943
X-0.862Y-26.368
X-0.862Y-28.793
X-0.862Y-31.217
X-0.862Y-33.642
X-0.862Y-36.067
X-0.862Y-38.492
X-0.862Y-40.917
X-0.862Y-43.342
X-0.862Y-45.767
X-0.862Y-48.192
X-0.862Y-50.616
X-0.862Y-53.041
X-0.162Y-0.907
X-0.162Y-3.331
X-0.162Y-5.756
X-0.162Y-8.181
X-0.162Y-10.606
X-0.162Y-13.031
X-0.162Y-15.456
X-0.162Y-17.881
X-0.162Y-20.306
X-0.162Y-22.73
X-0.162Y-25.155
X-0.162Y-27.58
X-0.162Y-30.005
X-0.162Y-32.43
X-0.162Y-34.855
X-0.162Y-37.28
X-0.162Y-39.705
X-0.162Y-42.129
X-0.162Y-44.554
X-0.162Y-46.979
X-0.162Y-49.404
X-0.162Y-51.829
X-0.162Y-54.254
X0.538Y-2.119
X0.538Y-4.544
X0.538Y-6.969
X0.538Y-9.394
X0.538Y-11.819
X0.538Y-14.243
X0.538Y-16.668
X0.538Y-19.093
X0.538Y-21.518
X0.538Y-23.943
X0.538Y-26.368
X0.538Y-28.793
X0.538Y-31.217
X0.538Y-33.642
X0.538Y-36.067
X0.538Y-38.492
X0.538Y-40.917
X0.538Y-43.342
X0.538Y-45.767
X0.538Y-48.192
X0.538Y-50.616
X0.538Y-53.041
X1.238Y-3.331
X1.238Y-5.756
X1.238Y-8.181
X1.238Y-10.606
X1.238Y-13.031
X1.238Y-15.456
X1.238Y-17.881
X1.238Y-20.306
X1.238Y-22.73
X1.238Y-25.155
X1.238Y-27.58
X1.238Y-30.005
X1.238Y-32.43
X1.238Y-34.855
X1.238Y-37.28
X1.238Y-39.705
X1.238Y-42.129
X1.238Y-44.554
X1.238Y-46.979
X1.238Y-49.404
X1.238Y-51.829
X1.238Y-54.254
X1.938Y-4.544
X1.938Y-6.969
X1.938Y-9.394
X1.938Y-11.819
X1.938Y-14.243
X1.938Y-16.668
X1.938Y-19.093
X1.938Y-21.518
X1.938Y-23.943
X1.938Y-26.368
X1.938Y-28.793
X1.938Y-31.217
X1.938Y-33.642
X1.938Y-36.067
X1.938Y-38.492
X1.938Y-40.917
X1.938Y-43.342
X1.938Y-45.767
X1.938Y-48.192
X1.938Y-50.616
X1.938Y-53.041
X2.638Y-5.756
X2.638Y-8.181
X2.638Y-10.606
X2.638Y-13.031
X2.638Y-15.456
X2.638Y-17.881
X2.638Y-20.306
X2.638Y-22.73
X2.638Y-25.155
X2.638Y-27.58
X2.638Y-30.005
X2.638Y-32.43
X2.638Y-34.855
X2.638Y-37.28
X2.638Y-39.705
X2.638Y-42.129
X2.638Y-44.554
X2.638Y-46.979
X2.638Y-49.404
X2.638Y-51.829
X2.638Y-54.254
X3.338Y-6.969
X3.338Y-9.394
X3.338Y-11.819
X3.338Y-14.243
X3.338Y-16.668
X3.338Y-19.093
X3.338Y-21.518
X3.338Y-23.943
X3.338Y-26.368
X3.338Y-28.793
X3.338Y-31.217
X3.338Y-33.642
X3.338Y-36.067
X3.338Y-38.492
X3.338Y-40.917
X3.338Y-43.342
X3.338Y-45.767
X3.338Y-48.192
X3.338Y-50.616
X3.338Y-53.041
X4.038Y-8.181
X4.038Y-10.606
X4.038Y-13.031
X4.038Y-15.456
X4.038Y-17.881
X4.038Y-20.306
X4.038Y-22.73
X4.038Y-25.155
X4.038Y-27.58
X4.038Y-30.005
X4.038Y-32.43
X4.038Y-34.855
X4.038Y-37.28
X4.038Y-39.705
X4.038Y-42.129
X4.038Y-44.554
X4.038Y-46.979
X4.038Y-49.404
X4.038Y-51.829
X4.038Y-54.254
X4.738Y-9.394
X4.738Y-11.819
X4.738Y-14.243
X4.738Y-16.668
X4.738Y-19.093
X4.738Y-21.518
X4.738Y-23.943
X4.738Y-26.368
X4.738Y-28.793
X4.738Y-31.217
X4.738Y-33.642
X4.738Y-36.067
X4.738Y-38.492
X4.738Y-40.917
X4.738Y-43.342
X4.738Y-45.767
X4.738Y-48.192
X4.738Y-50.616
X4.738Y-53.041
X5.438Y-10.606
X5.438Y-13.031
X5.438Y-15.456
X5.438Y-17.881
X5.438Y-20.306
X5.438Y-22.73
X5.438Y-25.155
X5.438Y-27.58
X5.438Y-30.005
X5.438Y-32.43
X5.438Y-34.855
X5.438Y-37.28
X5.438Y-39.705
X5.438Y-42.129
X5.438Y-44.554
X5.438Y-46.979
X5.438Y-49.404
X5.438Y-51.829
X5.438Y-54.254
X6.138Y-11.819
X6.138Y-14.243
X6.138Y-16.668
X6.138Y-19.093
X6.138Y-21.518
X6.138Y-23.943
X6.138Y-26.368
X6.138Y-28.793
X6.138Y-31.217
X6.138Y-33.642
X6.138Y-36.067
X6.138Y-38.492
X6.138Y-40.917
X6.138Y-43.342
X6.138Y-45.767
X6.138Y-48.192
X6.138Y-50.616
X6.138Y-53.041
X6.838Y-13.031
X6.838Y-15.456
X6.838Y-17.881
X6.838Y-20.306
X6.838Y-22.73
X6.838Y-25.155
X6.838Y-27.58
X6.838Y-30.005
X6.838Y-32.43
X6.838Y-34.855
X6.838Y-37.28
X6.838Y-39.705
X6.838Y-42.129
X6.838Y-44.554
X6.838Y-46.979
X6.838Y-49.404
X6.838Y-51.829
X6.838Y-54.254
X7.538Y-14.243
X7.538Y-16.668
X7.538Y-19.093
X7.538Y-21.518
X7.538Y-23.943
X7.538Y-26.368
X7.538Y-28.793
X7.538Y-31.217
X7.538Y-33.642
X7.538Y-36.067
X7.538Y-38.492
X7.538Y-40.917
X7.538Y-43.342
X7.538Y-45.767
X7.538Y-48.192
X7.538Y-50.616
X7.538Y-53.041
X8.238Y-15.456
X8.238Y-17.881
X8.238Y-20.306
X8.238Y-22.73
X8.238Y-25.155
X8.238Y-27.58
X8.238Y-30.005
X8.238Y-32.43
X8.238Y-34.855
X8.238Y-37.28
X8.238Y-39.705
X8.238Y-42.129
X8.238Y-44.554
X8.238Y-46.979
X8.238Y-49.404
X8.238Y-51.829
X8.238Y-54.254
X8.938Y-16.668
X8.938Y-19.093
X8.938Y-21.518
X8.938Y-23.943
X8.938Y-26.368
X8.938Y-28.793
X8.938Y-31.217
X8.938Y-33.642
X8.938Y-36.067
X8.938Y-38.492
X8.938Y-40.917
X8.938Y-43.342
X8.938Y-45.767
X8.938Y-48.192
X8.938Y-50.616
X8.938Y-53.041
X9.638Y-17.881
X9.638Y-20.306
X9.638Y-22.73
X9.638Y-25.155
X9.638Y-27.58
X9.638Y-30.005
X9.638Y-32.43
X9.638Y-34.855
X9.638Y-37.28
X9.638Y-39.705
X9.638Y-42.129
X9.638Y-44.554
X9.638Y-46.979
X9.638Y-49.404
X9.638Y-51.829
X9.638Y-54.254
X10.338Y-19.093
X10.338Y-21.518
X10.338Y-23.943
X10.338Y-26.368
X10.338Y-28.793
X10.338Y-31.217
X10.338Y-33.642
X10.338Y-36.067
X10.338Y-38.492
X10.338Y-40.917
X10.338Y-43.342
X10.338Y-45.767
X10.338Y-48.192
X10.338Y-50.616
X10.338Y-53.041
X11.038Y-20.306
X11.038Y-22.73
X11.038Y-25.155
X11.038Y-27.58
X11.038Y-30.005
X11.038Y-32.43
X11.038Y-34.855
X11.038Y-37.28
X11.038Y-39.705
X11.038Y-42.129
X11.038Y-44.554
X11.038Y-46.979
X11.038Y-49.404
X11.038Y-51.829
X11.038Y-54.254
X11.738Y-21.518
X11.738Y-23.943
X11.738Y-26.368
X11.738Y-28.793
X11.738Y-31.217
X11.738Y-33.642
X11.738Y-36.067
X11.738Y-38.492
X11.738Y-40.917
X11.738Y-43.342
X11.738Y-45.767
X11.738Y-48.192
X11.738Y-50.616
X11.738Y-53.041
X12.438Y-22.73
X12.438Y-25.155
X12.438Y-27.58
X12.438Y-30.005
X12.438Y-32.43
X12.438Y-34.855
X12.438Y-37.28
X12.438Y-39.705
X12.438Y-42.129
X12.438Y-44.554
X12.438Y-46.979
X12.438Y-49.404
X12.438Y-51.829
X12.438Y-54.254
X13.138Y-23.943
X13.138Y-26.368
X13.138Y-28.793
X13.138Y-31.217
X13.138Y-33.642
X13.138Y-36.067
X13.138Y-38.492
X13.138Y-40.917
X13.138Y-43.342
X13.138Y-45.767
X13.138Y-48.192
X13.138Y-50.616
X13.138Y-53.041
X13.838Y-25.155
X13.838Y-27.58
X13.838Y-30.005
X13.838Y-32.43
X13.838Y-34.855
X13.838Y-37.28
X13.838Y-39.705
X13.838Y-42.129
X13.838Y-44.554
X13.838Y-46.979
X13.838Y-49.404
X13.838Y-51.829
X13.838Y-54.254
X14.538Y-26.368
X14.538Y-28.793
X14.538Y-31.217
X14.538Y-33.642
X14.538Y-36.067
X14.538Y-38.492
X14.538Y-40.917
X14.538Y-43.342
X14.538Y-45.767
X14.538Y-48.192
X14.538Y-50.616
X14.538Y-53.041
X15.238Y-27.58
X15.238Y-30.005
X15.238Y-32.43
X15.238Y-34.855
X15.238Y-37.28
X15.238Y-39.705
X15.238Y-42.129
X15.238Y-44.554
X15.238Y-46.979
X15.238Y-49.404
X15.238Y-51.829
X15.238Y-54.254
X15.938Y-28.793
X15.938Y-31.217
X15.938Y-33.642
X15.938Y-36.067
X15.938Y-38.492
X15.938Y-40.917
X15.938Y-43.342
X15.938Y-45.767
X15.938Y-48.192
X15.938Y-50.616
X15.938Y-53.041
X16.638Y-30.005
X16.638Y-32.43
X16.638Y-34.855
X16.638Y-37.28
X16.638Y-39.705
X16.638Y-42.129
X16.638Y-44.554
X16.638Y-46.979
X16.638Y-49.404
X16.638Y-51.829
X16.638Y-54.254
X17.338Y-31.217
X17.338Y-33.642
X17.338Y-36.067
X17.338Y-38.492
X17.338Y-40.917
X17.338Y-43.342
X17.338Y-45.767
X17.338Y-48.192
X17.338Y-50.616
X17.338Y-53.041
X18.038Y-32.43
X18.038Y-34.855
X18.038Y-37.28
X18.038Y-39.705
X18.038Y-42.129
X18.038Y-44.554
X18.038Y-46.979
X18.038Y-49.404
X18.038Y-51.829
X18.038Y-54.254
X18.738Y-33.642
X18.738Y-36.067
X18.738Y-38.492
X18.738Y-40.917
X18.738Y-43.342
X18.738Y-45.767
X18.738Y-48.192
X18.738Y-50.616
X18.738Y-53.041
X19.438Y-34.855
X19.438Y-37.28
X19.438Y-39.705
X19.438Y-42.129
X19.438Y-44.554
X19.438Y-46.979
X19.438Y-49.404
X19.438Y-51.829
X19.438Y-54.254
X20.138Y-36.067
X20.138Y-38.492
X20.138Y-40.917
X20.138Y-43.342
X20.138Y-45.767
X20.138Y-48.192
X20.138Y-50.616
X20.138Y-53.041
X20.838Y-37.28
X20.838Y-39.705
X20.838Y-42.129
X20.838Y-44.554
X20.838Y-46.979
X20.838Y-49.404
X20.838Y-51.829
X20.838Y-54.254
X21.538Y-38.492
X21.538Y-40.917
X21.538Y-43.342
X21.538Y-45.767
X21.538Y-48.192
X21.538Y-50.616
X21.538Y-53.041
X22.238Y-39.705
X22.238Y-42.129
X22.238Y-44.554
X22.238Y-46.979
X22.238Y-49.404
X22.238Y-51.829
X22.238Y-54.254
X22.938Y-40.917
X22.938Y-43.342
X22.938Y-45.767
X22.938Y-48.192
X22.938Y-50.616
X22.938Y-53.041
X23.638Y-42.129
X23.638Y-44.554
X23.638Y-46.979
X23.638Y-49.404
X23.638Y-51.829
X23.638Y-54.254
X24.338Y-43.342
X24.338Y-45.767
X24.338Y-48.192
X24.338Y-50.616
X24.338Y-53.041
X25.038Y-44.554
X25.038Y-46.979
X25.038Y-49.404
X25.038Y-51.829
X25.038Y-54.254
X25.738Y-45.767
X25.738Y-48.192
X25.738Y-50.616
X25.738Y-53.041
X26.438Y-46.979
X26.438Y-49.404
X26.438Y-51.829
X26.438Y-54.254
X27.138Y-48.192
X27.138Y-50.616
X27.138Y-53.041
X27.838Y-49.404
X27.838Y-51.829
X27.838Y-54.254
X28.538Y-50.616
X28.538Y-53.041
X29.238Y-51.829
X29.238Y-54.254
X29.938Y-53.041
X30.638Y-54.254
M30
